<?xml version="1.0" encoding="utf-8"?>
<!-- Generator: Adobe Illustrator 16.0.0, SVG Export Plug-In . SVG Version: 6.00 Build 0)  -->
<!DOCTYPE svg PUBLIC "-//W3C//DTD SVG 1.1//EN" "http://www.w3.org/Graphics/SVG/1.1/DTD/svg11.dtd">
<svg version="1.1" id="Capa_1" xmlns="http://www.w3.org/2000/svg" xmlns:xlink="http://www.w3.org/1999/xlink" x="0px" y="0px"
	 width="100px" height="100px" viewBox="0 0 100 100" enable-background="new 0 0 100 100" xml:space="preserve">
<path d="M56.993,31.54c-4.171,1.516-6.807,5.432-6.506,9.715l0.101,1.656l-1.67-0.202c-6.072-0.778-11.378-3.406-15.884-7.831
	l-2.204-2.191l-0.567,1.619c-1.2,3.613-0.432,7.423,2.069,9.99c1.334,1.416,1.034,1.618-1.266,0.775
	c-0.803-0.271-1.503-0.474-1.571-0.37c-0.232,0.236,0.568,3.307,1.201,4.52c0.869,1.686,2.637,3.337,4.571,4.318l1.636,0.773
	l-1.934,0.035c-1.869,0-1.935,0.034-1.734,0.743c0.667,2.193,3.303,4.524,6.24,5.535l2.068,0.71l-1.802,1.079
	c-2.668,1.557-5.806,2.43-8.944,2.494c-1.502,0.034-2.737,0.168-2.737,0.271c0,0.336,4.071,2.224,6.44,2.972
	c7.107,2.193,15.552,1.243,21.893-2.498c4.505-2.666,9.01-7.965,11.112-13.095c1.136-2.731,2.271-7.724,2.271-10.121
	c0-1.552,0.1-1.754,1.969-3.612c1.101-1.08,2.134-2.258,2.336-2.598c0.333-0.641,0.3-0.641-1.402-0.069
	c-2.838,1.015-3.238,0.877-1.835-0.636c1.036-1.083,2.271-3.038,2.271-3.612c0-0.099-0.501,0.066-1.069,0.37
	c-0.6,0.34-1.936,0.845-2.937,1.148l-1.803,0.576l-1.634-1.116c-0.902-0.608-2.167-1.281-2.836-1.483
	C61.132,30.931,58.529,30.998,56.993,31.54z M50.357,97.979C23.97,97.979,2.58,76.588,2.58,50.2
	c0-26.389,21.391-47.777,47.777-47.777c26.386,0,47.78,21.388,47.78,47.777C98.137,76.588,76.743,97.979,50.357,97.979z"/>
</svg>
