<?xml version="1.0" encoding="utf-8"?>
<!-- Generator: Adobe Illustrator 16.0.0, SVG Export Plug-In . SVG Version: 6.00 Build 0)  -->
<!DOCTYPE svg PUBLIC "-//W3C//DTD SVG 1.1//EN" "http://www.w3.org/Graphics/SVG/1.1/DTD/svg11.dtd">
<svg version="1.1" id="Capa_1" xmlns="http://www.w3.org/2000/svg" xmlns:xlink="http://www.w3.org/1999/xlink" x="0px" y="0px"
	 width="100px" height="100px" viewBox="0 0 100 100" enable-background="new 0 0 100 100" xml:space="preserve">
<path d="M43.839,76.411h10.708V50.495h7.144l0.946-8.935h-8.09l0.011-4.47c0-2.328,0.224-3.578,3.563-3.578h4.467v-8.931h-7.146
	c-8.583,0-11.603,4.333-11.603,11.618v5.362h-5.35v8.935h5.35V76.411z M50.563,98.133c-26.309,0-47.637-21.327-47.637-47.638
	c0-26.311,21.329-47.636,47.637-47.636c26.31,0,47.637,21.325,47.637,47.636C98.2,76.806,76.873,98.133,50.563,98.133z"/>
</svg>
