<?xml version="1.0" encoding="utf-8"?>
<!-- Generator: Adobe Illustrator 16.0.0, SVG Export Plug-In . SVG Version: 6.00 Build 0)  -->
<!DOCTYPE svg PUBLIC "-//W3C//DTD SVG 1.1//EN" "http://www.w3.org/Graphics/SVG/1.1/DTD/svg11.dtd">
<svg version="1.1" id="Capa_1" xmlns="http://www.w3.org/2000/svg" xmlns:xlink="http://www.w3.org/1999/xlink" x="0px" y="0px"
	 width="100px" height="100px" viewBox="0 0 100 100" enable-background="new 0 0 100 100" xml:space="preserve">
<g id="black_1_">
	<g id="google_x2B_">
		<path id="Google_x2B_" fill="#010202" d="M50.389,98.224c26.454,0,47.902-21.446,47.902-47.902
			c0-26.456-21.448-47.903-47.902-47.903c-26.455,0-47.903,21.447-47.903,47.903C2.486,76.777,23.932,98.224,50.389,98.224z"/>
		<path id="g_x2B_" fill="#FFFFFF" d="M47.135,46.119c1.563-1.567,1.697-3.747,1.697-4.973c0-4.899-2.927-12.527-8.58-12.527
			c-1.769,0-3.678,0.886-4.767,2.249c-1.159,1.43-1.498,3.265-1.498,5.037c0,4.56,2.654,12.122,8.511,12.122
			C44.204,48.023,46.043,47.206,47.135,46.119L47.135,46.119z M45.158,59.054c-0.545-0.068-0.886-0.068-1.563-0.068
			c-0.616,0-4.292,0.137-7.152,1.091c-1.498,0.549-5.855,2.177-5.855,7.016s4.698,8.307,11.983,8.307
			c6.541,0,10.013-3.131,10.013-7.351C52.581,64.569,50.333,62.73,45.158,59.054L45.158,59.054z M65.125,52.164h-7.368v-3.688h7.368
			v-7.368h3.688v7.368h7.368v3.688h-7.368v7.37h-3.688V52.164z M49.993,28.821c1.563,1.294,4.833,4.017,4.833,9.194
			c0,5.04-2.861,7.422-5.719,9.668c-0.885,0.886-1.905,1.84-1.905,3.336c0,1.499,1.023,2.317,1.766,2.929l2.454,1.905
			c2.998,2.519,5.72,4.834,5.72,9.534c0,6.399-6.197,12.872-17.911,12.872c-9.872,0-14.639-4.695-14.639-9.741
			c0-2.451,1.227-5.922,5.246-8.308c4.22-2.587,9.942-2.926,13.006-3.132c-0.955-1.226-2.042-2.52-2.042-4.628
			c0-1.16,0.34-1.837,0.681-2.655c-0.75,0.067-1.498,0.137-2.18,0.137C32.085,49.933,28,44.55,28,39.244
			c0-3.131,1.431-6.608,4.357-9.125c3.882-3.202,8.511-3.747,12.189-3.747h14.025l-4.357,2.45H49.993L49.993,28.821z"/>
	</g>
</g>
</svg>
