<?xml version="1.0" standalone="no"?>
<!DOCTYPE svg PUBLIC "-//W3C//DTD SVG 1.1//EN" "http://www.w3.org/Graphics/SVG/1.1/DTD/svg11.dtd" >
<svg>
<metadata>
Created by FontForge 20110222 at Sat Mar 14 16:57:46 2015
 By deploy user
Typeface (c) Teabeer Studios. 2009. All Rights Reserved
</metadata>
<defs>
<font id="IndyPimp" horiz-adv-x="1139" >
  <font-face 
    font-family="Indy Pimp"
    font-weight="400"
    font-stretch="normal"
    units-per-em="2048"
    panose-1="2 0 0 0 0 0 0 0 0 0"
    ascent="1638"
    descent="-410"
    x-height="1846"
    cap-height="1849"
    bbox="-8 -186 1696 1868"
    underline-thickness="150"
    underline-position="-142"
    unicode-range="U+0020-F005"
  />
<missing-glyph horiz-adv-x="1536" 
d="M256 0v1280h1024v-1280h-1024zM288 32h960v1216h-960v-1216z" />
    <glyph glyph-name=".notdef" horiz-adv-x="1536" 
d="M256 0v1280h1024v-1280h-1024zM288 32h960v1216h-960v-1216z" />
    <glyph glyph-name=".null" horiz-adv-x="0" 
 />
    <glyph glyph-name="nonmarkingreturn" horiz-adv-x="569" 
 />
    <glyph glyph-name="space" unicode=" " horiz-adv-x="569" 
 />
    <glyph glyph-name="space" unicode="&#xa0;" horiz-adv-x="569" 
 />
    <glyph glyph-name="exclam" unicode="!" horiz-adv-x="455" 
d="M230 1856h47q71 -5 71 -28q0 -38 -192 -1448l-3 -3h-61q-24 0 -31 15l89 1455q13 9 80 9zM89 217q57 0 64 -77v-19q-17 -121 -54 -121h-3q-43 20 -80 29q-16 15 -16 48v22q0 102 26 102q31 16 63 16z" />
    <glyph glyph-name="quotedbl" unicode="&#x22;" horiz-adv-x="671" 
d="M135 1842h27q49 0 116 -26q-147 -388 -184 -406h-15q-30 0 -49 49q77 379 86 379zM489 1801q53 0 173 -42v-7q-288 -361 -327 -391l-12 -4q-32 0 -79 53v7l211 376z" />
    <glyph glyph-name="numbersign" unicode="#" horiz-adv-x="919" 
d="M344 1847l3 -3v-3l-15 -125h218q6 125 16 125q130 -2 130 -6l-12 -119l21 3h113l6 -6q-27 -109 -37 -109h-9l-106 3l-31 -270l128 -3q15 -8 15 -31q0 -73 -15 -82h-140l-21 -182h-18q-37 0 -94 30l12 149h-240v-3q-13 -133 -24 -133h-7q-41 0 -94 33v3q3 71 9 97l-3 3
h-33l-30 -3l-6 9v19q8 88 24 88l58 3l27 285h-43l-106 3l-3 3q11 88 18 88h91l52 3q9 125 18 125zM319 1616l-36 -282h191l46 3v3l21 270l-188 3z" />
    <glyph glyph-name="dollar" unicode="$" 
d="M355 1844l124 -4l4 -4l-4 -20v-28l-4 -4v-4h8q63 0 153 -20q8 76 16 76q156 -13 156 -24l-12 -96h4q116 -44 212 -92v-8l-88 -104q-69 40 -148 68l-28 -172q200 0 272 -97q20 -26 20 -68v-8q0 -138 -160 -260q-83 -44 -208 -64q-14 -120 -32 -120h-12q-31 0 -85 56l4 64
h-4l-152 12q-10 -132 -32 -132q-43 0 -112 64l8 88q-228 37 -228 60l-4 20q0 46 96 148l156 -44l16 160h-4q-256 43 -256 185q0 118 172 248q60 32 136 52q8 72 16 72zM491 1632h-28l-20 -220l157 -8l24 220l-109 12zM219 1488q0 -34 88 -56v4l16 152h-4q-91 -54 -100 -100z
M427 1271l-16 -172l157 -24l20 204h-4q-157 -2 -157 -8zM728 1279v-4l-24 -204q112 0 152 68l16 60v20q0 52 -140 60h-4z" />
    <glyph glyph-name="percent" unicode="%" horiz-adv-x="1089" 
d="M207 1851h9q187 0 223 -96q16 -35 16 -83q-24 -281 -48 -281q-65 -79 -155 -79q-86 0 -179 44q-73 40 -73 217v4q0 210 130 258q42 16 77 16zM634 1841q133 -13 143 -19v-3q-342 -1402 -448 -1806q-16 -13 -36 -13q-50 0 -106 35v3l443 1800zM94 1570q0 -127 126 -147
q65 0 126 64q20 35 20 70q-19 192 -106 192h-44q-90 0 -118 -128zM704 514q203 -20 203 -42q37 -102 37 -217q0 -226 -232 -226q-204 0 -204 166q28 236 57 236q63 83 139 83zM606 310q50 -201 81 -201h12q71 15 139 124q15 24 20 67q0 75 -122 128q-130 -39 -130 -118z" />
    <glyph glyph-name="ampersand" unicode="&#x26;" 
d="M365 1836l3 3h3q119 -11 119 -19v-135q178 -57 249 -177q33 -68 33 -114v-21q0 -98 -92 -212q33 10 62 10q135 0 254 -178q49 -102 49 -199v-22q0 -217 -184 -383q-71 -56 -168 -101q-87 -30 -144 -40v-92l-4 -144l-125 -12l-3 3v248q-115 13 -261 138q-125 137 -156 212
q0 31 116 128l62 -113q96 -135 141 -135q148 -49 263 -49q270 0 270 279q-16 222 -49 254q-48 62 -166 62q-43 0 -153 -19q-12 14 -12 43v9q190 193 190 310q0 106 -162 147q-47 15 -111 15q-124 0 -242 -101h-3l-119 86v6q214 172 352 172l9 3z" />
    <glyph glyph-name="quotesingle" unicode="'" horiz-adv-x="391" 
d="M49 1839h65q78 0 181 -39q-92 -594 -142 -594h-33q-49 0 -90 39v575z" />
    <glyph glyph-name="parenleft" unicode="(" horiz-adv-x="682" 
d="M361 1857q28 0 79 -105q-142 -141 -181 -262q-108 -246 -108 -578v-13q0 -526 390 -817l7 -10v-3q0 -37 -115 -69q-147 119 -226 240q-207 326 -207 744q0 600 315 850z" />
    <glyph glyph-name="parenright" unicode=")" horiz-adv-x="682" 
d="M188 0q-28 0 -79 106q142 142 181 264q109 246 109 580v13q0 529 -392 822l-7 10v3q0 37 115 69q149 -119 228 -240q208 -329 208 -749q0 -604 -317 -855z" />
    <glyph glyph-name="asterisk" unicode="*" horiz-adv-x="573" 
d="M149 1831h5q152 -31 152 -46v-133l-5 -55l170 179q73 -100 73 -120l-188 -197l152 -152v-9l-124 -55q-128 178 -143 188l-160 -174h-5q-69 52 -69 60v4l110 147l-105 129v9l50 83l101 -56v5z" />
    <glyph glyph-name="plus" unicode="+" horiz-adv-x="1093" 
d="M416 1414q120 -6 120 -20l4 -356l380 20q28 -51 28 -92v-4q0 -51 -68 -60l-340 -36v-4l4 -356q-17 -16 -32 -16h-28q-58 0 -136 24v340l-4 -4h-4l-340 -20l-4 4l-4 128v36q0 12 356 28v352q0 36 68 36z" />
    <glyph glyph-name="comma" unicode="," horiz-adv-x="324" 
d="M107 324q152 -13 152 -32q-146 -327 -164 -352h-64l-8 8q72 346 84 376z" />
    <glyph glyph-name="hyphen" unicode="-" horiz-adv-x="682" 
d="M628 1046h28q9 0 15 -84v-17q0 -41 -76 -41q-243 -28 -593 -53q-6 0 -10 101v28q0 25 30 25q356 31 606 41z" />
    <glyph glyph-name="hyphen" unicode="&#xad;" horiz-adv-x="682" 
d="M628 1046h28q9 0 15 -84v-17q0 -41 -76 -41q-243 -28 -593 -53q-6 0 -10 101v28q0 25 30 25q356 31 606 41z" />
    <glyph glyph-name="period" unicode="." horiz-adv-x="301" 
d="M72 219q114 -27 114 -52q17 -13 17 -43q-26 -124 -72 -124q-65 0 -124 75l-7 23q0 49 72 121z" />
    <glyph glyph-name="slash" unicode="/" horiz-adv-x="569" 
d="M334 1867q51 0 123 -25q-19 -137 -309 -1836l-9 -6h-19q-55 13 -120 69q297 1785 302 1792z" />
    <glyph glyph-name="zero" unicode="0" horiz-adv-x="974" 
d="M513 1858q222 0 287 -232q58 -200 58 -703v-33q0 -890 -377 -890h-39q-253 0 -371 435q-71 293 -71 649q0 506 248 713q69 58 246 58zM139 1213v-136q0 -424 48 -548q119 -332 271 -332h19q170 0 223 367q13 88 19 430q0 551 -196 674q-41 22 -78 22q-74 -5 -184 -106
q-122 -140 -122 -371z" />
    <glyph glyph-name="one" unicode="1" horiz-adv-x="472" 
d="M220 1851l3 -10l128 -3l3 -3l-92 -1819q-37 -16 -86 -16h-20q-11 0 -25 13l76 1691h-3l-159 -83q-45 69 -45 109q0 30 131 80z" />
    <glyph glyph-name="two" unicode="2" 
d="M394 1858h35q237 0 371 -210q42 -93 42 -180v-16q0 -246 -290 -584q-192 -270 -278 -468q-69 -181 -74 -252h3l736 33q38 -45 38 -65v-16q0 -52 -187 -65q-224 -19 -709 -35q-75 94 -81 142q64 224 126 345q61 154 235 439q216 303 216 319q52 95 52 178q0 152 -206 216
l-68 9h-32q-134 0 -220 -125h-9q-88 57 -88 87q41 122 178 196q99 52 210 52z" />
    <glyph glyph-name="three" unicode="3" horiz-adv-x="1066" 
d="M337 1850h33q186 0 347 -165q66 -93 66 -175q0 -145 -172 -311q175 -70 261 -241q56 -125 56 -251v-43q0 -336 -145 -545q-101 -119 -254 -119q-204 0 -499 198q-13 19 -13 33q0 44 66 113q249 -169 399 -169h17q138 0 188 145q79 228 79 334q0 122 -115 311
q-71 72 -188 72h-14l-76 -6q-29 79 -29 129q0 49 46 49q26 0 132 103q96 107 96 191q0 142 -235 205l-39 3q-130 0 -225 -175q-119 44 -119 93q134 221 337 221z" />
    <glyph glyph-name="four" unicode="4" horiz-adv-x="881" 
d="M631 1862h23q53 0 102 -16l-3 -26q-35 -1412 -61 -1798q-16 -22 -38 -22q-39 0 -87 29l13 948h-3q-38 -6 -106 -6h-26l-442 16l-3 3v3l61 850q12 11 32 13q112 -10 112 -20q-19 -150 -70 -695l448 -26l13 734q17 13 35 13z" />
    <glyph glyph-name="five" unicode="5" horiz-adv-x="957" 
d="M749 1852q16 -33 16 -108v-10q0 -12 -13 -26l-312 -4h-279l-10 -466l33 3h16q540 0 660 -351q20 -80 20 -158v-3q0 -498 -673 -706l-102 -23q-75 52 -82 82q0 28 92 53q588 240 588 518q0 106 -96 260q-124 167 -433 167l-161 -6l-3 3l3 16l-3 519v79l-3 13l3 10l-10 85
q3 28 13 43z" />
    <glyph glyph-name="six" unicode="6" 
d="M741 1845q102 -50 102 -83v-6q0 -11 -141 -71q-162 -63 -313 -204q-143 -142 -194 -367l-13 -70q288 210 476 210q151 0 213 -191q109 -282 109 -597q0 -340 -144 -431q-67 -35 -159 -35q-187 0 -444 134q-233 163 -233 457v15q0 604 163 837q150 259 574 402h4zM150 709
v-58q0 -343 239 -444q104 -41 198 -41q161 0 198 109q45 134 45 316v15q0 323 -172 412q-45 19 -93 19h-22q-137 0 -383 -169q-10 -64 -10 -159z" />
    <glyph glyph-name="seven" unicode="7" horiz-adv-x="863" 
d="M700 1861q7 -20 7 -84v-26l3 -20q-164 -276 -269 -551q-165 -461 -165 -810v-52q0 -150 35 -315l-3 -3h-6q-46 0 -140 39q-26 153 -26 308q0 661 373 1365l-55 6h-88q-150 0 -350 -9q-6 0 -16 139l3 3h3z" />
    <glyph glyph-name="eight" unicode="8" horiz-adv-x="1060" 
d="M481 1850h36q240 0 306 -168q26 -84 26 -174q0 -329 -103 -417v-3q164 -91 164 -416q0 -496 -167 -624q-69 -48 -255 -48h-133q-216 0 -278 126q-77 145 -77 426v107q0 352 171 452q-100 74 -100 323v9q0 324 200 378q83 29 210 29zM215 1462v-36q0 -206 123 -244
q65 -18 142 -18h34q148 0 179 122q19 75 19 209q0 150 -81 196q-51 33 -142 33q-185 0 -238 -92q-36 -64 -36 -170zM144 615v-18q0 -345 105 -416q44 -31 111 -31h147q155 0 197 115q55 132 55 366v56q0 224 -122 294q-57 34 -169 34h-66q-158 0 -205 -93q-53 -95 -53 -307z
" />
    <glyph glyph-name="nine" unicode="9" horiz-adv-x="970" 
d="M532 1857q150 0 314 -60l6 -45q0 -370 -129 -1644q-15 -108 -61 -108h-6q-30 3 -67 38l99 1125q-160 -25 -279 -25h-38q-263 0 -346 133q-23 42 -25 98q0 139 127 314q149 174 405 174zM203 1372q0 -67 152 -92l79 -3h54q105 0 212 16l32 371q-84 22 -158 22h-26
q-242 0 -329 -238z" />
    <glyph glyph-name="colon" unicode=":" horiz-adv-x="362" 
d="M112 976q152 0 152 -96q-21 -116 -88 -116h-12q-128 12 -128 64v4q0 74 72 144h4zM76 196q144 -56 144 -72l4 -20v-8q0 -75 -104 -96h-20q-85 0 -100 64v4q0 55 76 128z" />
    <glyph glyph-name="semicolon" unicode=";" horiz-adv-x="347" 
d="M91 987q152 0 152 -96q-21 -116 -88 -116h-12q-128 12 -128 64v4q0 74 72 144h4zM55 207q133 -53 144 -68v-16q0 -105 -156 -240l-24 -4l-4 12q32 303 40 316z" />
    <glyph glyph-name="semicolon" unicode="&#x37e;" horiz-adv-x="347" 
d="M91 987q152 0 152 -96q-21 -116 -88 -116h-12q-128 12 -128 64v4q0 74 72 144h4zM55 207q133 -53 144 -68v-16q0 -105 -156 -240l-24 -4l-4 12q32 303 40 316z" />
    <glyph glyph-name="less" unicode="&#x3c;" horiz-adv-x="979" 
d="M681 1850h7q151 -43 151 -97v-10q0 -43 -219 -274q-20 -30 -310 -336l-145 -155q647 -773 691 -833q-58 -145 -88 -145l-768 969v3z" />
    <glyph glyph-name="equal" unicode="=" horiz-adv-x="1040" 
d="M825 1255h59q42 0 42 -25v-94q0 -42 -24 -42l-880 -84q-7 15 -7 45v95q0 45 32 45q586 60 778 60zM891 883q32 -82 32 -129q-10 -25 -95 -25q-154 -28 -778 -119q-31 91 -31 133v28q0 18 129 25z" />
    <glyph glyph-name="greater" unicode="&#x3e;" horiz-adv-x="979" 
d="M174 0h-6q-152 43 -152 97v10q0 43 220 274q20 30 310 336l145 155q-647 773 -691 833q58 145 87 145l769 -969v-3z" />
    <glyph glyph-name="question" unicode="?" horiz-adv-x="946" 
d="M284 1855h42q150 -3 348 -123q178 -140 178 -393v-39q0 -201 -145 -387q-45 -70 -181 -219q-42 -142 -42 -226q0 -25 16 -100q0 -23 -32 -23q-58 0 -149 52l-6 103v3q0 311 216 426q148 136 148 355q0 227 -164 329q-73 39 -129 39h-16q-167 0 -207 -303
q-6 -204 -32 -204l-13 -3q-44 0 -110 87l-6 116q0 367 174 478q57 32 110 32zM377 187q139 -14 139 -35l20 -146l-10 -6h-13q-165 11 -165 29l-12 145q12 13 41 13z" />
    <glyph glyph-name="at" unicode="@" horiz-adv-x="1797" 
d="M810 1853h34q520 0 718 -394q92 -204 92 -520q0 -463 -254 -770q-63 -14 -122 -14q-275 0 -372 272q-2 30 -11 30q-99 -85 -188 -85h-22q-161 0 -247 232q-29 87 -29 195q0 273 147 361q55 30 126 30q67 0 162 -37l-8 96l4 4h162l4 -4h3l-3 -166v-40q0 -526 84 -667
q34 -48 129 -48q123 0 221 250q96 218 96 406q0 437 -516 585q-191 48 -327 48q-345 0 -461 -280q-51 -128 -51 -291q0 -297 151 -541q202 -347 453 -347l95 11q55 0 63 -66v-33q0 -44 -26 -44q-86 -26 -173 -26q-405 0 -648 501q-96 233 -96 475q0 420 239 711
q68 81 247 125q172 41 324 41zM586 726q0 -145 114 -173h11q71 0 166 99l-19 262q-53 33 -106 33h-12q-95 0 -140 -125q-14 -45 -14 -96z" />
    <glyph glyph-name="A" unicode="A" horiz-adv-x="1201" 
d="M435 1848h3q45 0 136 -85l423 -1709q-76 -54 -123 -54h-10q-46 0 -63 107l-107 423h-3q-412 -51 -442 -60q-82 -338 -113 -423l-4 -3h-18q-39 4 -114 51q407 1726 416 1747zM486 1419l-183 -744l347 41v3l-161 700h-3z" />
    <glyph glyph-name="B" unicode="B" horiz-adv-x="1013" 
d="M298 1852q404 0 517 -184q29 -48 29 -114q0 -240 -324 -393v-3q142 -17 244 -96q114 -88 114 -317q0 -421 -288 -615q-197 -120 -431 -120l-4 -4v-3l-79 -3q-73 0 -73 29v237l-3 1554q75 26 124 26h22l3 -4q19 6 149 10zM168 1665l3 -64v-355l-3 -47q463 162 463 361v7
q0 72 -168 98l-117 6h-48q-81 0 -130 -6zM168 1040l-6 -815l38 -3q348 0 456 295q42 115 42 260v6q0 199 -203 260q-48 13 -149 19q-161 -8 -178 -22z" />
    <glyph glyph-name="C" unicode="C" horiz-adv-x="1100" 
d="M843 1857q35 0 35 -10l-54 -278q-34 -16 -63 -16h-26q-22 0 -35 161q-165 -31 -260 -72q-149 -79 -199 -200q-64 -130 -64 -396v-133q0 -399 29 -457q49 -155 158 -215q92 -51 213 -51q114 0 294 57q32 -66 32 -98v-13q0 -47 -98 -69q-169 -67 -320 -67q-389 0 -469 532
q-16 138 -16 270q0 274 63 713q10 67 111 174q202 168 669 168z" />
    <glyph glyph-name="D" unicode="D" horiz-adv-x="967" 
d="M149 1852h6q490 0 650 -463q48 -155 48 -355v-10q0 -609 -491 -913q-94 -56 -207 -95q0 -10 -41 -16q-83 8 -104 22l-7 1786l-3 12q0 26 63 26h10l54 -4q0 10 22 10zM178 1659v-188l-7 -1211l-3 -13h3q57 9 191 95q301 233 301 727q0 438 -305 561q-87 29 -158 29h-22z
" />
    <glyph glyph-name="E" unicode="E" horiz-adv-x="987" 
d="M32 1855q786 -8 786 -44q19 -7 19 -89q0 -38 -57 -38l-371 6q-184 -3 -209 -16l3 -228v-520l444 -16q25 -48 25 -89v-3q0 -54 -101 -54q-14 -9 -371 -12v-387l-3 -181h3l330 3q285 0 285 -19q19 -32 19 -82v-51l-6 -6l-673 -29q-94 6 -155 25v1817q0 8 32 13z" />
    <glyph glyph-name="F" unicode="F" horiz-adv-x="949" 
d="M32 1852q786 -8 786 -44q19 -7 19 -89q0 -38 -57 -38l-371 6q-184 -3 -209 -16l3 -228v-520l444 -16q25 -48 25 -89v-3q0 -54 -101 -54q-14 -9 -371 -13v-228l-7 -498q-7 -22 -38 -22h-22q-55 0 -133 22v1817q0 8 32 13z" />
    <glyph glyph-name="G" unicode="G" horiz-adv-x="1167" 
d="M591 1850q188 0 355 -61q-26 -132 -32 -139q-94 16 -149 16h-19l-13 3l-13 -3h-13q-369 0 -504 -394q-38 -158 -38 -261q0 -464 77 -595q103 -235 300 -235h33q199 0 271 187q22 68 22 139v48q0 7 -9 7q-315 13 -333 55q-12 19 -16 51l10 49q508 -26 533 -33
q-29 -413 -49 -413q-53 -140 -226 -219q-145 -52 -287 -52h-16q-319 0 -436 465q-39 191 -39 400q0 320 81 643q115 342 510 342z" />
    <glyph glyph-name="H" unicode="H" horiz-adv-x="957" 
d="M45 1856q40 0 108 -22l3 -134v-837l532 29l-3 738l3 185q0 35 51 35q46 0 102 -22l3 -1354v-299l3 -150q-19 -19 -41 -19h-35q-61 0 -70 13l-10 732l-535 -38q0 -700 -29 -700q-19 -13 -35 -13h-9q-43 0 -80 29v245l-3 1566q18 16 45 16z" />
    <glyph glyph-name="I" unicode="I" horiz-adv-x="320" 
d="M50 1849q49 0 130 -19l3 -464v-1293q0 -73 -32 -73h-25q-78 0 -126 28v1802q9 19 50 19z" />
    <glyph glyph-name="J" unicode="J" horiz-adv-x="1024" 
d="M789 1842q62 0 95 -10l-3 -22l-3 -903v-240q0 -311 -185 -539q-133 -128 -243 -128h-29q-203 0 -402 396l-19 51q0 32 140 51q76 -217 230 -306q60 -32 83 -32h7q140 0 258 348q13 58 13 204v191q0 422 -13 917q0 22 71 22z" />
    <glyph glyph-name="K" unicode="K" horiz-adv-x="1130" 
d="M70 1849q133 -8 133 -19l-3 -844v-3h3l409 634l140 210h3q123 0 158 -51l7 -25q0 -59 -355 -536l-140 -184v-3q480 -642 596 -857l7 -28q0 -73 -181 -111l-530 850h-3l-114 -143l-7 -720q0 -19 -44 -19h-9q-80 0 -140 22l3 48v298l3 1465q21 16 64 16z" />
    <glyph glyph-name="L" unicode="L" horiz-adv-x="978" 
d="M48 1860q75 -6 129 -26l-10 -1661q482 39 675 49q12 0 19 -90q-2 -100 -13 -100l-845 -32l-3 3v1819q0 38 48 38z" />
    <glyph glyph-name="M" unicode="M" horiz-adv-x="1105" 
d="M55 1857q128 0 128 -13l288 -622h7l285 635q196 -3 196 -13q22 -1363 22 -1655l4 -99l-4 -74q-19 -16 -67 -16q-122 0 -122 16l-22 1398v4h-3q-268 -513 -283 -526h-3l-295 465h-3v-1046q0 -305 -13 -305l-29 -6h-35q-106 6 -106 19l3 1575v250q0 13 52 13z" />
    <glyph glyph-name="N" unicode="N" horiz-adv-x="1040" 
d="M875 1852q37 0 45 -19v-6q0 -255 -61 -1802q-43 -25 -79 -25h-9q-21 10 -108 228q-187 424 -485 1142h-4v-358l4 -584l-4 -415l-19 -7h-34q-121 0 -121 13v1798q0 25 51 25h22q101 0 101 -15q4 -23 321 -790l244 -599h3v3l3 827v302l3 253q66 29 127 29z" />
    <glyph glyph-name="O" unicode="O" horiz-adv-x="1144" 
d="M471 1855q338 0 419 -155q66 -94 100 -326q49 -349 49 -571v-51q0 -543 -326 -713q-94 -39 -177 -39h-20q-250 0 -406 429q-110 374 -110 726q0 548 352 681q80 19 119 19zM181 1223q0 -356 122 -752q88 -232 252 -232q166 18 184 58q48 33 84 155q38 127 38 355v6
q0 476 -90 713q-83 148 -216 148h-10q-133 -12 -268 -119q-62 -50 -87 -174q-9 -94 -9 -158z" />
    <glyph glyph-name="P" unicode="P" horiz-adv-x="948" 
d="M48 1849q314 -19 386 -48q145 -27 276 -142q121 -128 121 -305q0 -411 -546 -571l-95 -22v-133l-3 -552l-3 -60q-12 -13 -41 -16q-41 0 -143 29v1804q0 14 48 16zM193 1643v-612l-3 -111q441 160 441 431v6q0 197 -177 276q-77 23 -140 23h-32q-89 -3 -89 -13z" />
    <glyph glyph-name="Q" unicode="Q" horiz-adv-x="1198" 
d="M471 1855q338 0 419 -155q66 -94 100 -326q49 -349 49 -571v-51q0 -248 -78 -439q133 -158 136 -194q0 -41 -152 -96h-6q-71 106 -87 119q-138 -142 -316 -142h-20q-250 0 -406 429q-110 374 -110 726q0 548 352 681q80 19 119 19zM181 1223q0 -356 122 -752
q88 -232 252 -232q161 17 181 55l3 3h3q-116 161 -129 187v6q0 38 139 78l77 -91q32 115 32 330v6q0 476 -90 713q-83 148 -216 148h-10q-133 -12 -268 -119q-62 -50 -87 -174q-9 -94 -9 -158z" />
    <glyph glyph-name="R" unicode="R" horiz-adv-x="972" 
d="M32 1844h31q42 0 58 -6l28 3q262 0 505 -121q190 -121 190 -301v-32q0 -264 -320 -413l-35 -12q317 -743 317 -851v-9q-16 -80 -105 -80h-9q-13 7 -102 216l-308 670l-85 -10l6 -879q0 -19 -44 -19h-13q-80 0 -146 22l3 19l7 1787q4 16 22 16zM187 1638l7 -607
q57 0 260 99q165 110 165 238v22q0 189 -375 245z" />
    <glyph glyph-name="S" unicode="S" horiz-adv-x="1197" 
d="M571 1851q213 0 409 -214v-16q0 -39 -67 -115q-182 157 -335 157h-23q-156 0 -268 -160q-13 -42 -13 -64q0 -104 131 -198q51 0 361 -114q136 -54 249 -166q34 -39 67 -208l13 -147q0 -341 -291 -529q-122 -77 -258 -77h-19q-210 0 -527 121v7q35 175 73 175
q210 -99 380 -99h26q239 0 405 189q22 101 22 181q0 304 -261 409q-61 19 -256 64q-316 111 -316 357q21 179 39 179q75 150 316 242q95 26 143 26z" />
    <glyph glyph-name="T" unicode="T" horiz-adv-x="996" 
d="M844 1857q12 0 28 -115q0 -26 -45 -26l-323 -19l-13 -1671q-6 -26 -39 -26h-6q-53 0 -122 26v1661l-298 -16l-10 -3q-16 52 -16 141v6q0 16 10 32z" />
    <glyph glyph-name="U" unicode="U" horiz-adv-x="1002" 
d="M130 1862q72 0 72 -53q6 -46 9 -391l-6 -822l-3 -53q0 -131 77 -261q70 -86 165 -86q122 0 276 105l-34 1542l-3 10q12 12 37 12q124 -11 124 -28q56 -1140 56 -1629v-3q0 -149 -28 -149l-34 -9h-16q-96 8 -96 24v66h-3q-210 -137 -366 -137h-9q-217 0 -298 279
q-41 160 -41 308l-6 1241l-3 9q78 25 130 25z" />
    <glyph glyph-name="V" unicode="V" horiz-adv-x="1051" 
d="M42 1857q138 -6 138 -26l237 -1353h3q141 662 302 1363q21 14 64 16q131 -10 131 -22l-429 -1825q-25 -10 -61 -10h-81q-28 0 -28 32l-318 1809q0 13 42 16z" />
    <glyph glyph-name="W" unicode="W" horiz-adv-x="1075" 
d="M888 1849h19q51 -3 51 -25q-22 -684 -86 -1808l-3 -3h-3q-162 7 -162 35l-244 770h-3l-254 -770h-6q0 -25 -57 -32q-43 -16 -89 -16h-22l-13 10l-13 1804l-3 10q67 19 124 19q18 0 31 -10l35 -1433h3l257 675h7q200 -467 269 -650h3l54 1399q8 25 105 25z" />
    <glyph glyph-name="X" unicode="X" horiz-adv-x="985" 
d="M786 1852h13q37 0 89 -89v-6l-336 -809l326 -827q-50 -121 -82 -121q-92 200 -323 755q-10 -7 -159 -374l-152 -352l-32 -7q-55 0 -130 156l365 824l-333 783v4q86 57 136 57h3q26 0 51 -83q127 -302 228 -567q6 0 76 164q133 289 232 473q13 19 28 19z" />
    <glyph glyph-name="Y" unicode="Y" horiz-adv-x="1004" 
d="M763 1856q129 -47 129 -91q-100 -234 -340 -736q26 -508 39 -987q0 -42 -52 -42q-39 0 -104 19v4q-60 1035 -65 1035q-366 681 -370 701q98 74 123 74h10q11 -3 172 -298q153 -283 165 -296q270 592 289 617h4z" />
    <glyph glyph-name="Z" unicode="Z" horiz-adv-x="1055" 
d="M13 1846h845q14 0 19 -115q0 -19 -26 -62l-615 -1486h3q397 30 596 30q111 0 111 -40l3 -32q0 -63 -29 -138h-740l-29 -3q-113 26 -141 65v7q0 38 668 1601h-4l-10 -4q-424 -19 -605 -19l-43 -4q-16 83 -16 167v4q0 25 13 29z" />
    <glyph glyph-name="bracketleft" unicode="[" horiz-adv-x="997" 
d="M856 1850l6 -29q0 -54 -16 -120h-3l-678 -29l3 -54l13 -1350l3 -23q681 -35 681 -58q7 -8 7 -42h3q-10 -112 -26 -142l-723 10l-120 -13l-3 3v252l-3 1582l3 3h3z" />
    <glyph glyph-name="backslash" unicode="\" horiz-adv-x="569" 
d="M154 1861q6 -7 303 -1792q-66 -56 -120 -69h-19l-9 6q-290 1699 -309 1836q72 25 123 25z" />
    <glyph glyph-name="bracketright" unicode="]" horiz-adv-x="988" 
d="M19 0l-6 29q0 54 16 120h3l678 29l-3 54l-13 1350l-3 23q-681 35 -681 58q-7 8 -7 42h-3q10 112 26 142l723 -10l119 13l4 -3v-252l3 -1582l-3 -3h-4z" />
    <glyph glyph-name="asciicircum" unicode="^" horiz-adv-x="961" 
d="M447 1836h10l429 -848q-102 -129 -136 -129h-7l-122 262l-181 370q-316 -530 -325 -534h-3q-119 59 -119 94q3 16 387 666z" />
    <glyph glyph-name="underscore" unicode="_" 
d="M24 176l44 -4q1052 -21 1052 -60v-20q0 -36 -44 -92l-1060 4q-16 18 -16 44q8 87 24 128z" />
    <glyph glyph-name="grave" unicode="`" horiz-adv-x="467" 
d="M148 1836h4q196 -249 196 -272q0 -43 -84 -72l-264 236v8z" />
    <glyph glyph-name="a" unicode="a" horiz-adv-x="1201" 
d="M435 1848h3q45 0 136 -85l423 -1709q-76 -54 -123 -54h-10q-46 0 -63 107l-107 423h-3q-412 -51 -442 -60q-82 -338 -113 -423l-4 -3h-18q-39 4 -114 51q407 1726 416 1747zM486 1419l-183 -744l347 41v3l-161 700h-3z" />
    <glyph glyph-name="b" unicode="b" horiz-adv-x="1013" 
d="M298 1852q404 0 517 -184q29 -48 29 -114q0 -240 -324 -393v-3q142 -17 244 -96q114 -88 114 -317q0 -421 -288 -615q-197 -120 -431 -120l-4 -4v-3l-79 -3q-73 0 -73 29v237l-3 1554q75 26 124 26h22l3 -4q19 6 149 10zM168 1665l3 -64v-355l-3 -47q463 162 463 361v7
q0 72 -168 98l-117 6h-48q-81 0 -130 -6zM168 1040l-6 -815l38 -3q348 0 456 295q42 115 42 260v6q0 199 -203 260q-48 13 -149 19q-161 -8 -178 -22z" />
    <glyph glyph-name="c" unicode="c" horiz-adv-x="1100" 
d="M843 1857q35 0 35 -10l-54 -278q-34 -16 -63 -16h-26q-22 0 -35 161q-165 -31 -260 -72q-149 -79 -199 -200q-64 -130 -64 -396v-133q0 -399 29 -457q49 -155 158 -215q92 -51 213 -51q114 0 294 57q32 -66 32 -98v-13q0 -47 -98 -69q-169 -67 -320 -67q-389 0 -469 532
q-16 138 -16 270q0 274 63 713q10 67 111 174q202 168 669 168z" />
    <glyph glyph-name="d" unicode="d" horiz-adv-x="967" 
d="M149 1852h6q490 0 650 -463q48 -155 48 -355v-10q0 -609 -491 -913q-94 -56 -207 -95q0 -10 -41 -16q-83 8 -104 22l-7 1786l-3 12q0 26 63 26h10l54 -4q0 10 22 10zM178 1659v-188l-7 -1211l-3 -13h3q57 9 191 95q301 233 301 727q0 438 -305 561q-87 29 -158 29h-22z
" />
    <glyph glyph-name="e" unicode="e" horiz-adv-x="987" 
d="M32 1855q786 -8 786 -44q19 -7 19 -89q0 -38 -57 -38l-371 6q-184 -3 -209 -16l3 -228v-520l444 -16q25 -48 25 -89v-3q0 -54 -101 -54q-14 -9 -371 -12v-387l-3 -181h3l330 3q285 0 285 -19q19 -32 19 -82v-51l-6 -6l-673 -29q-94 6 -155 25v1817q0 8 32 13z" />
    <glyph glyph-name="f" unicode="f" horiz-adv-x="949" 
d="M32 1852q786 -8 786 -44q19 -7 19 -89q0 -38 -57 -38l-371 6q-184 -3 -209 -16l3 -228v-520l444 -16q25 -48 25 -89v-3q0 -54 -101 -54q-14 -9 -371 -13v-228l-7 -498q-7 -22 -38 -22h-22q-55 0 -133 22v1817q0 8 32 13z" />
    <glyph glyph-name="g" unicode="g" horiz-adv-x="1167" 
d="M591 1850q188 0 355 -61q-26 -132 -32 -139q-94 16 -149 16h-19l-13 3l-13 -3h-13q-369 0 -504 -394q-38 -158 -38 -261q0 -464 77 -595q103 -235 300 -235h33q199 0 271 187q22 68 22 139v48q0 7 -9 7q-315 13 -333 55q-12 19 -16 51l10 49q508 -26 533 -33
q-29 -413 -49 -413q-53 -140 -226 -219q-145 -52 -287 -52h-16q-319 0 -436 465q-39 191 -39 400q0 320 81 643q115 342 510 342z" />
    <glyph glyph-name="h" unicode="h" horiz-adv-x="957" 
d="M45 1856q40 0 108 -22l3 -134v-837l532 29l-3 738l3 185q0 35 51 35q46 0 102 -22l3 -1354v-299l3 -150q-19 -19 -41 -19h-35q-61 0 -70 13l-10 732l-535 -38q0 -700 -29 -700q-19 -13 -35 -13h-9q-43 0 -80 29v245l-3 1566q18 16 45 16z" />
    <glyph glyph-name="i" unicode="i" horiz-adv-x="320" 
d="M50 1849q49 0 130 -19l3 -464v-1293q0 -73 -32 -73h-25q-78 0 -126 28v1802q9 19 50 19z" />
    <glyph glyph-name="j" unicode="j" horiz-adv-x="1024" 
d="M789 1842q62 0 95 -10l-3 -22l-3 -903v-240q0 -311 -185 -539q-133 -128 -243 -128h-29q-203 0 -402 396l-19 51q0 32 140 51q76 -217 230 -306q60 -32 83 -32h7q140 0 258 348q13 58 13 204v191q0 422 -13 917q0 22 71 22z" />
    <glyph glyph-name="k" unicode="k" horiz-adv-x="1130" 
d="M70 1849q133 -8 133 -19l-3 -844v-3h3l409 634l140 210h3q123 0 158 -51l7 -25q0 -59 -355 -536l-140 -184v-3q480 -642 596 -857l7 -28q0 -73 -181 -111l-530 850h-3l-114 -143l-7 -720q0 -19 -44 -19h-9q-80 0 -140 22l3 48v298l3 1465q21 16 64 16z" />
    <glyph glyph-name="l" unicode="l" horiz-adv-x="978" 
d="M48 1860q75 -6 129 -26l-10 -1661q482 39 675 49q12 0 19 -90q-2 -100 -13 -100l-845 -32l-3 3v1819q0 38 48 38z" />
    <glyph glyph-name="m" unicode="m" horiz-adv-x="1105" 
d="M55 1857q128 0 128 -13l288 -622h7l285 635q196 -3 196 -13q22 -1363 22 -1655l4 -99l-4 -74q-19 -16 -67 -16q-122 0 -122 16l-22 1398v4h-3q-268 -513 -283 -526h-3l-295 465h-3v-1046q0 -305 -13 -305l-29 -6h-35q-106 6 -106 19l3 1575v250q0 13 52 13z" />
    <glyph glyph-name="n" unicode="n" horiz-adv-x="1040" 
d="M875 1852q37 0 45 -19v-6q0 -255 -61 -1802q-43 -25 -79 -25h-9q-21 10 -108 228q-187 424 -485 1142h-4v-358l4 -584l-4 -415l-19 -7h-34q-121 0 -121 13v1798q0 25 51 25h22q101 0 101 -15q4 -23 321 -790l244 -599h3v3l3 827v302l3 253q66 29 127 29z" />
    <glyph glyph-name="o" unicode="o" horiz-adv-x="1144" 
d="M471 1855q338 0 419 -155q66 -94 100 -326q49 -349 49 -571v-51q0 -543 -326 -713q-94 -39 -177 -39h-20q-250 0 -406 429q-110 374 -110 726q0 548 352 681q80 19 119 19zM181 1223q0 -356 122 -752q88 -232 252 -232q166 18 184 58q48 33 84 155q38 127 38 355v6
q0 476 -90 713q-83 148 -216 148h-10q-133 -12 -268 -119q-62 -50 -87 -174q-9 -94 -9 -158z" />
    <glyph glyph-name="p" unicode="p" horiz-adv-x="948" 
d="M48 1849q314 -19 386 -48q145 -27 276 -142q121 -128 121 -305q0 -411 -546 -571l-95 -22v-133l-3 -552l-3 -60q-12 -13 -41 -16q-41 0 -143 29v1804q0 14 48 16zM193 1643v-612l-3 -111q441 160 441 431v6q0 197 -177 276q-77 23 -140 23h-32q-89 -3 -89 -13z" />
    <glyph glyph-name="q" unicode="q" horiz-adv-x="1198" 
d="M471 1855q338 0 419 -155q66 -94 100 -326q49 -349 49 -571v-51q0 -248 -78 -439q133 -158 136 -194q0 -41 -152 -96h-6q-71 106 -87 119q-138 -142 -316 -142h-20q-250 0 -406 429q-110 374 -110 726q0 548 352 681q80 19 119 19zM181 1223q0 -356 122 -752
q88 -232 252 -232q161 17 181 55l3 3h3q-116 161 -129 187v6q0 38 139 78l77 -91q32 115 32 330v6q0 476 -90 713q-83 148 -216 148h-10q-133 -12 -268 -119q-62 -50 -87 -174q-9 -94 -9 -158z" />
    <glyph glyph-name="r" unicode="r" horiz-adv-x="972" 
d="M32 1844h31q42 0 58 -6l28 3q262 0 505 -121q190 -121 190 -301v-32q0 -264 -320 -413l-35 -12q317 -743 317 -851v-9q-16 -80 -105 -80h-9q-13 7 -102 216l-308 670l-85 -10l6 -879q0 -19 -44 -19h-13q-80 0 -146 22l3 19l7 1787q4 16 22 16zM187 1638l7 -607
q57 0 260 99q165 110 165 238v22q0 189 -375 245z" />
    <glyph glyph-name="s" unicode="s" horiz-adv-x="1197" 
d="M571 1851q213 0 409 -214v-16q0 -39 -67 -115q-182 157 -335 157h-23q-156 0 -268 -160q-13 -42 -13 -64q0 -104 131 -198q51 0 361 -114q136 -54 249 -166q34 -39 67 -208l13 -147q0 -341 -291 -529q-122 -77 -258 -77h-19q-210 0 -527 121v7q35 175 73 175
q210 -99 380 -99h26q239 0 405 189q22 101 22 181q0 304 -261 409q-61 19 -256 64q-316 111 -316 357q21 179 39 179q75 150 316 242q95 26 143 26z" />
    <glyph glyph-name="t" unicode="t" horiz-adv-x="996" 
d="M844 1857q12 0 28 -115q0 -26 -45 -26l-323 -19l-13 -1671q-6 -26 -39 -26h-6q-53 0 -122 26v1661l-298 -16l-10 -3q-16 52 -16 141v6q0 16 10 32z" />
    <glyph glyph-name="u" unicode="u" horiz-adv-x="1002" 
d="M130 1862q72 0 72 -53q6 -46 9 -391l-6 -822l-3 -53q0 -131 77 -261q70 -86 165 -86q122 0 276 105l-34 1542l-3 10q12 12 37 12q124 -11 124 -28q56 -1140 56 -1629v-3q0 -149 -28 -149l-34 -9h-16q-96 8 -96 24v66h-3q-210 -137 -366 -137h-9q-217 0 -298 279
q-41 160 -41 308l-6 1241l-3 9q78 25 130 25z" />
    <glyph glyph-name="v" unicode="v" horiz-adv-x="1051" 
d="M42 1857q138 -6 138 -26l237 -1353h3q141 662 302 1363q21 14 64 16q131 -10 131 -22l-429 -1825q-25 -10 -61 -10h-81q-28 0 -28 32l-318 1809q0 13 42 16z" />
    <glyph glyph-name="w" unicode="w" horiz-adv-x="1075" 
d="M888 1849h19q51 -3 51 -25q-22 -684 -86 -1808l-3 -3h-3q-162 7 -162 35l-244 770h-3l-254 -770h-6q0 -25 -57 -32q-43 -16 -89 -16h-22l-13 10l-13 1804l-3 10q67 19 124 19q18 0 31 -10l35 -1433h3l257 675h7q200 -467 269 -650h3l54 1399q8 25 105 25z" />
    <glyph glyph-name="x" unicode="x" horiz-adv-x="985" 
d="M786 1852h13q37 0 89 -89v-6l-336 -809l326 -827q-50 -121 -82 -121q-92 200 -323 755q-10 -7 -159 -374l-152 -352l-32 -7q-55 0 -130 156l365 824l-333 783v4q86 57 136 57h3q26 0 51 -83q127 -302 228 -567q6 0 76 164q133 289 232 473q13 19 28 19z" />
    <glyph glyph-name="y" unicode="y" horiz-adv-x="1004" 
d="M763 1856q129 -47 129 -91q-100 -234 -340 -736q26 -508 39 -987q0 -42 -52 -42q-39 0 -104 19v4q-60 1035 -65 1035q-366 681 -370 701q98 74 123 74h10q11 -3 172 -298q153 -283 165 -296q270 592 289 617h4z" />
    <glyph glyph-name="z" unicode="z" horiz-adv-x="1055" 
d="M13 1846h845q14 0 19 -115q0 -19 -26 -62l-615 -1486h3q397 30 596 30q111 0 111 -40l3 -32q0 -63 -29 -138h-740l-29 -3q-113 26 -141 65v7q0 38 668 1601h-4l-10 -4q-424 -19 -605 -19l-43 -4q-16 83 -16 167v4q0 25 13 29z" />
    <glyph glyph-name="braceleft" unicode="{" horiz-adv-x="761" 
d="M228 1591l464 -452v-4q-19 -65 -44 -80l-540 376v4q76 156 120 156zM28 1035l628 -80v-4q-8 -84 -24 -84q-374 -56 -532 -56l-20 -4q-80 0 -80 20q17 208 28 208zM584 735q41 -35 56 -60l-388 -464h-8q-176 107 -176 156v4q12 16 516 364z" />
    <glyph glyph-name="bar" unicode="|" horiz-adv-x="307" 
d="M157 1868h14q31 -6 31 -24q-56 -2005 -66 -2005q-58 -25 -86 -25h-3q-25 0 -38 31l3 97l18 1885q74 41 127 41z" />
    <glyph glyph-name="braceright" unicode="}" horiz-adv-x="761" 
d="M487 234l-464 452v4q19 65 44 80l540 -376v-4q-76 -156 -120 -156zM687 790l-628 80v4q8 84 24 84q374 56 532 56l20 4q80 0 80 -20q-17 -208 -28 -208zM131 1090q-41 35 -56 60l388 464h8q176 -106 176 -156v-4q-12 -16 -516 -364z" />
    <glyph glyph-name="asciitilde" unicode="~" horiz-adv-x="1243" 
d="M1108 1654q41 0 90 -112q-195 -268 -414 -268q-119 0 -394 168q-30 12 -55 12q-57 0 -218 -136l-32 -8q-62 35 -62 124q180 200 304 200h12q56 0 180 -96q159 -88 246 -88h31q163 0 293 200z" />
    <glyph glyph-name="Adieresis" unicode="&#xc4;" horiz-adv-x="1366" 
 />
    <glyph glyph-name="Aring" unicode="&#xc5;" horiz-adv-x="1366" 
 />
    <glyph glyph-name="Ccedilla" unicode="&#xc7;" horiz-adv-x="1479" 
 />
    <glyph glyph-name="Eacute" unicode="&#xc9;" horiz-adv-x="1366" 
 />
    <glyph glyph-name="Ntilde" unicode="&#xd1;" horiz-adv-x="1479" 
 />
    <glyph glyph-name="Odieresis" unicode="&#xd6;" horiz-adv-x="1593" 
 />
    <glyph glyph-name="Udieresis" unicode="&#xdc;" horiz-adv-x="1479" 
 />
    <glyph glyph-name="aacute" unicode="&#xe1;" 
 />
    <glyph glyph-name="agrave" unicode="&#xe0;" 
 />
    <glyph glyph-name="acircumflex" unicode="&#xe2;" 
 />
    <glyph glyph-name="adieresis" unicode="&#xe4;" 
 />
    <glyph glyph-name="atilde" unicode="&#xe3;" 
 />
    <glyph glyph-name="aring" unicode="&#xe5;" 
 />
    <glyph glyph-name="ccedilla" unicode="&#xe7;" horiz-adv-x="1024" 
 />
    <glyph glyph-name="eacute" unicode="&#xe9;" 
 />
    <glyph glyph-name="egrave" unicode="&#xe8;" 
 />
    <glyph glyph-name="ecircumflex" unicode="&#xea;" 
 />
    <glyph glyph-name="edieresis" unicode="&#xeb;" 
 />
    <glyph glyph-name="iacute" unicode="&#xed;" horiz-adv-x="569" 
 />
    <glyph glyph-name="igrave" unicode="&#xec;" horiz-adv-x="569" 
 />
    <glyph glyph-name="icircumflex" unicode="&#xee;" horiz-adv-x="569" 
 />
    <glyph glyph-name="idieresis" unicode="&#xef;" horiz-adv-x="569" 
 />
    <glyph glyph-name="ntilde" unicode="&#xf1;" 
 />
    <glyph glyph-name="oacute" unicode="&#xf3;" 
 />
    <glyph glyph-name="ograve" unicode="&#xf2;" 
 />
    <glyph glyph-name="ocircumflex" unicode="&#xf4;" 
 />
    <glyph glyph-name="odieresis" unicode="&#xf6;" 
 />
    <glyph glyph-name="otilde" unicode="&#xf5;" 
 />
    <glyph glyph-name="uacute" unicode="&#xfa;" 
 />
    <glyph glyph-name="ugrave" unicode="&#xf9;" 
 />
    <glyph glyph-name="ucircumflex" unicode="&#xfb;" 
 />
    <glyph glyph-name="udieresis" unicode="&#xfc;" 
 />
    <glyph glyph-name="dagger" unicode="&#x2020;" 
 />
    <glyph glyph-name="degree" unicode="&#xb0;" horiz-adv-x="819" 
 />
    <glyph glyph-name="cent" unicode="&#xa2;" 
 />
    <glyph glyph-name="sterling" unicode="&#xa3;" 
 />
    <glyph glyph-name="section" unicode="&#xa7;" 
 />
    <glyph glyph-name="bullet" unicode="&#x2022;" horiz-adv-x="717" 
 />
    <glyph glyph-name="paragraph" unicode="&#xb6;" horiz-adv-x="1100" 
 />
    <glyph glyph-name="germandbls" unicode="&#xdf;" horiz-adv-x="1251" 
 />
    <glyph glyph-name="registered" unicode="&#xae;" horiz-adv-x="1509" 
 />
    <glyph glyph-name="copyright" unicode="&#xa9;" horiz-adv-x="1857" 
d="M850 1857q396 0 672 -364q174 -260 174 -545v-39q0 -414 -334 -722q-241 -187 -516 -187q-367 0 -636 318q-210 269 -210 614q0 427 328 731q244 194 522 194zM125 925q0 -402 351 -653q179 -101 348 -101h32q305 0 542 282q154 221 154 459v33q0 324 -259 571
q-209 170 -437 170h-32q-310 0 -542 -282q-157 -214 -157 -479zM837 1462h22q211 0 426 -247l43 -57l-94 -133q-165 267 -357 267h-32q-149 0 -292 -140q-74 -101 -74 -207v-28q0 -161 117 -327q77 -85 190 -85q141 0 335 145h5l111 -96q-161 -199 -341 -199h-22
q-362 0 -494 349q-40 126 -40 241v6q13 136 119 306q160 205 378 205z" />
    <glyph glyph-name="trademark" unicode="&#x2122;" horiz-adv-x="814" 
d="M210 1857q3 0 8 -29q0 -6 -12 -6l-80 -5l-4 -417q-1 -6 -9 -6h-2q-13 0 -30 6v415l-75 -4l-2 -1q-4 13 -4 35v2q0 4 2 8zM276 1849q31 0 31 -3l70 -151h2l69 154q47 -1 47 -3q6 -331 6 -402l1 -24l-1 -18q-5 -4 -16 -4q-30 0 -30 4l-6 340v0v0q-65 -124 -69 -127h-1
l-71 113h-1v-254q0 -74 -3 -74l-7 -2h-9q-25 2 -25 5v382v61q0 3 13 3z" />
    <glyph glyph-name="acute" unicode="&#xb4;" horiz-adv-x="682" 
 />
    <glyph glyph-name="dieresis" unicode="&#xa8;" horiz-adv-x="682" 
 />
    <glyph glyph-name="notequal" unicode="&#x2260;" horiz-adv-x="1124" 
 />
    <glyph glyph-name="AE" unicode="&#xc6;" horiz-adv-x="2048" 
 />
    <glyph glyph-name="Oslash" unicode="&#xd8;" horiz-adv-x="1593" 
 />
    <glyph glyph-name="infinity" unicode="&#x221e;" horiz-adv-x="1460" 
 />
    <glyph glyph-name="plusminus" unicode="&#xb1;" horiz-adv-x="1124" 
 />
    <glyph glyph-name="lessequal" unicode="&#x2264;" horiz-adv-x="1124" 
 />
    <glyph glyph-name="greaterequal" unicode="&#x2265;" horiz-adv-x="1124" 
 />
    <glyph glyph-name="yen" unicode="&#xa5;" 
 />
    <glyph glyph-name="mu" unicode="&#xb5;" horiz-adv-x="1180" 
 />
    <glyph glyph-name="partialdiff" unicode="&#x2202;" horiz-adv-x="1012" 
 />
    <glyph glyph-name="summation" unicode="&#x2211;" horiz-adv-x="1460" 
 />
    <glyph glyph-name="product" unicode="&#x220f;" horiz-adv-x="1686" 
 />
    <glyph glyph-name="glyph155" horiz-adv-x="1124" 
 />
    <glyph glyph-name="integral" unicode="&#x222b;" horiz-adv-x="561" 
 />
    <glyph glyph-name="ordfeminine" unicode="&#xaa;" horiz-adv-x="758" 
 />
    <glyph glyph-name="ordmasculine" unicode="&#xba;" horiz-adv-x="748" 
 />
    <glyph glyph-name="Omega" unicode="&#x2126;" horiz-adv-x="1573" 
 />
    <glyph glyph-name="ae" unicode="&#xe6;" horiz-adv-x="1821" 
 />
    <glyph glyph-name="oslash" unicode="&#xf8;" horiz-adv-x="1251" 
 />
    <glyph glyph-name="questiondown" unicode="&#xbf;" horiz-adv-x="1251" 
 />
    <glyph glyph-name="exclamdown" unicode="&#xa1;" horiz-adv-x="682" 
 />
    <glyph glyph-name="logicalnot" unicode="&#xac;" horiz-adv-x="1196" 
 />
    <glyph glyph-name="radical" unicode="&#x221a;" horiz-adv-x="1124" 
 />
    <glyph glyph-name="florin" unicode="&#x192;" 
 />
    <glyph glyph-name="approxequal" unicode="&#x2248;" horiz-adv-x="1124" 
 />
    <glyph glyph-name="Delta" unicode="&#x2206;" horiz-adv-x="1253" 
 />
    <glyph glyph-name="guillemotleft" unicode="&#xab;" 
 />
    <glyph glyph-name="guillemotright" unicode="&#xbb;" 
 />
    <glyph glyph-name="ellipsis" unicode="&#x2026;" horiz-adv-x="2048" 
 />
    <glyph glyph-name="Agrave" unicode="&#xc0;" horiz-adv-x="1366" 
 />
    <glyph glyph-name="Atilde" unicode="&#xc3;" horiz-adv-x="1366" 
 />
    <glyph glyph-name="Otilde" unicode="&#xd5;" horiz-adv-x="1593" 
 />
    <glyph glyph-name="OE" unicode="&#x152;" horiz-adv-x="2048" 
 />
    <glyph glyph-name="oe" unicode="&#x153;" horiz-adv-x="1933" 
 />
    <glyph glyph-name="endash" unicode="&#x2013;" 
 />
    <glyph glyph-name="emdash" unicode="&#x2014;" horiz-adv-x="2048" 
 />
    <glyph glyph-name="quotedblleft" unicode="&#x201c;" horiz-adv-x="682" 
d="M546 1838q9 0 86 -379q-19 -49 -49 -49h-15q-37 18 -184 406q67 26 116 26h27zM207 1793l211 -376v-7q-47 -53 -79 -53l-12 4q-39 30 -327 391v7q120 42 173 42z" />
    <glyph glyph-name="quotedblright" unicode="&#x201d;" horiz-adv-x="682" 
d="M105 1842h27q49 0 116 -26q-147 -388 -184 -406h-15q-30 0 -49 49q77 379 86 379zM459 1801q53 0 173 -42v-7q-288 -361 -327 -391l-12 -4q-32 0 -79 53v7l211 376z" />
    <glyph glyph-name="quoteleft" unicode="&#x2018;" horiz-adv-x="455" 
d="M265 1820v-575q-41 -39 -90 -39h-33q-50 0 -142 594q103 39 181 39h65z" />
    <glyph glyph-name="quoteright" unicode="&#x2019;" horiz-adv-x="455" 
d="M19 1839h65q78 0 181 -39q-92 -594 -142 -594h-33q-49 0 -90 39v575z" />
    <glyph glyph-name="divide" unicode="&#xf7;" horiz-adv-x="1124" 
 />
    <glyph glyph-name="lozenge" unicode="&#x25ca;" horiz-adv-x="1012" 
 />
    <glyph glyph-name="ydieresis" unicode="&#xff;" horiz-adv-x="1024" 
 />
    <glyph glyph-name="Ydieresis" unicode="&#x178;" horiz-adv-x="1366" 
 />
    <glyph glyph-name="fraction" unicode="&#x2044;" horiz-adv-x="342" 
 />
    <glyph glyph-name="fraction" unicode="&#x2215;" horiz-adv-x="342" 
 />
    <glyph glyph-name="Euro" unicode="&#x20ac;" 
 />
    <glyph glyph-name="guilsinglleft" unicode="&#x2039;" horiz-adv-x="682" 
 />
    <glyph glyph-name="guilsinglright" unicode="&#x203a;" horiz-adv-x="682" 
 />
    <glyph glyph-name="uniF001" unicode="&#xf001;" horiz-adv-x="1024" 
 />
    <glyph glyph-name="uniF001" unicode="&#xfb01;" horiz-adv-x="1024" 
 />
    <glyph glyph-name="uniF002" unicode="&#xf002;" horiz-adv-x="1024" 
 />
    <glyph glyph-name="uniF002" unicode="&#xfb02;" horiz-adv-x="1024" 
 />
    <glyph glyph-name="daggerdbl" unicode="&#x2021;" 
 />
    <glyph glyph-name="periodcentered" unicode="&#xb7;" horiz-adv-x="569" 
 />
    <glyph glyph-name="periodcentered" unicode="&#x2219;" horiz-adv-x="569" 
 />
    <glyph glyph-name="quotesinglbase" unicode="&#x201a;" horiz-adv-x="455" 
 />
    <glyph glyph-name="quotedblbase" unicode="&#x201e;" horiz-adv-x="682" 
 />
    <glyph glyph-name="perthousand" unicode="&#x2030;" horiz-adv-x="2048" 
 />
    <glyph glyph-name="Acircumflex" unicode="&#xc2;" horiz-adv-x="1366" 
 />
    <glyph glyph-name="Ecircumflex" unicode="&#xca;" horiz-adv-x="1366" 
 />
    <glyph glyph-name="Aacute" unicode="&#xc1;" horiz-adv-x="1366" 
 />
    <glyph glyph-name="Edieresis" unicode="&#xcb;" horiz-adv-x="1366" 
 />
    <glyph glyph-name="Egrave" unicode="&#xc8;" horiz-adv-x="1366" 
 />
    <glyph glyph-name="Iacute" unicode="&#xcd;" horiz-adv-x="569" 
 />
    <glyph glyph-name="Icircumflex" unicode="&#xce;" horiz-adv-x="569" 
 />
    <glyph glyph-name="Idieresis" unicode="&#xcf;" horiz-adv-x="569" 
 />
    <glyph glyph-name="Igrave" unicode="&#xcc;" horiz-adv-x="569" 
 />
    <glyph glyph-name="Oacute" unicode="&#xd3;" horiz-adv-x="1593" 
 />
    <glyph glyph-name="Ocircumflex" unicode="&#xd4;" horiz-adv-x="1593" 
 />
    <glyph glyph-name="Ograve" unicode="&#xd2;" horiz-adv-x="1593" 
 />
    <glyph glyph-name="Uacute" unicode="&#xda;" horiz-adv-x="1479" 
 />
    <glyph glyph-name="Ucircumflex" unicode="&#xdb;" horiz-adv-x="1479" 
 />
    <glyph glyph-name="Ugrave" unicode="&#xd9;" horiz-adv-x="1479" 
 />
    <glyph glyph-name="dotlessi" unicode="&#x131;" horiz-adv-x="569" 
 />
    <glyph glyph-name="circumflex" unicode="&#x2c6;" horiz-adv-x="682" 
 />
    <glyph glyph-name="tilde" unicode="&#x2dc;" horiz-adv-x="682" 
 />
    <glyph glyph-name="uni02C9" unicode="&#x2c9;" horiz-adv-x="682" 
 />
    <glyph glyph-name="breve" unicode="&#x2d8;" horiz-adv-x="682" 
 />
    <glyph glyph-name="dotaccent" unicode="&#x2d9;" horiz-adv-x="682" 
 />
    <glyph glyph-name="ring" unicode="&#x2da;" horiz-adv-x="682" 
 />
    <glyph glyph-name="cedilla" unicode="&#xb8;" horiz-adv-x="682" 
 />
    <glyph glyph-name="hungarumlaut" unicode="&#x2dd;" horiz-adv-x="682" 
 />
    <glyph glyph-name="ogonek" unicode="&#x2db;" horiz-adv-x="682" 
 />
    <glyph glyph-name="caron" unicode="&#x2c7;" horiz-adv-x="682" 
 />
    <glyph glyph-name="Lslash" unicode="&#x141;" 
 />
    <glyph glyph-name="lslash" unicode="&#x142;" horiz-adv-x="455" 
 />
    <glyph glyph-name="Scaron" unicode="&#x160;" horiz-adv-x="1366" 
 />
    <glyph glyph-name="scaron" unicode="&#x161;" horiz-adv-x="1024" 
 />
    <glyph glyph-name="Zcaron" unicode="&#x17d;" horiz-adv-x="1251" 
 />
    <glyph glyph-name="zcaron" unicode="&#x17e;" horiz-adv-x="1024" 
 />
    <glyph glyph-name="brokenbar" unicode="&#xa6;" horiz-adv-x="532" 
 />
    <glyph glyph-name="Eth" unicode="&#xd0;" horiz-adv-x="1479" 
 />
    <glyph glyph-name="eth" unicode="&#xf0;" 
 />
    <glyph glyph-name="Yacute" unicode="&#xdd;" horiz-adv-x="1366" 
 />
    <glyph glyph-name="yacute" unicode="&#xfd;" horiz-adv-x="1024" 
 />
    <glyph glyph-name="Thorn" unicode="&#xde;" horiz-adv-x="1366" 
 />
    <glyph glyph-name="thorn" unicode="&#xfe;" 
 />
    <glyph glyph-name="minus" unicode="&#x2212;" horiz-adv-x="1196" 
 />
    <glyph glyph-name="multiply" unicode="&#xd7;" horiz-adv-x="1196" 
 />
    <glyph glyph-name="uni00B9" unicode="&#xb9;" horiz-adv-x="682" 
 />
    <glyph glyph-name="uni00B2" unicode="&#xb2;" horiz-adv-x="682" 
 />
    <glyph glyph-name="uni00B3" unicode="&#xb3;" horiz-adv-x="682" 
 />
    <glyph glyph-name="onehalf" unicode="&#xbd;" horiz-adv-x="1708" 
 />
    <glyph glyph-name="onequarter" unicode="&#xbc;" horiz-adv-x="1708" 
 />
    <glyph glyph-name="threequarters" unicode="&#xbe;" horiz-adv-x="1708" 
 />
    <glyph glyph-name="franc" unicode="&#x20a3;" 
 />
    <glyph glyph-name="Gbreve" unicode="&#x11e;" horiz-adv-x="1593" 
 />
    <glyph glyph-name="gbreve" unicode="&#x11f;" 
 />
    <glyph glyph-name="Idotaccent" unicode="&#x130;" horiz-adv-x="569" 
 />
    <glyph glyph-name="Scedilla" unicode="&#x15e;" horiz-adv-x="1366" 
 />
    <glyph glyph-name="scedilla" unicode="&#x15f;" horiz-adv-x="1024" 
 />
    <glyph glyph-name="Cacute" unicode="&#x106;" horiz-adv-x="1479" 
 />
    <glyph glyph-name="cacute" unicode="&#x107;" horiz-adv-x="1024" 
 />
    <glyph glyph-name="Ccaron" unicode="&#x10c;" horiz-adv-x="1479" 
 />
    <glyph glyph-name="ccaron" unicode="&#x10d;" horiz-adv-x="1024" 
 />
    <glyph glyph-name="dcroat" unicode="&#x111;" 
 />
    <glyph glyph-name="currency" unicode="&#xa4;" 
 />
    <glyph glyph-name="macron" unicode="&#xaf;" horiz-adv-x="1131" 
 />
    <glyph glyph-name="Amacron" unicode="&#x100;" horiz-adv-x="1366" 
 />
    <glyph glyph-name="amacron" unicode="&#x101;" 
 />
    <glyph glyph-name="Abreve" unicode="&#x102;" horiz-adv-x="1366" 
 />
    <glyph glyph-name="abreve" unicode="&#x103;" 
 />
    <glyph glyph-name="Aogonek" unicode="&#x104;" horiz-adv-x="1366" 
 />
    <glyph glyph-name="aogonek" unicode="&#x105;" 
 />
    <glyph glyph-name="Ccircumflex" unicode="&#x108;" horiz-adv-x="1479" 
 />
    <glyph glyph-name="ccircumflex" unicode="&#x109;" horiz-adv-x="1024" 
 />
    <glyph glyph-name="Cdotaccent" unicode="&#x10a;" horiz-adv-x="1479" 
 />
    <glyph glyph-name="cdotaccent" unicode="&#x10b;" horiz-adv-x="1024" 
 />
    <glyph glyph-name="Dcaron" unicode="&#x10e;" horiz-adv-x="1479" 
 />
    <glyph glyph-name="dcaron" unicode="&#x10f;" horiz-adv-x="1259" 
 />
    <glyph glyph-name="Dcroat" unicode="&#x110;" horiz-adv-x="1479" 
 />
    <glyph glyph-name="Emacron" unicode="&#x112;" horiz-adv-x="1366" 
 />
    <glyph glyph-name="emacron" unicode="&#x113;" 
 />
    <glyph glyph-name="Ebreve" unicode="&#x114;" horiz-adv-x="1366" 
 />
    <glyph glyph-name="ebreve" unicode="&#x115;" 
 />
    <glyph glyph-name="Edotaccent" unicode="&#x116;" horiz-adv-x="1366" 
 />
    <glyph glyph-name="edotaccent" unicode="&#x117;" 
 />
    <glyph glyph-name="Eogonek" unicode="&#x118;" horiz-adv-x="1366" 
 />
    <glyph glyph-name="eogonek" unicode="&#x119;" 
 />
    <glyph glyph-name="Ecaron" unicode="&#x11a;" horiz-adv-x="1366" 
 />
    <glyph glyph-name="ecaron" unicode="&#x11b;" 
 />
    <glyph glyph-name="Gcircumflex" unicode="&#x11c;" horiz-adv-x="1593" 
 />
    <glyph glyph-name="gcircumflex" unicode="&#x11d;" 
 />
    <glyph glyph-name="Gdotaccent" unicode="&#x120;" horiz-adv-x="1593" 
 />
    <glyph glyph-name="gdotaccent" unicode="&#x121;" 
 />
    <glyph glyph-name="Gcommaaccent" unicode="&#x122;" horiz-adv-x="1593" 
 />
    <glyph glyph-name="gcommaaccent" unicode="&#x123;" 
 />
    <glyph glyph-name="Hcircumflex" unicode="&#x124;" horiz-adv-x="1479" 
 />
    <glyph glyph-name="hcircumflex" unicode="&#x125;" 
 />
    <glyph glyph-name="Hbar" unicode="&#x126;" horiz-adv-x="1479" 
 />
    <glyph glyph-name="hbar" unicode="&#x127;" 
 />
    <glyph glyph-name="Itilde" unicode="&#x128;" horiz-adv-x="569" 
 />
    <glyph glyph-name="itilde" unicode="&#x129;" horiz-adv-x="569" 
 />
    <glyph glyph-name="Imacron" unicode="&#x12a;" horiz-adv-x="569" 
 />
    <glyph glyph-name="imacron" unicode="&#x12b;" horiz-adv-x="569" 
 />
    <glyph glyph-name="Ibreve" unicode="&#x12c;" horiz-adv-x="569" 
 />
    <glyph glyph-name="ibreve" unicode="&#x12d;" horiz-adv-x="569" 
 />
    <glyph glyph-name="Iogonek" unicode="&#x12e;" horiz-adv-x="569" 
 />
    <glyph glyph-name="iogonek" unicode="&#x12f;" horiz-adv-x="455" 
 />
    <glyph glyph-name="IJ" unicode="&#x132;" horiz-adv-x="1505" 
 />
    <glyph glyph-name="ij" unicode="&#x133;" horiz-adv-x="909" 
 />
    <glyph glyph-name="Jcircumflex" unicode="&#x134;" horiz-adv-x="1024" 
 />
    <glyph glyph-name="jcircumflex" unicode="&#x135;" horiz-adv-x="455" 
 />
    <glyph glyph-name="Kcommaaccent" unicode="&#x136;" horiz-adv-x="1366" 
 />
    <glyph glyph-name="kcommaaccent" unicode="&#x137;" horiz-adv-x="1024" 
 />
    <glyph glyph-name="kgreenlandic" unicode="&#x138;" horiz-adv-x="1024" 
 />
    <glyph glyph-name="Lacute" unicode="&#x139;" 
 />
    <glyph glyph-name="lacute" unicode="&#x13a;" horiz-adv-x="455" 
 />
    <glyph glyph-name="Lcommaaccent" unicode="&#x13b;" 
 />
    <glyph glyph-name="lcommaaccent" unicode="&#x13c;" horiz-adv-x="455" 
 />
    <glyph glyph-name="Lcaron" unicode="&#x13d;" 
 />
    <glyph glyph-name="lcaron" unicode="&#x13e;" horiz-adv-x="597" 
 />
    <glyph glyph-name="Ldot" unicode="&#x13f;" 
 />
    <glyph glyph-name="ldot" unicode="&#x140;" horiz-adv-x="684" 
 />
    <glyph glyph-name="Nacute" unicode="&#x143;" horiz-adv-x="1479" 
 />
    <glyph glyph-name="nacute" unicode="&#x144;" 
 />
    <glyph glyph-name="Ncommaaccent" unicode="&#x145;" horiz-adv-x="1479" 
 />
    <glyph glyph-name="ncommaaccent" unicode="&#x146;" 
 />
    <glyph glyph-name="Ncaron" unicode="&#x147;" horiz-adv-x="1479" 
 />
    <glyph glyph-name="ncaron" unicode="&#x148;" 
 />
    <glyph glyph-name="napostrophe" unicode="&#x149;" horiz-adv-x="1237" 
 />
    <glyph glyph-name="Eng" unicode="&#x14a;" horiz-adv-x="1481" 
 />
    <glyph glyph-name="eng" unicode="&#x14b;" 
 />
    <glyph glyph-name="Omacron" unicode="&#x14c;" horiz-adv-x="1593" 
 />
    <glyph glyph-name="omacron" unicode="&#x14d;" 
 />
    <glyph glyph-name="Obreve" unicode="&#x14e;" horiz-adv-x="1593" 
 />
    <glyph glyph-name="obreve" unicode="&#x14f;" 
 />
    <glyph glyph-name="Ohungarumlaut" unicode="&#x150;" horiz-adv-x="1593" 
 />
    <glyph glyph-name="ohungarumlaut" unicode="&#x151;" 
 />
    <glyph glyph-name="Racute" unicode="&#x154;" horiz-adv-x="1479" 
 />
    <glyph glyph-name="racute" unicode="&#x155;" horiz-adv-x="682" 
 />
    <glyph glyph-name="Rcommaaccent" unicode="&#x156;" horiz-adv-x="1479" 
 />
    <glyph glyph-name="rcommaaccent" unicode="&#x157;" horiz-adv-x="682" 
 />
    <glyph glyph-name="Rcaron" unicode="&#x158;" horiz-adv-x="1479" 
 />
    <glyph glyph-name="rcaron" unicode="&#x159;" horiz-adv-x="682" 
 />
    <glyph glyph-name="Sacute" unicode="&#x15a;" horiz-adv-x="1366" 
 />
    <glyph glyph-name="sacute" unicode="&#x15b;" horiz-adv-x="1024" 
 />
    <glyph glyph-name="Scircumflex" unicode="&#x15c;" horiz-adv-x="1366" 
 />
    <glyph glyph-name="scircumflex" unicode="&#x15d;" horiz-adv-x="1024" 
 />
    <glyph glyph-name="Tcommaaccent" unicode="&#x162;" horiz-adv-x="1251" 
 />
    <glyph glyph-name="tcommaaccent" unicode="&#x163;" horiz-adv-x="569" 
 />
    <glyph glyph-name="Tcaron" unicode="&#x164;" horiz-adv-x="1251" 
 />
    <glyph glyph-name="tcaron" unicode="&#x165;" horiz-adv-x="768" 
 />
    <glyph glyph-name="Tbar" unicode="&#x166;" horiz-adv-x="1251" 
 />
    <glyph glyph-name="tbar" unicode="&#x167;" horiz-adv-x="569" 
 />
    <glyph glyph-name="Utilde" unicode="&#x168;" horiz-adv-x="1479" 
 />
    <glyph glyph-name="utilde" unicode="&#x169;" 
 />
    <glyph glyph-name="Umacron" unicode="&#x16a;" horiz-adv-x="1479" 
 />
    <glyph glyph-name="umacron" unicode="&#x16b;" 
 />
    <glyph glyph-name="Ubreve" unicode="&#x16c;" horiz-adv-x="1479" 
 />
    <glyph glyph-name="ubreve" unicode="&#x16d;" 
 />
    <glyph glyph-name="Uring" unicode="&#x16e;" horiz-adv-x="1479" 
 />
    <glyph glyph-name="uring" unicode="&#x16f;" 
 />
    <glyph glyph-name="Uhungarumlaut" unicode="&#x170;" horiz-adv-x="1479" 
 />
    <glyph glyph-name="uhungarumlaut" unicode="&#x171;" 
 />
    <glyph glyph-name="Uogonek" unicode="&#x172;" horiz-adv-x="1479" 
 />
    <glyph glyph-name="uogonek" unicode="&#x173;" 
 />
    <glyph glyph-name="Wcircumflex" unicode="&#x174;" horiz-adv-x="1933" 
 />
    <glyph glyph-name="wcircumflex" unicode="&#x175;" horiz-adv-x="1479" 
 />
    <glyph glyph-name="Ycircumflex" unicode="&#x176;" horiz-adv-x="1366" 
 />
    <glyph glyph-name="ycircumflex" unicode="&#x177;" horiz-adv-x="1024" 
 />
    <glyph glyph-name="Zacute" unicode="&#x179;" horiz-adv-x="1251" 
 />
    <glyph glyph-name="zacute" unicode="&#x17a;" horiz-adv-x="1024" 
 />
    <glyph glyph-name="Zdotaccent" unicode="&#x17b;" horiz-adv-x="1251" 
 />
    <glyph glyph-name="zdotaccent" unicode="&#x17c;" horiz-adv-x="1024" 
 />
    <glyph glyph-name="longs" unicode="&#x17f;" horiz-adv-x="455" 
 />
    <glyph glyph-name="Aringacute" unicode="&#x1fa;" horiz-adv-x="1366" 
 />
    <glyph glyph-name="aringacute" unicode="&#x1fb;" 
 />
    <glyph glyph-name="AEacute" unicode="&#x1fc;" horiz-adv-x="2048" 
 />
    <glyph glyph-name="aeacute" unicode="&#x1fd;" horiz-adv-x="1821" 
 />
    <glyph glyph-name="Oslashacute" unicode="&#x1fe;" horiz-adv-x="1593" 
 />
    <glyph glyph-name="oslashacute" unicode="&#x1ff;" horiz-adv-x="1251" 
 />
    <glyph glyph-name="tonos" unicode="&#x384;" horiz-adv-x="682" 
 />
    <glyph glyph-name="dieresistonos" unicode="&#x385;" horiz-adv-x="682" 
 />
    <glyph glyph-name="Alphatonos" unicode="&#x386;" horiz-adv-x="1367" 
 />
    <glyph glyph-name="anoteleia" unicode="&#x387;" horiz-adv-x="569" 
 />
    <glyph glyph-name="Epsilontonos" unicode="&#x388;" horiz-adv-x="1606" 
 />
    <glyph glyph-name="Etatonos" unicode="&#x389;" horiz-adv-x="1716" 
 />
    <glyph glyph-name="Iotatonos" unicode="&#x38a;" horiz-adv-x="786" 
 />
    <glyph glyph-name="Omicrontonos" unicode="&#x38c;" horiz-adv-x="1586" 
 />
    <glyph glyph-name="Upsilontonos" unicode="&#x38e;" horiz-adv-x="1752" 
 />
    <glyph glyph-name="Omegatonos" unicode="&#x38f;" horiz-adv-x="1541" 
 />
    <glyph glyph-name="iotadieresistonos" unicode="&#x390;" horiz-adv-x="455" 
 />
    <glyph glyph-name="Alpha" unicode="&#x391;" horiz-adv-x="1366" 
 />
    <glyph glyph-name="Beta" unicode="&#x392;" horiz-adv-x="1366" 
 />
    <glyph glyph-name="Gamma" unicode="&#x393;" horiz-adv-x="1128" 
 />
    <glyph glyph-name="uni0394" unicode="&#x394;" horiz-adv-x="1368" 
 />
    <glyph glyph-name="Epsilon" unicode="&#x395;" horiz-adv-x="1366" 
 />
    <glyph glyph-name="Zeta" unicode="&#x396;" horiz-adv-x="1251" 
 />
    <glyph glyph-name="Eta" unicode="&#x397;" horiz-adv-x="1479" 
 />
    <glyph glyph-name="Theta" unicode="&#x398;" horiz-adv-x="1593" 
 />
    <glyph glyph-name="Iota" unicode="&#x399;" horiz-adv-x="569" 
 />
    <glyph glyph-name="Kappa" unicode="&#x39a;" horiz-adv-x="1366" 
 />
    <glyph glyph-name="Lambda" unicode="&#x39b;" horiz-adv-x="1368" 
 />
    <glyph glyph-name="Mu" unicode="&#x39c;" horiz-adv-x="1706" 
 />
    <glyph glyph-name="Nu" unicode="&#x39d;" horiz-adv-x="1479" 
 />
    <glyph glyph-name="Xi" unicode="&#x39e;" horiz-adv-x="1331" 
 />
    <glyph glyph-name="Omicron" unicode="&#x39f;" horiz-adv-x="1593" 
 />
    <glyph glyph-name="Pi" unicode="&#x3a0;" horiz-adv-x="1479" 
 />
    <glyph glyph-name="Rho" unicode="&#x3a1;" horiz-adv-x="1366" 
 />
    <glyph glyph-name="Sigma" unicode="&#x3a3;" horiz-adv-x="1266" 
 />
    <glyph glyph-name="Tau" unicode="&#x3a4;" horiz-adv-x="1251" 
 />
    <glyph glyph-name="Upsilon" unicode="&#x3a5;" horiz-adv-x="1366" 
 />
    <glyph glyph-name="Phi" unicode="&#x3a6;" horiz-adv-x="1634" 
 />
    <glyph glyph-name="Chi" unicode="&#x3a7;" horiz-adv-x="1366" 
 />
    <glyph glyph-name="Psi" unicode="&#x3a8;" horiz-adv-x="1711" 
 />
    <glyph glyph-name="uni03A9" unicode="&#x3a9;" horiz-adv-x="1531" 
 />
    <glyph glyph-name="Iotadieresis" unicode="&#x3aa;" horiz-adv-x="569" 
 />
    <glyph glyph-name="Upsilondieresis" unicode="&#x3ab;" horiz-adv-x="1366" 
 />
    <glyph glyph-name="alphatonos" unicode="&#x3ac;" horiz-adv-x="1184" 
 />
    <glyph glyph-name="epsilontonos" unicode="&#x3ad;" horiz-adv-x="913" 
 />
    <glyph glyph-name="etatonos" unicode="&#x3ae;" 
 />
    <glyph glyph-name="iotatonos" unicode="&#x3af;" horiz-adv-x="455" 
 />
    <glyph glyph-name="upsilondieresistonos" unicode="&#x3b0;" horiz-adv-x="1120" 
 />
    <glyph glyph-name="alpha" unicode="&#x3b1;" horiz-adv-x="1184" 
 />
    <glyph glyph-name="beta" unicode="&#x3b2;" horiz-adv-x="1178" 
 />
    <glyph glyph-name="gamma" unicode="&#x3b3;" horiz-adv-x="1024" 
 />
    <glyph glyph-name="delta" unicode="&#x3b4;" horiz-adv-x="1140" 
 />
    <glyph glyph-name="epsilon" unicode="&#x3b5;" horiz-adv-x="913" 
 />
    <glyph glyph-name="zeta" unicode="&#x3b6;" horiz-adv-x="903" 
 />
    <glyph glyph-name="eta" unicode="&#x3b7;" 
 />
    <glyph glyph-name="theta" unicode="&#x3b8;" 
 />
    <glyph glyph-name="iota" unicode="&#x3b9;" horiz-adv-x="455" 
 />
    <glyph glyph-name="kappa" unicode="&#x3ba;" horiz-adv-x="1024" 
 />
    <glyph glyph-name="lambda" unicode="&#x3bb;" horiz-adv-x="1024" 
 />
    <glyph glyph-name="uni03BC" unicode="&#x3bc;" horiz-adv-x="1180" 
 />
    <glyph glyph-name="nu" unicode="&#x3bd;" horiz-adv-x="1024" 
 />
    <glyph glyph-name="xi" unicode="&#x3be;" horiz-adv-x="917" 
 />
    <glyph glyph-name="omicron" unicode="&#x3bf;" 
 />
    <glyph glyph-name="pi" unicode="&#x3c0;" horiz-adv-x="1413" 
 />
    <glyph glyph-name="rho" unicode="&#x3c1;" horiz-adv-x="1165" 
 />
    <glyph glyph-name="sigma1" unicode="&#x3c2;" horiz-adv-x="987" 
 />
    <glyph glyph-name="sigma" unicode="&#x3c3;" horiz-adv-x="1264" 
 />
    <glyph glyph-name="tau" unicode="&#x3c4;" horiz-adv-x="809" 
 />
    <glyph glyph-name="upsilon" unicode="&#x3c5;" horiz-adv-x="1120" 
 />
    <glyph glyph-name="phi" unicode="&#x3c6;" horiz-adv-x="1328" 
 />
    <glyph glyph-name="chi" unicode="&#x3c7;" horiz-adv-x="1075" 
 />
    <glyph glyph-name="psi" unicode="&#x3c8;" horiz-adv-x="1460" 
 />
    <glyph glyph-name="omega" unicode="&#x3c9;" horiz-adv-x="1599" 
 />
    <glyph glyph-name="iotadieresis" unicode="&#x3ca;" horiz-adv-x="455" 
 />
    <glyph glyph-name="upsilondieresis" unicode="&#x3cb;" horiz-adv-x="1120" 
 />
    <glyph glyph-name="omicrontonos" unicode="&#x3cc;" 
 />
    <glyph glyph-name="upsilontonos" unicode="&#x3cd;" horiz-adv-x="1120" 
 />
    <glyph glyph-name="omegatonos" unicode="&#x3ce;" horiz-adv-x="1599" 
 />
    <glyph glyph-name="afii10023" unicode="&#x401;" horiz-adv-x="1367" 
 />
    <glyph glyph-name="afii10051" unicode="&#x402;" horiz-adv-x="1771" 
 />
    <glyph glyph-name="afii10052" unicode="&#x403;" horiz-adv-x="1109" 
 />
    <glyph glyph-name="afii10053" unicode="&#x404;" horiz-adv-x="1472" 
 />
    <glyph glyph-name="afii10054" unicode="&#x405;" horiz-adv-x="1366" 
 />
    <glyph glyph-name="afii10055" unicode="&#x406;" horiz-adv-x="569" 
 />
    <glyph glyph-name="afii10056" unicode="&#x407;" horiz-adv-x="569" 
 />
    <glyph glyph-name="afii10057" unicode="&#x408;" horiz-adv-x="1024" 
 />
    <glyph glyph-name="afii10058" unicode="&#x409;" horiz-adv-x="2165" 
 />
    <glyph glyph-name="afii10059" unicode="&#x40a;" horiz-adv-x="2069" 
 />
    <glyph glyph-name="afii10060" unicode="&#x40b;" horiz-adv-x="1749" 
 />
    <glyph glyph-name="afii10061" unicode="&#x40c;" horiz-adv-x="1193" 
 />
    <glyph glyph-name="afii10062" unicode="&#x40e;" horiz-adv-x="1301" 
 />
    <glyph glyph-name="afii10145" unicode="&#x40f;" horiz-adv-x="1472" 
 />
    <glyph glyph-name="afii10017" unicode="&#x410;" horiz-adv-x="1366" 
 />
    <glyph glyph-name="afii10018" unicode="&#x411;" horiz-adv-x="1344" 
 />
    <glyph glyph-name="afii10019" unicode="&#x412;" horiz-adv-x="1366" 
 />
    <glyph glyph-name="afii10020" unicode="&#x413;" horiz-adv-x="1109" 
 />
    <glyph glyph-name="afii10021" unicode="&#x414;" horiz-adv-x="1387" 
 />
    <glyph glyph-name="afii10022" unicode="&#x415;" horiz-adv-x="1366" 
 />
    <glyph glyph-name="afii10024" unicode="&#x416;" horiz-adv-x="1891" 
 />
    <glyph glyph-name="afii10025" unicode="&#x417;" horiz-adv-x="1237" 
 />
    <glyph glyph-name="afii10026" unicode="&#x418;" horiz-adv-x="1472" 
 />
    <glyph glyph-name="afii10027" unicode="&#x419;" horiz-adv-x="1472" 
 />
    <glyph glyph-name="afii10028" unicode="&#x41a;" horiz-adv-x="1193" 
 />
    <glyph glyph-name="afii10029" unicode="&#x41b;" horiz-adv-x="1344" 
 />
    <glyph glyph-name="afii10030" unicode="&#x41c;" horiz-adv-x="1706" 
 />
    <glyph glyph-name="afii10031" unicode="&#x41d;" horiz-adv-x="1479" 
 />
    <glyph glyph-name="afii10032" unicode="&#x41e;" horiz-adv-x="1593" 
 />
    <glyph glyph-name="afii10033" unicode="&#x41f;" horiz-adv-x="1472" 
 />
    <glyph glyph-name="afii10034" unicode="&#x420;" horiz-adv-x="1366" 
 />
    <glyph glyph-name="afii10035" unicode="&#x421;" horiz-adv-x="1479" 
 />
    <glyph glyph-name="afii10036" unicode="&#x422;" horiz-adv-x="1251" 
 />
    <glyph glyph-name="afii10037" unicode="&#x423;" horiz-adv-x="1301" 
 />
    <glyph glyph-name="afii10038" unicode="&#x424;" horiz-adv-x="1557" 
 />
    <glyph glyph-name="afii10039" unicode="&#x425;" horiz-adv-x="1366" 
 />
    <glyph glyph-name="afii10040" unicode="&#x426;" horiz-adv-x="1515" 
 />
    <glyph glyph-name="afii10041" unicode="&#x427;" horiz-adv-x="1365" 
 />
    <glyph glyph-name="afii10042" unicode="&#x428;" horiz-adv-x="1877" 
 />
    <glyph glyph-name="afii10043" unicode="&#x429;" horiz-adv-x="1920" 
 />
    <glyph glyph-name="afii10044" unicode="&#x42a;" horiz-adv-x="1621" 
 />
    <glyph glyph-name="afii10045" unicode="&#x42b;" horiz-adv-x="1813" 
 />
    <glyph glyph-name="afii10046" unicode="&#x42c;" horiz-adv-x="1344" 
 />
    <glyph glyph-name="afii10047" unicode="&#x42d;" horiz-adv-x="1472" 
 />
    <glyph glyph-name="afii10048" unicode="&#x42e;" horiz-adv-x="2069" 
 />
    <glyph glyph-name="afii10049" unicode="&#x42f;" horiz-adv-x="1479" 
 />
    <glyph glyph-name="afii10065" unicode="&#x430;" 
 />
    <glyph glyph-name="afii10066" unicode="&#x431;" horiz-adv-x="1173" 
 />
    <glyph glyph-name="afii10067" unicode="&#x432;" horiz-adv-x="1088" 
 />
    <glyph glyph-name="afii10068" unicode="&#x433;" horiz-adv-x="747" 
 />
    <glyph glyph-name="afii10069" unicode="&#x434;" horiz-adv-x="1195" 
 />
    <glyph glyph-name="afii10070" unicode="&#x435;" 
 />
    <glyph glyph-name="afii10072" unicode="&#x436;" horiz-adv-x="1370" 
 />
    <glyph glyph-name="afii10073" unicode="&#x437;" horiz-adv-x="939" 
 />
    <glyph glyph-name="afii10074" unicode="&#x438;" horiz-adv-x="1144" 
 />
    <glyph glyph-name="afii10075" unicode="&#x439;" horiz-adv-x="1144" 
 />
    <glyph glyph-name="afii10076" unicode="&#x43a;" horiz-adv-x="896" 
 />
    <glyph glyph-name="afii10077" unicode="&#x43b;" horiz-adv-x="1195" 
 />
    <glyph glyph-name="afii10078" unicode="&#x43c;" horiz-adv-x="1408" 
 />
    <glyph glyph-name="afii10079" unicode="&#x43d;" horiz-adv-x="1131" 
 />
    <glyph glyph-name="afii10080" unicode="&#x43e;" 
 />
    <glyph glyph-name="afii10081" unicode="&#x43f;" horiz-adv-x="1109" 
 />
    <glyph glyph-name="afii10082" unicode="&#x440;" 
 />
    <glyph glyph-name="afii10083" unicode="&#x441;" horiz-adv-x="1024" 
 />
    <glyph glyph-name="afii10084" unicode="&#x442;" horiz-adv-x="938" 
 />
    <glyph glyph-name="afii10085" unicode="&#x443;" horiz-adv-x="1024" 
 />
    <glyph glyph-name="afii10086" unicode="&#x444;" horiz-adv-x="1685" 
 />
    <glyph glyph-name="afii10087" unicode="&#x445;" horiz-adv-x="1024" 
 />
    <glyph glyph-name="afii10088" unicode="&#x446;" horiz-adv-x="1173" 
 />
    <glyph glyph-name="afii10089" unicode="&#x447;" horiz-adv-x="1067" 
 />
    <glyph glyph-name="afii10090" unicode="&#x448;" horiz-adv-x="1643" 
 />
    <glyph glyph-name="afii10091" unicode="&#x449;" horiz-adv-x="1685" 
 />
    <glyph glyph-name="afii10092" unicode="&#x44a;" horiz-adv-x="1280" 
 />
    <glyph glyph-name="afii10093" unicode="&#x44b;" horiz-adv-x="1472" 
 />
    <glyph glyph-name="afii10094" unicode="&#x44c;" horiz-adv-x="1067" 
 />
    <glyph glyph-name="afii10095" unicode="&#x44d;" horiz-adv-x="1045" 
 />
    <glyph glyph-name="afii10096" unicode="&#x44e;" horiz-adv-x="1536" 
 />
    <glyph glyph-name="afii10097" unicode="&#x44f;" horiz-adv-x="1109" 
 />
    <glyph glyph-name="afii10071" unicode="&#x451;" 
 />
    <glyph glyph-name="afii10099" unicode="&#x452;" 
 />
    <glyph glyph-name="afii10100" unicode="&#x453;" horiz-adv-x="747" 
 />
    <glyph glyph-name="afii10101" unicode="&#x454;" horiz-adv-x="1045" 
 />
    <glyph glyph-name="afii10102" unicode="&#x455;" horiz-adv-x="1024" 
 />
    <glyph glyph-name="afii10103" unicode="&#x456;" horiz-adv-x="455" 
 />
    <glyph glyph-name="afii10104" unicode="&#x457;" horiz-adv-x="569" 
 />
    <glyph glyph-name="afii10105" unicode="&#x458;" horiz-adv-x="455" 
 />
    <glyph glyph-name="afii10106" unicode="&#x459;" horiz-adv-x="1856" 
 />
    <glyph glyph-name="afii10107" unicode="&#x45a;" horiz-adv-x="1664" 
 />
    <glyph glyph-name="afii10108" unicode="&#x45b;" 
 />
    <glyph glyph-name="afii10109" unicode="&#x45c;" horiz-adv-x="896" 
 />
    <glyph glyph-name="afii10110" unicode="&#x45e;" horiz-adv-x="1024" 
 />
    <glyph glyph-name="afii10193" unicode="&#x45f;" horiz-adv-x="1131" 
 />
    <glyph glyph-name="afii10050" unicode="&#x490;" horiz-adv-x="1001" 
 />
    <glyph glyph-name="afii10098" unicode="&#x491;" horiz-adv-x="842" 
 />
    <glyph glyph-name="Wgrave" unicode="&#x1e80;" horiz-adv-x="1933" 
 />
    <glyph glyph-name="wgrave" unicode="&#x1e81;" horiz-adv-x="1479" 
 />
    <glyph glyph-name="Wacute" unicode="&#x1e82;" horiz-adv-x="1933" 
 />
    <glyph glyph-name="wacute" unicode="&#x1e83;" horiz-adv-x="1479" 
 />
    <glyph glyph-name="Wdieresis" unicode="&#x1e84;" horiz-adv-x="1933" 
 />
    <glyph glyph-name="wdieresis" unicode="&#x1e85;" horiz-adv-x="1479" 
 />
    <glyph glyph-name="Ygrave" unicode="&#x1ef2;" horiz-adv-x="1366" 
 />
    <glyph glyph-name="ygrave" unicode="&#x1ef3;" horiz-adv-x="1024" 
 />
    <glyph glyph-name="afii00208" unicode="&#x2015;" horiz-adv-x="2048" 
 />
    <glyph glyph-name="underscoredbl" unicode="&#x2017;" horiz-adv-x="1131" 
 />
    <glyph glyph-name="quotereversed" unicode="&#x201b;" horiz-adv-x="455" 
 />
    <glyph glyph-name="minute" unicode="&#x2032;" horiz-adv-x="384" 
 />
    <glyph glyph-name="second" unicode="&#x2033;" horiz-adv-x="725" 
 />
    <glyph glyph-name="exclamdbl" unicode="&#x203c;" horiz-adv-x="1024" 
 />
    <glyph glyph-name="uni203E" unicode="&#x203e;" horiz-adv-x="682" 
 />
    <glyph glyph-name="uni207F" unicode="&#x207f;" horiz-adv-x="747" 
 />
    <glyph glyph-name="lira" unicode="&#x20a4;" 
 />
    <glyph glyph-name="peseta" unicode="&#x20a7;" horiz-adv-x="2240" 
 />
    <glyph glyph-name="afii61248" unicode="&#x2105;" horiz-adv-x="1813" 
 />
    <glyph glyph-name="afii61289" unicode="&#x2113;" horiz-adv-x="662" 
 />
    <glyph glyph-name="afii61352" unicode="&#x2116;" horiz-adv-x="2197" 
 />
    <glyph glyph-name="estimated" unicode="&#x212e;" horiz-adv-x="1229" 
 />
    <glyph glyph-name="oneeighth" unicode="&#x215b;" horiz-adv-x="1708" 
 />
    <glyph glyph-name="threeeighths" unicode="&#x215c;" horiz-adv-x="1708" 
 />
    <glyph glyph-name="fiveeighths" unicode="&#x215d;" horiz-adv-x="1708" 
 />
    <glyph glyph-name="seveneighths" unicode="&#x215e;" horiz-adv-x="1708" 
 />
    <glyph glyph-name="arrowleft" unicode="&#x2190;" horiz-adv-x="2048" 
 />
    <glyph glyph-name="arrowup" unicode="&#x2191;" horiz-adv-x="1024" 
 />
    <glyph glyph-name="arrowright" unicode="&#x2192;" horiz-adv-x="2048" 
 />
    <glyph glyph-name="arrowdown" unicode="&#x2193;" horiz-adv-x="1024" 
 />
    <glyph glyph-name="arrowboth" unicode="&#x2194;" horiz-adv-x="2048" 
 />
    <glyph glyph-name="arrowupdn" unicode="&#x2195;" horiz-adv-x="1024" 
 />
    <glyph glyph-name="arrowupdnbse" unicode="&#x21a8;" horiz-adv-x="1024" 
 />
    <glyph glyph-name="orthogonal" unicode="&#x221f;" horiz-adv-x="2005" 
 />
    <glyph glyph-name="intersection" unicode="&#x2229;" horiz-adv-x="1472" 
 />
    <glyph glyph-name="equivalence" unicode="&#x2261;" horiz-adv-x="1195" 
 />
    <glyph glyph-name="house" unicode="&#x2302;" horiz-adv-x="1237" 
 />
    <glyph glyph-name="revlogicalnot" unicode="&#x2310;" horiz-adv-x="1196" 
 />
    <glyph glyph-name="integraltp" unicode="&#x2320;" horiz-adv-x="1237" 
 />
    <glyph glyph-name="integralbt" unicode="&#x2321;" horiz-adv-x="1237" 
 />
    <glyph glyph-name="SF100000" unicode="&#x2500;" horiz-adv-x="1451" 
 />
    <glyph glyph-name="SF110000" unicode="&#x2502;" horiz-adv-x="1280" 
 />
    <glyph glyph-name="SF010000" unicode="&#x250c;" horiz-adv-x="1451" 
 />
    <glyph glyph-name="SF030000" unicode="&#x2510;" horiz-adv-x="1451" 
 />
    <glyph glyph-name="SF020000" unicode="&#x2514;" horiz-adv-x="1451" 
 />
    <glyph glyph-name="SF040000" unicode="&#x2518;" horiz-adv-x="1451" 
 />
    <glyph glyph-name="SF080000" unicode="&#x251c;" horiz-adv-x="1451" 
 />
    <glyph glyph-name="SF090000" unicode="&#x2524;" horiz-adv-x="1451" 
 />
    <glyph glyph-name="SF060000" unicode="&#x252c;" horiz-adv-x="1451" 
 />
    <glyph glyph-name="SF070000" unicode="&#x2534;" horiz-adv-x="1451" 
 />
    <glyph glyph-name="SF050000" unicode="&#x253c;" horiz-adv-x="1451" 
 />
    <glyph glyph-name="SF430000" unicode="&#x2550;" horiz-adv-x="1451" 
 />
    <glyph glyph-name="SF240000" unicode="&#x2551;" horiz-adv-x="1451" 
 />
    <glyph glyph-name="SF510000" unicode="&#x2552;" horiz-adv-x="1451" 
 />
    <glyph glyph-name="SF520000" unicode="&#x2553;" horiz-adv-x="1451" 
 />
    <glyph glyph-name="SF390000" unicode="&#x2554;" horiz-adv-x="1451" 
 />
    <glyph glyph-name="SF220000" unicode="&#x2555;" horiz-adv-x="1451" 
 />
    <glyph glyph-name="SF210000" unicode="&#x2556;" horiz-adv-x="1451" 
 />
    <glyph glyph-name="SF250000" unicode="&#x2557;" horiz-adv-x="1451" 
 />
    <glyph glyph-name="SF500000" unicode="&#x2558;" horiz-adv-x="1451" 
 />
    <glyph glyph-name="SF490000" unicode="&#x2559;" horiz-adv-x="1451" 
 />
    <glyph glyph-name="SF380000" unicode="&#x255a;" horiz-adv-x="1451" 
 />
    <glyph glyph-name="SF280000" unicode="&#x255b;" horiz-adv-x="1451" 
 />
    <glyph glyph-name="SF270000" unicode="&#x255c;" horiz-adv-x="1451" 
 />
    <glyph glyph-name="SF260000" unicode="&#x255d;" horiz-adv-x="1451" 
 />
    <glyph glyph-name="SF360000" unicode="&#x255e;" horiz-adv-x="1451" 
 />
    <glyph glyph-name="SF370000" unicode="&#x255f;" horiz-adv-x="1451" 
 />
    <glyph glyph-name="SF420000" unicode="&#x2560;" horiz-adv-x="1451" 
 />
    <glyph glyph-name="SF190000" unicode="&#x2561;" horiz-adv-x="1451" 
 />
    <glyph glyph-name="SF200000" unicode="&#x2562;" horiz-adv-x="1451" 
 />
    <glyph glyph-name="SF230000" unicode="&#x2563;" horiz-adv-x="1451" 
 />
    <glyph glyph-name="SF470000" unicode="&#x2564;" horiz-adv-x="1451" 
 />
    <glyph glyph-name="SF480000" unicode="&#x2565;" horiz-adv-x="1451" 
 />
    <glyph glyph-name="SF410000" unicode="&#x2566;" horiz-adv-x="1451" 
 />
    <glyph glyph-name="SF450000" unicode="&#x2567;" horiz-adv-x="1451" 
 />
    <glyph glyph-name="SF460000" unicode="&#x2568;" horiz-adv-x="1451" 
 />
    <glyph glyph-name="SF400000" unicode="&#x2569;" horiz-adv-x="1451" 
 />
    <glyph glyph-name="SF540000" unicode="&#x256a;" horiz-adv-x="1451" 
 />
    <glyph glyph-name="SF530000" unicode="&#x256b;" horiz-adv-x="1451" 
 />
    <glyph glyph-name="SF440000" unicode="&#x256c;" horiz-adv-x="1451" 
 />
    <glyph glyph-name="upblock" unicode="&#x2580;" horiz-adv-x="1451" 
 />
    <glyph glyph-name="dnblock" unicode="&#x2584;" horiz-adv-x="1451" 
 />
    <glyph glyph-name="block" unicode="&#x2588;" horiz-adv-x="1451" 
 />
    <glyph glyph-name="lfblock" unicode="&#x258c;" horiz-adv-x="1451" 
 />
    <glyph glyph-name="rtblock" unicode="&#x2590;" horiz-adv-x="1451" 
 />
    <glyph glyph-name="ltshade" unicode="&#x2591;" horiz-adv-x="1451" 
 />
    <glyph glyph-name="shade" unicode="&#x2592;" horiz-adv-x="1451" 
 />
    <glyph glyph-name="dkshade" unicode="&#x2593;" horiz-adv-x="1493" 
 />
    <glyph glyph-name="filledbox" unicode="&#x25a0;" horiz-adv-x="1237" 
 />
    <glyph glyph-name="H22073" unicode="&#x25a1;" horiz-adv-x="1237" 
 />
    <glyph glyph-name="H18543" unicode="&#x25aa;" horiz-adv-x="726" 
 />
    <glyph glyph-name="H18551" unicode="&#x25ab;" horiz-adv-x="726" 
 />
    <glyph glyph-name="filledrect" unicode="&#x25ac;" horiz-adv-x="2048" 
 />
    <glyph glyph-name="triagup" unicode="&#x25b2;" horiz-adv-x="2027" 
 />
    <glyph glyph-name="triagrt" unicode="&#x25ba;" horiz-adv-x="2027" 
 />
    <glyph glyph-name="triagdn" unicode="&#x25bc;" horiz-adv-x="2027" 
 />
    <glyph glyph-name="triaglf" unicode="&#x25c4;" horiz-adv-x="2027" 
 />
    <glyph glyph-name="circle" unicode="&#x25cb;" horiz-adv-x="1237" 
 />
    <glyph glyph-name="H18533" unicode="&#x25cf;" horiz-adv-x="1237" 
 />
    <glyph glyph-name="invbullet" unicode="&#x25d8;" horiz-adv-x="1237" 
 />
    <glyph glyph-name="invcircle" unicode="&#x25d9;" horiz-adv-x="1237" 
 />
    <glyph glyph-name="openbullet" unicode="&#x25e6;" horiz-adv-x="726" 
 />
    <glyph glyph-name="smileface" unicode="&#x263a;" horiz-adv-x="2091" 
 />
    <glyph glyph-name="invsmileface" unicode="&#x263b;" horiz-adv-x="2155" 
 />
    <glyph glyph-name="sun" unicode="&#x263c;" horiz-adv-x="1877" 
 />
    <glyph glyph-name="female" unicode="&#x2640;" horiz-adv-x="1536" 
 />
    <glyph glyph-name="male" unicode="&#x2642;" horiz-adv-x="1536" 
 />
    <glyph glyph-name="spade" unicode="&#x2660;" horiz-adv-x="1088" 
 />
    <glyph glyph-name="club" unicode="&#x2663;" horiz-adv-x="1344" 
 />
    <glyph glyph-name="heart" unicode="&#x2665;" horiz-adv-x="1216" 
 />
    <glyph glyph-name="diamond" unicode="&#x2666;" horiz-adv-x="1045" 
 />
    <glyph glyph-name="musicalnote" unicode="&#x266a;" horiz-adv-x="1024" 
 />
    <glyph glyph-name="musicalnotedbl" unicode="&#x266b;" horiz-adv-x="1536" 
 />
    <glyph glyph-name="uniF004" unicode="&#xf004;" horiz-adv-x="682" 
 />
    <glyph glyph-name="uniF005" unicode="&#xf005;" horiz-adv-x="682" 
 />
    </font>
</defs>
</svg>
