<?xml version="1.0" standalone="no"?>
<!DOCTYPE svg PUBLIC "-//W3C//DTD SVG 1.1//EN" "http://www.w3.org/Graphics/SVG/1.1/DTD/svg11.dtd" >
<svg xmlns="http://www.w3.org/2000/svg">
<metadata></metadata>
<defs>
<font id="geogrotesque_lg_itLtIt" horiz-adv-x="1062" >
<font-face units-per-em="2048" ascent="1536" descent="-512" />
<missing-glyph horiz-adv-x="475" />
<glyph unicode="&#xfb01;" horiz-adv-x="1073" d="M176 -399l164 1317h-133q-13 0 -18 5t-3 19l2 33q1 13 7 18.5t20 5.5l115 7h20l21 174q27 252 391 252h268q24 0 21 -25l-4 -43q-3 -25 -27 -25h-262q-144 0 -208.5 -44.5t-74.5 -125.5l-18 -163h569q26 0 23 -25l-119 -956q-3 -25 -25 -25h-59q-26 0 -23 25l111 893 h-488l-163 -1317q-3 -27 -27 -27h-57q-26 0 -23 27z" />
<glyph unicode="&#xfb02;" horiz-adv-x="1103" d="M176 -399l164 1317h-133q-13 0 -18 5t-3 19l2 33q1 13 7 17.5t20 6.5l115 7h20l21 174q10 78 47 131.5t123.5 87t220.5 33.5h315q26 0 23 -25l-170 -1382q-3 -25 -25 -25h-59q-26 0 -23 25l162 1314h-227q-144 0 -208.5 -44.5t-74.5 -125.5l-18 -163h235q26 0 23 -23 l-6 -41q-3 -24 -25 -24h-238l-163 -1317q-3 -27 -27 -27h-57q-26 0 -23 27z" />
<glyph unicode="&#xfb03;" horiz-adv-x="1660" d="M180 -401l164 1321h-133q-14 0 -19 5t-4 17l5 33q3 24 26 24l113 7h20l25 182q11 78 48.5 131.5t124.5 87t222 33.5h12q24 0 21 -25l-4 -41q-3 -24 -29 -24h-10q-142 0 -206.5 -44.5t-74.5 -125.5l-22 -174h489l23 174q7 58 30.5 102t68 78.5t118 53t174.5 18.5h266 q26 0 23 -25l-4 -41q-3 -25 -27 -25h-262q-144 0 -208.5 -44.5t-74.5 -125.5l-20 -165h569q26 0 23 -25l-119 -956q-3 -25 -25 -25h-59q-24 0 -21 25l109 895h-488l-163 -1321q-3 -25 -25 -25h-59q-26 0 -23 25l164 1321h-487l-164 -1321q-3 -25 -27 -25h-59q-24 0 -21 25z " />
<glyph unicode="&#xfb04;" horiz-adv-x="1701" d="M180 -401l162 1321h-133q-13 0 -18.5 5t-4.5 17l7 33q5 24 26 24l113 7h20l23 182q15 120 106 186t289 66h12q26 0 23 -25l-4 -41q-3 -24 -29 -24h-10q-142 0 -206.5 -44.5t-74.5 -125.5l-22 -174h489l23 174q10 78 47 131.5t123.5 87t220.5 33.5h313q28 0 25 -25 l-172 -1382q-3 -25 -25 -25h-59q-24 0 -21 25l162 1316h-227q-144 0 -208.5 -44.5t-74.5 -125.5l-20 -165h237q24 0 21 -23l-4 -41q-3 -22 -27 -22h-238l-163 -1321q-3 -25 -25 -25h-59q-26 0 -23 25l164 1321h-489l-162 -1321q-3 -25 -27 -25h-59q-24 0 -21 25z" />
<glyph horiz-adv-x="0" />
<glyph horiz-adv-x="682" />
<glyph unicode=" "  horiz-adv-x="475" />
<glyph unicode="&#x09;" horiz-adv-x="475" />
<glyph unicode="&#xa0;" horiz-adv-x="475" />
<glyph unicode="!" horiz-adv-x="507" d="M201 25l20 157q3 25 29 25h59q24 0 21 -25l-21 -157q-2 -14 -7.5 -19.5t-18.5 -5.5h-60q-25 0 -22 25zM252 346l45 453l68 569q3 25 28 25h64q23 0 20 -25l-67 -569l-68 -453q-3 -24 -29 -24h-41q-23 0 -20 24z" />
<glyph unicode="&#x22;" horiz-adv-x="716" d="M305 1014l35 354q3 25 27 25h61q21 0 18 -25l-53 -354q-3 -27 -24 -27h-41q-26 0 -23 27zM567 1014l35 354q3 25 27 25h59q24 0 21 -25l-54 -354q-3 -27 -24 -27h-41q-26 0 -23 27z" />
<glyph unicode="#" horiz-adv-x="1323" d="M238 496l2 32q3 25 28 25h174l99 244h-160q-24 0 -21 24l2 33q3 25 29 25h182l82 206q11 25 35 25h45q23 0 15 -25l-84 -206h329l84 206q11 25 33 25h47q20 0 12 -25l-81 -206h137q25 0 22 -25l-4 -33q-3 -24 -28 -24h-160l-99 -244h146q25 0 22 -25l-2 -32 q-3 -25 -28 -25h-170l-82 -203q-10 -24 -31 -24h-47q-26 0 -16 24l81 203h-327l-82 -203q-9 -24 -31 -24h-49q-11 0 -14.5 7t0.5 17l82 203h-152q-23 0 -20 25zM537 553h327l101 244h-330z" />
<glyph unicode="$" horiz-adv-x="1079" d="M254 369q0 12 2 32l6 52q3 22 27 22h55q18 0 16 -22l-4 -47q-2 -18 -2 -27q0 -58 62 -90.5t180 -32.5q130 0 202 37t81 104l10 88q2 20 2 31q0 65 -113 102l-303 99q-62 20 -102.5 66t-40.5 106q0 15 2 31l10 79q10 91 87 149t235 66l18 154q3 25 29 25h57q21 0 18 -25 l-20 -154q132 -10 200 -64t68 -130q0 -17 -2 -37l-6 -53q-3 -23 -27 -23h-53q-23 0 -20 23l6 47q2 16 2 39q0 52 -57 86.5t-172 34.5q-247 0 -263 -140l-8 -61q-2 -14 -2 -25q0 -79 98 -110l312 -96q71 -23 110 -65.5t39 -96.5q0 -3 -4 -39l-12 -115q-11 -91 -94 -148.5 t-242 -64.5l-18 -151q-3 -25 -25 -25h-57q-26 0 -23 25l19 149q-141 9 -212 63t-71 132z" />
<glyph unicode="%" horiz-adv-x="1538" d="M295 963q0 14 4 38l25 218q10 90 75.5 138t210.5 48q127 0 186.5 -41.5t59.5 -114.5q0 -25 -2 -43l-27 -215q-11 -90 -75.5 -137t-208.5 -47q-248 0 -248 156zM387 975q0 -94 164 -94q171 0 184 112l27 213q2 20 2 27q0 94 -162 94q-173 0 -186 -110l-25 -205 q-4 -36 -4 -37zM406.5 9q-1.5 9 3.5 16l774 1343q14 25 39 25h55q11 0 14 -8t-4 -17l-776 -1343q-16 -25 -37 -25h-57q-10 0 -11.5 9zM846 139q0 15 4 39l24 217q10 90 76 138.5t211 48.5q127 0 186.5 -41.5t59.5 -114.5q0 -25 -2 -43l-27 -215q-11 -90 -75.5 -137 t-208.5 -47q-248 0 -248 155zM938 152q0 -95 164 -95q171 0 184 113l27 213q2 20 2 27q0 94 -162 94q-173 0 -186 -111l-25 -205q-1 -7 -2 -14.5t-1.5 -12.5t-0.5 -9z" />
<glyph unicode="&#x26;" horiz-adv-x="1361" d="M219 233q0 23 2 37l29 236q13 101 62 156.5t167 80.5q-89 21 -125.5 66.5t-36.5 116.5q0 9 5 49l18 151q6 51 20.5 91t45 77t76 61.5t116 39t162.5 14.5q107 0 185 -21t127.5 -74.5t49.5 -137.5v-25l-6 -66q-3 -24 -26 -24h-60q-23 0 -20 24l4 52v20q0 40 -16 70 t-40.5 46.5t-60.5 27t-70 13.5t-75 3q-138 0 -216 -45t-92 -160l-14 -123q-4 -36 -4 -47q0 -77 58 -115.5t206 -38.5h653q24 0 21 -24l-4 -45q-3 -23 -29 -23h-160l-53 -428q-36 -284 -481 -284q-217 0 -317.5 66.5t-100.5 182.5zM328 252q0 -85 80 -130.5t237 -45.5 q340 0 367 205l53 415h-397q-89 0 -148.5 -13.5t-93.5 -41.5t-49 -62t-21 -85l-26 -211q-2 -14 -2 -31z" />
<glyph unicode="'" horiz-adv-x="454" d="M305 1014l35 354q3 25 27 25h61q21 0 18 -25l-53 -354q-3 -27 -24 -27h-41q-26 0 -23 27z" />
<glyph unicode="(" horiz-adv-x="722" d="M164 -225q0 19 2 39l172 1384q14 127 100 189.5t285 62.5h22q24 0 21 -25l-4 -43q-3 -24 -27 -24h-10q-143 0 -206 -44t-73 -126l-167 -1362q-1 -7 -2 -15t-2 -13t-1 -7q0 -71 54.5 -108t185.5 -37h10q24 0 21 -25l-6 -43q-3 -24 -25 -24h-10q-340 0 -340 221z" />
<glyph unicode=")" horiz-adv-x="722" d="M78 -422l4 43q3 25 27 25h10q142 0 205 44t73 126l168 1362q1 6 1.5 13t1 10.5t1 8t0.5 7.5q0 69 -55.5 105t-185.5 36h-9q-23 0 -20 24l4 43q3 25 27 25h10q340 0 340 -221q0 -11 -4 -39l-170 -1385q-16 -127 -102 -189t-285 -62h-21q-23 0 -20 24z" />
<glyph unicode="*" horiz-adv-x="1028" d="M315 936q-7 21 15 33l250 133l-218 135q-19 11 -6 31l17 28q14 24 37 9l213 -150l26 275q3 24 27 24h33q23 0 20 -24l-43 -275l246 152q14 7 20.5 5t12.5 -14l14 -28q12 -21 -12 -33l-252 -135l219 -135q17 -11 4 -31l-16 -29q-16 -24 -37 -8l-211 148l-25 -267 q-3 -26 -26 -26h-33q-24 0 -21 26l41 269l-250 -152q-11 -6 -20 -3.5t-12 11.5z" />
<glyph unicode="+" horiz-adv-x="1196" d="M254 672v45q0 24 25 24h352v355q0 24 24 24h41q25 0 25 -24v-355h358q25 0 25 -24v-45q0 -23 -25 -23h-358v-354q0 -25 -25 -25h-41q-24 0 -24 25v354h-352q-25 0 -25 23z" />
<glyph unicode="," horiz-adv-x="458" d="M53 -119q-3 12 1 18.5t18 12.5q63 28 89 61.5t32 87.5l16 121q3 25 27 25h61q23 0 20 -25l-16 -125q-11 -89 -60 -144.5t-149 -88.5q-23 -8 -29 14z" />
<glyph unicode="-" horiz-adv-x="946" d="M240 571v43q0 23 24 23h551q25 0 25 -23v-43q0 -24 -25 -24h-551q-24 0 -24 24z" />
<glyph unicode="." horiz-adv-x="436" d="M166 25l18 157q3 25 27 25h63q22 0 19 -25l-19 -157q-3 -25 -26 -25h-60q-25 0 -22 25z" />
<glyph unicode="/" horiz-adv-x="757" d="M61 -279l658 1686q11 25 31 25h67q26 0 17 -25l-658 -1686q-9 -24 -35 -24h-65q-25 0 -15 24z" />
<glyph unicode="0" horiz-adv-x="1097" d="M170 223q0 21 4 53l105 844q6 51 20.5 91.5t46 79t79 63.5t121.5 40t171 15q379 0 379 -244q0 -17 -4 -49l-103 -844q-6 -51 -21 -91.5t-47 -78.5t-79.5 -63t-122 -40t-170.5 -15q-379 0 -379 239zM283 248q0 -82 62 -126t212 -44q168 0 240.5 54.5t83.5 156.5l100 811 q2 20 2 43q0 84 -62 128t-212 44q-168 0 -240.5 -54.5t-83.5 -156.5l-96 -793q-6 -54 -6 -63z" />
<glyph unicode="1" horiz-adv-x="1097" d="M156 25l6 45q2 14 7 19t17 5h340l150 1192l-350 -96q-11 -3 -17.5 3t-5.5 19l4 45q2 22 29 29l438 111q9 2 15.5 -3.5t5.5 -17.5l-158 -1282h338q25 0 22 -24l-6 -45q-2 -14 -7.5 -19.5t-18.5 -5.5h-789q-23 0 -20 25z" />
<glyph unicode="2" horiz-adv-x="1097" d="M180 25l51 401q17 135 199 186l387 113q20 6 38.5 15t43.5 26t42.5 45t21.5 63l28 228q2 23 2 45q0 82 -60.5 126t-209.5 44q-70 0 -123.5 -10t-88 -28t-58 -45t-34.5 -57.5t-16 -70.5l-12 -100q-3 -27 -26 -27h-60q-23 0 -20 27l14 114q6 52 20.5 92t45.5 78.5t77 63.5 t119.5 40t169.5 15q373 0 373 -240q0 -21 -4 -53l-29 -242q-6 -56 -29.5 -100t-56.5 -70t-62.5 -41t-60.5 -24l-362 -102q-152 -43 -164 -142l-39 -301h657q26 0 23 -24l-4 -45q-3 -25 -29 -25h-743q-24 0 -21 25z" />
<glyph unicode="3" horiz-adv-x="1097" d="M164 225q0 20 2 43l4 39q3 25 29 25h57q24 0 20 -25l-2 -26q-2 -14 -2 -39q0 -80 62.5 -123t210.5 -43q164 0 236 52.5t83 152.5l25 213q4 40 4 47q0 77 -58 116t-204 39h-191q-25 0 -22 23l4 45q3 24 29 24h178q115 0 182.5 25.5t93 66.5t33.5 109l14 123q2 16 2 39 q0 81 -58.5 123.5t-201.5 42.5q-161 0 -231 -53t-78 -152l-2 -27q-3 -24 -27 -24h-57q-26 0 -23 24l5 39q6 63 28.5 111t69 89t129 63t197.5 22q101 0 172.5 -17.5t111.5 -50t58 -73.5t18 -94q0 -14 -4 -54l-19 -147q-11 -97 -55 -151t-153 -79q93 -22 130 -68.5t37 -119.5 q0 -19 -4 -55l-28 -234q-8 -65 -31 -113t-70 -88t-129.5 -60.5t-199.5 -20.5q-375 0 -375 241z" />
<glyph unicode="4" horiz-adv-x="1097" d="M162 481l6 41q1 8 16 45l394 801q12 25 34 25h64q12 0 15 -7.5t-3 -17.5l-399 -815h585l101 815q3 25 26 25h62q23 0 20 -25l-163 -1343q-3 -25 -27 -25h-62q-25 0 -22 25l55 434h-680q-25 0 -22 22z" />
<glyph unicode="5" horiz-adv-x="1097" d="M193 223q0 29 2 45l4 39q3 25 26 25h60q23 0 20 -25l-2 -24q-2 -12 -2 -45q0 -39 11 -67t39 -50.5t80 -33.5t128 -11q85 0 143 14t91 42.5t48 63t21 85.5l31 264q4 40 4 43q0 157 -262 157h-330q-23 0 -20 25l73 598q3 25 27 25h664q23 0 20 -25l-4 -45q-3 -25 -27 -25 h-579l-58 -460h244q174 0 269.5 -60.5t95.5 -169.5q0 -20 -4 -49l-37 -291q-6 -52 -20 -92t-44 -77.5t-75 -61.5t-116 -38.5t-165 -14.5q-103 0 -174.5 17.5t-110 51t-55 74.5t-16.5 96z" />
<glyph unicode="6" horiz-adv-x="1097" d="M182 221q0 19 4 51l107 861q5 45 18 81.5t43 74t75 63t118.5 41.5t169.5 16q362 0 362 -235q0 -16 -2 -41l-4 -33q-3 -25 -26 -25h-60q-23 0 -20 25l2 20q0 3 1 15t1 16q0 36 -11 63.5t-38.5 52t-81 37.5t-131.5 13q-85 0 -145.5 -15.5t-94 -44.5t-49.5 -61.5t-21 -75.5 l-51 -409q77 112 318 112q358 0 358 -239q0 -22 -4 -54l-31 -258q-7 -65 -30 -113.5t-70 -90t-131 -63t-203 -21.5q-373 0 -373 237zM293 244q0 -83 60 -125.5t210 -42.5q87 0 148 15t96.5 44t52.5 65t23 85l26 237q4 32 4 41q0 81 -61 124.5t-211 43.5q-294 0 -315 -190 l-29 -250q-4 -36 -4 -47z" />
<glyph unicode="7" horiz-adv-x="1097" d="M272 1323l7 45q3 25 26 25h828q23 0 20 -25l-4 -41q-2 -13 -10 -29l-688 -1273q-14 -25 -33 -25h-74q-26 0 -14 25l690 1273h-723q-28 0 -25 25z" />
<glyph unicode="8" horiz-adv-x="1097" d="M178 223q0 29 2 49l29 232q13 100 64.5 158t170.5 83q-90 21 -127.5 69.5t-37.5 121.5q0 15 4 55l14 129q6 53 18.5 92t41 78t72.5 64t116 40t168 15q103 0 175 -17.5t111 -50.5t55.5 -73.5t16.5 -93.5q0 -18 -4 -54l-16 -133q-13 -102 -61.5 -159.5t-164.5 -82.5 q185 -41 185 -198q0 -15 -4 -47l-27 -228q-7 -65 -29.5 -113.5t-69 -90t-130 -63t-203.5 -21.5q-104 0 -177.5 17.5t-114.5 51t-59 75t-18 95.5zM287 242q0 -53 22 -88t83 -56.5t163 -21.5q87 0 147.5 15t95.5 44t51.5 65t22.5 85l25 200q2 16 2 45q0 83 -59.5 126.5 t-208.5 43.5q-87 0 -147.5 -15t-95 -44.5t-51 -65.5t-22.5 -86l-24 -204q-4 -32 -4 -43zM387 954q0 -82 54.5 -122.5t199.5 -40.5q87 0 145.5 14.5t91 44.5t47 65t21.5 86l15 107q4 36 4 45q0 81 -56.5 122.5t-203.5 41.5q-86 0 -144 -14.5t-90 -44.5t-46.5 -64.5 t-21.5 -85.5l-14 -107q-2 -18 -2 -47z" />
<glyph unicode="9" horiz-adv-x="1097" d="M184 219q0 16 2 41l4 33q3 24 27 24h59q24 0 21 -24l-2 -21q0 -4 -1 -15t-1 -15q0 -76 58.5 -121t207.5 -45q85 0 145 15.5t93 44t48.5 61t20.5 75.5l52 410q-81 -113 -318 -113q-358 0 -358 240q0 21 4 53l30 258q6 51 20.5 91.5t45.5 79t78 63.5t120 40t169 15 q372 0 372 -238q0 -19 -4 -51l-104 -860q-5 -45 -17.5 -81.5t-42.5 -74.5t-74 -63t-117 -41t-169 -16q-105 0 -180 19t-114.5 53.5t-57 74t-17.5 88.5zM350 829q0 -81 61.5 -124t211.5 -43q83 0 143 14t95.5 40.5t53.5 59.5t23 76l29 250q4 36 4 47q0 82 -60 125t-209 43 q-87 0 -148.5 -15t-96.5 -44t-51.5 -65t-22.5 -85l-29 -238q-4 -32 -4 -41z" />
<glyph unicode=":" horiz-adv-x="436" d="M166 25l18 157q3 25 29 25h59q24 0 21 -25l-19 -157q-3 -25 -28 -25h-60q-13 0 -17.5 5.5t-2.5 19.5zM264 825l21 158q3 27 26 27h60q23 0 20 -27l-18 -158q-3 -24 -27 -24h-61q-24 0 -21 24z" />
<glyph unicode=";" horiz-adv-x="540" d="M137 -119q-7 20 19 31q60 27 87 61.5t33 87.5l15 121q3 25 26 25h64q21 0 18 -25l-16 -125q-21 -176 -207 -233q-21 -6 -26 12zM371 825l18 158q3 27 29 27h59q24 0 21 -27l-19 -158q-3 -24 -26 -24h-62q-23 0 -20 24z" />
<glyph unicode="&#x3c;" horiz-adv-x="1114" d="M254 666v63q0 20 22 29l719 327q10 4 17.5 -1t7.5 -17v-59q0 -20 -25 -29l-635 -283l635 -280q25 -9 25 -29v-59q0 -12 -7.5 -17.5t-17.5 -1.5l-719 328q-22 9 -22 29z" />
<glyph unicode="=" horiz-adv-x="1208" d="M229 487v43q0 25 25 25h813q25 0 25 -25v-43q0 -24 -25 -24h-813q-25 0 -25 24zM229 838v43q0 24 25 24h813q25 0 25 -24v-43q0 -25 -25 -25h-813q-25 0 -25 25z" />
<glyph unicode="&#x3e;" horiz-adv-x="1112" d="M211 328v59q0 20 25 29l634 280l-634 283q-25 9 -25 27v61q0 14 6.5 20t18.5 0l718 -329q23 -10 23 -27v-65q0 -19 -23 -29l-718 -330q-12 -6 -18.5 0.5t-6.5 20.5z" />
<glyph unicode="?" horiz-adv-x="1163" d="M291 1006l14 114q6 51 22 92t48.5 78.5t81 63t123 40.5t170.5 15q205 0 294 -67.5t89 -180.5q0 -21 -3 -45l-20 -172q-22 -168 -195 -248l-112 -53q-111 -55 -125 -154l-21 -143q-2 -14 -7.5 -19t-18.5 -5h-60q-14 0 -18 6t-4 18l22 166q17 129 160 199l137 65 q43 20 83.5 61t49.5 107l21 162q2 16 2 39q0 82 -65.5 127t-219.5 45q-167 0 -241.5 -54.5t-87.5 -156.5l-15 -100q-3 -27 -24 -27h-60q-23 0 -20 27zM510 25l18 155q3 27 29 27h61q22 0 19 -25l-19 -157q-3 -25 -26 -25h-62q-22 0 -20 25z" />
<glyph unicode="@" horiz-adv-x="1687" d="M205 57q0 22 6 76l98 799q7 58 28.5 104t69.5 89.5t121.5 72.5t191.5 46.5t273 17.5q141 0 249 -14.5t176 -40t111 -62.5t60 -78.5t17 -91.5q0 -7 -4 -53l-74 -603q-14 -121 -75.5 -186t-188.5 -65q-84 0 -134 35.5t-61 97.5q-173 -133 -346 -133q-107 0 -160 47t-53 129 q0 40 8 73l82 369q29 125 97 189.5t206 64.5q149 0 285 -121l20 80q6 25 29 25h49q12 0 18 -7t3 -18l-129 -563q-9 -37 -9 -74q0 -53 27.5 -82.5t81.5 -29.5q123 0 147 182l72 586q4 28 4 40q0 50 -25.5 88t-83 67.5t-160 45t-247.5 15.5q-126 0 -222 -12t-159.5 -33 t-105 -52.5t-60.5 -67t-24 -79.5l-101 -803q-4 -32 -4 -53q0 -70 44.5 -115.5t160.5 -72.5t309 -27h381q25 0 21 -25l-2 -43q-3 -22 -29 -22h-379q-141 0 -248 14.5t-175 40t-110.5 62.5t-59.5 78.5t-17 92.5zM618 279q0 -115 152 -115q141 0 295 112q0 5 6 41l92 412 q-22 22 -36.5 34.5t-47 35t-73 34t-86.5 11.5q-181 0 -218 -174l-75 -336q-9 -45 -9 -55z" />
<glyph unicode="A" d="M54 7q-2 3 -2 8t3 10l580 1343q13 25 35 25h63q24 0 27 -25l250 -1343q1 -5 1 -9q0 -16 -20 -16h-63q-24 0 -27 25l-76 397h-493l-170 -397q-12 -25 -31 -25h-59q-14 0 -18 7zM371 510h442l-104 549l-25 219q-2 -6 -12 -38t-18.5 -60.5t-20.5 -62.5t-21 -54z" />
<glyph unicode="B" horiz-adv-x="1185" d="M199 25l166 1343q3 25 26 25h344q209 0 303.5 -66.5t94.5 -179.5q0 -9 -3 -43l-14 -133q-19 -186 -225 -244q110 -22 164.5 -80t54.5 -139q0 -27 -2 -41l-23 -184q-8 -64 -34 -112.5t-77.5 -88.5t-139.5 -61t-209 -21h-404q-22 0 -22 20v5zM317 92h314q173 0 254 53.5 t94 153.5l20 162q2 14 2 37q0 178 -296 178h-316zM399 764h285q300 0 324 207l14 121q2 20 2 36q0 172 -295 172h-264z" />
<glyph unicode="C" horiz-adv-x="1120" d="M203 227q0 17 4 49l102 844q7 64 32 113.5t74.5 90.5t136.5 63t208 22q389 0 389 -246q0 -15 -4 -47l-12 -102q-3 -27 -25 -27h-59q-26 0 -23 27l12 86q2 12 2 39q0 176 -288 176q-170 0 -246.5 -54.5t-89.5 -156.5l-99 -811q-2 -14 -2 -41q0 -83 66 -128.5t219 -45.5 q170 0 248.5 55t89.5 156l14 117q3 22 27 22h57q13 0 19 -5.5t4 -16.5l-17 -134q-6 -51 -22 -92t-49.5 -78.5t-82.5 -62.5t-124.5 -40t-173.5 -15q-387 0 -387 243z" />
<glyph unicode="D" horiz-adv-x="1224" d="M199 25l166 1343q3 25 26 25h400q210 0 304.5 -68t94.5 -182q0 -35 -2 -49l-98 -805q-8 -64 -34 -113.5t-77 -90.5t-139.5 -63t-210.5 -22h-410q-20 0 -20 20v5zM317 94h318q319 0 346 211l96 776q2 14 2 39q0 178 -297 178h-317z" />
<glyph unicode="E" horiz-adv-x="1079" d="M199 25l166 1343q3 25 26 25h701q20 0 20 -20v-5l-6 -45q-3 -25 -27 -25h-614l-64 -520h578q23 0 20 -24l-4 -43q-3 -25 -28 -25h-576l-74 -592h637q26 0 23 -24l-6 -45q-3 -25 -25 -25h-725q-22 0 -22 20v5z" />
<glyph unicode="F" horiz-adv-x="1087" d="M199 25l166 1343q3 25 26 25h754q20 0 20 -20v-5l-6 -45q-3 -25 -26 -25h-668l-66 -524h631q24 0 21 -24l-4 -45q-3 -25 -27 -25h-629l-84 -655q-2 -13 -6.5 -19t-17.5 -6h-62q-22 0 -22 20v5z" />
<glyph unicode="G" horiz-adv-x="1153" d="M203 227q0 17 4 49l102 844q7 64 32 113.5t74.5 90.5t136.5 63t208 22q389 0 389 -248q0 -15 -4 -47l-12 -96q-3 -25 -25 -25h-59q-24 0 -21 25l10 86q2 20 2 37q0 174 -286 174q-88 0 -151.5 -15t-102 -44t-58.5 -66t-26 -86l-99 -811q-4 -36 -4 -41q0 -84 65.5 -129 t219.5 -45q171 0 248 53.5t90 153.5l35 274h-293q-24 0 -21 25l5 45q3 24 26 24h377q23 0 20 -24l-43 -357q-6 -51 -22 -92t-49 -78.5t-82.5 -62.5t-125 -40t-173.5 -15q-387 0 -387 243z" />
<glyph unicode="H" horiz-adv-x="1249" d="M199 25l166 1343q3 25 26 25h62q23 0 20 -25l-70 -577h637l70 577q3 25 29 25h61q21 0 21 -20v-5l-166 -1343q-3 -25 -25 -25h-61q-26 0 -23 25l84 671h-639l-84 -671q-2 -13 -6.5 -19t-17.5 -6h-62q-22 0 -22 20v5z" />
<glyph unicode="I" horiz-adv-x="501" d="M199 25l166 1343q3 25 26 25h62q20 0 21 -20q0 -3 -1 -5l-166 -1343q-2 -13 -6.5 -19t-17.5 -6h-62q-22 0 -22 20v5z" />
<glyph unicode="J" horiz-adv-x="1005" d="M98 225q0 20 4 56l9 75q3 25 28 25h60q23 0 20 -25l-8 -65q-4 -28 -4 -47q0 -81 55.5 -123.5t192.5 -42.5q151 0 214 53.5t76 157.5l134 1079q3 25 26 25h62q20 0 20 -20v-5l-133 -1096q-8 -65 -29.5 -113.5t-66 -90t-123 -63t-189.5 -21.5q-348 0 -348 241z" />
<glyph unicode="K" horiz-adv-x="1103" d="M199 25l163 1343q3 25 29 25h62q23 0 20 -25l-76 -629h66l584 631q19 23 43 23h69q15 0 15 -10q0 -7 -7 -15l-612 -661l508 -682q6 -7 1 -16t-15 -9h-78q-21 0 -39 25l-473 630h-74l-78 -630q-3 -25 -24 -25h-62q-22 0 -22 20v5z" />
<glyph unicode="L" horiz-adv-x="1009" d="M199 25l166 1343q3 25 26 25h62q23 0 20 -25l-156 -1274h605q25 0 22 -24l-6 -45q-3 -25 -27 -25h-692q-20 0 -20 20v5z" />
<glyph unicode="M" horiz-adv-x="1474" d="M199 25l163 1343q4 25 27 25h53q18 0 21 -15l289 -956q20 -66 24 -96q9 25 45 94l518 960q7 13 25 13h61q19 0 19 -19v-6l-164 -1343q-3 -25 -25 -25h-59q-25 0 -22 25l139 1134q-14 -40 -49 -108l-439 -813q-13 -25 -34 -25h-56q-24 0 -30 25l-246 827q-11 37 -19 92 l-139 -1132q-3 -25 -25 -25h-55q-22 0 -22 20v5z" />
<glyph unicode="N" horiz-adv-x="1247" d="M199 25l163 1343q3 25 29 25h49q17 0 21 -11l463 -1050q44 -106 47 -117l141 1153q3 25 29 25h53q20 0 20 -20v-5l-163 -1343q-3 -25 -27 -25h-51q-17 0 -23 12l-458 1043q-36 90 -48 125l-143 -1155q-3 -25 -25 -25h-55q-22 0 -22 20v5z" />
<glyph unicode="O" horiz-adv-x="1202" d="M203 229q0 15 4 47l102 844q7 64 33 113.5t77 90.5t139.5 63t209.5 22q209 0 304 -68t95 -182q0 -29 -2 -43l-104 -844q-32 -288 -461 -288q-209 0 -303 66t-94 179zM313 256q0 -178 295 -178q319 0 346 211l101 811q2 12 2 37q0 178 -297 178q-317 0 -344 -211l-99 -811 q-4 -32 -4 -37z" />
<glyph unicode="P" horiz-adv-x="1153" d="M199 25l166 1343q3 25 26 25h395q208 0 302 -70.5t94 -187.5q0 -30 -2 -48l-31 -256q-8 -66 -34 -114.5t-78 -87t-139.5 -58.5t-209.5 -20h-315l-66 -526q-2 -13 -6.5 -19t-17.5 -6h-62q-22 0 -22 20v5zM385 645h313q173 0 252 51.5t92 151.5l29 227q2 14 2 39 q0 89 -67.5 136.5t-225.5 47.5h-315z" />
<glyph unicode="Q" horiz-adv-x="1200" d="M203 229q0 15 4 47l102 844q7 64 33 113.5t77 90.5t139.5 63t209.5 22q209 0 304 -68t95 -182q0 -29 -2 -43l-104 -844q-28 -247 -346 -282l260 -269q14 -16 -2 -32l-37 -35q-10 -10 -18 -10t-15 8l-317 332q-202 3 -292.5 68.5t-90.5 176.5zM313 256q0 -178 295 -178 q319 0 346 211l101 811q2 12 2 37q0 178 -297 178q-317 0 -344 -211l-99 -811q-4 -32 -4 -37z" />
<glyph unicode="R" horiz-adv-x="1202" d="M199 25l166 1343q3 25 26 25h393q209 0 304.5 -71t95.5 -189q0 -27 -2 -43l-29 -232q-13 -106 -81.5 -174.5t-213.5 -93.5l209 -565q4 -10 -2.5 -17.5t-20.5 -7.5h-61q-21 0 -29 25l-202 555q-20 -2 -62 -2h-313l-70 -553q-2 -13 -6.5 -19t-17.5 -6h-62q-22 0 -22 20v5z M387 670h313q173 0 254.5 51.5t92.5 150.5l24 203q2 20 2 37q0 90 -68 138t-225 48h-315z" />
<glyph unicode="S" horiz-adv-x="1153" d="M184 231q0 9 4 45l13 103q3 27 24 27h60q25 0 22 -27l-12 -90q-2 -14 -2 -39q0 -174 293 -174q172 0 251.5 54t92.5 155l20 149q2 14 2 27q0 59 -40 95.5t-109 64.5l-344 139q-75 31 -121.5 87t-46.5 132q0 23 2 37l12 104q8 65 32 113.5t72.5 90t134.5 63.5t206 22 q383 0 383 -246q0 -22 -3 -43l-12 -100q-3 -25 -26 -25h-60q-22 0 -20 25l10 88q2 16 2 37q0 82 -65 127t-218 45q-168 0 -243 -53.5t-86 -153.5l-11 -82q-2 -12 -2 -29q0 -93 111 -139l371 -149q178 -74 178 -230q0 -14 -2 -37l-19 -172q-29 -288 -458 -288q-208 0 -302 67 t-94 180z" />
<glyph unicode="T" horiz-adv-x="983" d="M201 1323l4 45q3 25 28 25h850q26 0 23 -25l-4 -45q-3 -25 -29 -25h-371l-157 -1273q-3 -25 -25 -25h-61q-26 0 -23 25l158 1273h-371q-22 0 -22 20v5z" />
<glyph unicode="U" horiz-adv-x="1224" d="M213 233q0 20 4 48l133 1087q3 25 27 25h61q24 0 21 -25l-131 -1067q-4 -36 -4 -45q0 -178 294 -178q172 0 253 55t94 156l133 1079q3 25 24 25h62q22 0 22 -20v-5l-135 -1096q-7 -64 -33 -113.5t-77.5 -90t-140 -62.5t-210.5 -22q-208 0 -302.5 67.5t-94.5 181.5z" />
<glyph unicode="V" d="M219 1368q-1 4 -1 8q0 17 24 17h65q24 0 27 -25l192 -1034q14 -73 21 -195q49 148 69 191l449 1038q9 25 31 25h65q12 1 16 -7q2 -3 2 -8t-3 -10l-580 -1343q-9 -25 -33 -25h-63q-26 0 -29 25z" />
<glyph unicode="W" horiz-adv-x="1619" d="M219 1368q-3 25 23 25h61q24 0 27 -25l137 -1036q12 -78 12 -146q6 31 51 146l394 1036q9 25 30 25h60q21 0 24 -25l138 -1036q12 -102 12 -150q2 11 51 150l391 1036q9 25 33 25h55q19 0 19 -14q0 -5 -2 -11l-506 -1343q-9 -25 -33 -25h-61q-26 0 -29 25l-135 1052 q-13 114 -13 131q-38 -117 -43 -131l-397 -1052q-9 -25 -33 -25h-61q-26 0 -29 25z" />
<glyph unicode="X" horiz-adv-x="1118" d="M94 8q-1 2 -2 5q0 6 6 14l482 682l-310 657q-5 10 -1 18.5t16 8.5h71q22 0 33 -25l268 -567l394 567q19 25 41 25h69q14 0 14 -11q0 -6 -6 -14l-467 -663l320 -680q11 -25 -14 -25h-70q-26 0 -37 25l-276 583l-410 -583q-17 -25 -37 -25h-69q-11 0 -15 8z" />
<glyph unicode="Y" horiz-adv-x="1042" d="M213 1368q-2 5 -2 9q0 6 3 9q6 7 19 7h70q18 0 27 -25l252 -631q14 -38 20 -67q4 12 37 67l412 631q18 25 34 25h64q20 0 20 -11q0 -5 -6 -14l-516 -790l-67 -553q-3 -25 -27 -25h-61q-26 0 -23 25l68 540z" />
<glyph unicode="Z" horiz-adv-x="1032" d="M115 23l6 45q2 11 12 26l801 1204h-600q-26 0 -23 25l6 45q3 25 27 25h713q20 0 20 -20v-5l-4 -43q-2 -15 -14 -33l-799 -1198h668q25 0 22 -24l-6 -45q-2 -14 -7.5 -19.5t-18.5 -5.5h-779q-27 0 -24 23z" />
<glyph unicode="[" horiz-adv-x="733" d="M139 -408l226 1815q3 25 26 25h357q23 0 20 -25l-4 -45q-3 -25 -27 -25h-272l-209 -1675h274q24 0 21 -24l-4 -46q-3 -24 -27 -24h-358q-26 0 -23 24z" />
<glyph unicode="\" horiz-adv-x="757" d="M268 1407q-4 25 21 25h61q26 0 29 -25l242 -1683q1 -12 -4.5 -19.5t-16.5 -7.5h-63q-24 0 -27 24z" />
<glyph unicode="]" horiz-adv-x="733" d="M84 -408l6 46q1 13 7 18.5t20 5.5h272l207 1675h-272q-24 0 -21 25l4 45q3 25 27 25h356q26 0 23 -25l-224 -1815q-3 -24 -26 -24h-357q-25 0 -22 24z" />
<glyph unicode="^" horiz-adv-x="1128" d="M254 649l328 721l2 4q2 3 2 3.5t1.5 3.5t2.5 3.5t2.5 2.5t3 2.5t3.5 1.5t4 1.5t5 0.5h66q16 0 28 -23l328 -721q4 -10 -1 -17t-17 -7h-60q-18 0 -28 24l-283 635l-281 -635q-10 -24 -28 -24h-60q-12 0 -17 7t-1 17z" />
<glyph unicode="_" horiz-adv-x="874" d="M14 -203q0 23 25 23h729q25 0 25 -23v-43q0 -24 -25 -24h-729q-25 0 -25 24v43z" />
<glyph unicode="`" horiz-adv-x="688" d="M384 1442q4 8 17 8h62q21 0 31 -20l116 -240q12 -23 -14 -23h-47q-21 0 -29 15l-135 243q-5 9 -1 17z" />
<glyph unicode="a" horiz-adv-x="1064" d="M172 195q0 13 4 41l68 538q14 119 89 185.5t220 66.5q114 0 200.5 -39t141.5 -88l14 84q6 27 27 27h53q21 0 21 -21v-6l-119 -958q-3 -25 -27 -25h-53q-20 0 -20 25l6 84q-176 -125 -369 -125q-126 0 -191 56.5t-65 154.5zM281 219q0 -64 45 -101.5t139 -37.5 q175 0 342 121l76 606q-143 123 -314 123q-100 0 -155.5 -47t-65.5 -123l-65 -512q-2 -10 -2 -29z" />
<glyph unicode="b" horiz-adv-x="1064" d="M176 25l168 1382q3 25 29 25h59q23 0 19 -25l-62 -506q176 125 367 125q125 0 190.5 -58t65.5 -157q0 -25 -2 -37l-68 -538q-14 -118 -90.5 -185t-220.5 -67q-196 0 -342 125l-13 -84q-3 -25 -28 -25h-51q-22 0 -22 19q0 3 1 6zM303 201q134 -121 313 -121q102 0 157 46 t65 122l63 512q2 12 2 28q0 65 -44.5 103.5t-137.5 38.5q-174 0 -344 -123z" />
<glyph unicode="c" horiz-adv-x="972" d="M172 197q0 25 2 39l68 536q7 59 29 103.5t65.5 79.5t117.5 53t177 18q332 0 332 -215q0 -25 -2 -41l-7 -37q-3 -24 -26 -24h-56q-23 0 -20 22l4 35q2 14 2 33q0 66 -53 101.5t-182 35.5q-142 0 -203.5 -44t-71.5 -126l-65 -514q-2 -14 -2 -39q0 -68 53.5 -103.5 t181.5 -35.5q142 0 204 43.5t73 126.5l6 49q3 24 26 24h56q23 0 20 -24l-8 -57q-6 -46 -20 -82t-42.5 -69t-71 -54.5t-106.5 -34t-147 -12.5q-334 0 -334 213z" />
<glyph unicode="d" horiz-adv-x="1064" d="M172 195q0 13 4 41l68 538q14 119 89 185.5t218 66.5q196 0 342 -125l61 506q3 25 27 25h59q21 0 21 -20v-5l-170 -1382q-3 -25 -27 -25h-53q-23 0 -20 25l6 84q-176 -125 -369 -125q-126 0 -191 56.5t-65 154.5zM281 219q0 -63 45.5 -101t138.5 -38q175 0 342 121 l74 606q-136 123 -312 123q-102 0 -156.5 -47t-64.5 -123l-63 -508q-4 -28 -4 -33z" />
<glyph unicode="e" horiz-adv-x="1003" d="M172 199q0 25 2 37l68 536q7 59 30 103.5t67 79.5t118 53t176 18q336 0 336 -215q0 -27 -2 -39l-33 -254q-3 -22 -25 -22h-598l-30 -248l-5 -35q0 -69 56 -106t186 -37q260 0 281 168l6 47q3 24 29 24h51q23 0 20 -24l-6 -49q-6 -46 -20 -82.5t-42.5 -69t-71.5 -54 t-107 -34t-148 -12.5q-338 0 -338 215zM322 578h518l24 186q2 10 2 33q0 143 -239 143q-142 0 -206.5 -45t-74.5 -125z" />
<glyph unicode="f" horiz-adv-x="643" d="M176 -399l164 1317h-133q-26 0 -23 24l4 33q3 24 27 24l113 7h20l23 182q15 120 106.5 186t290.5 66h12q21 0 21 -20v-5l-4 -43q-3 -24 -29 -24h-8q-144 0 -208.5 -44.5t-74.5 -125.5l-22 -172h237q28 0 25 -23l-6 -41q-3 -24 -27 -24h-238l-163 -1317q-3 -27 -27 -27 h-59q-21 0 -21 21v6z" />
<glyph unicode="g" horiz-adv-x="1064" d="M172 199q0 13 4 37l68 538q14 119 89 185.5t220 66.5q199 0 342 -127l14 84q6 27 27 27h53q22 0 22 -20q0 -3 -1 -7l-142 -1155q-7 -59 -30 -103.5t-68 -79.5t-120 -53t-179 -18h-276q-26 0 -23 25l6 43q3 24 27 24h276q142 0 206.5 44.5t74.5 125.5l33 270 q-171 -122 -365 -122q-127 0 -192.5 57.5t-65.5 157.5zM281 221q0 -65 45 -103t139 -38q175 0 342 121l76 606q-143 123 -314 123q-102 0 -156.5 -47t-64.5 -123l-63 -506q-4 -24 -4 -33z" />
<glyph unicode="h" horiz-adv-x="1075" d="M176 25l170 1382q3 25 27 25h59q24 0 21 -25l-64 -506q168 125 367 125q124 0 190 -57t66 -154q0 -15 -2 -35l-92 -755q-3 -25 -27 -25h-60q-10 0 -15.5 7t-4.5 18l90 735q2 16 2 28q0 66 -45 104t-137 38q-181 0 -342 -123l-96 -782q-3 -25 -27 -25h-59q-21 0 -21 20v5z " />
<glyph unicode="i" horiz-adv-x="452" d="M176 25l119 958q3 27 27 27h57q25 0 22 -27l-118 -958q-3 -25 -27 -25h-59q-21 0 -21 20v5zM322 1212l24 195q3 25 27 25h59q21 0 22 -20q0 -2 -1 -5l-25 -195q-3 -24 -27 -24h-59q-20 0 -20 19v5z" />
<glyph unicode="j" horiz-adv-x="450" d="M-172 -401l6 43q3 24 27 24h10q259 0 279 170l141 1147q3 27 26 27h60q23 0 20 -27l-143 -1155q-14 -124 -104 -189t-287 -65h-13q-22 0 -22 20v5zM319 1212l25 195q3 25 25 25h59q26 0 23 -25l-27 -195q-3 -24 -25 -24h-57q-26 0 -23 24z" />
<glyph unicode="k" horiz-adv-x="921" d="M174 25l170 1382q3 25 27 25h59q24 0 21 -25l-99 -797h70l422 375q2 1 9 7.5t10.5 9t9.5 5.5t12 3h71q14 0 16 -9q1 -2 1 -4q0 -6 -6 -12l-457 -412l391 -548q6 -9 1.5 -17t-15.5 -8h-68q-19 0 -37 25l-362 501h-78l-61 -501q-3 -25 -27 -25h-59q-22 0 -22 19q0 3 1 6z " />
<glyph unicode="l" horiz-adv-x="452" d="M176 25l168 1382q3 25 29 25h59q19 0 20 -19q0 -3 -1 -6l-168 -1382q-3 -25 -27 -25h-59q-21 0 -21 20v5z" />
<glyph unicode="m" horiz-adv-x="1685" d="M176 25l119 960q4 25 27 25h51q25 0 22 -25l-8 -84q162 125 356 125q100 0 164.5 -37.5t83.5 -103.5q34 27 57.5 43t73.5 43t112 41t132 14q124 0 191 -57t67 -152q0 -14 -2 -37l-94 -755q-3 -25 -27 -25h-59q-24 0 -21 25l90 731q1 6 2 13t2 11t1 6q0 66 -45.5 105 t-137.5 39q-182 0 -336 -125v-45l-92 -735q-3 -25 -24 -25h-62q-23 0 -20 25l90 723q4 32 4 38q0 66 -45 105t-137 39q-177 0 -332 -123l-96 -782q-3 -25 -25 -25h-61q-21 0 -21 20v5z" />
<glyph unicode="n" horiz-adv-x="1075" d="M176 25l119 960q3 25 27 25h51q25 0 22 -25l-6 -86q163 127 367 127q124 0 191 -57.5t67 -153.5q0 -19 -2 -39l-94 -751q-3 -25 -27 -25h-60q-23 0 -20 25l90 731q4 28 4 30q0 66 -44.5 105t-137.5 39q-183 0 -344 -123l-96 -782q-3 -25 -27 -25h-59q-23 0 -21 25z" />
<glyph unicode="o" horiz-adv-x="1040" d="M172 201q0 23 2 35l68 536q10 79 48.5 133t126.5 87.5t224 33.5q177 0 260.5 -57.5t83.5 -159.5q0 -19 -2 -37l-68 -536q-7 -58 -30.5 -102t-69 -78.5t-121 -53t-178.5 -18.5q-177 0 -260.5 57.5t-83.5 159.5zM281 217q0 -71 56 -107t189 -36q143 0 209 44t76 126l66 522 q2 16 2 25q0 145 -246 145q-265 0 -285 -170l-65 -522q-2 -10 -2 -27z" />
<glyph unicode="p" horiz-adv-x="1064" d="M125 -399l170 1382q3 27 27 27h51q25 0 22 -27l-8 -84q178 127 369 127q126 0 191 -57.5t65 -155.5q0 -19 -2 -39l-68 -538q-14 -119 -89 -185.5t-218 -66.5q-113 0 -201 37.5t-141 84.5l-62 -505q-3 -27 -26 -27h-60q-20 0 -20 21v6zM305 201q128 -121 311 -121 q102 0 157 46t65 122l63 510q2 18 2 30q0 65 -44.5 103.5t-137.5 38.5q-179 0 -342 -123z" />
<glyph unicode="q" horiz-adv-x="1064" d="M172 199q0 13 4 37l68 538q14 119 89 185.5t220 66.5q199 0 342 -127l14 84q6 27 27 27h53q22 0 22 -20q0 -3 -1 -7l-170 -1382q-3 -27 -27 -27h-59q-25 0 -21 27l62 505q-171 -122 -365 -122q-127 0 -192.5 57.5t-65.5 157.5zM281 221q0 -65 45 -103t139 -38 q175 0 342 121l76 606q-143 123 -314 123q-102 0 -156.5 -47t-64.5 -123l-63 -506q-4 -28 -4 -33z" />
<glyph unicode="r" horiz-adv-x="690" d="M176 25l119 960q3 25 27 25h51q25 0 22 -25l-8 -111q187 150 363 150q22 0 22 -20v-5l-6 -51q-3 -22 -29 -22q-104 -3 -201 -48t-159 -94l-94 -759q-3 -25 -27 -25h-59q-21 0 -21 20v5z" />
<glyph unicode="s" horiz-adv-x="950" d="M145 178q0 13 2 33l7 51q3 23 26 23h56q19 0 16 -23l-4 -47q-2 -18 -2 -27q0 -58 61.5 -90t179.5 -32q130 0 202 37t81 104l10 88q2 20 2 31q0 65 -112 102l-303 98q-62 20 -103 66t-41 106q0 15 2 31l11 80q5 47 27.5 84.5t64.5 68t112 47.5t164 17q161 0 242.5 -56 t81.5 -141q0 -16 -2 -36l-6 -54q-3 -22 -27 -22h-53q-24 0 -21 22l6 47q2 16 2 39q0 52 -57 86.5t-172 34.5q-246 0 -262 -139l-8 -62q-2 -14 -2 -24q0 -80 98 -111l311 -96q71 -23 110.5 -65.5t39.5 -96.5q0 -3 -4 -39l-13 -114q-11 -97 -106.5 -156t-280.5 -59 q-166 0 -251 54.5t-85 139.5z" />
<glyph unicode="t" horiz-adv-x="702" d="M172 942l4 33q3 24 29 24l127 7h2l28 221q3 26 27 26h60q20 0 20 -26l-29 -221h244q24 0 21 -23l-5 -43q-2 -22 -28 -22h-242l-80 -652q-2 -12 -2 -33q0 -68 54.5 -104.5t183.5 -36.5h32q26 0 23 -24l-4 -43q-3 -25 -29 -25h-45q-175 0 -249 53t-74 154q0 31 2 45l82 666 h-131q-21 0 -21 19v5z" />
<glyph unicode="u" d="M184 193q0 16 2 34l93 756q3 27 28 27h58q23 0 20 -27l-90 -733q-2 -16 -2 -31q0 -65 44.5 -102t137.5 -37q174 0 332 121l94 782q3 27 27 27h59q21 0 21 -21v-6l-119 -958q-3 -25 -25 -25h-53q-26 0 -23 25l7 81q-153 -122 -355 -122q-124 0 -190 57t-66 152z" />
<glyph unicode="v" horiz-adv-x="862" d="M162 983q-1 4 -1 7q0 7 4 12q6 8 19 8h62q17 0 24 -25l162 -739q8 -36 14 -109q2 8 17.5 50t23.5 59l344 739q11 25 31 25h58q13 0 19 -7q3 -4 3 -9q0 -4 -2 -9l-448 -962q-12 -23 -29 -23h-68q-10 0 -14.5 5t-7.5 18z" />
<glyph unicode="w" horiz-adv-x="1308" d="M158 985q-2 11 5 18t19 7h60q20 0 24 -25l111 -762q8 -66 8 -82q6 29 27 82l305 762q11 25 31 25h67q21 0 25 -25l106 -762q8 -66 8 -78q6 23 27 78l301 762q11 25 31 25h53q11 0 15 -8q2 -4 2 -9q0 -4 -1 -8l-385 -962q-9 -23 -30 -23h-68q-22 0 -25 23l-106 749 q-8 66 -8 94q-1 -2 -8.5 -21t-16 -41.5t-12.5 -33.5l-303 -747q-10 -23 -31 -23h-67q-20 0 -23 23z" />
<glyph unicode="x" horiz-adv-x="942" d="M73 8q-1 2 -1 4q0 6 6 13l395 489l-264 469q-13 27 14 27h68q16 0 31 -27l229 -393l307 393q19 27 41 27h64q7 0 11 -4q2 -3 3 -8q0 -7 -6 -15l-379 -475l272 -481q7 -9 3.5 -18t-17.5 -9h-66q-20 0 -32 25l-234 409l-328 -409q-21 -25 -40 -25h-62q-12 0 -15 8z" />
<glyph unicode="y" horiz-adv-x="862" d="M162 985q-1 3 -1 6q0 6 5 11q6 8 18 8h62q17 0 24 -25l162 -739q14 -69 17 -107q17 54 40 103l345 743q11 25 30 25h56q14 0 20 -6q3 -4 3 -8.5t-3 -10.5l-643 -1386q-11 -25 -31 -25h-49q-12 0 -17 6.5t1 18.5l180 397z" />
<glyph unicode="z" horiz-adv-x="933" d="M117 25l6 41q3 15 16 32l643 822h-506q-23 0 -20 24l4 41q3 25 29 25h612q24 0 21 -23l-4 -41q-1 -5 -3.5 -10.5t-6 -10t-3.5 -5.5l-651 -830h559q26 0 23 -24l-5 -41q-3 -25 -28 -25h-664q-22 0 -22 20v5z" />
<glyph unicode="{" horiz-adv-x="915" d="M176 487l4 43q3 25 27 25h4q240 0 260 170l57 473q7 58 30 102t67.5 79t118.5 53t176 18h16q24 0 20 -25l-4 -43q-3 -24 -26 -24h-11q-143 0 -205.5 -44t-72.5 -126l-59 -471q-10 -88 -59.5 -138t-141.5 -71q153 -34 153 -172q0 -12 -6 -55l-55 -447q-4 -28 -4 -47 q0 -68 54.5 -104.5t185.5 -36.5h10q24 0 20 -25l-6 -43q-1 -13 -6.5 -18.5t-17.5 -5.5h-9q-175 0 -258.5 57.5t-83.5 161.5q0 27 4 55l56 444q6 42 6 52q0 139 -221 139h-2q-24 0 -21 24z" />
<glyph unicode="|" horiz-adv-x="501" d="M236 -408v1815q0 25 24 25h62q22 0 22 -25v-1815q0 -24 -22 -24h-62q-24 0 -24 24z" />
<glyph unicode="}" horiz-adv-x="915" d="M80 -422l2 43q0 25 29 25h12q141 0 203.5 44t72.5 126l60 485q10 88 60 138t143 69q-76 17 -115 62.5t-39 111.5q0 15 6 57l53 437q4 36 4 43q0 66 -55 102.5t-184 36.5h-10q-21 0 -21 24l4 43q3 25 27 25h10q338 0 338 -219q0 -19 -4 -51l-53 -439q-1 -8 -2 -17.5 t-2 -16.5t-1 -11q0 -141 220 -141h2q20 0 20 -25l-2 -43q0 -24 -29 -24h-2q-240 0 -260 -170l-59 -488q-7 -58 -30.5 -102t-68.5 -78.5t-118.5 -52.5t-173.5 -18h-17q-20 0 -20 24z" />
<glyph unicode="~" horiz-adv-x="985" d="M229 475l2 43q8 174 136 174q48 0 100 -30l172 -95q62 -30 84 -30q38 0 49 21t14 89v19q0 22 27 22h33q23 0 20 -26l-2 -46q-8 -174 -131 -174q-49 0 -110 33l-174 96q-49 27 -74 27q-38 0 -51 -22t-15 -87v-20q0 -23 -26 -23h-33q-24 0 -21 29z" />
<glyph unicode="&#xa1;" horiz-adv-x="507" d="M152 -358l67 569l68 453q3 24 28 24h41q24 0 21 -24l-45 -453l-68 -569q-3 -25 -28 -25h-64q-23 0 -20 25zM299 827l20 158q3 25 27 25h60q25 0 22 -25l-20 -158q-3 -24 -29 -24h-60q-23 0 -20 24z" />
<glyph unicode="&#xa2;" horiz-adv-x="1075" d="M223 387q0 25 2 39l68 537q13 114 89.5 178.5t248.5 72.5l18 154q3 25 27 25h59q24 0 21 -25l-19 -154q277 -16 277 -213q0 -24 -2 -40l-6 -37q-3 -25 -27 -25h-55q-24 0 -21 23l4 34q2 14 2 33q0 66 -53 101.5t-182 35.5q-142 0 -203.5 -44t-71.5 -126l-65 -514 q-2 -14 -2 -39q0 -68 53.5 -103.5t181.5 -35.5q142 0 204 43.5t73 126.5l6 49q3 25 27 25h55q23 0 20 -25l-8 -57q-7 -54 -26.5 -95.5t-57 -76t-101 -54.5t-151.5 -24l-18 -151q-3 -25 -25 -25h-59q-26 0 -23 25l19 149q-279 16 -279 213z" />
<glyph unicode="&#xa3;" horiz-adv-x="1341" d="M180 25l4 43q3 24 27 24h123l69 563h-120q-24 0 -21 25l4 43q3 22 27 22h121l49 390q8 66 28.5 112t65 85t126 58t200.5 19q199 0 281.5 -57.5t82.5 -165.5q0 -23 -4 -51l-8 -56q-3 -24 -27 -24h-57q-12 0 -17.5 7.5t-3.5 18.5l7 39q2 16 2 45q0 76 -58.5 113t-206.5 37 q-70 0 -121 -8.5t-84 -23.5t-54 -40.5t-31 -54t-15 -68.5l-45 -375h340q24 0 21 -22l-4 -43q-3 -25 -29 -25h-340l-70 -563h426q43 0 80.5 10.5t73 35.5t56.5 75.5t22 122.5v10q3 25 26 25h56q24 0 20 -25v-10q-7 -336 -321 -336h-680q-24 0 -21 25z" />
<glyph unicode="&#xa4;" horiz-adv-x="1140" d="M154 561l2 27q3 24 28 24h154l20 170h-155q-24 0 -21 25l2 27q3 22 29 22h154l32 264q7 64 32 113.5t74.5 90.5t136.5 63t208 22q389 0 389 -246q0 -15 -4 -47l-12 -102q-3 -27 -25 -27h-59q-26 0 -23 27l12 86q2 12 2 39q0 176 -288 176q-170 0 -246.5 -54.5 t-89.5 -156.5l-31 -248h299q13 0 18.5 -5t4.5 -17l-2 -27q-3 -25 -29 -25h-299l-21 -170h299q24 0 21 -24l-2 -27q-3 -22 -27 -22h-301l-28 -246q-2 -14 -2 -41q0 -84 65.5 -129t218.5 -45q170 0 248.5 55t89.5 156l14 117q3 22 27 22h57q13 0 19 -5.5t4 -16.5l-16 -134 q-6 -51 -22.5 -92t-50 -78.5t-82.5 -62.5t-124.5 -40t-173.5 -15q-387 0 -387 243q0 17 4 49l31 263h-152q-25 0 -22 22z" />
<glyph unicode="&#xa5;" horiz-adv-x="1052" d="M197 582l2 26q3 25 26 25h287l-68 170h-196q-13 0 -18.5 5t-4.5 17l2 27q3 25 29 25h158l-197 491q-4 12 2 18.5t19 6.5h69q18 0 27 -25l252 -631q14 -38 20 -67q3 10 37 67l412 631q18 25 35 25h63q30 0 14 -25l-321 -491h164q25 0 22 -25l-2 -27q-3 -22 -29 -22h-204 l-111 -170h293q25 0 22 -25l-2 -26q-3 -25 -28 -25h-322l-65 -532q-3 -25 -27 -25h-61q-26 0 -23 25l66 532h-322q-23 0 -20 25z" />
<glyph unicode="&#xa6;" horiz-adv-x="452" d="M231 293q0 24 25 24h57q25 0 25 -24v-701q0 -24 -25 -24h-57q-25 0 -25 24v701zM231 668v700q0 25 25 25h57q25 0 25 -25v-700q0 -25 -25 -25h-57q-25 0 -25 25z" />
<glyph unicode="&#xa7;" horiz-adv-x="1122" d="M170 -225q0 17 4 45l2 22q3 25 27 25h53q23 0 20 -27l-2 -18q-4 -24 -4 -37q0 -70 56 -107.5t188 -37.5q142 0 206.5 44.5t74.5 125.5l18 147q4 28 4 39q0 88 -131 123l-270 80q-61 17 -107.5 63t-46.5 121q0 31 2 47l27 205q3 24 26 24h52q25 0 22 -24l-22 -186 q-4 -28 -4 -46q0 -51 34.5 -80t73.5 -40l272 -82q21 -6 41 -14t46.5 -23.5t45.5 -35.5t32.5 -50t13.5 -66q0 -17 -4 -49l-19 -149q-10 -77 -47 -130t-124 -86.5t-222 -33.5q-338 0 -338 211zM315 961q0 17 4 49l19 149q10 77 47 130t124 86.5t222 33.5q338 0 338 -213 q0 -3 -4 -43l-2 -23q-3 -24 -27 -24h-53q-23 0 -20 27l2 18q4 36 4 37q0 70 -55.5 106.5t-186.5 36.5q-144 0 -208.5 -43.5t-74.5 -124.5l-18 -147q-4 -28 -4 -39q0 -86 131 -123l270 -80q61 -17 107.5 -63t46.5 -121q0 -31 -2 -47l-27 -207q-3 -25 -26 -25h-54 q-23 0 -20 25l24 188q2 14 2 45q0 36 -21 63t-42.5 38t-44.5 18l-272 82q-27 8 -53 20t-57 34t-50 57.5t-19 79.5z" />
<glyph unicode="&#xa8;" horiz-adv-x="630" d="M319 1212l25 201q3 25 27 25h37q23 0 20 -25l-25 -201q-3 -24 -26 -24h-37q-24 0 -21 24zM520 1212l25 201q3 25 26 25h37q24 0 21 -25l-25 -201q-3 -24 -26 -24h-37q-24 0 -21 24z" />
<glyph unicode="&#xa9;" horiz-adv-x="1462" d="M229 319v756q0 58 12 103.5t47 90.5t92.5 74.5t155 47.5t228.5 18t228.5 -18t155 -47.5t92 -74.5t46.5 -90.5t12 -103.5v-756q0 -59 -12 -104.5t-46.5 -90.5t-92.5 -74.5t-155 -47.5t-228 -18t-228.5 18t-155 47.5t-92.5 74.5t-47 90.5t-12 104.5zM313 307 q0 -45 12.5 -81t44.5 -68.5t82.5 -54t129 -34t182.5 -12.5q129 0 219 18.5t139.5 53.5t70.5 78t21 100v780q0 56 -21 98.5t-70.5 77.5t-139.5 53.5t-219 18.5q-104 0 -182.5 -12.5t-129 -34t-82.5 -54t-44.5 -68.5t-12.5 -81v-778zM483 510v371q0 60 12 102.5t41.5 76.5 t86.5 51t141 17q85 0 141.5 -17t86 -51t41 -76t11.5 -103v-35q0 -25 -24 -25h-47q-25 0 -25 25v33q0 43 -6.5 71t-24.5 52.5t-56 36.5t-97 12t-96.5 -11.5t-55.5 -37t-24 -53t-6 -70.5v-367q0 -42 6 -69.5t24 -52.5t55.5 -36.5t96.5 -11.5t97 12t56 36.5t24.5 52t6.5 69.5 v49q0 25 25 25h47q24 0 24 -25v-51q0 -61 -11.5 -103t-41 -76.5t-86 -51.5t-141.5 -17q-84 0 -141 17t-86.5 51.5t-41.5 77t-12 102.5z" />
<glyph unicode="&#xaa;" horiz-adv-x="718" d="M244 909q0 21 2 37l39 311q9 71 57 111.5t135 40.5q119 0 205 -76l10 45q6 21 19 21h45q15 0 12 -17l-70 -575q-3 -14 -16 -14h-49q-12 0 -12 14l2 51q-102 -76 -220 -76q-76 0 -117.5 34.5t-41.5 92.5zM330 928q0 -39 23 -59.5t79 -20.5q96 0 199 76l41 342 q-86 75 -178 75q-117 0 -127 -96l-35 -276q-2 -20 -2 -41z" />
<glyph unicode="&#xab;" horiz-adv-x="1234" d="M217 475l8 55q2 19 27 35l414 287q9 7 17 4t7 -16l-10 -66q-2 -19 -27 -37l-344 -235l285 -236q22 -18 20 -35l-8 -65q-1 -12 -9.5 -15t-14.5 3l-346 288q-21 17 -19 33zM625 475l8 55q2 19 26 35l414 287q9 7 17.5 4t7.5 -16l-11 -66q-3 -20 -26 -37l-344 -235l284 -236 q23 -18 21 -35l-8 -65q-1 -11 -10 -15t-15 3l-346 288q-20 16 -18 33z" />
<glyph unicode="&#xac;" horiz-adv-x="763" d="M158 641q0 92 64.5 157.5t156.5 65.5q94 0 159.5 -65.5t65.5 -157.5q0 -94 -65.5 -158.5t-159.5 -64.5q-92 0 -156.5 64.5t-64.5 158.5z" />
<glyph unicode="&#xad;" horiz-adv-x="946" d="M240 571v43q0 23 24 23h551q25 0 25 -23v-43q0 -24 -25 -24h-551q-24 0 -24 24z" />
<glyph unicode="&#xae;" horiz-adv-x="1261" d="M289 780v363q0 38 8.5 71t36.5 70.5t74 63.5t127.5 43.5t189.5 17.5q432 0 432 -266v-363q0 -266 -432 -266q-436 0 -436 266zM367 774q0 -36 15 -66.5t51.5 -60t111 -46.5t180.5 -17q354 0 354 188v377q0 188 -354 188q-86 0 -151 -11.5t-103.5 -29.5t-62.5 -44 t-32.5 -50.5t-8.5 -52.5v-375zM535 700v506q0 19 16 19h192q108 0 152.5 -42t44.5 -104v-49q0 -104 -104 -133l82 -197q3 -8 -2 -13t-15 -5h-45q-6 0 -9.5 3t-4.5 5t-4 10l-78 185h-148v-185q0 -18 -16 -18h-45q-16 0 -16 18zM612 946h125q62 0 93.5 25.5t31.5 62.5v41 q0 37 -31 62.5t-94 25.5h-125v-217z" />
<glyph unicode="&#xaf;" horiz-adv-x="858" d="M295 1262l4 36q3 25 29 25h524q25 0 22 -23l-4 -38q-3 -25 -28 -25h-525q-25 0 -22 25z" />
<glyph unicode="&#xb0;" horiz-adv-x="813" d="M260 995q0 29 2 41l23 185q11 91 74.5 137.5t215.5 46.5q250 0 250 -160q0 -21 -2 -39l-22 -184q-12 -90 -76.5 -137t-214.5 -47q-250 0 -250 157zM354 1008q0 -95 164 -95q176 0 189 113l22 178q2 16 2 27q0 100 -164 100q-176 0 -190 -112l-21 -183q-2 -18 -2 -28z" />
<glyph unicode="&#xb1;" horiz-adv-x="1196" d="M201 246v43q0 24 24 24h801q25 0 25 -24v-43q0 -25 -25 -25h-801q-24 0 -24 25zM201 758v43q0 22 24 22h355v269q0 24 22 24h43q25 0 25 -24v-269h356q25 0 25 -22v-43q0 -25 -25 -25h-356v-268q0 -27 -25 -27h-43q-22 0 -22 27v268h-355q-24 0 -24 25z" />
<glyph unicode="&#xb2;" horiz-adv-x="757" d="M211 582l31 233q4 27 16 48t32 34t33 19t33 12l236 73q78 25 84 86l14 117q4 32 4 35q0 49 -35 74.5t-120 25.5q-95 0 -132 -29.5t-45 -90.5l-8 -58q-2 -11 -6 -14.5t-14 -3.5h-49q-18 0 -15 18l9 70q10 82 69 130t197 48q233 0 233 -156q0 -19 -2 -39l-16 -124 q-14 -110 -129 -146l-221 -70q-80 -24 -86 -71l-23 -168h389q18 0 15 -19l-5 -34q-3 -19 -18 -19h-457q-17 0 -14 19z" />
<glyph unicode="&#xb3;" horiz-adv-x="755" d="M215 702v23l2 31q0 16 21 16h47q10 0 13 -3.5t3 -12.5v-35q0 -47 35 -71.5t119 -24.5q89 0 128.5 29t47.5 87l14 105q2 14 2 37q0 46 -32.5 68t-114.5 22h-109q-16 0 -16 18l2 33q0 18 22 18h101q96 0 133.5 27.5t42.5 87.5l4 57q0 2 1 14t1 17q0 48 -31.5 72t-111.5 24 q-92 0 -128 -28.5t-44 -87.5l-2 -15q-3 -16 -21 -16h-47q-19 0 -16 16l2 25q3 39 17 68.5t43 55t81 39t125 13.5q223 0 223 -145q0 -3 -4 -43l-8 -78q-6 -58 -32.5 -89.5t-90.5 -45.5q54 -14 75 -42t21 -71q0 -17 -4 -45l-14 -125q-8 -81 -68.5 -126.5t-200.5 -45.5 q-231 0 -231 147z" />
<glyph unicode="&#xb4;" horiz-adv-x="688" d="M358.5 1173.5q-3.5 6.5 3.5 16.5l179 240q13 20 32 20h68q13 0 15 -7t-7 -18l-192 -243q-15 -15 -31 -15h-53q-11 0 -14.5 6.5z" />
<glyph unicode="&#xb5;" d="M111 -401l172 1384q3 27 26 27h58q25 0 22 -27l-88 -707q-6 -41 -6 -57q0 -66 45 -104.5t139 -38.5q169 0 330 123l96 784q3 27 27 27h57q24 0 21 -27l-117 -958q-3 -25 -27 -25h-53q-23 0 -20 25l6 84q-156 -125 -344 -125q-73 0 -122 21t-67 56l-49 -462 q-3 -25 -24 -25h-60q-25 0 -22 25z" />
<glyph unicode="&#xb6;" horiz-adv-x="1292" d="M289 807q0 25 4 53l33 264q6 49 20.5 87.5t45.5 73.5t77.5 58t118.5 36.5t166 13.5h190q24 0 21 -23l-217 -1769q-3 -27 -29 -27h-60q-23 0 -20 27l119 977h-105q-364 0 -364 229zM930 -399l217 1767q3 25 27 25h61q24 0 20 -25l-217 -1767q-3 -27 -26 -27h-62 q-23 0 -20 27z" />
<glyph unicode="&#xb7;" horiz-adv-x="436" d="M217 457l19 157q3 25 26 25h64q21 0 18 -25l-18 -157q-3 -25 -27 -25h-59q-26 0 -23 25z" />
<glyph unicode="&#xb8;" horiz-adv-x="335" d="M-68 -408l2 23q3 25 27 25h227q111 0 111 102q0 41 -26.5 58.5t-61.5 17.5h-121q-16 0 -25.5 8t-3.5 22l64 160q10 24 31 21l28 -4q22 -3 13 -31l-43 -105h79q61 0 104.5 -34.5t43.5 -104.5q0 -95 -55.5 -138.5t-132.5 -43.5h-240q-24 0 -21 24z" />
<glyph unicode="&#xb9;" horiz-adv-x="770" d="M199 588l4 33q1 11 6 14.5t16 3.5h195l84 684l-197 -49q-11 -3 -16 -0.5t-4 12.5l4 37q1 9 5 13t15 7l271 64q8 2 12.5 -2t3.5 -14l-92 -752h194q10 0 14 -3.5t3 -12.5l-4 -35q-3 -19 -21 -19h-477q-19 0 -16 19z" />
<glyph unicode="&#xba;" horiz-adv-x="724" d="M246 918q0 23 4 51l35 282q10 76 66.5 117t180.5 41q108 0 163 -36t55 -99q0 -6 -5 -41l-36 -295q-10 -76 -67 -116t-181 -40q-109 0 -162 36t-53 100zM330 930q0 -82 137 -82q145 0 158 98l37 289q2 18 2 29q0 79 -138 79q-147 0 -157 -94l-35 -278q-4 -36 -4 -41z" />
<glyph unicode="&#xbb;" horiz-adv-x="1247" d="M219 180l10 66q2 19 27 37l344 235l-285 236q-22 18 -20 34l8 66q1 11 10 15t15 -3l346 -288q20 -16 18 -33l-8 -56q-2 -17 -27 -34l-413 -287q-9 -7 -17.5 -4t-7.5 16zM639 180l10 66q2 19 27 37l344 235l-285 236q-22 18 -20 34l8 66q1 11 10 15t15 -3l346 -288 q20 -16 18 -33l-8 -56q-2 -17 -27 -34l-413 -287q-9 -7 -17.5 -4t-7.5 16z" />
<glyph unicode="&#xbc;" horiz-adv-x="1677" d="M258 588l4 33q2 18 23 18h194l84 684l-196 -49q-11 -4 -16.5 -1t-4.5 13l4 37q2 15 21 20l270 64q8 2 12.5 -2t3.5 -14l-92 -752h195q19 0 16 -16l-4 -35q-3 -19 -20 -19h-478q-19 0 -16 19zM627 -82l604 1557q8 18 22 18h56q16 0 10 -18l-604 -1557q-6 -18 -23 -18h-53 q-19 0 -12 18zM1077 285l2 24q0 5 11 33l229 475q9 19 24 19h54q17 0 8 -19l-227 -479h325l60 479q3 19 20 19h49q21 0 17 -19l-99 -799q-3 -18 -20 -18h-51q-20 0 -17 18l33 250h-401q-17 0 -17 17z" />
<glyph unicode="&#xbd;" horiz-adv-x="1716" d="M258 588l4 33q2 18 23 18h194l84 684l-196 -49q-11 -4 -16.5 -1t-4.5 13l4 37q2 15 21 20l270 64q8 2 12.5 -2t3.5 -14l-92 -752h195q19 0 16 -16l-4 -35q-3 -19 -20 -19h-478q-19 0 -16 19zM618 -82l605 1557q8 18 22 18h55q17 0 11 -18l-606 -1557q-6 -18 -23 -18h-51 q-20 0 -13 18zM1161 18l31 234q4 27 16 48t32 34t33.5 19t33.5 12l235 73q78 25 84 86l14 117q1 6 2 14t2 13t1 8q0 49 -35.5 74.5t-120.5 25.5q-95 0 -131.5 -30t-44.5 -91l-8 -57q-1 -10 -5.5 -14t-15.5 -4h-49q-17 0 -14 18l8 70q10 82 69 130t197 48q124 0 179 -42.5 t55 -113.5q0 -9 -3 -39l-16 -125q-14 -109 -129 -145l-221 -70q-80 -24 -86 -71l-23 -168h389q18 0 15 -19l-4 -35q-3 -18 -19 -18h-456q-18 0 -15 18z" />
<glyph unicode="&#xbe;" horiz-adv-x="1675" d="M274 702v23l2 31q0 16 21 16h47q10 0 13 -3.5t3 -12.5v-35q0 -47 35 -71.5t119 -24.5q89 0 128.5 29t47.5 87l15 105q2 14 2 37q0 46 -33 68t-115 22h-108q-17 0 -17 18l2 33q0 18 23 18h100q96 0 133.5 27.5t42.5 87.5l4 57q0 2 1 14t1 17q0 48 -31.5 72t-111.5 24 q-92 0 -128 -28.5t-44 -87.5l-2 -15q-3 -16 -21 -16h-47q-19 0 -16 16l2 25q3 39 17 68.5t43 55t81 39t125 13.5q223 0 223 -145q0 -3 -4 -43l-8 -78q-6 -58 -32.5 -89.5t-90.5 -45.5q54 -14 75.5 -42t21.5 -71q0 -10 -5 -45l-14 -125q-8 -81 -68 -126.5t-200 -45.5 q-232 0 -232 147zM621 -82l604 1557q8 18 22 18h53q17 0 11 -18l-604 -1557q-6 -18 -23 -18h-53q-17 0 -10 18zM1075 285l2 24q0 8 10 33l230 475q9 19 24 19h52q19 0 10 -19l-227 -479h325l58 479q3 19 22 19h47q21 0 17 -19l-97 -799q-3 -18 -22 -18h-49q-20 0 -17 18 l31 250h-399q-20 0 -17 17z" />
<glyph unicode="&#xbf;" horiz-adv-x="1163" d="M152 -152q0 30 2 46l20 172q21 167 195 247l112 54q112 55 125 153l21 144q2 14 7.5 19t18.5 5h60q14 0 18 -6t4 -18l-22 -166q-17 -129 -160 -199l-137 -66q-26 -12 -49.5 -29t-50.5 -54.5t-33 -83.5l-21 -162q-2 -16 -2 -39q0 -82 65.5 -127t219.5 -45 q167 0 241.5 54.5t87.5 156.5l15 100q3 27 24 27h60q23 0 20 -27l-14 -115q-8 -65 -32 -113.5t-73 -90t-134 -63t-205 -21.5q-383 0 -383 247zM647 827l19 158q3 25 26 25h62q22 0 20 -25l-18 -156q-3 -26 -29 -26h-61q-22 0 -19 24z" />
<glyph unicode="&#xc0;" d="M54.5 7q-4.5 7 0.5 18l580 1343q13 25 35 25h63q24 0 27 -25l250 -1343q6 -25 -19 -25h-63q-24 0 -27 25l-76 397h-493l-170 -397q-12 -25 -31 -25h-59q-13 0 -17.5 7zM371 510h442l-104 549l-25 219q-2 -6 -12 -38t-18.5 -60.5t-20.5 -62.5t-21 -54zM498 1774 q-12 24 14 24h63q21 0 31 -20l115 -240q11 -22 -12 -22h-47q-24 0 -31 14z" />
<glyph unicode="&#xc1;" d="M54.5 7q-4.5 7 0.5 18l580 1343q13 25 35 25h63q24 0 27 -25l250 -1343q6 -25 -19 -25h-63q-24 0 -27 25l-76 397h-493l-170 -397q-12 -25 -31 -25h-59q-13 0 -17.5 7zM371 510h442l-104 549l-25 219q-2 -6 -12 -38t-18.5 -60.5t-20.5 -62.5t-21 -54zM666 1538l176 240 q13 20 32 20h68q13 0 15 -7t-7 -17l-192 -244q-14 -14 -31 -14h-53q-22 0 -8 22z" />
<glyph unicode="&#xc2;" d="M54.5 7q-4.5 7 0.5 18l580 1343q13 25 35 25h63q24 0 27 -25l250 -1343q6 -25 -19 -25h-63q-24 0 -27 25l-76 397h-493l-170 -397q-12 -25 -31 -25h-59q-13 0 -17.5 7zM371 510h442l-104 549l-25 219q-2 -6 -12 -38t-18.5 -60.5t-20.5 -62.5t-21 -54zM479 1523q-3 7 4 17 l187 234q21 24 43 24h39q19 0 34 -22l134 -236q6 -10 1 -17t-18 -7h-45q-21 0 -33 24l-100 189l-147 -189q-20 -24 -35 -24h-49q-12 0 -15 7z" />
<glyph unicode="&#xc3;" d="M54.5 7q-4.5 7 0.5 18l580 1343q13 25 35 25h63q24 0 27 -25l250 -1343q6 -25 -19 -25h-63q-24 0 -27 25l-76 397h-493l-170 -397q-12 -25 -31 -25h-59q-13 0 -17.5 7zM371 510h442l-104 549l-25 219q-2 -6 -12 -38t-18.5 -60.5t-20.5 -62.5t-21 -54zM412 1573l8 41 q15 89 52 127.5t99 38.5q58 0 107 -43l82 -74q37 -33 65 -33q37 0 52 22.5t24 88.5l2 18q3 23 29 23h33q21 0 18 -27l-6 -41q-27 -168 -154 -168q-55 0 -106 45l-84 74q-39 31 -64 31q-36 0 -50.5 -21.5t-22.5 -79.5l-4 -28q-6 -23 -29 -23h-33q-22 0 -18 29z" />
<glyph unicode="&#xc4;" d="M54.5 7q-4.5 7 0.5 18l580 1343q13 25 35 25h63q24 0 27 -25l250 -1343q6 -25 -19 -25h-63q-24 0 -27 25l-76 397h-493l-170 -397q-12 -25 -31 -25h-59q-13 0 -17.5 7zM371 510h442l-104 549l-25 219q-2 -6 -12 -38t-18.5 -60.5t-20.5 -62.5t-21 -54zM565 1554l23 201 q3 25 28 25h37q24 0 21 -25l-25 -201q-3 -24 -26 -24h-37q-24 0 -21 24zM766 1554l22 201q3 25 29 25h37q23 0 20 -25l-24 -201q-3 -24 -27 -24h-37q-23 0 -20 24z" />
<glyph unicode="&#xc5;" d="M54.5 7q-4.5 7 0.5 18l580 1343q13 25 35 25h63q24 0 27 -25l250 -1343q6 -25 -19 -25h-63q-24 0 -27 25l-76 397h-493l-170 -397q-12 -25 -31 -25h-59q-13 0 -17.5 7zM371 510h442l-104 549l-25 219q-2 -6 -12 -38t-18.5 -60.5t-20.5 -62.5t-21 -54zM528 1597q0 15 2 35 l5 45q5 62 53.5 97.5t144.5 35.5q83 0 126.5 -33.5t43.5 -86.5q0 -12 -2 -35l-4 -43q-13 -131 -197 -131q-85 0 -128.5 32.5t-43.5 83.5zM596 1614q0 -72 106 -72q122 0 129 80l3 23q2 16 2 32q0 33 -27 52.5t-82 19.5q-120 0 -127 -82l-2 -25q-2 -18 -2 -28z" />
<glyph unicode="&#xc6;" horiz-adv-x="1720" d="M55.5 6.5q-5.5 6.5 1.5 18.5l944 1343q15 25 46 25h688q25 0 22 -23l-6 -45q-3 -22 -27 -22h-614l-63 -525h575q26 0 23 -24l-7 -41q-3 -25 -26 -25h-578l-73 -596h638q26 0 23 -24l-6 -43q-3 -25 -27 -25h-710q-16 0 -24 6t-7 23l49 393h-453l-276 -397q-17 -25 -35 -25 h-59q-13 0 -18.5 6.5zM510 510h399l84 698q-48 -76 -82 -123z" />
<glyph unicode="&#xc7;" horiz-adv-x="1120" d="M203 227q0 17 4 49l102 844q7 64 32 113.5t74.5 90.5t136.5 63t208 22q389 0 389 -246q0 -15 -4 -47l-12 -102q-3 -27 -25 -27h-59q-26 0 -23 27l12 86q2 12 2 39q0 176 -288 176q-170 0 -246.5 -54.5t-89.5 -156.5l-99 -811q-2 -14 -2 -41q0 -83 66 -128.5t219 -45.5 q170 0 248.5 55t89.5 156l14 117q3 22 27 22h57q13 0 19 -5.5t4 -16.5l-17 -134q-6 -51 -22 -92t-49.5 -78.5t-82.5 -62.5t-124.5 -40t-173.5 -15h-12l-39 -95h79q61 0 104.5 -34.5t43.5 -104.5q0 -95 -55.5 -138.5t-132.5 -43.5h-240q-24 0 -21 24l2 23q3 25 27 25h227 q111 0 111 102q0 41 -26.5 58.5t-61.5 17.5h-121q-16 0 -25.5 8t-3.5 22l56 140q-299 24 -299 239z" />
<glyph unicode="&#xc8;" horiz-adv-x="1079" d="M199 25l166 1343q3 25 26 25h701q23 0 20 -25l-6 -45q-3 -25 -27 -25h-614l-64 -520h578q23 0 20 -24l-4 -43q-3 -25 -28 -25h-576l-74 -592h637q26 0 23 -24l-6 -45q-3 -25 -25 -25h-725q-25 0 -22 25zM557 1774q-12 24 14 24h64q21 0 31 -20l114 -240q11 -22 -12 -22 h-47q-24 0 -31 14z" />
<glyph unicode="&#xc9;" horiz-adv-x="1079" d="M199 25l166 1343q3 25 26 25h701q23 0 20 -25l-6 -45q-3 -25 -27 -25h-614l-64 -520h578q23 0 20 -24l-4 -43q-3 -25 -28 -25h-576l-74 -592h637q26 0 23 -24l-6 -45q-3 -25 -25 -25h-725q-25 0 -22 25zM694 1538l176 240q13 20 33 20h68q13 0 15 -7t-7 -17l-193 -244 q-14 -14 -30 -14h-54q-22 0 -8 22z" />
<glyph unicode="&#xca;" horiz-adv-x="1079" d="M199 25l166 1343q3 25 26 25h701q23 0 20 -25l-6 -45q-3 -25 -27 -25h-614l-64 -520h578q23 0 20 -24l-4 -43q-3 -25 -28 -25h-576l-74 -592h637q26 0 23 -24l-6 -45q-3 -25 -25 -25h-725q-25 0 -22 25zM526 1523q-3 7 4 17l187 234q21 24 43 24h39q20 0 35 -22l133 -236 q6 -10 1 -17t-18 -7h-45q-21 0 -33 24l-100 189l-147 -189q-20 -24 -35 -24h-49q-12 0 -15 7z" />
<glyph unicode="&#xcb;" horiz-adv-x="1079" d="M199 25l166 1343q3 25 26 25h701q23 0 20 -25l-6 -45q-3 -25 -27 -25h-614l-64 -520h578q23 0 20 -24l-4 -43q-3 -25 -28 -25h-576l-74 -592h637q26 0 23 -24l-6 -45q-3 -25 -25 -25h-725q-25 0 -22 25zM623 1554l22 201q3 25 29 25h37q23 0 20 -25l-24 -201 q-3 -24 -27 -24h-37q-23 0 -20 24zM823 1554l23 201q3 25 28 25h37q24 0 21 -25l-25 -201q-3 -24 -26 -24h-37q-24 0 -21 24z" />
<glyph unicode="&#xcc;" horiz-adv-x="501" d="M199 25l166 1343q3 25 26 25h62q23 0 20 -25l-166 -1343q-2 -13 -6.5 -19t-17.5 -6h-62q-25 0 -22 25zM244 1774q-12 24 14 24h64q20 0 30 -20l115 -240q11 -22 -12 -22h-47q-24 0 -31 14z" />
<glyph unicode="&#xcd;" horiz-adv-x="501" d="M199 25l166 1343q3 25 26 25h62q23 0 20 -25l-166 -1343q-2 -13 -6.5 -19t-17.5 -6h-62q-25 0 -22 25zM395 1538l176 240q13 20 33 20h68q13 0 15 -7t-7 -17l-193 -244q-14 -14 -30 -14h-54q-22 0 -8 22z" />
<glyph unicode="&#xce;" horiz-adv-x="501" d="M199 25l166 1343q3 25 26 25h62q23 0 20 -25l-166 -1343q-2 -13 -6.5 -19t-17.5 -6h-62q-25 0 -22 25zM210 1523q-3 7 5 17l186 234q21 24 43 24h39q20 0 35 -22l133 -236q6 -10 1.5 -17t-17.5 -7h-45q-21 0 -33 24l-100 189l-148 -189q-20 -24 -35 -24h-49q-12 0 -15 7z " />
<glyph unicode="&#xcf;" horiz-adv-x="501" d="M199 25l166 1343q3 25 26 25h62q23 0 20 -25l-166 -1343q-2 -13 -6.5 -19t-17.5 -6h-62q-25 0 -22 25zM301 1554l23 201q3 25 28 25h37q24 0 21 -25l-25 -201q-3 -24 -27 -24h-36q-24 0 -21 24zM502 1554l22 201q3 25 29 25h37q23 0 20 -25l-24 -201q-3 -24 -27 -24h-37 q-23 0 -20 24z" />
<glyph unicode="&#xd0;" horiz-adv-x="1226" d="M102 688l4 37q3 23 29 23h152l78 620q3 25 26 25h400q210 0 304.5 -68t94.5 -182q0 -35 -2 -49l-98 -805q-8 -64 -34 -113.5t-77 -90.5t-139.5 -63t-210.5 -22h-410q-23 0 -20 25l77 639h-153q-24 0 -21 24zM317 94h318q319 0 346 211l96 776q2 14 2 39q0 178 -297 178 h-317l-68 -550h287q21 0 21 -23l-3 -37q-3 -24 -28 -24h-287z" />
<glyph unicode="&#xd1;" horiz-adv-x="1247" d="M199 25l163 1343q3 25 29 25h49q17 0 21 -11l463 -1050l47 -117l141 1153q3 25 29 25h53q23 0 20 -25l-163 -1343q-3 -25 -27 -25h-51q-17 0 -23 12l-458 1043q-36 90 -48 125l-143 -1155q-3 -25 -25 -25h-55q-25 0 -22 25zM537 1573l8 41q15 89 52 127.5t99 38.5 q58 0 107 -43l82 -74q37 -33 65 -33q37 0 52 22.5t24 88.5l2 18q3 23 29 23h33q21 0 18 -27l-6 -41q-27 -168 -154 -168q-55 0 -106 45l-84 74q-39 31 -64 31q-36 0 -50.5 -21.5t-22.5 -79.5l-5 -28q-6 -23 -28 -23h-33q-22 0 -18 29z" />
<glyph unicode="&#xd2;" horiz-adv-x="1202" d="M203 229q0 15 4 47l102 844q7 64 33 113.5t77 90.5t139.5 63t209.5 22q209 0 304 -68t95 -182q0 -29 -2 -43l-104 -844q-32 -288 -461 -288q-209 0 -303 66t-94 179zM313 256q0 -178 295 -178q319 0 346 211l101 811q2 12 2 37q0 178 -297 178q-317 0 -344 -211l-99 -811 q-4 -32 -4 -37zM596 1774q-12 24 14 24h64q21 0 31 -20l114 -240q11 -22 -12 -22h-47q-24 0 -31 14z" />
<glyph unicode="&#xd3;" horiz-adv-x="1202" d="M203 229q0 15 4 47l102 844q7 64 33 113.5t77 90.5t139.5 63t209.5 22q209 0 304 -68t95 -182q0 -29 -2 -43l-104 -844q-32 -288 -461 -288q-209 0 -303 66t-94 179zM313 256q0 -178 295 -178q319 0 346 211l101 811q2 12 2 37q0 178 -297 178q-317 0 -344 -211l-99 -811 q-4 -32 -4 -37zM737 1538l176 240q13 20 33 20h68q13 0 15 -7t-7 -17l-193 -244q-14 -14 -30 -14h-54q-22 0 -8 22z" />
<glyph unicode="&#xd4;" horiz-adv-x="1202" d="M203 229q0 15 4 47l102 844q7 64 33 113.5t77 90.5t139.5 63t209.5 22q209 0 304 -68t95 -182q0 -29 -2 -43l-104 -844q-32 -288 -461 -288q-209 0 -303 66t-94 179zM313 256q0 -178 295 -178q319 0 346 211l101 811q2 12 2 37q0 178 -297 178q-317 0 -344 -211l-99 -811 q-4 -32 -4 -37zM558 1523q-3 7 5 17l187 234q21 24 43 24h38q20 0 35 -22l133 -236q6 -10 1.5 -17t-17.5 -7h-45q-21 0 -33 24l-100 189l-148 -189q-20 -24 -34 -24h-50q-12 0 -15 7z" />
<glyph unicode="&#xd5;" horiz-adv-x="1202" d="M203 229q0 15 4 47l102 844q7 64 33 113.5t77 90.5t139.5 63t209.5 22q209 0 304 -68t95 -182q0 -29 -2 -43l-104 -844q-32 -288 -461 -288q-209 0 -303 66t-94 179zM313 256q0 -178 295 -178q319 0 346 211l101 811q2 12 2 37q0 178 -297 178q-317 0 -344 -211l-99 -811 q-4 -32 -4 -37zM512 1573l8 41q14 89 51.5 127.5t100.5 38.5q57 0 106 -43l82 -74q37 -33 66 -33q36 0 51 22t24 89l3 18q3 23 28 23h33q21 0 18 -27l-6 -41q-27 -168 -153 -168q-56 0 -107 45l-84 74q-39 31 -63 31q-36 0 -51 -21.5t-23 -79.5l-4 -28q-6 -23 -29 -23h-33 q-22 0 -18 29z" />
<glyph unicode="&#xd6;" horiz-adv-x="1202" d="M203 229q0 15 4 47l102 844q7 64 33 113.5t77 90.5t139.5 63t209.5 22q209 0 304 -68t95 -182q0 -29 -2 -43l-104 -844q-32 -288 -461 -288q-209 0 -303 66t-94 179zM313 256q0 -178 295 -178q319 0 346 211l101 811q2 12 2 37q0 178 -297 178q-317 0 -344 -211l-99 -811 q-4 -32 -4 -37zM645 1554l23 201q3 25 28 25h37q24 0 21 -25l-25 -201q-3 -24 -27 -24h-36q-24 0 -21 24zM846 1554l22 201q3 25 29 25h37q23 0 20 -25l-24 -201q-3 -24 -27 -24h-37q-23 0 -20 24z" />
<glyph unicode="&#xd7;" horiz-adv-x="1116" d="M238 514q0 13 14 21l305 176l-176 307q-4 6 -4 14q0 10 12 19l37 22q8 4 12 4q13 0 21 -14l176 -307l311 178q6 4 15 4q7 0 16 -12l22 -37q5 -7 5 -15q0 -11 -15 -20l-307 -178l176 -305q6 -9 6 -17t-16 -18l-35 -21q-6 -4 -14 -4q-13 0 -19 13l-176 307l-307 -176 q-6 -4 -16 -4q-11 0 -19 14l-20 37q-4 8 -4 12z" />
<glyph unicode="&#xd8;" horiz-adv-x="1202" d="M203 227q0 15 4 47l102 844q7 64 33 113.5t77 90.5t139.5 63t209.5 22q177 0 274 -51l37 63q17 25 33 25h31q10 0 11.5 -8t-3.5 -17l-57 -96q73 -64 73 -166q0 -29 -2 -43l-104 -844q-8 -64 -34.5 -113.5t-77.5 -90t-139.5 -62.5t-209.5 -22q-174 0 -274 49l-33 -58 q-19 -28 -35 -28h-31q-23 0 -6 28l53 90q-71 60 -71 164zM313 254q0 -50 23 -86l651 1096q-74 49 -227 49q-320 0 -344 -211l-99 -811q-4 -24 -4 -37zM381 123q71 -47 227 -47q319 0 346 211l101 811q2 12 2 37q0 47 -25 86z" />
<glyph unicode="&#xd9;" horiz-adv-x="1226" d="M213 233q0 20 4 48l133 1087q3 25 27 25h61q24 0 21 -25l-131 -1067q-4 -36 -4 -45q0 -178 294 -178q172 0 253 55t94 156l133 1079q3 25 24 25h62q25 0 22 -25l-135 -1096q-7 -64 -33 -113.5t-77.5 -90t-140 -62.5t-210.5 -22q-208 0 -302.5 67.5t-94.5 181.5zM604 1774 q-12 24 14 24h64q21 0 31 -20l114 -240q11 -22 -12 -22h-47q-24 0 -31 14z" />
<glyph unicode="&#xda;" horiz-adv-x="1226" d="M213 233q0 20 4 48l133 1087q3 25 27 25h61q24 0 21 -25l-131 -1067q-4 -36 -4 -45q0 -178 294 -178q172 0 253 55t94 156l133 1079q3 25 24 25h62q25 0 22 -25l-135 -1096q-7 -64 -33 -113.5t-77.5 -90t-140 -62.5t-210.5 -22q-208 0 -302.5 67.5t-94.5 181.5zM748 1538 l176 240q13 20 32 20h68q13 0 15 -7t-7 -17l-192 -244q-14 -14 -31 -14h-53q-22 0 -8 22z" />
<glyph unicode="&#xdb;" horiz-adv-x="1226" d="M213 233q0 20 4 48l133 1087q3 25 27 25h61q24 0 21 -25l-131 -1067q-4 -36 -4 -45q0 -178 294 -178q172 0 253 55t94 156l133 1079q3 25 24 25h62q25 0 22 -25l-135 -1096q-7 -64 -33 -113.5t-77.5 -90t-140 -62.5t-210.5 -22q-208 0 -302.5 67.5t-94.5 181.5zM571 1523 q-3 7 4 17l187 234q21 24 43 24h39q20 0 35 -22l133 -236q6 -10 1 -17t-18 -7h-45q-20 0 -32 24l-101 189l-147 -189q-20 -24 -35 -24h-49q-12 0 -15 7z" />
<glyph unicode="&#xdc;" horiz-adv-x="1226" d="M213 233q0 20 4 48l133 1087q3 25 27 25h61q24 0 21 -25l-131 -1067q-4 -36 -4 -45q0 -178 294 -178q172 0 253 55t94 156l133 1079q3 25 24 25h62q25 0 22 -25l-135 -1096q-7 -64 -33 -113.5t-77.5 -90t-140 -62.5t-210.5 -22q-208 0 -302.5 67.5t-94.5 181.5zM651 1554 l23 201q3 25 28 25h37q24 0 21 -25l-25 -201q-3 -24 -26 -24h-37q-24 0 -21 24zM852 1554l22 201q3 25 29 25h37q24 0 21 -25l-25 -201q-3 -24 -27 -24h-37q-23 0 -20 24z" />
<glyph unicode="&#xdd;" horiz-adv-x="1042" d="M213 1368q-4 12 1.5 18.5t18.5 6.5h70q18 0 27 -25l252 -631q14 -38 20 -67q3 10 37 67l412 631q18 25 34 25h64q30 0 14 -25l-516 -790l-67 -553q-3 -25 -27 -25h-61q-26 0 -23 25l68 540zM664 1538l176 240q13 20 32 20h68q13 0 15 -7t-7 -17l-192 -244 q-14 -14 -31 -14h-53q-22 0 -8 22z" />
<glyph unicode="&#xde;" horiz-adv-x="1153" d="M199 25l163 1343q3 25 29 25h62q23 0 20 -25l-43 -358h309q107 0 186 -19t124 -54t66.5 -79t21.5 -98q0 -27 -2 -41l-27 -217q-8 -65 -34 -114.5t-77.5 -90.5t-139.5 -62.5t-210 -21.5h-315l-25 -188q-3 -25 -24 -25h-62q-25 0 -22 25zM342 305h313q322 0 346 213l23 187 q2 12 2 32q0 181 -295 181h-313z" />
<glyph unicode="&#xdf;" horiz-adv-x="1212" d="M176 938l4 37q3 24 27 24l131 7h2l25 192q31 252 411 252q352 0 352 -219q0 -3 -4 -49l-6 -60q-4 -41 -25 -74t-51 -53t-55 -31t-51 -18l-133 -35q-25 -6 -37 -10t-32 -12.5t-30.5 -18.5t-20 -26t-11.5 -37l-2 -21v-12q0 -67 106 -108l234 -91q166 -65 166 -176 q0 -14 -2 -37l-15 -129q-6 -59 -25 -101.5t-58.5 -77.5t-108.5 -52.5t-168 -17.5q-166 0 -233.5 50.5t-67.5 147.5q0 12 2 43l2 31q3 25 28 25h41q24 0 21 -25l-2 -29q-2 -25 -2 -34q0 -65 47.5 -99.5t167.5 -34.5q71 0 120 12t77 36t41 52t18 68l12 107q4 40 4 43 q0 22 -11 41t-22 29.5t-35 22.5t-30 14t-27 10l-227 84q-54 19 -102 64t-48 112q0 18 2 32l5 23q22 128 180 168l119 31q128 31 139 120l6 50q2 20 2 41q0 149 -258 149q-278 0 -299 -176l-141 -1167q-3 -25 -29 -25h-59q-24 0 -21 25l111 893h-133q-11 0 -16.5 5t-4.5 15z " />
<glyph unicode="&#xe0;" horiz-adv-x="1064" d="M172 195q0 13 4 41l68 538q14 119 89 185.5t220 66.5q114 0 200.5 -39t141.5 -88l14 84q6 27 27 27h53q24 0 21 -27l-119 -958q-3 -25 -27 -25h-53q-20 0 -20 25l6 84q-176 -125 -369 -125q-126 0 -191 56.5t-65 154.5zM281 219q0 -64 45 -101.5t139 -37.5q175 0 342 121 l76 606q-143 123 -314 123q-100 0 -155.5 -47t-65.5 -123l-65 -512q-2 -10 -2 -29zM470 1442q4 8 17 8h62q21 0 31 -20l116 -240q12 -23 -14 -23h-47q-21 0 -29 15l-135 243q-5 9 -1 17z" />
<glyph unicode="&#xe1;" horiz-adv-x="1064" d="M172 195q0 13 4 41l68 538q14 119 89 185.5t220 66.5q114 0 200.5 -39t141.5 -88l14 84q6 27 27 27h53q24 0 21 -27l-119 -958q-3 -25 -27 -25h-53q-20 0 -20 25l6 84q-176 -125 -369 -125q-126 0 -191 56.5t-65 154.5zM281 219q0 -64 45 -101.5t139 -37.5q175 0 342 121 l76 606q-143 123 -314 123q-100 0 -155.5 -47t-65.5 -123l-65 -512q-2 -10 -2 -29zM588 1173.5q-3 6.5 4 16.5l178 240q13 20 33 20h67q13 0 15.5 -7t-6.5 -18l-193 -243q-15 -15 -31 -15h-53q-11 0 -14 6.5z" />
<glyph unicode="&#xe2;" horiz-adv-x="1064" d="M172 195q0 13 4 41l68 538q14 119 89 185.5t220 66.5q114 0 200.5 -39t141.5 -88l14 84q6 27 27 27h53q24 0 21 -27l-119 -958q-3 -25 -27 -25h-53q-20 0 -20 25l6 84q-176 -125 -369 -125q-126 0 -191 56.5t-65 154.5zM281 219q0 -64 45 -101.5t139 -37.5q175 0 342 121 l76 606q-143 123 -314 123q-100 0 -155.5 -47t-65.5 -123l-65 -512q-2 -10 -2 -29zM415.5 1174.5q-3.5 7.5 4.5 17.5l188 233q18 25 41 25h41q20 0 35 -23l131 -235q6 -10 2 -17.5t-16 -7.5h-45q-21 0 -33 25l-100 188l-148 -188q-21 -25 -35 -25h-49q-13 0 -16.5 7.5z" />
<glyph unicode="&#xe3;" horiz-adv-x="1064" d="M172 195q0 13 4 41l68 538q14 119 89 185.5t220 66.5q114 0 200.5 -39t141.5 -88l14 84q6 27 27 27h53q24 0 21 -27l-119 -958q-3 -25 -27 -25h-53q-20 0 -20 25l6 84q-176 -125 -369 -125q-126 0 -191 56.5t-65 154.5zM281 219q0 -64 45 -101.5t139 -37.5q175 0 342 121 l76 606q-143 123 -314 123q-100 0 -155.5 -47t-65.5 -123l-65 -512q-2 -10 -2 -29zM369 1214l8 41q15 90 52 129t99 39q56 0 107 -45l82 -73q41 -33 65 -33q37 0 52 22t24 88l2 19q3 22 29 22h33q24 0 18 -26l-6 -39q-24 -168 -152 -168q-55 0 -108 43l-84 74q-40 32 -64 32 q-36 0 -50.5 -21.5t-22.5 -80.5l-4 -27q-2 -22 -29 -22h-33q-21 0 -18 26z" />
<glyph unicode="&#xe4;" horiz-adv-x="1064" d="M172 195q0 13 4 41l68 538q14 119 89 185.5t220 66.5q114 0 200.5 -39t141.5 -88l14 84q6 27 27 27h53q24 0 21 -27l-119 -958q-3 -25 -27 -25h-53q-20 0 -20 25l6 84q-176 -125 -369 -125q-126 0 -191 56.5t-65 154.5zM281 219q0 -64 45 -101.5t139 -37.5q175 0 342 121 l76 606q-143 123 -314 123q-100 0 -155.5 -47t-65.5 -123l-65 -512q-2 -10 -2 -29zM502 1212l24 201q3 25 27 25h37q23 0 20 -25l-24 -201q-3 -24 -27 -24h-37q-23 0 -20 24zM702 1212l25 201q3 25 27 25h37q23 0 20 -25l-25 -201q-3 -24 -26 -24h-37q-24 0 -21 24z" />
<glyph unicode="&#xe5;" horiz-adv-x="1064" d="M172 195q0 13 4 41l68 538q14 119 89 185.5t220 66.5q114 0 200.5 -39t141.5 -88l14 84q6 27 27 27h53q24 0 21 -27l-119 -958q-3 -25 -27 -25h-53q-20 0 -20 25l6 84q-176 -125 -369 -125q-126 0 -191 56.5t-65 154.5zM281 219q0 -64 45 -101.5t139 -37.5q175 0 342 121 l76 606q-143 123 -314 123q-100 0 -155.5 -47t-65.5 -123l-65 -512q-2 -10 -2 -29zM492 1255q0 15 2 35l4 45q5 62 53.5 97.5t144.5 35.5q83 0 126.5 -33.5t43.5 -86.5q0 -12 -2 -35l-4 -43q-13 -131 -196 -131q-85 0 -128.5 32.5t-43.5 83.5zM559 1272q0 -72 107 -72 q122 0 129 80l2 23q2 16 2 32q0 33 -27 52.5t-82 19.5q-120 0 -127 -82l-2 -25q-2 -18 -2 -28z" />
<glyph unicode="&#xe6;" horiz-adv-x="1615" d="M156 186q0 17 2 35l12 96q13 101 86 166.5t199 65.5h370l25 207q4 32 4 43q0 68 -53 105.5t-180 37.5q-143 0 -206 -44t-71 -124l-4 -37q-1 -13 -7 -18.5t-20 -5.5h-51q-25 0 -22 24l4 37q13 122 100 187t285 65q236 0 291 -121q82 121 327 121q332 0 332 -215 q0 -19 -2 -39l-31 -254q-3 -22 -24 -22h-598l-31 -244q-4 -32 -4 -39q0 -69 55.5 -106t185.5 -37q142 0 206.5 44t74.5 124l6 47q3 24 27 24h51q24 0 21 -24l-7 -52q-7 -58 -28.5 -101t-65 -77.5t-117 -52.5t-176.5 -18q-279 0 -323 147q-34 -27 -62.5 -46.5t-78 -45.5 t-110.5 -40.5t-128 -14.5q-119 0 -191.5 53t-72.5 149zM262 213q0 -141 180 -141q162 0 342 139l31 254h-356q-82 0 -130.5 -45t-56.5 -117l-6 -51q-4 -36 -4 -39zM932 578h520l25 192q2 16 2 27q0 143 -240 143q-143 0 -208 -45t-75 -125z" />
<glyph unicode="&#xe7;" horiz-adv-x="974" d="M172 197q0 25 2 39l68 536q7 59 29 103.5t65.5 79.5t117.5 53t177 18q332 0 332 -215q0 -25 -2 -41l-7 -37q-3 -24 -26 -24h-56q-23 0 -20 22l4 35q2 14 2 33q0 66 -53 101.5t-182 35.5q-142 0 -203.5 -44t-71.5 -126l-65 -514q-2 -14 -2 -39q0 -68 53.5 -103.5 t181.5 -35.5q142 0 204 43.5t73 126.5l6 49q3 24 26 24h56q23 0 20 -24l-8 -57q-7 -57 -28.5 -100t-63.5 -78t-113 -54t-170 -20l-39 -95h80q61 0 104.5 -34.5t43.5 -104.5q0 -95 -56 -138.5t-133 -43.5h-239q-24 0 -21 24l2 23q3 25 27 25h227q111 0 111 102 q0 41 -26.5 58.5t-61.5 17.5h-121q-16 0 -25.5 8t-3.5 22l53 138q-268 19 -268 211z" />
<glyph unicode="&#xe8;" horiz-adv-x="1003" d="M172 199q0 25 2 37l68 536q7 59 30 103.5t67 79.5t118 53t176 18q336 0 336 -215q0 -27 -2 -39l-33 -254q-3 -22 -25 -22h-598l-30 -248l-5 -35q0 -69 56 -106t186 -37q260 0 281 168l6 47q3 24 29 24h51q23 0 20 -24l-6 -49q-6 -46 -20 -82.5t-42.5 -69t-71.5 -54 t-107 -34t-148 -12.5q-338 0 -338 215zM322 578h518l24 186q2 10 2 33q0 143 -239 143q-142 0 -206.5 -45t-74.5 -125zM466 1442q4 8 17 8h62q20 0 30 -20l117 -240q12 -23 -14 -23h-47q-21 0 -29 15l-135 243q-5 9 -1 17z" />
<glyph unicode="&#xe9;" horiz-adv-x="1003" d="M172 199q0 25 2 37l68 536q7 59 30 103.5t67 79.5t118 53t176 18q336 0 336 -215q0 -27 -2 -39l-33 -254q-3 -22 -25 -22h-598l-30 -248l-5 -35q0 -69 56 -106t186 -37q260 0 281 168l6 47q3 24 29 24h51q23 0 20 -24l-6 -49q-6 -46 -20 -82.5t-42.5 -69t-71.5 -54 t-107 -34t-148 -12.5q-338 0 -338 215zM322 578h518l24 186q2 10 2 33q0 143 -239 143q-142 0 -206.5 -45t-74.5 -125zM596 1173.5q-3 6.5 4 16.5l178 240q13 20 33 20h68q13 0 15 -7t-7 -18l-193 -243q-15 -15 -30 -15h-54q-11 0 -14 6.5z" />
<glyph unicode="&#xea;" horiz-adv-x="1003" d="M172 199q0 25 2 37l68 536q7 59 30 103.5t67 79.5t118 53t176 18q336 0 336 -215q0 -27 -2 -39l-33 -254q-3 -22 -25 -22h-598l-30 -248l-5 -35q0 -69 56 -106t186 -37q260 0 281 168l6 47q3 24 29 24h51q23 0 20 -24l-6 -49q-6 -46 -20 -82.5t-42.5 -69t-71.5 -54 t-107 -34t-148 -12.5q-338 0 -338 215zM322 578h518l24 186q2 10 2 33q0 143 -239 143q-142 0 -206.5 -45t-74.5 -125zM421.5 1174.5q-3.5 7.5 4.5 17.5l188 233q18 25 41 25h41q20 0 35 -23l131 -235q6 -10 2 -17.5t-16 -7.5h-45q-21 0 -33 25l-100 188l-148 -188 q-21 -25 -35 -25h-49q-13 0 -16.5 7.5z" />
<glyph unicode="&#xeb;" horiz-adv-x="1003" d="M172 199q0 25 2 37l68 536q7 59 30 103.5t67 79.5t118 53t176 18q336 0 336 -215q0 -27 -2 -39l-33 -254q-3 -22 -25 -22h-598l-30 -248l-5 -35q0 -69 56 -106t186 -37q260 0 281 168l6 47q3 24 29 24h51q23 0 20 -24l-6 -49q-6 -46 -20 -82.5t-42.5 -69t-71.5 -54 t-107 -34t-148 -12.5q-338 0 -338 215zM322 578h518l24 186q2 10 2 33q0 143 -239 143q-142 0 -206.5 -45t-74.5 -125zM500 1212l24 201q3 25 27 25h37q23 0 20 -25l-24 -201q-3 -24 -27 -24h-37q-23 0 -20 24zM700 1212l25 201q3 25 27 25h36q24 0 21 -25l-25 -201 q-3 -24 -26 -24h-37q-24 0 -21 24z" />
<glyph unicode="&#xec;" horiz-adv-x="452" d="M175.5 1442q4.5 8 17.5 8h61q21 0 31 -20l116 -240q11 -23 -14 -23h-47q-22 0 -29 15l-135 243q-5 9 -0.5 17zM176 25l119 960q4 25 27 25h57q25 0 22 -25l-118 -960q-3 -25 -27 -25h-59q-24 0 -21 25z" />
<glyph unicode="&#xed;" horiz-adv-x="452" d="M176 25l119 960q4 25 27 25h57q25 0 22 -25l-118 -960q-3 -25 -27 -25h-59q-24 0 -21 25zM322 1173.5q-3 6.5 4 16.5l178 240q13 20 33 20h67q13 0 15 -7t-7 -18l-192 -243q-15 -15 -31 -15h-53q-11 0 -14 6.5z" />
<glyph unicode="&#xee;" horiz-adv-x="452" d="M145.5 1174.5q-3.5 7.5 4.5 17.5l188 233q18 25 41 25h41q20 0 35 -23l131 -235q6 -10 1.5 -17.5t-16.5 -7.5h-45q-20 0 -32 25l-101 188l-147 -188q-21 -25 -35 -25h-49q-13 0 -16.5 7.5zM176 25l119 960q4 25 27 25h57q25 0 22 -25l-118 -960q-3 -25 -27 -25h-59 q-24 0 -21 25z" />
<glyph unicode="&#xef;" horiz-adv-x="452" d="M176 25l119 960q4 25 27 25h57q25 0 22 -25l-118 -960q-3 -25 -27 -25h-59q-24 0 -21 25zM236 1212l24 201q3 25 27 25h37q23 0 20 -25l-25 -201q-3 -24 -26 -24h-37q-23 0 -20 24zM436 1212l25 201q3 25 26 25h37q24 0 21 -25l-25 -201q-3 -24 -26 -24h-37q-24 0 -21 24 z" />
<glyph unicode="&#xf0;" horiz-adv-x="1130" d="M174 199q0 25 2 37l64 538q14 118 90 185t221 67q194 0 340 -125l35 279q0 3 1 12t1 12q0 26 -10 53l-179 -71q-27 -11 -32 10l-5 16q-3 9 1.5 18.5t13.5 12.5l180 72q-52 55 -209 55h-178q-24 0 -21 23l3 32q3 25 28 25h178q219 0 291 -88l117 49q21 8 29 -8l8 -17 q9 -19 -17 -30l-106 -47q12 -30 12 -68q0 -29 -2 -43l-119 -962q-7 -58 -30 -102t-67.5 -79t-118.5 -53t-177 -18q-178 0 -261 57t-83 158zM281 217q0 -145 245 -145q143 0 209 45t76 127l70 565q-136 123 -314 123q-102 0 -156.5 -47t-64.5 -123l-63 -518q-2 -10 -2 -27z " />
<glyph unicode="&#xf1;" horiz-adv-x="1075" d="M176 25l119 960q3 25 27 25h51q25 0 22 -25l-6 -86q163 127 367 127q124 0 191 -57.5t67 -153.5q0 -19 -2 -39l-94 -751q-3 -25 -27 -25h-60q-23 0 -20 25l90 731q4 28 4 30q0 66 -44.5 105t-137.5 39q-183 0 -344 -123l-96 -782q-3 -25 -27 -25h-59q-23 0 -21 25z M408 1214l8 41q15 90 52 129t99 39q56 0 107 -45l82 -73q41 -33 65 -33q37 0 52 22t24 88l2 19q3 22 29 22h33q25 0 18 -26l-6 -39q-24 -168 -152 -168q-55 0 -108 43l-84 74q-40 32 -64 32q-36 0 -50.5 -21.5t-22.5 -80.5l-5 -27q-2 -22 -28 -22h-33q-21 0 -18 26z" />
<glyph unicode="&#xf2;" horiz-adv-x="1040" d="M172 201q0 23 2 35l68 536q10 79 48.5 133t126.5 87.5t224 33.5q177 0 260.5 -57.5t83.5 -159.5q0 -19 -2 -37l-68 -536q-7 -58 -30.5 -102t-69 -78.5t-121 -53t-178.5 -18.5q-177 0 -260.5 57.5t-83.5 159.5zM281 217q0 -71 56 -107t189 -36q143 0 209 44t76 126l66 522 q2 16 2 25q0 145 -246 145q-265 0 -285 -170l-65 -522q-2 -10 -2 -27zM456 1442q4 8 17 8h62q20 0 30 -20l117 -240q12 -23 -14 -23h-47q-21 0 -29 15l-135 243q-5 9 -1 17z" />
<glyph unicode="&#xf3;" horiz-adv-x="1040" d="M172 201q0 23 2 35l68 536q10 79 48.5 133t126.5 87.5t224 33.5q177 0 260.5 -57.5t83.5 -159.5q0 -19 -2 -37l-68 -536q-7 -58 -30.5 -102t-69 -78.5t-121 -53t-178.5 -18.5q-177 0 -260.5 57.5t-83.5 159.5zM281 217q0 -71 56 -107t189 -36q143 0 209 44t76 126l66 522 q2 16 2 25q0 145 -246 145q-265 0 -285 -170l-65 -522q-2 -10 -2 -27zM602 1173.5q-3 6.5 4 16.5l178 240q13 20 33 20h68q13 0 15 -7t-7 -18l-193 -243q-15 -15 -30 -15h-54q-11 0 -14 6.5z" />
<glyph unicode="&#xf4;" horiz-adv-x="1040" d="M172 201q0 23 2 35l68 536q10 79 48.5 133t126.5 87.5t224 33.5q177 0 260.5 -57.5t83.5 -159.5q0 -19 -2 -37l-68 -536q-7 -58 -30.5 -102t-69 -78.5t-121 -53t-178.5 -18.5q-177 0 -260.5 57.5t-83.5 159.5zM281 217q0 -71 56 -107t189 -36q143 0 209 44t76 126l66 522 q2 16 2 25q0 145 -246 145q-265 0 -285 -170l-65 -522q-2 -10 -2 -27zM434 1174.5q-4 7.5 4 17.5l189 233q18 25 41 25h41q19 0 34 -23l131 -235q6 -10 2 -17.5t-16 -7.5h-45q-21 0 -33 25l-100 188l-147 -188q-21 -25 -35 -25h-49q-13 0 -17 7.5z" />
<glyph unicode="&#xf5;" horiz-adv-x="1040" d="M172 201q0 23 2 35l68 536q10 79 48.5 133t126.5 87.5t224 33.5q177 0 260.5 -57.5t83.5 -159.5q0 -19 -2 -37l-68 -536q-7 -58 -30.5 -102t-69 -78.5t-121 -53t-178.5 -18.5q-177 0 -260.5 57.5t-83.5 159.5zM281 217q0 -71 56 -107t189 -36q143 0 209 44t76 126l66 522 q2 16 2 25q0 145 -246 145q-265 0 -285 -170l-65 -522q-2 -10 -2 -27zM371 1214l8 41q15 90 52 129t99 39q56 0 107 -45l82 -73q41 -33 65 -33q37 0 52 22t24 88l2 19q3 22 29 22h33q24 0 18 -26l-6 -39q-24 -168 -152 -168q-55 0 -108 43l-84 74q-40 32 -64 32 q-36 0 -50.5 -21.5t-22.5 -80.5l-4 -27q-2 -22 -29 -22h-33q-21 0 -18 26z" />
<glyph unicode="&#xf6;" horiz-adv-x="1040" d="M172 201q0 23 2 35l68 536q10 79 48.5 133t126.5 87.5t224 33.5q177 0 260.5 -57.5t83.5 -159.5q0 -19 -2 -37l-68 -536q-7 -58 -30.5 -102t-69 -78.5t-121 -53t-178.5 -18.5q-177 0 -260.5 57.5t-83.5 159.5zM281 217q0 -71 56 -107t189 -36q143 0 209 44t76 126l66 522 q2 16 2 25q0 145 -246 145q-265 0 -285 -170l-65 -522q-2 -10 -2 -27zM512 1212l25 201q3 25 26 25h37q24 0 21 -25l-25 -201q-3 -24 -27 -24h-37q-23 0 -20 24zM713 1212l24 201q3 25 27 25h37q23 0 20 -25l-24 -201q-3 -24 -27 -24h-37q-23 0 -20 24z" />
<glyph unicode="&#xf7;" horiz-adv-x="1208" d="M250 647v43q0 23 22 23h818q24 0 24 -23v-43q0 -24 -24 -24h-816q-24 0 -24 24zM627 256v158q0 24 24 24h62q22 0 22 -24v-158q0 -25 -22 -25h-62q-24 0 -24 25zM627 928v159q0 23 24 23h62q22 0 22 -23v-159q0 -25 -22 -25h-62q-24 0 -24 25z" />
<glyph unicode="&#xf8;" horiz-adv-x="1040" d="M170 -39.5q1 5.5 4 10.5l59 86q-61 52 -61 144q0 23 2 35l68 536q10 79 48.5 133t126.5 87.5t224 33.5q147 0 231 -43l41 59q17 25 33 25h31q10 0 11.5 -8t-5.5 -17l-61 -90q63 -54 63 -143q0 -25 -2 -37l-68 -536q-7 -58 -30.5 -102t-69 -78.5t-121 -53t-178.5 -18.5 q-147 0 -235 43l-37 -56q-17 -24 -35 -24h-29q-6 0 -8.5 4t-1.5 9.5zM281 217q0 -43 16 -67l518 751q-59 35 -182 35q-265 0 -285 -170l-65 -522q-2 -10 -2 -27zM338 109q59 -35 188 -35q143 0 209 44t76 126l63 516q5 25 5 31q0 36 -21 71z" />
<glyph unicode="&#xf9;" d="M184 193q0 16 2 34l93 756q3 27 28 27h58q23 0 20 -27l-90 -733q-2 -16 -2 -31q0 -65 44.5 -102t137.5 -37q174 0 332 121l94 782q3 27 27 27h59q24 0 21 -27l-119 -958q-3 -25 -25 -25h-53q-26 0 -23 25l7 81q-153 -122 -355 -122q-124 0 -190 57t-66 152zM472 1442 q4 8 17 8h62q21 0 31 -20l116 -240q12 -23 -14 -23h-47q-21 0 -29 15l-135 243q-5 9 -1 17z" />
<glyph unicode="&#xfa;" d="M184 193q0 16 2 34l93 756q3 27 28 27h58q23 0 20 -27l-90 -733q-2 -16 -2 -31q0 -65 44.5 -102t137.5 -37q174 0 332 121l94 782q3 27 27 27h59q24 0 21 -27l-119 -958q-3 -25 -25 -25h-53q-26 0 -23 25l7 81q-153 -122 -355 -122q-124 0 -190 57t-66 152zM600 1173.5 q-3 6.5 4 16.5l178 240q13 20 33 20h68q13 0 15 -7t-7 -18l-193 -243q-15 -15 -30 -15h-54q-11 0 -14 6.5z" />
<glyph unicode="&#xfb;" d="M184 193q0 16 2 34l93 756q3 27 28 27h58q23 0 20 -27l-90 -733q-2 -16 -2 -31q0 -65 44.5 -102t137.5 -37q174 0 332 121l94 782q3 27 27 27h59q24 0 21 -27l-119 -958q-3 -25 -25 -25h-53q-26 0 -23 25l7 81q-153 -122 -355 -122q-124 0 -190 57t-66 152zM432 1174.5 q-4 7.5 4 17.5l189 233q18 25 41 25h41q19 0 34 -23l131 -235q6 -10 2 -17.5t-16 -7.5h-45q-21 0 -33 25l-100 188l-148 -188q-21 -25 -34 -25h-49q-13 0 -17 7.5z" />
<glyph unicode="&#xfc;" d="M184 193q0 16 2 34l93 756q3 27 28 27h58q23 0 20 -27l-90 -733q-2 -16 -2 -31q0 -65 44.5 -102t137.5 -37q174 0 332 121l94 782q3 27 27 27h59q24 0 21 -27l-119 -958q-3 -25 -25 -25h-53q-26 0 -23 25l7 81q-153 -122 -355 -122q-124 0 -190 57t-66 152zM522 1212 l25 201q3 25 26 25h37q24 0 21 -25l-25 -201q-3 -24 -26 -24h-37q-24 0 -21 24zM723 1212l25 201q3 25 26 25h37q23 0 20 -25l-24 -201q-3 -24 -27 -24h-37q-23 0 -20 24z" />
<glyph unicode="&#xfd;" horiz-adv-x="862" d="M162 985q-3 10 3.5 17.5t18.5 7.5h62q17 0 24 -25l162 -739q14 -69 17 -107q17 54 40 103l345 743q11 25 30 25h56q14 0 20 -6.5t0 -18.5l-643 -1386q-11 -25 -31 -25h-49q-12 0 -17 6.5t1 18.5l180 397zM508 1173.5q-3 6.5 4 16.5l178 240q13 20 33 20h68q13 0 15 -7 t-7 -18l-193 -243q-15 -15 -31 -15h-53q-11 0 -14 6.5z" />
<glyph unicode="&#xfe;" horiz-adv-x="1064" d="M123 -401l223 1808q3 25 27 25h57q26 0 23 -25l-64 -506q176 125 367 125q125 0 190.5 -57t65.5 -154q0 -21 -4 -53l-66 -526q-14 -119 -89 -185.5t-220 -66.5q-115 0 -202 37.5t-140 84.5l-62 -507q-3 -25 -24 -25h-60q-25 0 -22 25zM303 199q134 -121 311 -121 q103 0 158.5 47t65.5 123l61 502q4 32 4 41q0 65 -44.5 103t-137.5 38q-179 0 -342 -123z" />
<glyph unicode="&#xff;" horiz-adv-x="862" d="M162 985q-3 10 3.5 17.5t18.5 7.5h62q17 0 24 -25l162 -739q14 -69 17 -107q17 54 40 103l345 743q11 25 30 25h56q14 0 20 -6.5t0 -18.5l-643 -1386q-11 -25 -31 -25h-49q-12 0 -17 6.5t1 18.5l180 397zM416 1212l24 201q3 25 27 25h37q23 0 20 -25l-24 -201 q-3 -24 -27 -24h-37q-23 0 -20 24zM616 1212l25 201q3 25 27 25h37q23 0 20 -25l-25 -201q-3 -24 -26 -24h-37q-24 0 -21 24z" />
<glyph unicode="&#x152;" horiz-adv-x="1802" d="M203 229q0 15 4 47l102 844q7 64 32.5 113.5t75.5 90.5t136.5 63t204.5 22q223 0 321 -92l6 51q6 25 29 25h698q23 0 23 -23l-6 -45q-3 -25 -27 -25h-614l-64 -522h576q22 0 22 -22l-6 -43q0 -25 -26 -25h-578l-74 -596h639q23 0 23 -22l-6 -45q-3 -25 -27 -25h-725 q-23 0 -20 25l6 51q-120 -92 -330 -92q-208 0 -301.5 66t-93.5 179zM315 254q0 -178 293 -178q173 0 253 54.5t91 154.5l35 278l70 570v6q0 178 -297 178q-318 0 -342 -211l-101 -813q-2 -14 -2 -39z" />
<glyph unicode="&#x153;" horiz-adv-x="1638" d="M174 199q0 25 2 37l66 538q7 58 30.5 102t68 79t119 53t177.5 18q239 0 303 -115q90 115 330 115q334 0 334 -215q0 -25 -2 -37l-31 -252q-3 -22 -25 -22h-598l-33 -260q-2 -14 -2 -29q0 -69 56 -106t186 -37q141 0 203.5 44t75.5 124l8 49q3 22 26 22h52q23 0 20 -22 l-8 -52q-9 -58 -30.5 -100.5t-64 -77.5t-115 -53t-175.5 -18q-236 0 -307 104q-84 -104 -322 -104q-178 0 -261 57t-83 158zM281 215q0 -70 57 -106.5t188 -36.5q143 0 209 45t76 127l66 522v27q0 145 -244 145q-143 0 -209 -45t-76 -127l-65 -522q-2 -10 -2 -29zM956 575 h521l24 195q2 8 2 27q0 145 -241 145q-142 0 -206.5 -45t-74.5 -127z" />
<glyph unicode="&#x178;" horiz-adv-x="1042" d="M213 1368q-4 12 1.5 18.5t18.5 6.5h70q18 0 27 -25l252 -631q14 -38 20 -67q3 10 37 67l412 631q18 25 34 25h64q30 0 14 -25l-516 -790l-67 -553q-3 -25 -27 -25h-61q-26 0 -23 25l68 540zM551 1554l22 201q3 25 29 25h37q23 0 20 -25l-24 -201q-3 -24 -27 -24h-37 q-23 0 -20 24zM752 1554l22 201q3 25 29 25h37q23 0 20 -25l-24 -201q-3 -24 -27 -24h-37q-23 0 -20 24z" />
<glyph unicode="&#x2c6;" horiz-adv-x="706" d="M272 1174.5q-4 7.5 4 17.5l189 233q18 25 41 25h41q20 0 35 -23l131 -235q6 -10 1.5 -17.5t-16.5 -7.5h-45q-19 0 -32 25l-101 188l-147 -188q-21 -25 -35 -25h-49q-13 0 -17 7.5z" />
<glyph unicode="&#x2dc;" horiz-adv-x="872" d="M305 1214l8 41q15 89 52.5 128.5t99.5 39.5q55 0 106 -45l82 -73q41 -33 66 -33q37 0 52 22t24 88l2 19q3 22 28 22h33q26 0 19 -26l-7 -39q-24 -168 -151 -168q-56 0 -109 43l-84 74q-40 32 -63 32q-36 0 -51 -22t-23 -80l-4 -27q-2 -22 -29 -22h-32q-22 0 -19 26z" />
<glyph unicode="&#x2000;" horiz-adv-x="905" />
<glyph unicode="&#x2001;" horiz-adv-x="1810" />
<glyph unicode="&#x2002;" horiz-adv-x="905" />
<glyph unicode="&#x2003;" horiz-adv-x="1810" />
<glyph unicode="&#x2004;" horiz-adv-x="603" />
<glyph unicode="&#x2005;" horiz-adv-x="452" />
<glyph unicode="&#x2006;" horiz-adv-x="301" />
<glyph unicode="&#x2007;" horiz-adv-x="301" />
<glyph unicode="&#x2008;" horiz-adv-x="226" />
<glyph unicode="&#x2009;" horiz-adv-x="362" />
<glyph unicode="&#x200a;" horiz-adv-x="100" />
<glyph unicode="&#x2010;" horiz-adv-x="946" d="M240 571v43q0 23 24 23h551q25 0 25 -23v-43q0 -24 -25 -24h-551q-24 0 -24 24z" />
<glyph unicode="&#x2011;" horiz-adv-x="946" d="M240 571v43q0 23 24 23h551q25 0 25 -23v-43q0 -24 -25 -24h-551q-24 0 -24 24z" />
<glyph unicode="&#x2012;" horiz-adv-x="946" d="M240 571v43q0 23 24 23h551q25 0 25 -23v-43q0 -24 -25 -24h-551q-24 0 -24 24z" />
<glyph unicode="&#x2013;" horiz-adv-x="1126" d="M240 571v43q0 23 24 23h731q25 0 25 -23v-43q0 -24 -25 -24h-731q-24 0 -24 24z" />
<glyph unicode="&#x2014;" horiz-adv-x="1757" d="M240 571v43q0 23 24 23h1364q25 0 25 -23v-43q0 -24 -25 -24h-1364q-24 0 -24 24z" />
<glyph unicode="&#x2018;" horiz-adv-x="458" d="M295 1120l16 125q11 89 60 145t149 89q22 8 29 -15l10 -43q3 -12 -0.5 -18t-17.5 -12q-63 -28 -89 -62t-32 -88l-17 -121q-3 -24 -26 -24h-62q-23 0 -20 24z" />
<glyph unicode="&#x2019;" horiz-adv-x="458" d="M217 1153q-3 12 1 18.5t18 12.5q63 28 88.5 61.5t31.5 87.5l17 121q3 25 26 25h62q23 0 20 -25l-16 -125q-11 -89 -60 -144.5t-149 -88.5q-23 -8 -29 14z" />
<glyph unicode="&#x201a;" horiz-adv-x="458" d="M53 -119q-3 12 1 18.5t18 12.5q63 28 89 61.5t32 87.5l16 121q3 25 27 25h61q23 0 20 -25l-16 -125q-11 -89 -60 -144.5t-149 -88.5q-23 -8 -29 14z" />
<glyph unicode="&#x201c;" horiz-adv-x="747" d="M295 1120l16 125q11 89 60 145t149 89q22 8 29 -15l10 -43q3 -12 -0.5 -18t-17.5 -12q-63 -28 -89 -62t-32 -88l-17 -121q-3 -24 -26 -24h-62q-23 0 -20 24zM584 1120l16 125q11 89 60 145t149 89q22 8 29 -15l10 -43q3 -12 -1 -18t-18 -12q-63 -28 -88.5 -62t-31.5 -88 l-17 -121q-3 -24 -26 -24h-62q-23 0 -20 24z" />
<glyph unicode="&#x201d;" horiz-adv-x="747" d="M217 1153q-3 12 1 18.5t18 12.5q63 28 88.5 61.5t31.5 87.5l17 121q3 25 26 25h62q23 0 20 -25l-16 -125q-11 -89 -60 -144.5t-149 -88.5q-23 -8 -29 14zM506 1153q-5 21 18 31q63 28 89 61.5t32 87.5l17 121q3 25 26 25h62q23 0 20 -25l-16 -125q-11 -89 -60 -144.5 t-149 -88.5q-23 -8 -29 14z" />
<glyph unicode="&#x201e;" horiz-adv-x="747" d="M53 -119q-3 12 1 18.5t18 12.5q63 28 89 61.5t32 87.5l16 121q3 25 27 25h61q23 0 20 -25l-16 -125q-11 -89 -60 -144.5t-149 -88.5q-23 -8 -29 14zM342 -119q-5 21 18 31q63 28 89 61.5t32 87.5l17 121q3 25 26 25h62q23 0 20 -25l-16 -125q-11 -89 -60 -144.5 t-149 -88.5q-23 -8 -29 14z" />
<glyph unicode="&#x2022;" horiz-adv-x="501" d="M246 403l30 256q3 25 27 25h62q23 0 20 -25l-33 -256q-2 -12 -7.5 -17t-18.5 -5h-60q-23 0 -20 22z" />
<glyph unicode="&#x2026;" horiz-adv-x="1449" d="M166 25l18 157q3 25 27 25h63q22 0 19 -25l-19 -157q-3 -25 -26 -25h-60q-25 0 -22 25zM674 25l18 157q3 25 27 25h63q22 0 19 -25l-19 -157q-3 -25 -26 -25h-60q-25 0 -22 25zM1180 25l18 157q3 25 27 25h63q22 0 19 -25l-19 -157q-3 -25 -26 -25h-60q-25 0 -22 25z" />
<glyph unicode="&#x202f;" horiz-adv-x="362" />
<glyph unicode="&#x2039;" horiz-adv-x="827" d="M217 475l8 55q2 19 27 35l414 287q9 7 17 4t7 -16l-10 -66q-2 -19 -27 -37l-344 -235l285 -236q22 -18 20 -35l-8 -65q-1 -12 -9.5 -15t-14.5 3l-346 288q-21 17 -19 33z" />
<glyph unicode="&#x203a;" horiz-adv-x="827" d="M219 166l10 65q2 19 27 37l344 236l-285 235q-22 18 -20 35l8 66q1 11 10 15t15 -3l346 -289q20 -16 18 -33l-8 -55q-2 -19 -27 -35l-413 -286q-9 -7 -17.5 -4t-7.5 16z" />
<glyph unicode="&#x205f;" horiz-adv-x="452" />
<glyph unicode="&#x20ac;" horiz-adv-x="1140" d="M154 561l2 27q3 24 28 24h154l20 170h-155q-24 0 -21 25l2 27q3 22 29 22h154l32 264q7 64 32 113.5t74.5 90.5t136.5 63t208 22q389 0 389 -246q0 -15 -4 -47l-12 -102q-3 -27 -25 -27h-59q-26 0 -23 27l12 86q2 12 2 39q0 176 -288 176q-170 0 -246.5 -54.5 t-89.5 -156.5l-31 -248h299q13 0 18.5 -5t4.5 -17l-2 -27q-3 -25 -29 -25h-299l-21 -170h299q24 0 21 -24l-2 -27q-3 -22 -27 -22h-301l-28 -246q-2 -14 -2 -41q0 -84 65.5 -129t218.5 -45q170 0 248.5 55t89.5 156l14 117q3 22 27 22h57q13 0 19 -5.5t4 -16.5l-16 -134 q-6 -51 -22.5 -92t-50 -78.5t-82.5 -62.5t-124.5 -40t-173.5 -15q-387 0 -387 243q0 17 4 49l31 263h-152q-25 0 -22 22z" />
<glyph unicode="&#x2122;" horiz-adv-x="1816" d="M303 1333l4 41q3 19 25 19h553q21 0 18 -19l-4 -41q-3 -18 -22 -18h-232l-90 -737q-3 -21 -23 -21h-53q-21 0 -18 21l90 737h-227q-11 0 -16.5 4t-4.5 14zM905 578l99 794q3 21 22 21h47q13 0 17 -15l190 -540q10 -34 12 -54q4 11 29 52l317 544q6 13 23 13h53 q20 0 17 -21l-99 -794q-3 -21 -20 -21h-51q-22 0 -19 21l78 632q-12 -31 -27 -53l-260 -452q-14 -21 -30 -21h-39q-20 0 -27 21l-156 456q-1 3 -10 53l-78 -636q-3 -21 -20 -21h-49q-22 0 -19 21z" />
<glyph unicode="&#x25fc;" horiz-adv-x="1013" d="M0 0v1014h1014v-1014h-1014z" />
</font>
</defs>
</svg>
