<?xml version="1.0" standalone="no"?>
<!DOCTYPE svg PUBLIC "-//W3C//DTD SVG 1.1//EN" "http://www.w3.org/Graphics/SVG/1.1/DTD/svg11.dtd" >
<svg xmlns="http://www.w3.org/2000/svg">
<metadata></metadata>
<defs>
<font id="geogrotesque_bd_itbold_italic" horiz-adv-x="1122" >
<font-face units-per-em="2048" ascent="1536" descent="-512" />
<missing-glyph horiz-adv-x="368" />
<glyph unicode="&#xfb01;" horiz-adv-x="1263" d="M131 823l14 125q3 31 18 43t50 17l100 12h2l13 92q18 151 138 235.5t345 84.5h463q32 0 44.5 -14t8.5 -46l-16 -145q-5 -32 -21.5 -47t-48.5 -15h-442q-69 0 -105.5 -20.5t-42.5 -69.5l-8 -55h580q33 0 46 -13t9 -44l-111 -902q-5 -33 -19 -47t-46 -14h-211 q-32 0 -44 14.5t-7 46.5l86 703h-314l-137 -1110q-5 -34 -18.5 -48t-44.5 -14h-211q-63 0 -54 62l138 1110h-103q-32 0 -43 13t-8 46z" />
<glyph unicode="&#xfb02;" horiz-adv-x="1263" d="M131 823l14 125q4 31 18.5 43t49.5 17l100 12h2l13 92q18 151 138 235.5t345 84.5h463q32 0 44.5 -14t8.5 -46l-160 -1311q-5 -33 -19 -47t-46 -14h-211q-32 0 -44 14.5t-7 46.5l135 1104h-176q-69 0 -105.5 -20.5t-42.5 -69.5l-8 -55h145q33 0 46 -12.5t10 -44.5 l-17 -140q-4 -32 -20 -45.5t-49 -13.5h-146l-137 -1110q-5 -34 -18.5 -48t-44.5 -14h-211q-63 0 -54 62l138 1110h-103q-32 0 -43.5 13.5t-7.5 45.5z" />
<glyph unicode="&#xfb03;" horiz-adv-x="1904" d="M131 823l16 125q4 31 18.5 43t47.5 17l102 12h2l13 100q20 152 141 236t352 84h33q33 0 46 -14t9 -46l-18 -145q-4 -32 -21 -46.5t-49 -14.5h-22q-137 0 -148 -91l-8 -63h311l13 92q18 151 138 235.5t345 84.5h463q32 0 44.5 -14t8.5 -46l-16 -145q-5 -32 -21.5 -47 t-48.5 -15h-442q-69 0 -105.5 -20.5t-42.5 -69.5l-8 -55h580q33 0 46 -13t9 -44l-111 -902q-5 -33 -19 -47t-46 -14h-211q-32 0 -44 14.5t-7 46.5l86 703h-314l-137 -1110q-5 -34 -18.5 -48t-44.5 -14h-211q-63 0 -54 62l138 1110h-312l-137 -1110q-5 -34 -18.5 -48 t-44.5 -14h-211q-62 0 -53 62l137 1110h-103q-33 0 -45 13.5t-8 45.5z" />
<glyph unicode="&#xfb04;" horiz-adv-x="1904" d="M129 823l16 125q4 31 18.5 43t47.5 17l102 12h2l13 100q20 152 141 236t352 84h33q33 0 46 -14t9 -46l-18 -145q-4 -32 -21 -46.5t-49 -14.5h-22q-137 0 -148 -91l-8 -63h313l13 92q18 151 138 235.5t345 84.5h463q32 0 44.5 -14t8.5 -46l-160 -1311q-5 -33 -19 -47 t-46 -14h-211q-32 0 -44 14.5t-7 46.5l135 1104h-176q-69 0 -105.5 -20.5t-42.5 -69.5l-8 -55h146q33 0 45.5 -12.5t9.5 -44.5l-17 -140q-4 -32 -20 -45.5t-49 -13.5h-146l-137 -1110q-5 -34 -18.5 -48t-44.5 -14h-211q-63 0 -54 62l138 1110h-314l-137 -1110 q-5 -34 -18.5 -48t-44.5 -14h-211q-63 0 -54 62l138 1110h-103q-33 0 -45 13.5t-8 45.5z" />
<glyph horiz-adv-x="0" />
<glyph horiz-adv-x="682" />
<glyph unicode=" "  horiz-adv-x="368" />
<glyph unicode="&#x09;" horiz-adv-x="368" />
<glyph unicode="&#xa0;" horiz-adv-x="368" />
<glyph unicode="!" horiz-adv-x="589" d="M129 59l21 170q5 33 20 47.5t47 14.5h221q32 0 43 -14.5t6 -47.5l-20 -170q-5 -33 -18.5 -46t-45.5 -13h-221q-33 0 -45 13.5t-8 45.5zM213 451l10 348l64 532q5 33 20 47.5t47 14.5h224q32 0 43 -14.5t6 -47.5l-64 -532l-76 -348q-8 -34 -21 -48t-44 -14h-158 q-31 0 -42 14t-9 48z" />
<glyph unicode="&#x22;" horiz-adv-x="931" d="M254 1004l12 327q3 62 68 62h203q32 0 43.5 -15t5.5 -47l-66 -327q-6 -34 -20 -48t-45 -14h-150q-31 0 -42 14t-9 48zM657 1004l13 327q3 62 67 62h203q32 0 43.5 -15t5.5 -47l-65 -327q-6 -33 -20.5 -47.5t-45.5 -14.5h-149q-31 0 -42.5 14.5t-9.5 47.5z" />
<glyph unicode="#" horiz-adv-x="1413" d="M170 393l12 109q4 32 19.5 44.5t48.5 12.5h129l51 121h-61q-33 0 -46 13.5t-10 45.5l15 109q3 32 18.5 44.5t48.5 12.5h127l60 144q23 61 82 61h153q59 0 35 -61l-59 -144h223l59 144q23 61 82 61h154q59 0 35 -61l-60 -144h60q33 0 45.5 -12.5t9.5 -44.5l-15 -109 q-3 -32 -18.5 -45.5t-48.5 -13.5h-125l-51 -121h57q33 0 46 -13t9 -44l-12 -109q-4 -32 -20 -45.5t-49 -13.5h-123l-60 -146q-12 -32 -30.5 -46.5t-49.5 -14.5h-153q-29 0 -39 15t2 46l59 146h-223l-59 -146q-12 -32 -30.5 -46.5t-49.5 -14.5h-154q-29 0 -39 15t2 46l60 146 h-64q-33 0 -45 13.5t-8 45.5zM649 559h223l52 121h-224z" />
<glyph unicode="$" horiz-adv-x="1105" d="M174 412q0 18 2 34l4 43q3 29 18 42.5t46 13.5h188q29 0 39 -12.5t8 -43.5l-2 -28v-6q0 -60 121 -60q132 0 139 66l2 18v6q0 29 -71 58l-277 110q-59 24 -96 77t-37 118q0 23 2 41l6 57q10 96 77.5 168t209.5 98l14 119q5 33 20.5 47.5t47.5 14.5h211q32 0 43 -14.5 t6 -47.5l-16 -131q102 -32 154 -96t52 -139q0 -11 -2 -31l-4 -29q-5 -31 -19 -44t-44 -13h-187q-58 0 -49 57l2 15q2 12 2 26q0 53 -104 53q-52 0 -82 -11.5t-37 -47.5l-2 -10q-8 -48 37 -62l274 -102q87 -32 134 -83.5t47 -113.5q0 -8 -2 -24l-15 -113q-11 -89 -78.5 -156 t-201.5 -94l-15 -121q-3 -33 -17 -47t-46 -14h-211q-32 0 -44 14t-9 47l14 121q-125 25 -188.5 88t-63.5 142z" />
<glyph unicode="%" horiz-adv-x="1867" d="M238 940q0 21 2 33l24 192q14 119 98 181.5t261 62.5q156 0 238.5 -55t82.5 -150q0 -29 -2 -39l-24 -192q-14 -118 -99.5 -181t-259.5 -63q-160 0 -240.5 55.5t-80.5 155.5zM446 21q-5 21 9 40l825 1270q38 62 96 62h193q27 0 32.5 -18.5t-12.5 -43.5l-827 -1270 q-21 -33 -41.5 -47t-52.5 -14h-191q-26 0 -31 21zM508 977q0 -39 70 -39t75 47l21 170v6q0 39 -72 39q-69 0 -74 -45l-20 -170v-8zM1090 190q0 21 2 33l24 193q14 119 98 181t261 62q156 0 238.5 -54.5t82.5 -149.5q0 -29 -2 -39l-25 -193q-14 -118 -99 -180.5t-259 -62.5 q-160 0 -240.5 55t-80.5 155zM1360 227q0 -39 70 -39t75 48l21 170v6q0 39 -72 39q-69 0 -74 -45l-20 -170v-9z" />
<glyph unicode="&#x26;" horiz-adv-x="1449" d="M137 287q0 13 4 53l19 145q11 85 55.5 140.5t136.5 93.5q-121 46 -121 170q0 25 2 35l19 143q6 57 23 103.5t53.5 92.5t91.5 77t142.5 50t201.5 19q124 0 215 -24.5t142.5 -68.5t75.5 -96.5t24 -115.5q0 -22 -2 -45l-9 -74q-5 -33 -19 -47t-46 -14h-211q-33 0 -43.5 14.5 t-7.5 46.5l2 25q2 20 2 30q0 51 -38.5 77t-107.5 26q-76 0 -117.5 -32t-48.5 -101l-4 -35q-2 -16 -2 -27q0 -53 41.5 -79.5t114.5 -26.5h702q34 0 46.5 -14.5t9.5 -43.5l-19 -149q-4 -32 -20.5 -46t-48.5 -14h-105l-28 -241q-7 -57 -26.5 -104.5t-62.5 -94.5t-107 -79 t-166 -52t-234 -20q-118 0 -209.5 16t-151 43.5t-98 67t-54.5 82.5t-16 94zM477 354q0 -31 20 -52.5t54 -32t69.5 -15t75.5 -4.5q115 0 175 32t69 101l23 192h-291q-173 0 -187 -131l-6 -59q-2 -18 -2 -31z" />
<glyph unicode="'" horiz-adv-x="528" d="M254 1004l12 327q3 62 68 62h203q32 0 43.5 -15t5.5 -47l-66 -327q-6 -34 -20 -48t-45 -14h-150q-31 0 -42 14t-9 48z" />
<glyph unicode="(" horiz-adv-x="733" d="M82 -145q0 15 4 43l152 1232q22 175 126.5 247.5t335.5 72.5h64q62 0 55 -59l-18 -146q-4 -32 -21 -46.5t-49 -14.5h-22q-65 0 -98.5 -20.5t-39.5 -69.5l-145 -1184q0 -3 -1 -8t-1 -8q0 -40 29 -57t90 -17h22q61 0 53 -62l-18 -145q-4 -32 -20 -45.5t-48 -13.5h-18 q-200 0 -316 81.5t-116 219.5z" />
<glyph unicode=")" horiz-adv-x="733" d="M33 -387l18 145q5 32 21.5 47t48.5 15h22q65 0 98.5 20.5t39.5 69.5l145 1184q0 3 1 8t1 8q0 40 -29 57t-90 17h-22q-61 0 -54 61l19 146q5 32 20 45.5t47 13.5h19q200 0 316 -81.5t116 -219.5q0 -15 -4 -43l-152 -1233q-22 -175 -126 -247t-336 -72h-64q-62 0 -55 59z " />
<glyph unicode="*" horiz-adv-x="1136" d="M228.5 859q8.5 19 41.5 32l215 86l-192 88q-30 13 -34 32t15 48l60 94q37 57 86 23l196 -140l13 267q1 33 17.5 47t49.5 14h113q32 0 43.5 -14.5t5.5 -46.5l-53 -256l215 131q54 35 78 -21l45 -98q13 -27 5.5 -47t-40.5 -33l-221 -90l196 -86q29 -13 32.5 -33t-15.5 -47 l-60 -96q-35 -57 -86 -21l-186 129l-8 -231q-1 -33 -17 -47.5t-49 -14.5h-112q-64 0 -52 62l52 239l-232 -139q-57 -35 -78 23l-39 98q-13 29 -4.5 48z" />
<glyph unicode="+" horiz-adv-x="1128" d="M176 618v150q0 32 14.5 44.5t47.5 12.5h266v269q0 33 12.5 47t44.5 14h150q32 0 45.5 -14t13.5 -47v-269h268q33 0 47.5 -12.5t14.5 -44.5v-150q0 -32 -14.5 -45.5t-47.5 -13.5h-268v-266q0 -33 -13.5 -47.5t-45.5 -14.5h-150q-32 0 -44.5 14.5t-12.5 47.5v266h-266 q-33 0 -47.5 13.5t-14.5 45.5z" />
<glyph unicode="," horiz-adv-x="600" d="M23 -80q-11 59 51 76q52 14 72.5 34.5t25.5 55.5l18 143q5 33 20.5 47.5t47.5 14.5h217q32 0 43 -14.5t6 -47.5l-20 -161q-17 -136 -110.5 -214t-266.5 -114q-34 -6 -49.5 2t-22.5 39z" />
<glyph unicode="-" horiz-adv-x="874" d="M162 516v150q0 32 14 44.5t47 12.5h547q33 0 47 -12.5t14 -44.5v-150q0 -32 -14 -45.5t-47 -13.5h-547q-33 0 -47 13.5t-14 45.5z" />
<glyph unicode="." horiz-adv-x="538" d="M109 59l20 170q6 62 68 62h217q32 0 43 -14.5t6 -47.5l-21 -170q-5 -33 -19 -46t-46 -13h-217q-32 0 -43.5 13.5t-7.5 45.5z" />
<glyph unicode="/" horiz-adv-x="747" d="M-25 -242l588 1612q11 32 28 47t48 15h238q63 0 41 -62l-590 -1612q-11 -33 -28.5 -47t-49.5 -14h-236q-60 0 -39 61z" />
<glyph unicode="0" horiz-adv-x="1169" d="M119 297q0 21 4 53l86 709q8 70 39 129.5t90.5 111t162 80.5t238.5 29q236 0 357 -90.5t121 -222.5q0 -4 -5 -54l-86 -708q-6 -55 -26 -104t-61 -95t-99.5 -78.5t-147 -52.5t-198.5 -20q-121 0 -214.5 25.5t-149 70t-83.5 99.5t-28 118zM463 373q0 -57 42 -85t113 -28 q160 0 177 133l73 590q4 36 4 39q0 56 -41 83.5t-110 27.5q-76 0 -123.5 -33t-56.5 -101l-72 -575q-6 -48 -6 -51z" />
<glyph unicode="1" horiz-adv-x="1169" d="M131 59l21 160q4 32 19 44.5t48 12.5h254l100 809l-260 -36q-30 -5 -44 7.5t-11 43.5l21 160q5 56 69 65l545 84q25 4 39.5 -7.5t9.5 -49.5l-131 -1076h244q33 0 46 -13t9 -44l-20 -160q-4 -32 -20.5 -45.5t-49.5 -13.5h-836q-33 0 -45 13.5t-8 45.5z" />
<glyph unicode="2" horiz-adv-x="1169" d="M121 59l45 375q9 79 42 116.5t107 65.5l457 175q34 13 51.5 35.5t24.5 70.5l14 94q4 32 4 41q0 53 -42 80t-111 27q-161 0 -178 -133l-11 -74q-5 -34 -18.5 -48t-44.5 -14h-211q-60 0 -53 62l16 127q7 56 26.5 104.5t59 94.5t96 78.5t143 52.5t195.5 20q120 0 213 -25.5 t148.5 -70t83.5 -99.5t28 -118q0 -14 -4 -54l-18 -139q-20 -151 -82 -228t-158 -112l-362 -133q-54 -20 -69.5 -38.5t-20.5 -63.5l-7 -52h572q35 0 46.5 -14.5t8.5 -42.5l-20 -160q-4 -32 -20.5 -45.5t-49.5 -13.5h-848q-34 0 -45 14t-8 45z" />
<glyph unicode="3" horiz-adv-x="1169" d="M119 293q0 21 2 41l8 74q5 33 19.5 47t46.5 14h211q35 0 44 -15t7 -46l-2 -25q-2 -16 -2 -31q0 -51 43.5 -76.5t115.5 -25.5q164 0 181 133l6 61q2 23 2 29q0 51 -42 76.5t-114 25.5h-145q-60 0 -54 60l19 149q3 32 18.5 45t48.5 13h125q79 0 128.5 32.5t58.5 100.5l4 35 q2 20 2 28q0 105 -143 105q-157 0 -168 -133l-2 -25q-3 -32 -19.5 -46.5t-48.5 -14.5h-211q-56 0 -49 61l8 74q6 57 23.5 104.5t55 94.5t93.5 79t144.5 52t203.5 20q123 0 213.5 -24.5t141.5 -68.5t74.5 -96.5t23.5 -115.5q0 -17 -4 -57l-17 -129q-9 -75 -49 -122.5 t-119 -76.5q138 -65 138 -203q0 -21 -4 -53l-19 -144q-7 -56 -25.5 -102.5t-57.5 -91t-95.5 -74.5t-145 -48.5t-202.5 -18.5q-125 0 -218.5 25t-147.5 69t-79.5 98t-25.5 117z" />
<glyph unicode="4" horiz-adv-x="1169" d="M102 410l19 145q4 27 18 66l291 710q25 62 82 62h221q60 0 35 -62l-283 -704h310l86 704q5 33 20 47.5t47 14.5h221q32 0 43.5 -14.5t6.5 -47.5l-156 -1270q-5 -33 -19 -47t-45 -14h-221q-32 0 -44.5 14.5t-8.5 46.5l37 289h-604q-33 0 -46.5 14t-9.5 46z" />
<glyph unicode="5" horiz-adv-x="1169" d="M115 293q0 19 2 39l8 74q3 32 18 46.5t47 14.5h211q31 0 43 -13t9 -48l-2 -21q-2 -18 -2 -29q0 -52 44 -80t117 -28q166 0 183 133l12 102q4 35 4 56q0 110 -154 110h-379q-31 0 -41.5 15t-7.5 47l76 620q5 33 19 47.5t45 14.5h780q31 0 45 -12.5t10 -45.5l-20 -159 q-5 -32 -20.5 -46t-47.5 -14h-500l-24 -201h100q122 0 214.5 -25t145.5 -69.5t79 -98.5t26 -118q0 -18 -4 -55l-27 -217q-7 -56 -26.5 -104t-59.5 -94.5t-98 -79t-148 -52.5t-204 -20q-126 0 -220 25.5t-148 70t-79.5 98.5t-25.5 117z" />
<glyph unicode="6" horiz-adv-x="1169" d="M133 295q0 21 2 39l88 725q6 56 24 104t56.5 94.5t94 79t142.5 52.5t197 20q119 0 208.5 -25t141 -68.5t76.5 -96t25 -113.5q0 -29 -2 -47l-8 -62q-5 -33 -19.5 -47t-46.5 -14h-211q-60 0 -51 61l2 13q2 10 2 30q0 103 -139 103q-147 0 -164 -133l-25 -195q102 45 207 45 q193 0 297.5 -90.5t104.5 -218.5q0 -13 -5 -59l-18 -158q-6 -56 -24.5 -104.5t-57.5 -94.5t-95.5 -78.5t-143.5 -52.5t-197 -20q-120 0 -211.5 25.5t-144.5 69.5t-79 98.5t-26 117.5zM473 358q0 -108 143 -108q154 0 168 133l9 78q2 20 2 26q0 54 -39 80.5t-107 26.5 q-150 0 -164 -121l-8 -74q-4 -32 -4 -41z" />
<glyph unicode="7" horiz-adv-x="1169" d="M219 1176l21 159q4 32 19.5 45t47.5 13h914q33 0 46 -13t9 -45l-21 -155q-3 -26 -22 -60l-610 -1059q-17 -29 -35 -45t-47 -16h-256q-70 0 -35 61l612 1055h-588q-33 0 -46 14t-9 46z" />
<glyph unicode="8" horiz-adv-x="1169" d="M135 297q0 17 2 37l21 170q9 76 55.5 125.5t130.5 85.5q-55 30 -84 78t-29 104q0 1 5 41l14 121q5 48 17 87.5t34 81t58.5 73t87 56.5t124.5 38.5t166 13.5q119 0 206.5 -25t137 -69t72.5 -97t23 -116q0 -29 -2 -43l-17 -135q-9 -75 -50 -124.5t-116 -84.5 q67 -31 104.5 -81.5t37.5 -109.5q0 -2 -5 -37l-18 -153q-6 -56 -24 -104t-56.5 -94.5t-94 -79t-142.5 -52.5t-197 -20q-121 0 -212.5 25.5t-144 70t-78.5 99t-26 118.5zM473 354q0 -104 143 -104q154 0 168 133l7 53q4 28 4 39q0 105 -144 105q-152 0 -168 -129l-8 -68 q-2 -16 -2 -29zM565 948q0 -55 29 -79.5t90 -24.5q69 0 106 32t46 101l4 33q2 18 2 28q0 105 -125 105q-68 0 -102.5 -31.5t-43.5 -101.5l-4 -33q-2 -18 -2 -29z" />
<glyph unicode="9" horiz-adv-x="1169" d="M147 287q0 23 3 47l8 61q5 33 19.5 47.5t45.5 14.5h211q60 0 51 -62l-2 -12q-2 -12 -2 -31q0 -102 140 -102q73 0 113.5 32t49.5 101l25 195q-104 -46 -207 -46q-98 0 -176.5 26t-126.5 70t-73 98.5t-25 115.5q0 19 4 59l18 158q6 56 24 104t56.5 94.5t94 79t142.5 52.5 t197 20q120 0 212 -25.5t146 -69.5t80.5 -98.5t26.5 -117.5q0 -21 -2 -39l-88 -725q-40 -350 -510 -350q-119 0 -209 25t-142.5 68.5t-78 96t-25.5 113.5zM541 905q0 -106 145 -106q150 0 164 121l8 73q4 40 4 41q0 109 -143 109q-154 0 -168 -133l-8 -78q-2 -16 -2 -27z " />
<glyph unicode=":" horiz-adv-x="538" d="M109 59l20 170q5 33 20.5 47.5t47.5 14.5h217q32 0 43 -14.5t6 -47.5l-21 -170q-5 -33 -19 -46t-46 -13h-217q-32 0 -43.5 13.5t-7.5 45.5zM199 793l20 170q5 32 20.5 46.5t47.5 14.5h217q32 0 43 -14t6 -47l-21 -170q-5 -33 -19 -46.5t-46 -13.5h-217q-32 0 -44 14 t-7 46z" />
<glyph unicode=";" horiz-adv-x="612" d="M35 -80q-11 59 51 76q52 14 72.5 34.5t25.5 55.5l19 143q5 33 20 47.5t47 14.5h217q32 0 43.5 -14.5t6.5 -47.5l-21 -161q-17 -136 -110.5 -214t-266.5 -114q-33 -6 -48.5 2t-22.5 39zM272 793l21 170q3 32 19 46.5t48 14.5h218q31 0 41.5 -14t7.5 -47l-21 -170 q-5 -33 -19 -46.5t-46 -13.5h-217q-32 0 -44 14t-8 46z" />
<glyph unicode="&#x3c;" horiz-adv-x="1054" d="M170 575v236q0 29 13 42t42 24l733 309q29 11 45.5 -7t16.5 -53v-200q0 -30 -15 -44t-47 -24l-471 -166l471 -164q32 -10 47 -23.5t15 -43.5v-201q0 -34 -16.5 -52t-45.5 -7l-733 309q-15 6 -22.5 9.5t-16.5 11t-12.5 18t-3.5 26.5z" />
<glyph unicode="=" horiz-adv-x="1181" d="M143 354v150q0 32 14.5 44.5t47.5 12.5h854q33 0 47 -12.5t14 -44.5v-150q0 -32 -14 -45.5t-47 -13.5h-854q-33 0 -47.5 13.5t-14.5 45.5zM143 797v149q0 32 14.5 45t47.5 13h854q33 0 47 -13t14 -45v-149q0 -32 -14.5 -46t-46.5 -14h-854q-33 0 -47.5 14t-14.5 46z" />
<glyph unicode="&#x3e;" horiz-adv-x="1054" d="M131 260v201q0 30 15 43.5t47 23.5l471 164l-471 166q-32 10 -47 24t-15 44v200q0 35 16.5 53t45.5 7l733 -309q19 -7 29 -13t18 -19.5t8 -33.5v-236q0 -16 -3.5 -26.5t-12.5 -18t-16.5 -11t-22.5 -9.5l-733 -309q-29 -11 -45.5 7t-16.5 52z" />
<glyph unicode="?" horiz-adv-x="1155" d="M195 932l16 127q7 56 26.5 104.5t59 94.5t96.5 78.5t144.5 52.5t197.5 20q120 0 213 -27.5t147.5 -74t81.5 -101.5t27 -116q0 -23 -2 -46l-8 -69q-9 -75 -33.5 -133t-61.5 -95t-70.5 -58.5t-76.5 -39.5l-127 -53q-52 -22 -68 -40t-22 -62l-6 -45q-5 -33 -18 -46.5 t-45 -13.5h-222q-59 0 -53 60l17 133q10 75 44.5 111.5t102.5 68.5l223 106q69 31 80 109l4 29q2 20 2 34q0 48 -41.5 73.5t-109.5 25.5q-76 0 -124 -32.5t-57 -100.5l-10 -74q-5 -34 -18.5 -48t-44.5 -14h-211q-61 0 -53 62zM344 59l21 170q5 33 20 47.5t47 14.5h221 q33 0 42.5 -15t6.5 -47l-20 -170q-5 -32 -19.5 -45.5t-46.5 -13.5h-221q-30 0 -42.5 12t-8.5 47z" />
<glyph unicode="@" horiz-adv-x="2052" d="M137 102q0 36 4 72l82 680q7 58 20.5 105t43 101.5t73.5 95.5t117 81t168 66t231.5 41.5t303.5 15.5q205 0 359 -24.5t246.5 -64t150 -97.5t78 -117t20.5 -131q0 -26 -4 -72l-54 -432q-10 -80 -38 -141.5t-81.5 -111t-141.5 -75.5t-208 -26q-252 0 -329 125 q-30 -23 -53.5 -38.5t-66.5 -38.5t-95.5 -35.5t-110.5 -12.5q-117 0 -179.5 58t-62.5 163q0 44 11 94l49 240q33 157 110 236t213 79q69 0 143.5 -28.5t125.5 -65.5l6 16q13 34 27 48t44 14h187q31 0 42 -17t5 -45l-86 -373q-17 -83 -17 -106q0 -80 78 -80q42 0 67.5 25 t34.5 57t15 84l45 373q2 14 2 41q0 74 -44.5 119.5t-169 72.5t-341.5 27q-180 0 -299.5 -17t-186 -52.5t-95.5 -80.5t-37 -112l-78 -648q-2 -14 -2 -43q0 -74 44.5 -119.5t169 -72.5t341.5 -27h350q34 0 45 -15t8 -46l-16 -139q-6 -60 -70 -60h-340q-205 0 -359 24.5 t-246.5 64t-150 97.5t-78 117t-20.5 131zM946 418q0 -56 74 -56q59 0 131 31v2l45 207q-59 51 -121 51q-83 0 -102 -96l-21 -98q-6 -24 -6 -41z" />
<glyph unicode="A" horiz-adv-x="1159" d="M29 61l524 1270q14 33 33 47.5t51 14.5h221q59 0 68 -62l215 -1270q1 -8 1 -15q0 -46 -52 -46h-224q-31 0 -45.5 15t-19.5 46l-29 197h-340l-78 -197q-22 -61 -78 -61h-210q-44 0 -44 31q0 12 7 30zM539 524h192l-14 111q-14 108 -14 285q0 65 2 140v3q0 -2 -9 -38 t-22 -86t-28 -106t-32 -110.5t-30 -87.5z" />
<glyph unicode="B" horiz-adv-x="1226" d="M129 61l156 1270q5 33 20 47.5t47 14.5h375q245 0 368.5 -82.5t123.5 -212.5q0 -6 -5 -51l-12 -97q-10 -79 -49.5 -129t-116.5 -90q82 -33 132.5 -98t50.5 -135q0 -1 -5 -41l-16 -133q-42 -324 -553 -324h-463q-54 0 -54 49q0 6 1 12zM494 266h174q187 0 202 119l7 51 q2 14 2 31q0 54 -43 84.5t-125 30.5h-181zM561 831h107q81 0 138 29.5t64 95.5l4 39q1 10 1.5 18.5t1 11.5t0.5 5q0 96 -166 96h-113z" />
<glyph unicode="C" horiz-adv-x="1181" d="M139 295q0 9 4 55l86 709q6 56 25 104t59 94.5t98.5 79t149 52.5t205.5 20q125 0 219 -25t148 -69t80 -98t26 -117q0 -10 -4 -56l-10 -79q-5 -33 -19 -47.5t-45 -14.5h-211q-54 0 -54 46q0 7 1 16l4 22q4 24 4 39q0 54 -42 80.5t-115 26.5q-79 0 -128.5 -33t-58.5 -101 l-74 -587q-4 -32 -4 -39q0 -57 43.5 -85t116.5 -28q167 0 184 133l9 66q5 33 20 47t47 14h211q33 0 42.5 -15.5t6.5 -45.5l-14 -125q-6 -56 -25 -104t-59 -94.5t-98.5 -79t-149 -52.5t-205.5 -20q-126 0 -220 25.5t-148 70t-79.5 98.5t-25.5 117z" />
<glyph unicode="D" horiz-adv-x="1271" d="M129 61l156 1270q5 33 20 47.5t47 14.5h447q129 0 227.5 -26.5t156.5 -71.5t86.5 -100.5t28.5 -119.5q0 -23 -6 -65l-80 -660q-6 -56 -26 -104.5t-61 -94.5t-101 -78.5t-152 -52.5t-208 -20h-490q-46 0 -46 45q0 7 1 16zM494 276h188q80 0 135 33.5t64 100.5l67 544 q4 20 4 50q0 112 -170 112h-184z" />
<glyph unicode="E" horiz-adv-x="1036" d="M129 61l156 1270q5 33 20 47.5t47 14.5h701q33 0 46 -13q10 -10 10 -31q0 -6 -1 -14l-21 -159q-5 -32 -20 -46t-47 -14h-422l-33 -266h389q33 0 45.5 -12.5t8.5 -44.5l-19 -150q-5 -32 -20 -45.5t-47 -13.5h-390l-38 -308h442q33 0 46 -13t9 -44l-20 -160 q-4 -32 -20 -45.5t-48 -13.5h-721q-32 0 -44 14q-9 11 -10 33q0 6 1 14z" />
<glyph unicode="F" horiz-adv-x="1052" d="M129 61l156 1270q5 33 20 47.5t47 14.5h748q33 0 46 -13q10 -10 10 -31q0 -6 -1 -14l-20 -159q-5 -32 -20.5 -46t-47.5 -14h-469l-33 -266h436q33 0 45.5 -12.5t8.5 -44.5l-21 -160q-4 -32 -20.5 -46t-48.5 -14h-435l-63 -512q-5 -33 -19 -47t-45 -14h-221q-32 0 -44 14 q-9 11 -10 33q0 6 1 14z" />
<glyph unicode="G" horiz-adv-x="1202" d="M139 295q0 19 4 55l86 709q6 56 25 104t59 94.5t98.5 79t149 52.5t205.5 20q126 0 220 -25.5t148 -70t79.5 -99t25.5 -118.5q0 -10 -4 -56l-6 -55q-3 -32 -18.5 -46.5t-47.5 -14.5h-211q-52 0 -52 45q0 7 1 16l2 14q2 14 2 33q0 50 -40.5 75.5t-112.5 25.5 q-78 0 -130 -33.5t-61 -100.5l-74 -589q-4 -28 -4 -41q0 -109 156 -109q174 0 188 133l11 88h-168q-55 0 -55 46q0 7 1 14l21 159q3 32 19 45t49 13h434q35 0 46.5 -14.5t8.5 -43.5l-45 -366q-46 -350 -537 -350q-126 0 -220 25.5t-148 70t-79.5 98.5t-25.5 117z" />
<glyph unicode="H" horiz-adv-x="1292" d="M129 61l156 1270q5 33 20 47.5t47 14.5h221q32 0 43.5 -14.5t6.5 -47.5l-60 -487h371l59 487q5 33 20.5 47.5t47.5 14.5h221q32 -1 43 -15q8 -10 8 -28q0 -9 -2 -19l-155 -1270q-5 -33 -18.5 -47t-45.5 -14h-221q-54 0 -54 47q0 7 1 14l63 506h-371l-63 -506 q-5 -32 -19 -46.5t-45 -14.5h-221q-32 0 -44 14q-9 11 -10 33q0 6 1 14z" />
<glyph unicode="I" horiz-adv-x="583" d="M129 61l156 1270q5 33 20 47.5t47 14.5h221q31 -1 43 -15q8 -10 8 -29q0 -8 -1 -18l-156 -1270q-5 -33 -19 -47t-45 -14h-221q-32 0 -44 14q-9 11 -10 33q0 6 1 14z" />
<glyph unicode="J" horiz-adv-x="1071" d="M57 295q0 27 4 55l15 119q5 33 20 47t47 14h215q32 0 42.5 -15t7.5 -46l-9 -66q-4 -36 -4 -41q0 -102 131 -102q66 0 98.5 31t41.5 102l116 938q5 33 19.5 47.5t46.5 14.5h221q32 0 43 -15q9 -13 9 -34q0 -6 -1 -13l-123 -997q-8 -58 -24 -104.5t-51.5 -94t-87.5 -79.5 t-135 -52t-191 -20q-118 0 -207.5 25.5t-141 69.5t-77 98.5t-25.5 117.5z" />
<glyph unicode="K" horiz-adv-x="1228" d="M129 61l156 1270q5 33 20 47.5t47 14.5h221q32 0 43.5 -14.5t6.5 -47.5l-64 -522h14l377 522q44 62 105 62h241q31 0 36 -18q1 -4 1 -8q0 -16 -16 -36l-465 -622l360 -648q13 -23 4 -42t-40 -19h-281q-49 0 -80 61l-262 502h-25l-61 -502q-3 -33 -17.5 -47t-46.5 -14 h-221q-32 0 -44 14q-9 11 -10 33q0 6 1 14z" />
<glyph unicode="L" horiz-adv-x="964" d="M129 61l156 1270q5 33 20 47.5t47 14.5h221q32 0 43.5 -14.5t6.5 -47.5l-129 -1055h401q33 0 46 -13q10 -10 10 -30q0 -6 -1 -14l-20 -160q-4 -32 -20 -45.5t-48 -13.5h-688q-46 0 -46 49q0 6 1 12z" />
<glyph unicode="M" horiz-adv-x="1548" d="M129 61l156 1270q5 33 20 47.5t47 14.5h199q39 0 49 -33l201 -627q9 -29 18.5 -68t16 -66t6.5 -28l4 11q5 10 12 26t16 35t21 42.5t23 43.5l346 635q17 29 59 29h215q32 -1 43 -15q8 -10 8 -28q0 -9 -2 -19l-155 -1270q-5 -33 -18.5 -47t-45.5 -14h-211q-32 0 -44.5 14.5 t-8.5 46.5l80 652q-58 -156 -92 -217l-117 -224q-30 -61 -88 -61h-168q-35 0 -52.5 15.5t-27.5 45.5l-80 260q-17 57 -33 175l-80 -646q-5 -33 -18.5 -47t-44.5 -14h-201q-32 0 -44 14q-9 11 -10 33q0 6 1 14z" />
<glyph unicode="N" horiz-adv-x="1292" d="M129 61l156 1270q5 33 20 47.5t47 14.5h193q39 0 51 -25l274 -580q35 -76 54 -153l84 696q5 33 20 47.5t47 14.5h201q32 -1 43 -15q8 -10 8 -28q0 -9 -2 -19l-156 -1270q-5 -33 -18.5 -47t-44.5 -14h-193q-42 0 -55 29l-260 544q-16 35 -32.5 81t-25.5 75l-8 29l-86 -697 q-5 -33 -18.5 -47t-44.5 -14h-201q-32 0 -44 14q-9 11 -10 33q0 6 1 14z" />
<glyph unicode="O" horiz-adv-x="1251" d="M139 297q0 13 4 53l86 709q6 55 27 104t63.5 95t103.5 79t153.5 52.5t207.5 19.5q126 0 223.5 -26t155 -70.5t86.5 -99t29 -117.5q0 -18 -4 -54l-86 -708q-6 -55 -27 -104t-64 -95t-104.5 -79t-154 -52.5t-207.5 -19.5q-126 0 -223 25.5t-154.5 70t-86 99.5t-28.5 118z M483 373q0 -57 47.5 -85t128.5 -28q80 0 134 33t63 100l74 588q4 36 4 39q0 58 -46.5 85.5t-127.5 27.5q-75 0 -133 -34t-66 -100l-74 -587q-4 -32 -4 -39z" />
<glyph unicode="P" horiz-adv-x="1200" d="M129 61l156 1270q5 33 20 47.5t47 14.5h430q127 0 223.5 -26.5t152.5 -73.5t84 -104.5t28 -125.5q0 -27 -4 -64l-21 -188q-7 -62 -28 -112t-62.5 -93t-103 -71.5t-152 -45t-207.5 -16.5h-174l-51 -412q-5 -33 -19 -47t-45 -14h-221q-32 0 -44 15q-10 12 -10 34q0 6 1 12z M553 750h164q188 0 203 120l10 84q2 18 2 37q0 63 -37.5 94t-126.5 31h-170z" />
<glyph unicode="Q" horiz-adv-x="1251" d="M139 297q0 13 4 53l86 709q6 55 27 104t63.5 95t103.5 79t153.5 52.5t207.5 19.5q126 0 223.5 -26t155 -70.5t86.5 -99t29 -117.5q0 -18 -4 -54l-86 -708q-13 -110 -89 -197t-225 -127l170 -168q21 -21 21 -42t-23 -42l-124 -118q-26 -24 -49 -24q-20 0 -38 19l-344 359 q-175 25 -261.5 108t-86.5 195zM483 373q0 -57 47.5 -85t128.5 -28q80 0 134 33t63 100l74 588q4 36 4 39q0 58 -46.5 85.5t-127.5 27.5q-75 0 -133 -34t-66 -100l-74 -587q-4 -32 -4 -39z" />
<glyph unicode="R" horiz-adv-x="1236" d="M129 61l156 1270q5 33 20 47.5t47 14.5h424q127 0 224.5 -26.5t155.5 -73t87 -104.5t29 -126q0 -17 -4 -49l-19 -160q-29 -217 -248 -295l138 -498q7 -28 -12 -44.5t-52 -16.5h-219q-17 0 -28.5 9.5t-15.5 20t-9 31.5l-125 453h-156l-55 -453q-3 -33 -17.5 -47t-46.5 -14 h-221q-29 0 -43 14q-11 10 -11 33q0 6 1 14zM557 791h164q185 0 203 124l6 43q2 16 2 35q0 123 -164 123h-170z" />
<glyph unicode="S" horiz-adv-x="1177" d="M119 299q0 22 4 51l14 121q3 32 19.5 46.5t48.5 14.5h213q50 0 50 -46q0 -7 -1 -15l-10 -76q-2 -14 -2 -37q0 -108 170 -108q173 0 192 129l4 27q2 14 2 24q0 16 -6.5 30t-21.5 27t-26.5 21.5t-36 19.5t-34 15t-34.5 14l-281 111q-66 25 -113 89.5t-47 147.5q0 11 4 51 l13 103q40 350 516 350q124 0 217 -25.5t145.5 -70t77.5 -98t25 -115.5q0 -16 -2 -41l-9 -76q-3 -32 -19 -46.5t-48 -14.5h-213q-30 0 -41 13t-8 48l2 31v12q0 117 -148 117q-158 0 -174 -129l-2 -21v-12q0 -54 55 -76l330 -117q101 -36 160 -109t59 -167q0 -5 -4 -51 l-14 -127q-6 -56 -26 -104.5t-61.5 -94.5t-100.5 -78.5t-149.5 -52.5t-203.5 -20q-127 0 -223 26t-151.5 70.5t-83 99.5t-27.5 119z" />
<glyph unicode="T" horiz-adv-x="1017" d="M160 1176l20 159q3 32 19 45t49 13h862q33 0 46 -13q10 -10 10 -31q0 -6 -1 -14l-20 -159q-3 -32 -19 -46t-49 -14h-262l-131 -1055q-5 -33 -18.5 -47t-44.5 -14h-222q-32 0 -44.5 14.5t-8.5 46.5l131 1055h-262q-33 0 -46 14q-10 11 -10 32q0 6 1 14z" />
<glyph unicode="U" horiz-adv-x="1271" d="M150 301q0 10 6 64l118 966q5 33 19.5 47.5t46.5 14.5h221q52 0 52 -48q0 -7 -1 -14l-110 -889q-6 -50 -6 -67q0 -58 48 -86.5t124 -28.5q80 0 134.5 33t63.5 100l117 938q5 33 19.5 47.5t46.5 14.5h221q52 0 52 -48q0 -7 -1 -14l-123 -997q-7 -56 -27.5 -104.5 t-62 -94.5t-101.5 -78.5t-152 -52.5t-208 -20q-242 0 -369.5 92t-127.5 225z" />
<glyph unicode="V" horiz-adv-x="1159" d="M184 1331q-1 8 -1 16q0 46 55 46h237q31 0 45 -15.5t19 -46.5l84 -573q4 -28 6.5 -65t3.5 -71t1 -70v-60.5v-45.5l-1 -20q0 1 7.5 29.5t17.5 66t22.5 80.5t26 86t24.5 70l225 573q25 62 80 62h226q43 0 43 -31q0 -13 -7 -31l-526 -1270q-24 -61 -82 -61h-221 q-61 0 -70 61z" />
<glyph unicode="W" horiz-adv-x="1751" d="M182 1331q-1 6 -1 11q0 51 55 51h223q57 0 63 -62l70 -573q10 -79 10 -183q11 54 60 183l215 573q22 62 79 62h207q58 0 64 -62l69 -571q9 -83 9 -223q2 10 9.5 41t22.5 84.5t31 95.5l213 573q22 62 80 62h194q43 0 43 -33q0 -12 -6 -29l-475 -1270q-12 -32 -31 -46.5 t-51 -14.5h-215q-55 0 -61 61l-74 590q-4 29 -4 209q0 -2 -9.5 -43t-22 -89.5t-23.5 -78.5l-221 -588q-12 -32 -31 -46.5t-51 -14.5h-215q-56 0 -62 61z" />
<glyph unicode="X" horiz-adv-x="1196" d="M36 24q-1 4 -1 8q0 20 16 40l443 653l-269 600q-14 26 -6 47t39 21h250q52 0 80 -62l145 -325l215 325q42 62 96 62h238q31 0 36 -18q1 -4 1 -8q0 -16 -16 -36l-441 -612l297 -658q12 -23 3 -42t-40 -19h-250q-53 0 -79 61l-166 363l-226 -363q-37 -61 -92 -61h-241 q-28 0 -32 24z" />
<glyph unicode="Y" horiz-adv-x="1142" d="M186 1331q-3 11 -3 20q0 15 9 25q14 17 46 17h245q30 0 44.5 -15.5t21.5 -46.5l96 -407q4 -20 9 -49.5t8 -50.5t4 -23q0 1 6 15.5t13.5 32t17.5 39.5t18 36l221 407q16 31 33.5 46.5t46.5 15.5h221q33 0 43 -17q5 -6 5 -14q0 -13 -11 -31l-475 -815l-57 -455 q-5 -33 -18.5 -47t-45.5 -14h-221q-32 0 -44.5 14.5t-8.5 46.5l51 414z" />
<glyph unicode="Z" horiz-adv-x="1011" d="M57 59l21 160q3 25 24 55l568 842h-385q-33 0 -46.5 14t-9.5 46l21 159q4 32 19.5 45t47.5 13h736q33 0 46 -13q10 -10 10 -31q0 -6 -1 -14l-18 -143q-4 -32 -29 -74l-565 -842h456q33 0 46.5 -13t9.5 -44l-21 -160q-5 -32 -20 -45.5t-47 -13.5h-807q-33 0 -47 14 q-10 10 -10 31q0 7 1 14z" />
<glyph unicode="[" horiz-adv-x="833" d="M55 -371l215 1741q5 33 19.5 47.5t46.5 14.5h508q33 0 46 -13t9 -45l-20 -160q-4 -32 -20 -45.5t-48 -13.5h-229l-162 -1311h229q33 0 46.5 -13.5t9.5 -45.5l-21 -160q-4 -32 -19.5 -44.5t-48.5 -12.5h-507q-63 0 -54 61z" />
<glyph unicode="\" horiz-adv-x="747" d="M172 1370q-6 62 53 62h226q31 0 45.5 -15t17.5 -47l193 -1612q3 -30 -12 -45.5t-44 -15.5h-225q-31 0 -43.5 13.5t-17.5 47.5z" />
<glyph unicode="]" horiz-adv-x="833" d="M55 -375l21 160q3 32 18.5 45.5t48.5 13.5h230l162 1311h-230q-33 0 -46 13.5t-9 45.5l20 160q4 32 19.5 45t48.5 13h508q62 0 53 -62l-215 -1741q-5 -33 -19.5 -47t-46.5 -14h-507q-33 0 -46.5 13t-9.5 44z" />
<glyph unicode="^" horiz-adv-x="1200" d="M178 604l309 733q6 14 10 22t11.5 17t18.5 13t26 4h235q29 0 42 -13.5t24 -42.5l309 -733q11 -29 -6.5 -45t-52.5 -16h-201q-30 0 -43.5 14.5t-23.5 46.5l-166 471l-164 -471q-10 -32 -24 -46.5t-44 -14.5h-200q-35 0 -53 16t-7 45z" />
<glyph unicode="_" horiz-adv-x="956" d="M-2 -199q0 32 14 45t47 13h752q33 0 47 -13t14 -45v-149q0 -32 -14.5 -46t-46.5 -14h-752q-32 0 -46.5 14t-14.5 46v149z" />
<glyph unicode="`" horiz-adv-x="626" d="M256 1432.5q11 17.5 43 17.5h215q56 0 76 -61l59 -189q16 -59 -41 -59h-157q-51 0 -74 41l-117 207q-15 26 -4 43.5z" />
<glyph unicode="a" d="M113 244q0 15 4 55l53 426q20 154 98 234.5t234 80.5q178 0 303 -106l8 29q10 34 23 47.5t43 13.5h206q53 0 53 -47q0 -6 -1 -14l-111 -902q-5 -32 -20.5 -46.5t-47.5 -14.5h-196q-27 0 -39 14t-12 47v35q-35 -25 -56 -38t-63 -33.5t-92 -30.5t-109 -10q-133 0 -205.5 69 t-72.5 191zM449 322q0 -27 14.5 -42.5t56.5 -15.5q86 0 213 84l41 328q-106 84 -192 84q-26 0 -44 -7t-27 -21.5t-12.5 -26.5t-6.5 -31l-41 -324q-2 -16 -2 -28z" />
<glyph unicode="b" d="M109 61l159 1309q5 33 20.5 47.5t47.5 14.5h211q33 0 42.5 -16t6.5 -46l-53 -436q41 30 75.5 49t99.5 38t136 19q132 0 205.5 -69.5t73.5 -192.5q0 -8 -5 -53l-53 -426q-40 -315 -338 -315q-178 0 -305 112l-8 -35q-8 -33 -22.5 -47t-45.5 -14h-196q-26 0 -40 16 q-11 14 -12 35q0 5 1 10zM471 348q100 -84 193 -84q22 0 38.5 5.5t25 12.5t14.5 20.5t8 22t4 25.5l41 324q2 16 2 26q0 28 -15.5 44t-56.5 16q-91 0 -213 -84z" />
<glyph unicode="c" horiz-adv-x="1019" d="M115 262q0 16 2 41l51 418q20 154 132.5 236.5t342.5 82.5q206 0 309 -75.5t103 -204.5q0 -16 -2 -43l-2 -27q-3 -32 -19 -45.5t-49 -13.5h-192q-28 0 -40 13t-12 42v29q0 39 -26 54t-86 15q-66 0 -96.5 -19t-36.5 -69l-41 -331q-2 -12 -3.5 -25t-2.5 -19t-1 -10 q0 -39 27.5 -55t87.5 -16q66 0 96.5 20t36.5 70l2 24q3 32 18.5 46t47.5 14h194q32 0 43 -15.5t9 -44.5l-4 -51q-26 -319 -474 -319q-205 0 -310 73.5t-105 204.5z" />
<glyph unicode="d" d="M113 242q0 17 4 57l53 426q20 154 98 234.5t234 80.5q95 0 174.5 -32t128.5 -74l53 436q5 33 19.5 47.5t46.5 14.5h211q32 0 43 -16q9 -12 9 -33q0 -6 -1 -13l-160 -1309q-5 -32 -20.5 -46.5t-47.5 -14.5h-196q-31 0 -41 13.5t-10 47.5v35q-33 -25 -55 -38.5t-63 -34 t-91.5 -30t-110.5 -9.5q-134 0 -206 68.5t-72 189.5zM449 322q0 -58 71 -58q86 0 213 84l41 328q-106 84 -192 84q-27 0 -45 -7t-26.5 -21.5t-12 -26t-6.5 -31.5l-39 -309q-4 -32 -4 -43z" />
<glyph unicode="e" horiz-adv-x="1030" d="M115 262q0 18 2 41l51 418q20 154 132 236.5t339 82.5q197 0 300 -73t103 -203q0 -29 -2 -43l-26 -227q-6 -56 -64 -56h-497l-11 -88q-4 -29 -4 -51q0 -38 27.5 -56t85.5 -18q120 0 133 80l2 12q5 31 20.5 45.5t47.5 14.5h176q52 0 52 -45q0 -7 -1 -15l-2 -14 q-12 -78 -37.5 -133t-75.5 -99t-133.5 -65.5t-202.5 -21.5q-205 0 -310 73.5t-105 204.5zM479 647h248l6 43q2 10 2 33q0 76 -114 76q-122 0 -134 -92z" />
<glyph unicode="f" horiz-adv-x="741" d="M131 823l16 125q4 31 18.5 43t47.5 17l102 12h2l13 100q20 152 141 236t352 84h33q33 0 46 -14q10 -11 10 -32q0 -6 -1 -14l-18 -145q-4 -32 -21 -46.5t-49 -14.5h-22q-137 0 -148 -91l-8 -63h146q33 0 46 -13t9 -44l-19 -140q-5 -32 -20 -45.5t-47 -13.5h-146 l-137 -1110q-5 -34 -18.5 -48t-44.5 -14h-211q-54 0 -54 47q0 7 1 15l137 1110h-103q-33 0 -45 14q-9 10 -9 30q0 7 1 15z" />
<glyph unicode="g" d="M113 244q0 19 4 55l53 426q20 154 97 234.5t233 80.5q181 0 315 -114l8 37q8 34 21 47.5t45 13.5h194q55 0 55 -49q0 -6 -1 -12l-129 -1051q-41 -320 -504 -320h-293q-56 0 -56 50q0 5 1 10l18 145q5 32 21.5 47t48.5 15h293q70 0 105.5 20.5t41.5 69.5l16 139 q-32 -23 -54 -36.5t-61.5 -31.5t-88 -27t-105.5 -9q-133 0 -205.5 69t-72.5 191zM449 322q0 -27 14.5 -42.5t56.5 -15.5q86 0 213 84l41 328q-111 84 -192 84q-28 0 -46.5 -7t-28 -21t-13 -26.5t-5.5 -31.5l-36 -301q-4 -40 -4 -51z" />
<glyph unicode="h" horiz-adv-x="1132" d="M109 61l159 1309q5 33 20.5 47.5t47.5 14.5h211q32 0 42 -15t7 -47l-53 -432q143 102 311 102q122 0 200.5 -69.5t78.5 -179.5q0 -5 -3 -35l-83 -695q-5 -32 -20.5 -46.5t-47.5 -14.5h-207q-27 0 -41.5 15.5t-11.5 45.5l74 611q2 20 2 30q0 31 -15.5 44.5t-54.5 13.5 q-94 0 -213 -82l-76 -617q-5 -33 -19 -47t-46 -14h-211q-52 0 -52 50q0 5 1 11z" />
<glyph unicode="i" horiz-adv-x="532" d="M109 61l110 902q3 32 18.5 46.5t47.5 14.5h211q32 0 44 -14.5t7 -46.5l-111 -902q-5 -33 -19 -47t-46 -14h-211q-32 0 -44 14q-8 10 -8 30q0 8 1 17zM248 1200l20 170q5 33 20.5 47.5t47.5 14.5h211q32 0 43 -14q8 -10 8 -29q0 -9 -2 -19l-21 -170q-5 -33 -19 -46 t-46 -13h-211q-31 -1 -43 13q-9 10 -9 31q0 7 1 15z" />
<glyph unicode="j" horiz-adv-x="532" d="M-160 -348l19 145q5 32 21 47t48 15h23q66 0 102.5 20t42.5 70l125 1014q5 33 19.5 47t46.5 14h211q32 0 44 -14.5t7 -46.5l-129 -1051q-21 -160 -139.5 -240t-352.5 -80h-32q-33 0 -46 14q-11 11 -11 32q0 7 1 14zM250 1200l20 170q5 33 20.5 47.5t47.5 14.5h211 q32 0 43 -14q8 -10 8 -29q0 -9 -2 -19l-20 -170q-3 -32 -17.5 -45.5t-46.5 -13.5h-211q-32 0 -44 13q-10 11 -10 34q0 6 1 12z" />
<glyph unicode="k" horiz-adv-x="1046" d="M109 61l159 1309q5 33 20.5 47.5t47.5 14.5h211q32 0 43 -14.5t6 -47.5l-82 -676h27l243 269q57 61 103 61h233q32 0 38 -19q1 -4 2 -9q0 -15 -17 -33l-350 -381l258 -521q13 -23 2.5 -42t-41.5 -19h-228q-29 0 -45.5 15.5t-31.5 45.5l-191 388h-33l-47 -388 q-5 -33 -19 -47t-46 -14h-211q-32 0 -44 14q-8 10 -8 30q0 8 1 17z" />
<glyph unicode="l" horiz-adv-x="532" d="M109 61l159 1309q5 33 20.5 47.5t47.5 14.5h211q32 0 43 -14q8 -10 8 -29q0 -9 -2 -19l-160 -1309q-5 -33 -19 -47t-46 -14h-211q-32 0 -44 14q-8 10 -8 30q0 8 1 17z" />
<glyph unicode="m" horiz-adv-x="1718" d="M109 61l110 904q5 32 19.5 45.5t46.5 13.5h196q31 0 41 -12.5t10 -46.5v-35q29 23 51.5 38t61 34t88 28.5t109.5 9.5q87 0 157.5 -37t98.5 -98q1 1 35 28.5t53 38.5t59.5 31t88.5 28.5t106 8.5q121 0 199.5 -68t78.5 -175q0 -21 -2 -41l-84 -695q-5 -33 -20 -47t-47 -14 h-207q-27 0 -41.5 15.5t-11.5 45.5l71 594q4 37 4 47q0 58 -69 58q-54 0 -109 -25.5t-94 -56.5v-4l-74 -613q-5 -33 -20 -47t-47 -14h-207q-27 0 -41.5 15.5t-11.5 45.5l73 611q2 20 2 30q0 58 -69 58q-99 0 -201 -82l-76 -617q-5 -33 -19 -47t-46 -14h-211q-52 0 -52 50 q0 5 1 11z" />
<glyph unicode="n" horiz-adv-x="1132" d="M109 61l110 904q3 32 18.5 45.5t47.5 13.5h196q32 0 43 -13t11 -46v-35q143 110 319 110q122 0 200.5 -69.5t78.5 -179.5q0 -5 -5 -54l-81 -676q-5 -32 -20.5 -46.5t-47.5 -14.5h-207q-29 0 -43 13.5t-10 47.5l72 594q4 37 4 47q0 31 -15.5 44.5t-54.5 13.5 q-53 0 -112 -25.5t-101 -56.5l-76 -617q-5 -33 -19 -47t-46 -14h-211q-29 0 -42 14q-10 10 -10 32q0 7 1 15z" />
<glyph unicode="o" horiz-adv-x="1101" d="M115 268q0 17 2 35l51 418q19 151 143.5 235t356.5 84q208 0 324 -75t116 -205q0 -19 -2 -39l-51 -418q-41 -319 -498 -319q-209 0 -325.5 76t-116.5 208zM449 315q0 -43 33 -59t98 -16q140 0 151 92l45 362v13q0 77 -131 77q-140 0 -151 -90l-45 -362v-17z" />
<glyph unicode="p" d="M59 -346l162 1309q5 33 19.5 47t46.5 14h196q31 0 42.5 -14t11.5 -47v-35q45 32 76.5 50.5t99.5 40t141 21.5q133 0 207 -69.5t74 -192.5q0 -14 -5 -53l-53 -426q-20 -154 -98 -234.5t-234 -80.5q-96 0 -175.5 31.5t-129.5 72.5l-53 -434q-5 -34 -18.5 -48t-44.5 -14 h-211q-55 0 -55 49q0 6 1 13zM473 348q100 -84 193 -84q28 0 46 7t27 21.5t12 26.5t5 31l37 309q4 33 4 46q0 26 -15 40.5t-55 14.5q-96 0 -213 -84z" />
<glyph unicode="q" d="M113 244q0 19 4 55l53 426q20 154 97 234.5t233 80.5q175 0 313 -112l8 35q8 34 21.5 47.5t44.5 13.5h196q55 0 55 -49q0 -6 -1 -12l-162 -1309q-5 -33 -19.5 -47.5t-46.5 -14.5h-211q-52 0 -52 49q0 6 1 13l53 434q-34 -23 -55 -35.5t-61.5 -31.5t-88.5 -28t-104 -9 q-133 0 -205.5 69t-72.5 191zM449 322q0 -27 14.5 -42.5t56.5 -15.5q86 0 213 84l41 328q-111 84 -192 84q-28 0 -46.5 -7t-28 -21t-13 -26.5t-5.5 -31.5l-36 -303q-4 -36 -4 -49z" />
<glyph unicode="r" horiz-adv-x="784" d="M109 61l110 904q5 32 19.5 45.5t46.5 13.5h196q32 0 43 -13t11 -46l-3 -58q37 37 69 61.5t95 48t135 23.5q33 0 47 -14q10 -10 10 -31q0 -6 -1 -14l-21 -160q-4 -31 -19 -43.5t-50 -17.5q-94 -11 -169.5 -44t-119.5 -69l-72 -586q-5 -33 -19 -47t-46 -14h-211 q-32 0 -44 14q-8 10 -8 30q0 8 1 17z" />
<glyph unicode="s" horiz-adv-x="972" d="M90 227q0 19 2 35l4 43q3 29 18 42t46 13h188q29 0 39 -12t8 -43l-2 -29v-6q0 -59 121 -59q132 0 139 65l2 19v6q0 28 -71 57l-277 111q-59 24 -96 77t-37 118q0 23 2 41l6 57q4 43 19 81t47 75t79 63.5t119.5 42.5t163.5 16q100 0 178 -22.5t123 -60.5t67.5 -82.5 t22.5 -94.5q0 -10 -2 -30l-4 -29q-5 -31 -19 -44t-44 -13h-187q-50 0 -50 43q0 7 1 14l2 14q2 12 2 27q0 53 -104 53q-52 0 -82 -11.5t-37 -47.5l-2 -11q-1 -7 -1 -13q0 -36 38 -48l274 -102q87 -32 134 -83.5t47 -113.5q0 -9 -2 -25l-15 -112q-6 -53 -33 -98.5t-78 -83.5 t-137 -60t-200 -22q-204 0 -308 70.5t-104 172.5z" />
<glyph unicode="t" horiz-adv-x="759" d="M121 823l14 125q3 31 18.5 43t49.5 17l90 12h2l22 186q6 62 68 62h211q31 0 41.5 -15.5t7.5 -46.5l-22 -186h165q55 0 54 -46v-11l-17 -140q-5 -59 -69 -59h-166l-47 -391q-2 -18 -2 -35q0 -39 27 -55.5t91 -16.5h50q56 0 56 -49q0 -6 -1 -12l-19 -146q-5 -32 -20 -45.5 t-47 -13.5h-103q-197 0 -283.5 62t-86.5 192q0 19 4 65l53 445h-90q-32 0 -43 14q-9 11 -9 32q0 6 1 13z" />
<glyph unicode="u" horiz-adv-x="1120" d="M121 231q0 19 2 37l86 695q5 33 20 47t47 14h207q55 0 55 -49q0 -6 -1 -12l-74 -611q-2 -18 -2 -35q0 -30 14 -41.5t53 -11.5q92 0 203 80l76 619q5 33 19 47t46 14h211q33 0 44 -15q9 -12 9 -33q0 -6 -1 -13l-111 -904q-4 -32 -20 -45.5t-48 -13.5h-196 q-30 0 -40.5 12.5t-10.5 46.5v33q-39 -29 -72.5 -49t-99 -39.5t-138.5 -19.5q-124 0 -201 69t-77 178z" />
<glyph unicode="v" horiz-adv-x="1011" d="M131 963q-2 8 -2 15q0 18 15 30q20 16 55 16h209q30 0 42 -15t17 -46l65 -365q17 -100 17 -219q37 147 69 217l168 367q14 31 30 46t46 15h201q34 0 49 -16q8 -9 8 -21q0 -11 -6 -24l-422 -908q-15 -34 -26 -44.5t-41 -10.5h-242q-30 0 -39 10.5t-16 44.5z" />
<glyph unicode="w" horiz-adv-x="1523" d="M123 963q-1 6 -1 11q0 23 14 35q18 15 52 15h197q30 0 44 -15.5t17 -45.5l62 -455q4 -33 4 -107q0 12 37 107l184 455q12 31 28 46t46 15h199q30 0 44 -15.5t17 -45.5l41 -455q6 -67 6 -107q0 17 35 107l172 455q12 31 28 46t46 15h170q35 0 51 -15q8 -8 8 -21 q0 -11 -6 -25l-373 -908q-13 -33 -25 -44t-42 -11h-252q-30 0 -41.5 12.5t-14.5 42.5l-34 391q-7 72 -7 113q-1 -1 -6.5 -18.5t-14.5 -46t-17 -48.5l-166 -391q-14 -32 -26 -43.5t-42 -11.5h-246q-30 0 -40 11.5t-15 43.5z" />
<glyph unicode="x" horiz-adv-x="983" d="M-4 19l-2 8q0 16 16 34l367 467l-234 435q-14 25 -4 43t41 18h226q30 0 46.5 -15t32.5 -46l117 -215l154 215q44 61 96 61h207q31 0 36 -18q1 -3 1 -7q0 -16 -17 -36l-352 -451l244 -451q13 -23 2.5 -42t-41.5 -19h-225q-29 0 -46 16t-32 45l-125 232l-172 -232 q-45 -61 -94 -61h-207q-29 0 -35 19z" />
<glyph unicode="y" horiz-adv-x="1011" d="M131 963q-2 8 -2 14q0 19 15 31q20 16 55 16h207q30 0 41 -14t18 -47l72 -371q16 -83 16 -199q41 122 70 189l172 381q13 32 29 46.5t46 14.5h193q34 0 49 -16q8 -9 8 -21q0 -11 -6 -24l-604 -1309q-28 -62 -76 -62h-155q-34 0 -49 16t-3 46l127 311z" />
<glyph unicode="z" horiz-adv-x="907" d="M57 59l19 150q3 30 16 43l436 506h-286q-33 0 -46.5 13.5t-9.5 45.5l19 150q4 32 20 44.5t49 12.5h625q33 0 45 -12q9 -9 9 -30q0 -7 -1 -15l-18 -148q-4 -30 -16 -45l-441 -508h369q33 0 46 -13t9 -44l-18 -150q-4 -32 -20.5 -45.5t-49.5 -13.5h-702q-33 0 -45 14 q-9 10 -10 31q0 6 1 14z" />
<glyph unicode="{" horiz-adv-x="923" d="M156 438l16 144q6 61 70 61h2q65 0 98 20.5t39 69.5l49 397q19 152 138.5 236t344.5 84h43q34 0 46.5 -15t9.5 -44l-19 -146q-6 -61 -69 -61h-23q-65 0 -98 -20.5t-39 -69.5l-49 -396q-9 -75 -40 -117.5t-89 -70.5q42 -24 64 -64.5t22 -87.5q0 -18 -2 -36l-47 -379 q-5 -39 -5 -58q0 -65 117 -65h23q34 0 45 -15.5t8 -46.5l-18 -145q-4 -32 -20 -45.5t-48 -13.5h-14q-205 0 -320 75t-115 217q0 22 5 62l47 379q2 16 2 26q0 64 -119 64h-2q-33 0 -44.5 15.5t-8.5 45.5z" />
<glyph unicode="|" horiz-adv-x="583" d="M217 -371v1741q0 33 13.5 47.5t45.5 14.5h222q32 0 44.5 -14.5t12.5 -47.5v-1741q0 -33 -12.5 -47t-44.5 -14h-222q-32 0 -45.5 14t-13.5 47z" />
<glyph unicode="}" horiz-adv-x="923" d="M33 -387l18 145q5 32 21.5 47t48.5 15h22q65 0 98.5 20.5t39.5 69.5l51 412q9 73 40 116t89 72q-86 47 -86 156q0 15 6 63l45 365q2 16 2 28q0 62 -119 62h-22q-61 0 -54 61l19 146q3 32 18.5 45.5t48.5 13.5h23q201 0 313.5 -77t112.5 -218q0 -33 -2 -49l-45 -354 q-4 -32 -4 -41q0 -68 119 -68h2q33 0 44.5 -15.5t8.5 -45.5l-17 -144q-6 -61 -69 -61h-2q-65 0 -98 -20.5t-39 -69.5l-52 -414q-19 -152 -138.5 -235.5t-344.5 -83.5h-43q-61 0 -55 59z" />
<glyph unicode="~" horiz-adv-x="1048" d="M160 471l10 115q6 63 35.5 105.5t66.5 59.5t78 17q70 0 123 -23l182 -81q57 -23 80 -23q13 0 23.5 14.5t15.5 34.5l2 8q8 31 21.5 42.5t44.5 11.5h106q61 0 51 -70l-12 -94q-13 -99 -62.5 -150t-117.5 -51t-133 29l-182 84q-40 18 -64 18q-34 0 -45 -55l-2 -8 q-7 -32 -21.5 -43t-44.5 -11h-106q-55 0 -49 70z" />
<glyph unicode="&#xa1;" horiz-adv-x="589" d="M86 -307l64 532l75 348q8 34 21.5 48t44.5 14h158q31 0 42 -14t9 -48l-11 -348l-63 -532q-5 -33 -20.5 -47.5t-47.5 -14.5h-223q-32 0 -43 14.5t-6 47.5zM225 795l21 170q5 33 18 46t45 13h221q33 0 45.5 -13.5t8.5 -45.5l-21 -170q-5 -33 -20 -47.5t-47 -14.5h-222 q-32 0 -43 14.5t-6 47.5z" />
<glyph unicode="&#xa2;" horiz-adv-x="1132" d="M178 446q0 16 2 41l51 418q33 264 334 309l15 117q5 33 20 47.5t47 14.5h211q32 0 43 -14.5t6 -47.5l-16 -127q114 -30 170.5 -97.5t56.5 -162.5q0 -16 -2 -43l-2 -27q-3 -32 -18.5 -45.5t-48.5 -13.5h-193q-28 0 -39.5 13t-11.5 42v29q0 39 -26.5 54.5t-86.5 15.5 q-66 0 -96.5 -19t-36.5 -69l-41 -332q-6 -46 -6 -53q0 -39 27.5 -55.5t87.5 -16.5q66 0 96.5 20t36.5 70l2 25q3 32 18 45.5t47 13.5h195q32 0 42.5 -15t8.5 -44l-4 -52q-23 -254 -301 -305l-14 -121q-3 -33 -17.5 -47t-46.5 -14h-211q-32 0 -44 14t-9 47l14 119 q-129 26 -194.5 94.5t-65.5 171.5z" />
<glyph unicode="&#xa3;" horiz-adv-x="1431" d="M129 59l18 150q4 32 19.5 44.5t48.5 12.5h111l34 281h-110q-34 0 -45 14t-8 45l18 150q4 32 19.5 44.5t48.5 12.5h110l31 246q7 56 26.5 104.5t58.5 94.5t95 78.5t141.5 52.5t192.5 20q225 0 339 -88.5t114 -220.5q0 -27 -2 -41l-11 -74q-5 -33 -18.5 -47t-44.5 -14h-205 q-62 0 -53 61l2 14q2 10 2 27q0 107 -143 107q-69 0 -112 -33t-52 -101l-23 -186h180q63 0 56 -57l-19 -150q-4 -32 -20 -45.5t-49 -13.5h-181l-34 -281h266q52 0 77 35t31 102l2 23q6 61 70 61h199q33 0 43.5 -15.5t7.5 -45.5l-2 -23q-11 -114 -41 -193.5t-79 -125 t-110 -65t-141 -19.5h-805q-33 0 -44.5 14.5t-8.5 44.5z" />
<glyph unicode="&#xa4;" horiz-adv-x="1361" d="M223 502l10 88q4 32 20.5 44.5t49.5 12.5h43l12 90h-45q-32 0 -44.5 14t-8.5 46l10 88q3 32 19 44.5t49 12.5h45l14 117q6 56 25 104t59 94.5t98.5 79t149 52.5t205.5 20q125 0 219 -25t148 -69t80 -98t26 -117q0 -10 -4 -56l-10 -79q-5 -33 -19 -47.5t-45 -14.5h-211 q-63 0 -53 62l4 22q4 24 4 39q0 54 -42.5 80.5t-115.5 26.5q-79 0 -128 -33t-58 -101l-8 -57h151q33 0 46 -12.5t10 -44.5l-10 -88q-4 -32 -21 -46t-49 -14h-152l-12 -90h154q33 0 45 -12.5t8 -44.5l-10 -88q-4 -32 -21 -46t-49 -14h-152l-4 -30q-4 -32 -4 -39 q0 -57 43.5 -85t116.5 -28q167 0 184 133l9 66q5 33 20 47t47 14h211q33 0 42.5 -15.5t6.5 -45.5l-14 -125q-6 -56 -25 -104t-59 -94.5t-98.5 -79t-149 -52.5t-205.5 -20q-126 0 -220 25.5t-148 70t-79.5 98.5t-25.5 117q0 9 4 55l11 92h-46q-32 0 -44.5 14t-8.5 46z" />
<glyph unicode="&#xa5;" horiz-adv-x="1177" d="M158 502l10 88q4 32 20.5 44.5t49.5 12.5h184l-29 90h-145q-32 0 -44.5 14t-8.5 46l10 88q3 32 18.5 44.5t48.5 12.5h56l-125 389q-9 28 5 45t46 17h246q30 0 44 -15.5t21 -46.5l97 -407q4 -20 9 -49.5t7.5 -50.5t3.5 -23q0 1 6 15.5t13.5 32t17.5 39.5t18 36l221 407 q16 31 33.5 46.5t46.5 15.5h222q33 0 43 -16.5t-7 -45.5l-227 -389h66q33 0 45.5 -12.5t9.5 -44.5l-10 -88q-4 -32 -21 -46t-49 -14h-160l-53 -90h203q33 0 45 -12.5t8 -44.5l-10 -88q-4 -32 -21 -46t-49 -14h-262l-47 -381q-5 -33 -18.5 -47t-45.5 -14h-221 q-32 0 -44.5 14.5t-8.5 46.5l47 381h-262q-32 0 -44.5 14t-8.5 46z" />
<glyph unicode="&#xa6;" horiz-adv-x="532" d="M176 256q0 32 14 46.5t46 14.5h210q32 0 45 -14t13 -47v-627q0 -33 -13 -47t-45 -14h-210q-32 0 -46 14.5t-14 46.5v627zM176 705v626q0 33 14 47.5t46 14.5h210q32 0 45 -14.5t13 -47.5v-626q0 -33 -13 -47.5t-45 -14.5h-210q-32 0 -46 14.5t-14 47.5z" />
<glyph unicode="&#xa7;" horiz-adv-x="1132" d="M106 -121l3 37q1 32 17.5 45.5t49.5 13.5h184q31 0 42 -12.5t10 -46.5l-2 -31v-8q0 -44 28 -60t92 -16q68 0 101 18.5t39 67.5l12 103v10q0 50 -70 70l-241 80q-89 30 -128.5 83.5t-39.5 135.5q0 15 4 51l16 137q5 32 19.5 45.5t46.5 13.5h184q61 0 53 -59l-12 -104v-17 q0 -20 10 -32.5t39 -22.5l250 -82q83 -27 140 -93t57 -159q0 -23 -2 -35l-15 -106q-39 -314 -471 -314q-416 0 -416 267v20zM240 954q0 23 2 35l14 107q39 313 471 313q416 0 416 -266v-21l-2 -37q-1 -31 -18 -45t-50 -14h-184q-31 0 -42 12.5t-9 46.5l2 31v8q0 44 -28 60 t-93 16q-68 0 -100.5 -18.5t-38.5 -67.5l-13 -102v-11q0 -49 70 -69l242 -80q89 -30 128.5 -83.5t39.5 -135.5q0 -6 -5 -51l-16 -138q-5 -33 -19 -46t-46 -13h-185q-61 0 -53 59l12 105v16q0 20 -10 33t-39 23l-250 81q-83 27 -139.5 93t-56.5 159z" />
<glyph unicode="&#xa8;" horiz-adv-x="833" d="M283 1200l22 189q5 32 20.5 46.5t47.5 14.5h123q32 0 43 -14t6 -47l-23 -189q-5 -33 -19 -46t-46 -13h-123q-32 0 -43.5 13.5t-7.5 45.5zM600 1200l23 189q5 33 20 47t47 14h123q32 0 43 -14t6 -47l-22 -189q-5 -32 -19.5 -45.5t-46.5 -13.5h-123q-32 0 -43.5 13.5 t-7.5 45.5z" />
<glyph unicode="&#xa9;" horiz-adv-x="1642" d="M176 510v375q0 58 5.5 106t23.5 104t48.5 99t83.5 85t125 69.5t177 44t235 16.5t235 -16.5t177 -44t125.5 -69.5t83.5 -85t48.5 -99t24 -104t5.5 -106v-375q0 -58 -5.5 -106.5t-24 -104.5t-48.5 -99t-83.5 -85t-125.5 -69.5t-177 -44.5t-235 -17t-235 17t-177 44.5 t-125 69.5t-83.5 85t-48.5 99.5t-23.5 104.5t-5.5 106zM412 465q0 -131 113 -207t349 -76t349.5 75t113.5 206v469q0 131 -113.5 205.5t-349.5 74.5t-349 -75.5t-113 -206.5v-465zM506 573v244q0 151 87 225t286 74t284.5 -74t85.5 -225v-12q0 -32 -13.5 -46t-45.5 -14h-170 q-32 0 -45.5 14t-13.5 46v6q0 88 -82 88t-82 -88v-227q0 -90 82 -90t82 90v18q0 32 13.5 46t45.5 14h170q32 0 45.5 -14t13.5 -46v-29q0 -151 -86 -225t-286 -74q-198 0 -284.5 74t-86.5 225z" />
<glyph unicode="&#xaa;" horiz-adv-x="741" d="M193 928q0 21 2 33l32 258q11 89 69 139.5t155 50.5q104 0 176 -63l6 16q5 12 7 16.5t7 10.5t11 8t16 2h172q36 0 31 -37l-66 -545q-5 -37 -41 -37h-168q-33 0 -33 37v21q-31 -23 -44.5 -32t-54.5 -22.5t-87 -13.5q-82 0 -136 43t-54 115zM451 989q0 -39 41 -39 q43 0 94 51l20 170q-35 52 -82 52q-49 0 -53 -52l-20 -170v-12z" />
<glyph unicode="&#xab;" horiz-adv-x="1345" d="M166 401l24 203q5 46 66 82l420 268q25 15 43 2t14 -45l-24 -209q-3 -20 -15 -37t-24 -25.5t-33 -21.5l-201 -118l170 -121q28 -21 41 -38.5t10 -45.5l-24 -201q-5 -33 -25 -46.5t-43 3.5l-354 268q-50 36 -45 82zM694 401l25 203q5 46 65 82l420 268q25 15 43.5 2 t14.5 -45l-25 -209q-3 -20 -15 -37t-24 -25.5t-33 -21.5l-200 -118l170 -121q28 -21 41 -38.5t10 -45.5l-25 -201q-5 -33 -24.5 -46.5t-42.5 3.5l-355 268q-50 36 -45 82z" />
<glyph unicode="&#xac;" horiz-adv-x="839" d="M150 662q0 113 78 191.5t190 78.5t191 -79t79 -191t-78.5 -190.5t-191.5 -78.5q-112 0 -190 78t-78 191z" />
<glyph unicode="&#xad;" horiz-adv-x="874" d="M162 516v150q0 32 14 44.5t47 12.5h547q33 0 47 -12.5t14 -44.5v-150q0 -32 -14 -45.5t-47 -13.5h-547q-33 0 -47 13.5t-14 45.5z" />
<glyph unicode="&#xae;" horiz-adv-x="1345" d="M199 662v385q0 37 4.5 68.5t18.5 69.5t38 68.5t66 60.5t98.5 50t139.5 32.5t186 12.5t186 -12.5t139 -32.5t98 -50t65.5 -60.5t37.5 -68.5t18 -69.5t4 -68.5v-385q0 -37 -4 -68.5t-18 -70t-37.5 -68.5t-65.5 -60.5t-98 -50.5t-139 -32.5t-186 -12.5t-186 12.5 t-139.5 32.5t-98.5 50t-66 61t-38 69t-18.5 69.5t-4.5 68.5zM412 643q0 -78 75.5 -119t262.5 -41q128 0 204 20.5t103.5 53.5t27.5 84v426q0 51 -27.5 84t-103.5 53.5t-204 20.5q-187 0 -262.5 -41t-75.5 -119v-422zM498 616v480q0 22 9.5 31.5t31.5 9.5h247q72 0 121 -15.5 t72 -43.5t32 -56t9 -64v-30q0 -98 -66 -144l64 -168q6 -19 -5 -31t-36 -12h-133q-12 0 -19.5 5.5t-10.5 12.5t-9 25l-51 132h-39v-132q0 -43 -41 -43h-135q-41 0 -41 43zM715 903h47q4 0 10.5 1.5t17.5 9.5t11 20v16q0 33 -39 33h-47v-80z" />
<glyph unicode="&#xaf;" horiz-adv-x="821" d="M270 1206l15 129q3 32 19.5 45t49.5 13h453q32 0 44 -13t9 -45l-14 -129q-5 -59 -70 -59h-452q-32 0 -44.5 13.5t-9.5 45.5z" />
<glyph unicode="&#xb0;" horiz-adv-x="919" d="M217 938q0 19 2 35l23 192q7 60 27.5 102t62.5 75.5t113.5 50t175.5 16.5q337 0 337 -209q0 -10 -2 -35l-22 -192q-7 -60 -27.5 -102t-62 -75.5t-113 -50t-174.5 -16.5q-340 0 -340 209zM496 981q0 -43 79 -43q82 0 87 47l20 170v4q0 41 -82 41q-79 0 -84 -45l-20 -170 v-4z" />
<glyph unicode="&#xb1;" horiz-adv-x="1128" d="M113 106v150q0 32 14 44.5t47 12.5h801q33 0 47 -12.5t14 -44.5v-150q0 -32 -14 -45.5t-47 -13.5h-801q-33 0 -47 13.5t-14 45.5zM113 709v149q0 32 14 44.5t47 12.5h266v166q0 33 13 47.5t45 14.5h149q32 0 46 -14.5t14 -47.5v-166h268q33 0 47 -12.5t14 -44.5v-149 q0 -32 -14.5 -46t-46.5 -14h-268v-164q0 -32 -14 -46.5t-46 -14.5h-149q-32 0 -45 14t-13 47v164h-266q-32 0 -46.5 14t-14.5 46z" />
<glyph unicode="&#xb2;" horiz-adv-x="808" d="M178 606l27 213q6 47 21.5 68.5t56.5 40.5l290 133q17 7 23.5 18.5t9.5 38.5l4 31v10q0 29 -19.5 42t-49.5 13q-64 0 -72 -65l-4 -39q-3 -25 -13.5 -35t-33.5 -10h-162q-25 0 -32 10.5t-5 34.5l8 78q9 92 90 156.5t246 64.5q145 0 223 -63t78 -146v-18l-6 -58 q-5 -50 -19.5 -88t-37.5 -63t-43.5 -39t-50.5 -29l-240 -114q-9 -5 -12 -15l-2 -14h323q44 0 39 -41l-14 -115q-3 -23 -14.5 -33t-34.5 -10h-533q-46 0 -41 43z" />
<glyph unicode="&#xb3;" horiz-adv-x="804" d="M174 748q0 10 2 28l4 45q3 24 14 33.5t35 9.5h160q24 0 31.5 -9.5t7.5 -33.5v-10q0 -63 70 -63q28 0 51.5 16t23.5 49v14q0 62 -69 62h-76q-44 0 -39 41l12 108q5 43 52 43h61q84 0 84 66v8q0 64 -61 64q-27 0 -45.5 -16t-18.5 -50v-8q-6 -43 -49 -43h-162q-42 0 -37 43 l4 45q21 221 334 221q149 0 222 -57t73 -137q0 -11 -2 -29l-10 -84q-6 -46 -27 -69t-65 -42q73 -48 73 -121q0 -4 -1 -12t-1 -12l-10 -82q-24 -211 -334 -211q-155 0 -231 57.5t-76 135.5z" />
<glyph unicode="&#xb4;" horiz-adv-x="626" d="M266 1200l105 189q33 61 92 61h225q32 0 38.5 -17.5t-15.5 -43.5l-166 -207q-36 -41 -86 -41h-168q-59 0 -25 59z" />
<glyph unicode="&#xb5;" horiz-adv-x="1120" d="M49 -346l162 1309q5 32 20.5 46.5t47.5 14.5h206q61 0 54 -61l-74 -611q-2 -14 -2 -35q0 -30 14 -41.5t53 -11.5q92 0 203 80l76 619q5 33 19 47t46 14h211q33 0 44 -15t8 -46l-111 -904q-4 -32 -20 -45.5t-48 -13.5h-196q-30 0 -40.5 12.5t-10.5 46.5v33 q-39 -30 -72 -49.5t-97 -39t-134 -19.5h-9l-22 -330q-3 -32 -18.5 -47t-47.5 -15h-211q-32 0 -44 14.5t-7 47.5z" />
<glyph unicode="&#xb6;" horiz-adv-x="1466" d="M221 813q0 21 2 33l35 278q6 49 19 86t42.5 73t75 59t119 37t172.5 14h305q63 0 56 -62l-207 -1677q-5 -33 -19.5 -47.5t-46.5 -14.5h-221q-29 0 -42 14t-9 48l112 924h-28q-183 0 -274 63t-91 172zM961 -346l206 1677q5 33 19.5 47.5t46.5 14.5h221q32 0 43 -15.5 t8 -46.5l-207 -1677q-5 -33 -19.5 -47.5t-45.5 -14.5h-221q-30 0 -42.5 13.5t-8.5 48.5z" />
<glyph unicode="&#xb7;" horiz-adv-x="538" d="M160 492l20 170q3 32 19.5 46.5t48.5 14.5h217q32 0 43 -14t6 -47l-20 -170q-5 -33 -19.5 -46.5t-46.5 -13.5h-217q-32 0 -44 14t-7 46z" />
<glyph unicode="&#xb8;" horiz-adv-x="608" d="M6 -373l6 43q4 32 19.5 45t48.5 13h199q20 0 20 22q0 19 -20 19h-160q-45 0 -62 20.5t0 60.5l78 187q21 54 78 51l92 -6q27 -3 36 -26.5t-1 -43.5l-35 -92h55q76 0 119 -40.5t43 -108.5q0 -99 -55.5 -151t-149.5 -52h-256q-65 0 -55 59z" />
<glyph unicode="&#xb9;" horiz-adv-x="765" d="M156 602l14 115q3 24 13.5 32.5t37.5 8.5h131l54 418l-136 -11q-25 -2 -34.5 5.5t-6.5 31.5l15 115q3 21 14.5 30.5t36.5 12.5l350 47q13 1 20.5 0t13.5 -11t3 -30l-76 -608h127q24 0 33 -8.5t6 -32.5l-14 -115q-3 -23 -13.5 -33t-33.5 -10h-512q-26 0 -36 10t-7 33z" />
<glyph unicode="&#xba;" horiz-adv-x="774" d="M199 952q0 13 4 37l26 213q12 99 91.5 153t228.5 54q130 0 211.5 -50t81.5 -134q0 -5 -4 -41l-27 -209q-12 -98 -91.5 -151.5t-227.5 -53.5q-132 0 -212.5 49t-80.5 133zM453 989q0 -35 55 -35q50 0 57 41l23 191v6q0 31 -53 31q-56 0 -60 -37l-22 -191v-6z" />
<glyph unicode="&#xbb;" horiz-adv-x="1341" d="M166 109l24 208q3 20 15 37t24 25.5t33 21.5l201 119l-170 121q-28 21 -41 38.5t-10 45.5l24 201q5 33 25 46.5t43 -3.5l354 -269q50 -36 45 -82l-24 -202q-5 -46 -66 -82l-420 -268q-25 -15 -43 -2t-14 45zM690 109l25 208q4 29 21.5 47t49.5 37l201 119l-170 121 q-28 21 -41 38.5t-10 45.5l25 201q5 33 24.5 46.5t42.5 -3.5l354 -269q50 -36 45 -82l-24 -202q-5 -46 -66 -82l-419 -268q-25 -15 -43.5 -2t-14.5 45z" />
<glyph unicode="&#xbc;" horiz-adv-x="1890" d="M217 602l14 115q3 24 14 32.5t38 8.5h131l53 418l-135 -11q-25 -2 -34.5 5.5t-6.5 31.5l14 115q3 21 14.5 30.5t36.5 12.5l351 47q13 1 20.5 0t13 -11t2.5 -30l-75 -608h127q24 0 33 -8.5t6 -32.5l-15 -115q-3 -23 -13.5 -33t-33.5 -10h-512q-26 0 -36 10t-7 33zM674 -57 l538 1507q8 23 19.5 33t36.5 10h178q47 0 31 -43l-539 -1507q-8 -24 -19 -33.5t-34 -9.5h-180q-46 0 -31 43zM1188 233l10 86q2 29 21 76l147 398q16 43 59 43h170q43 0 27 -43l-141 -404h121l49 404q6 43 49 43h168q24 0 32 -10t5 -33l-93 -750q-3 -23 -13 -33t-34 -10 h-168q-44 0 -38 43l18 147h-348q-47 0 -41 43z" />
<glyph unicode="&#xbd;" horiz-adv-x="1886" d="M217 602l14 115q3 24 14 32.5t38 8.5h131l53 418l-135 -11q-25 -2 -34.5 5.5t-6.5 31.5l14 115q3 21 14.5 30.5t36.5 12.5l351 47q13 1 20.5 0t13 -11t2.5 -30l-75 -608h127q24 0 33 -8.5t6 -32.5l-15 -115q-3 -23 -13.5 -33t-33.5 -10h-512q-26 0 -36 10t-7 33zM678 -57 l539 1507q8 24 19 33.5t36 9.5h178q47 0 31 -43l-539 -1507q-8 -24 -19 -33.5t-34 -9.5h-180q-46 0 -31 43zM1247 43l27 213q6 47 21.5 68.5t56.5 40.5l290 133q17 7 23.5 18.5t9.5 38.5l4 31v10q0 29 -19.5 42t-49.5 13q-64 0 -72 -65l-4 -39q-3 -25 -13.5 -35t-33.5 -10 h-162q-25 0 -32 10.5t-5 34.5l8 78q9 92 90 156.5t246 64.5q145 0 223 -63t78 -146v-19l-6 -57q-5 -50 -19.5 -88t-37.5 -63t-43.5 -39t-50.5 -29l-240 -115q-10 -5 -12 -14l-2 -14h323q44 0 39 -41l-14 -115q-3 -23 -14.5 -33t-34.5 -10h-533q-46 0 -41 43z" />
<glyph unicode="&#xbe;" horiz-adv-x="1921" d="M233 748q0 1 3 28l4 45q3 24 14 33.5t35 9.5h160q24 0 31 -9t7 -34v-10q0 -63 70 -63q29 0 52.5 16t23.5 49v14q0 62 -70 62h-76q-43 0 -38 41l12 108q3 24 15 33.5t36 9.5h61q84 0 84 66v8q0 64 -61 64q-27 0 -45.5 -16t-18.5 -50v-8q-6 -43 -49 -43h-161q-42 0 -37 43 l4 45q21 221 334 221q149 0 222 -57t73 -137q0 -2 -3 -29l-10 -84q-6 -46 -27 -69t-65 -42q74 -49 74 -121q0 -4 -1 -12t-1 -12l-11 -82q-24 -211 -333 -211q-155 0 -231.5 57.5t-76.5 135.5zM702 -57l539 1507q8 24 19 33.5t36 9.5h179q46 0 30 -43l-538 -1507 q-8 -23 -19 -33t-35 -10h-180q-46 0 -31 43zM1217 233l10 86q3 33 20 76l148 398q16 43 59 43h170q43 0 27 -43l-142 -404h121l49 404q6 43 50 43h167q24 0 32 -10t5 -33l-92 -750q-3 -23 -13 -33t-34 -10h-168q-45 0 -39 43l19 147h-349q-46 0 -40 43z" />
<glyph unicode="&#xbf;" horiz-adv-x="1155" d="M74 -66q0 23 2 46l8 69q9 75 33.5 133t61.5 95t70.5 58.5t76.5 39.5l127 53q52 22 68 40t22 62l6 45q5 33 18 46.5t45 13.5h222q59 0 53 -60l-17 -133q-10 -75 -44.5 -111.5t-102.5 -68.5l-223 -106q-69 -31 -80 -109l-4 -29q-2 -20 -2 -34q0 -48 41.5 -73.5t109.5 -25.5 q76 0 123.5 32.5t56.5 100.5l11 74q5 34 18.5 48t44.5 14h211q61 0 53 -62l-16 -127q-7 -56 -26.5 -104.5t-59 -94.5t-96.5 -78.5t-144.5 -52.5t-197.5 -20q-120 0 -213 27.5t-147.5 74t-81.5 101.5t-27 116zM575 795l21 170q5 32 19.5 45.5t46.5 13.5h221q30 0 42.5 -12 t8.5 -47l-21 -170q-5 -33 -20 -47.5t-47 -14.5h-221q-33 0 -43 15t-7 47z" />
<glyph unicode="&#xc0;" horiz-adv-x="1159" d="M29 61l524 1270q14 33 33 47.5t51 14.5h221q59 0 68 -62l215 -1270q9 -61 -51 -61h-224q-31 0 -45.5 15t-19.5 46l-29 197h-340l-78 -197q-22 -61 -78 -61h-210q-62 0 -37 61zM471 1780.5q11 17.5 43 17.5h215q56 0 76 -61l59 -189q16 -59 -41 -59h-157q-51 0 -74 41 l-117 207q-15 26 -4 43.5zM539 524h192l-14 111q-19 148 -12 425v3q0 -2 -9 -38t-22 -86t-28 -106t-32 -110.5t-30 -87.5z" />
<glyph unicode="&#xc1;" horiz-adv-x="1159" d="M29 61l524 1270q14 33 33 47.5t51 14.5h221q59 0 68 -62l215 -1270q9 -61 -51 -61h-224q-31 0 -45.5 15t-19.5 46l-29 197h-340l-78 -197q-22 -61 -78 -61h-210q-62 0 -37 61zM539 524h192l-14 111q-19 148 -12 425v3q0 -2 -9 -38t-22 -86t-28 -106t-32 -110.5t-30 -87.5 zM651 1548l105 189q33 61 92 61h225q32 0 38.5 -17.5t-15.5 -43.5l-166 -207q-36 -41 -86 -41h-168q-59 0 -25 59z" />
<glyph unicode="&#xc2;" horiz-adv-x="1159" d="M29 61l524 1270q14 33 33 47.5t51 14.5h221q59 0 68 -62l215 -1270q9 -61 -51 -61h-224q-31 0 -45.5 15t-19.5 46l-29 197h-340l-78 -197q-22 -61 -78 -61h-210q-62 0 -37 61zM429.5 1506q-7.5 17 14.5 42l168 189q54 61 105 61h119q30 0 49 -15t39 -46l123 -189 q15 -25 3 -42t-44 -17h-158q-57 0 -76 59l-18 58l-31 -58q-33 -59 -92 -59h-162q-32 0 -39.5 17zM539 524h192l-14 111q-19 148 -12 425v3q0 -2 -9 -38t-22 -86t-28 -106t-32 -110.5t-30 -87.5z" />
<glyph unicode="&#xc3;" horiz-adv-x="1159" d="M29 61l524 1270q14 33 33 47.5t51 14.5h221q59 0 68 -62l215 -1270q9 -61 -51 -61h-224q-31 0 -45.5 15t-19.5 46l-29 197h-340l-78 -197q-22 -61 -78 -61h-210q-62 0 -37 61zM334 1559l24 100q19 71 76 113.5t131 42.5q65 0 121 -23l82 -33q62 -24 68 -24q28 0 41 26 l4 8q14 31 28 42.5t43 11.5h111q59 0 43 -70l-21 -92q-17 -76 -66 -116t-118 -40q-77 0 -145 21l-88 30q-65 21 -74 21q-29 0 -39 -27l-4 -10q-12 -31 -27 -41t-45 -10h-104q-58 0 -41 70zM539 524h192l-14 111q-19 148 -12 425v3q0 -2 -9 -38t-22 -86t-28 -106t-32 -110.5 t-30 -87.5z" />
<glyph unicode="&#xc4;" horiz-adv-x="1159" d="M29 61l524 1270q14 33 33 47.5t51 14.5h221q59 0 68 -62l215 -1270q9 -61 -51 -61h-224q-31 0 -45.5 15t-19.5 46l-29 197h-340l-78 -197q-22 -61 -78 -61h-210q-62 0 -37 61zM471 1548l23 189q5 33 20 47t47 14h123q32 0 43 -14t6 -47l-22 -189q-5 -32 -19.5 -45.5 t-46.5 -13.5h-123q-32 0 -43.5 13.5t-7.5 45.5zM539 524h192l-14 111q-19 148 -12 425v3q0 -2 -9 -38t-22 -86t-28 -106t-32 -110.5t-30 -87.5zM788 1548l23 189q5 32 20.5 46.5t47.5 14.5h122q32 0 43.5 -14t6.5 -47l-23 -189q-5 -33 -19 -46t-46 -13h-123q-32 0 -44 13.5 t-8 45.5z" />
<glyph unicode="&#xc5;" horiz-adv-x="1159" d="M29 61l524 1270q14 33 33 47.5t51 14.5h221q59 0 68 -62l215 -1270q9 -61 -51 -61h-224q-31 0 -45.5 15t-19.5 46l-29 197h-340l-78 -197q-22 -61 -78 -61h-210q-62 0 -37 61zM510 1606q0 18 2 30l8 56q5 35 19 61.5t42 51t79 37.5t122 13q118 0 178 -42t60 -105 q0 -19 -2 -31l-8 -55q-5 -35 -18.5 -62t-41 -51t-77.5 -37.5t-119 -13.5q-117 0 -180.5 42.5t-63.5 105.5zM539 524h192l-14 111q-19 148 -12 425v3q0 -2 -9 -38t-22 -86t-28 -106t-32 -110.5t-30 -87.5zM684 1630q0 -47 74 -47t82 57l4 33v10q0 46 -74 46t-82 -56l-4 -33 v-10z" />
<glyph unicode="&#xc6;" horiz-adv-x="1705" d="M26 16.5q-12 16.5 7 44.5l919 1272q42 60 97 60h680q33 0 46 -13t9 -45l-21 -155q-5 -32 -20 -46t-47 -14h-422l-35 -272h389q33 0 46 -13t9 -44l-18 -146q-4 -32 -20 -45.5t-48 -13.5h-389l-39 -314h443q33 0 46 -13t9 -44l-20 -156q-4 -32 -20 -45.5t-48 -13.5h-702 q-63 0 -54 61l25 197h-346l-140 -197q-14 -20 -22 -30t-24 -20.5t-33 -10.5h-213q-32 0 -44 16.5zM692 524h189l41 336q-46 -77 -88 -137z" />
<glyph unicode="&#xc7;" horiz-adv-x="1181" d="M139 295q0 9 4 55l86 709q6 56 25 104t59 94.5t98.5 79t149 52.5t205.5 20q125 0 219 -25t148 -69t80 -98t26 -117q0 -10 -4 -56l-10 -79q-5 -33 -19 -47.5t-45 -14.5h-211q-63 0 -53 62l4 22q4 24 4 39q0 54 -42 80.5t-115 26.5q-79 0 -128.5 -33t-58.5 -101l-74 -587 q-4 -32 -4 -39q0 -57 43.5 -85t116.5 -28q167 0 184 133l9 66q5 33 20 47t47 14h211q33 0 42.5 -15.5t6.5 -45.5l-14 -125q-6 -53 -23 -98.5t-52.5 -90t-86 -77t-128.5 -55t-177 -27.5l-25 -66h56q76 0 118.5 -40.5t42.5 -108.5q0 -99 -55.5 -151t-148.5 -52h-256 q-66 0 -56 59l7 43q4 32 19.5 45t47.5 13h199q20 0 20 22q0 19 -20 19h-160q-95 0 -61 81l59 144q-170 25 -250 107t-80 194z" />
<glyph unicode="&#xc8;" horiz-adv-x="1036" d="M129 61l156 1270q5 33 20 47.5t47 14.5h701q33 0 46 -13t9 -45l-21 -159q-5 -32 -20 -46t-47 -14h-422l-33 -266h389q33 0 45.5 -12.5t8.5 -44.5l-19 -150q-5 -32 -20 -45.5t-47 -13.5h-390l-38 -308h442q33 0 46 -13t9 -44l-20 -160q-4 -32 -20 -45.5t-48 -13.5h-721 q-32 0 -44.5 14.5t-8.5 46.5zM434 1780.5q11 17.5 43 17.5h215q56 0 76 -61l59 -189q16 -59 -41 -59h-157q-51 0 -74 41l-117 207q-15 26 -4 43.5z" />
<glyph unicode="&#xc9;" horiz-adv-x="1036" d="M129 61l156 1270q5 33 20 47.5t47 14.5h701q33 0 46 -13t9 -45l-21 -159q-5 -32 -20 -46t-47 -14h-422l-33 -266h389q33 0 45.5 -12.5t8.5 -44.5l-19 -150q-5 -32 -20 -45.5t-47 -13.5h-390l-38 -308h442q33 0 46 -13t9 -44l-20 -160q-4 -32 -20 -45.5t-48 -13.5h-721 q-32 0 -44.5 14.5t-8.5 46.5zM578 1548l104 189q33 61 92 61h225q32 0 38.5 -17.5t-15.5 -43.5l-166 -207q-36 -41 -86 -41h-168q-58 0 -24 59z" />
<glyph unicode="&#xca;" horiz-adv-x="1036" d="M129 61l156 1270q5 33 20 47.5t47 14.5h701q33 0 46 -13t9 -45l-21 -159q-5 -32 -20 -46t-47 -14h-422l-33 -266h389q33 0 45.5 -12.5t8.5 -44.5l-19 -150q-5 -32 -20 -45.5t-47 -13.5h-390l-38 -308h442q33 0 46 -13t9 -44l-20 -160q-4 -32 -20 -45.5t-48 -13.5h-721 q-32 0 -44.5 14.5t-8.5 46.5zM395 1506q-7 17 15 42l168 189q54 61 104 61h119q30 0 49 -15t39 -46l123 -189q15 -25 3 -42t-44 -17h-158q-57 0 -76 59l-18 58l-31 -58q-33 -59 -92 -59h-162q-32 0 -39 17z" />
<glyph unicode="&#xcb;" horiz-adv-x="1036" d="M129 61l156 1270q5 33 20 47.5t47 14.5h701q33 0 46 -13t9 -45l-21 -159q-5 -32 -20 -46t-47 -14h-422l-33 -266h389q33 0 45.5 -12.5t8.5 -44.5l-19 -150q-5 -32 -20 -45.5t-47 -13.5h-390l-38 -308h442q33 0 46 -13t9 -44l-20 -160q-4 -32 -20 -45.5t-48 -13.5h-721 q-32 0 -44.5 14.5t-8.5 46.5zM438 1548l23 189q5 33 20 47t47 14h123q32 0 43 -14t6 -47l-22 -189q-5 -32 -19.5 -45.5t-46.5 -13.5h-123q-32 0 -43.5 13.5t-7.5 45.5zM756 1548l22 189q5 32 20.5 46.5t47.5 14.5h123q32 0 43 -14t6 -47l-23 -189q-5 -33 -19 -46t-46 -13 h-123q-32 0 -43.5 13.5t-7.5 45.5z" />
<glyph unicode="&#xcc;" horiz-adv-x="583" d="M129 61l156 1270q5 33 20 47.5t47 14.5h221q32 0 43.5 -14.5t6.5 -47.5l-156 -1270q-5 -33 -19 -47t-45 -14h-221q-32 0 -44.5 14.5t-8.5 46.5zM193 1780.5q11 17.5 43 17.5h215q55 0 75 -61l60 -189q16 -59 -41 -59h-158q-51 0 -74 41l-116 207q-15 26 -4 43.5z" />
<glyph unicode="&#xcd;" horiz-adv-x="583" d="M129 61l156 1270q5 33 20 47.5t47 14.5h221q32 0 43.5 -14.5t6.5 -47.5l-156 -1270q-5 -33 -19 -47t-45 -14h-221q-32 0 -44.5 14.5t-8.5 46.5zM354 1548l105 189q33 61 92 61h225q32 0 38.5 -17.5t-15.5 -43.5l-166 -207q-36 -41 -86 -41h-168q-59 0 -25 59z" />
<glyph unicode="&#xce;" horiz-adv-x="583" d="M129 61l156 1270q5 33 20 47.5t47 14.5h221q32 0 43.5 -14.5t6.5 -47.5l-156 -1270q-5 -33 -19 -47t-45 -14h-221q-32 0 -44.5 14.5t-8.5 46.5zM161.5 1506q-7.5 17 14.5 42l168 189q54 61 105 61h118q30 0 49 -15t39 -46l123 -189q15 -25 3 -42t-44 -17h-157 q-57 0 -76 59l-19 58l-30 -58q-13 -24 -38 -41.5t-55 -17.5h-161q-32 0 -39.5 17z" />
<glyph unicode="&#xcf;" horiz-adv-x="583" d="M129 61l156 1270q5 33 20 47.5t47 14.5h221q32 0 43.5 -14.5t6.5 -47.5l-156 -1270q-5 -33 -19 -47t-45 -14h-221q-32 0 -44.5 14.5t-8.5 46.5zM201 1548l22 189q5 32 20.5 46.5t47.5 14.5h123q32 0 43 -14t6 -47l-23 -189q-5 -33 -19 -46t-46 -13h-123q-32 0 -43.5 13.5 t-7.5 45.5zM518 1548l23 189q5 33 20 47t47 14h123q32 0 43 -14t6 -47l-22 -189q-5 -32 -19.5 -45.5t-46.5 -13.5h-123q-32 0 -43.5 13.5t-7.5 45.5z" />
<glyph unicode="&#xd0;" horiz-adv-x="1271" d="M53 635l15 129q4 32 20 44.5t49 12.5h84l64 510q5 33 20 47.5t47 14.5h447q129 0 227.5 -26.5t156.5 -71.5t86.5 -100.5t28.5 -119.5q0 -23 -6 -65l-80 -660q-6 -56 -26 -104.5t-61 -94.5t-101 -78.5t-152 -52.5t-208 -20h-490q-54 0 -45 61l64 514h-87q-32 0 -44.5 14 t-8.5 46zM494 276h188q80 0 135 33.5t64 100.5l67 544q4 20 4 50q0 112 -170 112h-184l-37 -295h123q33 0 45 -12.5t8 -44.5l-14 -129q-4 -32 -21 -46t-49 -14h-123z" />
<glyph unicode="&#xd1;" horiz-adv-x="1292" d="M129 61l156 1270q5 33 20 47.5t47 14.5h193q39 0 51 -25l274 -580q35 -76 54 -153l84 696q5 33 20 47.5t47 14.5h201q32 0 43 -14.5t6 -47.5l-156 -1270q-5 -33 -18.5 -47t-44.5 -14h-193q-42 0 -55 29l-260 544q-16 35 -32.5 81t-25.5 75l-8 29l-86 -697 q-5 -33 -18.5 -47t-44.5 -14h-201q-32 0 -44.5 14.5t-8.5 46.5zM465 1559l24 100q19 71 76 113.5t131 42.5q65 0 121 -23l82 -33q62 -24 68 -24q28 0 41 26l4 8q14 31 28 42.5t43 11.5h111q59 0 43 -70l-20 -92q-17 -76 -66.5 -116t-118.5 -40q-77 0 -145 21l-88 30 q-65 21 -74 21q-29 0 -39 -27l-4 -10q-12 -31 -27 -41t-45 -10h-104q-58 0 -41 70z" />
<glyph unicode="&#xd2;" horiz-adv-x="1251" d="M139 297q0 13 4 53l86 709q6 55 27 104t63.5 95t103.5 79t153.5 52.5t207.5 19.5q126 0 223.5 -26t155 -70.5t86.5 -99t29 -117.5q0 -18 -4 -54l-86 -708q-6 -55 -27 -104t-64 -95t-104.5 -79t-154 -52.5t-207.5 -19.5q-126 0 -223 25.5t-154.5 70t-86 99.5t-28.5 118z M483 373q0 -57 47.5 -85t128.5 -28q80 0 134 33t63 100l74 588q4 36 4 39q0 58 -46.5 85.5t-127.5 27.5q-75 0 -133 -34t-66 -100l-74 -587q-4 -32 -4 -39zM510 1780.5q11 17.5 43 17.5h215q56 0 76 -61l59 -189q16 -59 -41 -59h-157q-51 0 -74 41l-117 207q-15 26 -4 43.5z " />
<glyph unicode="&#xd3;" horiz-adv-x="1251" d="M139 297q0 13 4 53l86 709q6 55 27 104t63.5 95t103.5 79t153.5 52.5t207.5 19.5q126 0 223.5 -26t155 -70.5t86.5 -99t29 -117.5q0 -18 -4 -54l-86 -708q-6 -55 -27 -104t-64 -95t-104.5 -79t-154 -52.5t-207.5 -19.5q-126 0 -223 25.5t-154.5 70t-86 99.5t-28.5 118z M483 373q0 -57 47.5 -85t128.5 -28q80 0 134 33t63 100l74 588q4 36 4 39q0 58 -46.5 85.5t-127.5 27.5q-75 0 -133 -34t-66 -100l-74 -587q-4 -32 -4 -39zM668 1548l104 189q33 61 92 61h226q32 0 38 -17.5t-16 -43.5l-166 -207q-36 -41 -86 -41h-168q-58 0 -24 59z" />
<glyph unicode="&#xd4;" horiz-adv-x="1251" d="M139 297q0 13 4 53l86 709q6 55 27 104t63.5 95t103.5 79t153.5 52.5t207.5 19.5q126 0 223.5 -26t155 -70.5t86.5 -99t29 -117.5q0 -18 -4 -54l-86 -708q-6 -55 -27 -104t-64 -95t-104.5 -79t-154 -52.5t-207.5 -19.5q-126 0 -223 25.5t-154.5 70t-86 99.5t-28.5 118z M483 373q0 -57 47.5 -85t128.5 -28q80 0 134 33t63 100l74 588q4 36 4 39q0 58 -46.5 85.5t-127.5 27.5q-75 0 -133 -34t-66 -100l-74 -587q-4 -32 -4 -39zM497.5 1506q-7.5 17 14.5 42l168 189q54 61 104 61h119q30 0 49 -15t39 -46l123 -189q15 -25 3 -42t-44 -17h-158 q-56 0 -75 59l-19 58l-30 -58q-13 -24 -38 -41.5t-55 -17.5h-161q-32 0 -39.5 17z" />
<glyph unicode="&#xd5;" horiz-adv-x="1251" d="M139 297q0 13 4 53l86 709q6 55 27 104t63.5 95t103.5 79t153.5 52.5t207.5 19.5q126 0 223.5 -26t155 -70.5t86.5 -99t29 -117.5q0 -18 -4 -54l-86 -708q-6 -55 -27 -104t-64 -95t-104.5 -79t-154 -52.5t-207.5 -19.5q-126 0 -223 25.5t-154.5 70t-86 99.5t-28.5 118z M434 1559l25 100q19 71 76 113.5t131 42.5q64 0 120 -23l82 -33q62 -24 68 -24q28 0 41 26l4 8q14 31 28.5 42.5t43.5 11.5h110q59 0 43 -70l-20 -92q-17 -76 -66.5 -116t-118.5 -40q-77 0 -145 21l-88 30q-65 21 -74 21q-29 0 -39 -27l-4 -10q-12 -31 -26.5 -41t-44.5 -10 h-105q-58 0 -41 70zM483 373q0 -57 47.5 -85t128.5 -28q80 0 134 33t63 100l74 588q4 36 4 39q0 58 -46.5 85.5t-127.5 27.5q-75 0 -133 -34t-66 -100l-74 -587q-4 -32 -4 -39z" />
<glyph unicode="&#xd6;" horiz-adv-x="1251" d="M139 297q0 13 4 53l86 709q6 55 27 104t63.5 95t103.5 79t153.5 52.5t207.5 19.5q126 0 223.5 -26t155 -70.5t86.5 -99t29 -117.5q0 -18 -4 -54l-86 -708q-6 -55 -27 -104t-64 -95t-104.5 -79t-154 -52.5t-207.5 -19.5q-126 0 -223 25.5t-154.5 70t-86 99.5t-28.5 118z M483 373q0 -57 47.5 -85t128.5 -28q80 0 134 33t63 100l74 588q4 36 4 39q0 58 -46.5 85.5t-127.5 27.5q-75 0 -133 -34t-66 -100l-74 -587q-4 -32 -4 -39zM537 1548l22 189q5 32 20.5 46.5t47.5 14.5h123q32 0 43 -14t6 -47l-23 -189q-5 -33 -19 -46t-46 -13h-123 q-32 0 -43.5 13.5t-7.5 45.5zM854 1548l23 189q5 33 20 47t47 14h123q32 0 43 -14t6 -47l-22 -189q-5 -32 -19.5 -45.5t-46.5 -13.5h-123q-32 0 -43.5 13.5t-7.5 45.5z" />
<glyph unicode="&#xd7;" horiz-adv-x="1105" d="M184 528q-32 51 25 80l229 133l-133 232q-17 29 -13 48t32 34l129 75q29 15 48 10t36 -34l133 -232l231 134q29 17 48 13t34 -32l76 -129q15 -29 9.5 -48t-34.5 -36l-231 -133l133 -231q30 -55 -23 -82l-129 -74q-28 -17 -46 -11t-33 36l-134 229l-231 -133 q-27 -16 -47 -11t-35 33z" />
<glyph unicode="&#xd8;" horiz-adv-x="1251" d="M139 295q0 13 4 53l86 709q6 55 27 104t63.5 95t103.5 79t153.5 52.5t207.5 19.5q147 0 260 -37l25 37q18 30 36 45.5t46 15.5h74q17 0 23 -9.5t2.5 -22.5t-13.5 -29l-66 -104q107 -82 107 -209q0 -18 -4 -54l-86 -708q-6 -55 -27 -104t-64 -95t-104.5 -79t-154 -52.5 t-207.5 -19.5q-152 0 -262 36l-23 -34q-22 -35 -39 -48.5t-47 -13.5h-70q-22 0 -25 18.5t13 43.5l64 102q-103 82 -103 209zM498 494l383 612q-46 24 -121 24t-133 -33.5t-66 -99.5zM532 283q43 -25 127 -25q80 0 134 33t63 100l64 510z" />
<glyph unicode="&#xd9;" horiz-adv-x="1271" d="M150 301q0 10 6 64l118 966q5 33 19.5 47.5t46.5 14.5h221q59 0 51 -62l-110 -889q-6 -50 -6 -67q0 -58 48 -86.5t124 -28.5q80 0 134.5 33t63.5 100l117 938q5 33 19.5 47.5t46.5 14.5h221q59 0 51 -62l-123 -997q-7 -56 -27.5 -104.5t-62 -94.5t-101.5 -78.5 t-152 -52.5t-208 -20q-242 0 -369.5 92t-127.5 225zM543 1780.5q11 17.5 43 17.5h215q56 0 76 -61l59 -189q16 -59 -41 -59h-158q-50 0 -73 41l-117 207q-15 26 -4 43.5z" />
<glyph unicode="&#xda;" horiz-adv-x="1271" d="M150 301q0 10 6 64l118 966q5 33 19.5 47.5t46.5 14.5h221q59 0 51 -62l-110 -889q-6 -50 -6 -67q0 -58 48 -86.5t124 -28.5q80 0 134.5 33t63.5 100l117 938q5 33 19.5 47.5t46.5 14.5h221q59 0 51 -62l-123 -997q-7 -56 -27.5 -104.5t-62 -94.5t-101.5 -78.5 t-152 -52.5t-208 -20q-242 0 -369.5 92t-127.5 225zM690 1548l105 189q33 61 92 61h225q32 0 38.5 -17.5t-15.5 -43.5l-166 -207q-36 -41 -86 -41h-168q-59 0 -25 59z" />
<glyph unicode="&#xdb;" horiz-adv-x="1271" d="M150 301q0 10 6 64l118 966q5 33 19.5 47.5t46.5 14.5h221q59 0 51 -62l-110 -889q-6 -50 -6 -67q0 -58 48 -86.5t124 -28.5q80 0 134.5 33t63.5 100l117 938q5 33 19.5 47.5t46.5 14.5h221q59 0 51 -62l-123 -997q-7 -56 -27.5 -104.5t-62 -94.5t-101.5 -78.5 t-152 -52.5t-208 -20q-242 0 -369.5 92t-127.5 225zM493 1506q-7 17 15 42l168 189q54 61 104 61h119q30 0 49 -15t39 -46l123 -189q15 -25 3 -42t-44 -17h-158q-56 0 -75 59l-19 58l-31 -58q-33 -59 -92 -59h-162q-32 0 -39 17z" />
<glyph unicode="&#xdc;" horiz-adv-x="1271" d="M150 301q0 10 6 64l118 966q5 33 19.5 47.5t46.5 14.5h221q59 0 51 -62l-110 -889q-6 -50 -6 -67q0 -58 48 -86.5t124 -28.5q80 0 134.5 33t63.5 100l117 938q5 33 19.5 47.5t46.5 14.5h221q59 0 51 -62l-123 -997q-7 -56 -27.5 -104.5t-62 -94.5t-101.5 -78.5 t-152 -52.5t-208 -20q-242 0 -369.5 92t-127.5 225zM539 1548l22 189q5 32 20.5 46.5t47.5 14.5h123q32 0 43 -14t6 -47l-23 -189q-5 -33 -19 -46t-46 -13h-123q-32 0 -43.5 13.5t-7.5 45.5zM856 1548l23 189q5 33 20 47t47 14h123q32 0 43 -14t6 -47l-22 -189 q-5 -32 -19.5 -45.5t-46.5 -13.5h-123q-32 0 -43.5 13.5t-7.5 45.5z" />
<glyph unicode="&#xdd;" horiz-adv-x="1142" d="M186 1331q-9 28 5.5 45t46.5 17h245q30 0 44.5 -15.5t21.5 -46.5l96 -407q4 -20 9 -49.5t8 -50.5t4 -23q0 1 6 15.5t13.5 32t17.5 39.5t18 36l221 407q16 31 33.5 46.5t46.5 15.5h221q33 0 43.5 -16.5t-6.5 -45.5l-475 -815l-57 -455q-5 -33 -18.5 -47t-45.5 -14h-221 q-32 0 -44.5 14.5t-8.5 46.5l51 414zM649 1548l105 189q33 61 92 61h225q32 0 38.5 -17.5t-15.5 -43.5l-166 -207q-36 -41 -86 -41h-168q-59 0 -25 59z" />
<glyph unicode="&#xde;" horiz-adv-x="1200" d="M129 61l156 1270q5 33 20 47.5t47 14.5h221q32 0 42.5 -15.5t7.5 -46.5l-37 -307h153q126 0 223 -26.5t154 -71.5t85 -99t28 -116q0 -31 -2 -41l-19 -158q-6 -55 -27 -103.5t-63 -94t-103 -77.5t-153 -51.5t-207 -19.5h-174l-14 -105q-5 -33 -19 -47t-45 -14h-221 q-60 0 -53 61zM514 442h164q81 0 138.5 33.5t64.5 99.5l4 39v21q0 113 -170 113h-164z" />
<glyph unicode="&#xdf;" horiz-adv-x="1349" d="M131 823l16 125q4 31 19 44t47 16l102 12h2l15 110q18 151 149 235.5t379 84.5q218 0 334.5 -73t116.5 -201q0 -18 -4 -46l-11 -71q-9 -64 -50 -117t-105 -82l-150 -67q-35 -14 -35 -37v-4q0 -22 37 -41l221 -115q67 -34 109.5 -87.5t42.5 -113.5q0 -15 -2 -33l-8 -73 q-9 -72 -32.5 -125t-69 -95t-121 -63.5t-181.5 -21.5q-177 0 -255.5 61.5t-78.5 177.5q0 14 3 41l2 23q3 32 18.5 45.5t48.5 13.5h144q34 0 44 -14t7 -45l-2 -21v-14q0 -66 80 -66q85 0 94 82l6 47v7q0 32 -47 57l-203 96q-133 62 -133 205q0 27 2 43l6 41q18 126 143 184 l91 41q41 19 56.5 40t18.5 50l4 35v14q0 97 -161 97q-170 0 -183 -111l-129 -1053q-5 -33 -19 -47t-46 -14h-211q-32 0 -43 14.5t-8 46.5l86 703h-103q-28 0 -42.5 15t-10.5 44z" />
<glyph unicode="&#xe0;" d="M113 244q0 15 4 55l53 426q20 154 98 234.5t234 80.5q178 0 303 -106l8 29q10 34 23 47.5t43 13.5h206q60 0 52 -61l-111 -902q-5 -32 -20.5 -46.5t-47.5 -14.5h-196q-27 0 -39 14t-12 47v35q-35 -25 -56 -38t-63 -33.5t-92 -30.5t-109 -10q-133 0 -205.5 69t-72.5 191z M426 1432.5q11 17.5 43 17.5h215q56 0 76 -61l59 -189q16 -59 -41 -59h-157q-51 0 -74 41l-117 207q-15 26 -4 43.5zM449 322q0 -27 14.5 -42.5t56.5 -15.5q86 0 213 84l41 328q-106 84 -192 84q-26 0 -44 -7t-27 -21.5t-12.5 -26.5t-6.5 -31l-41 -324q-2 -16 -2 -28z" />
<glyph unicode="&#xe1;" d="M113 244q0 15 4 55l53 426q20 154 98 234.5t234 80.5q178 0 303 -106l8 29q10 34 23 47.5t43 13.5h206q60 0 52 -61l-111 -902q-5 -32 -20.5 -46.5t-47.5 -14.5h-196q-27 0 -39 14t-12 47v35q-35 -25 -56 -38t-63 -33.5t-92 -30.5t-109 -10q-133 0 -205.5 69t-72.5 191z M449 322q0 -27 14.5 -42.5t56.5 -15.5q86 0 213 84l41 328q-106 84 -192 84q-26 0 -44 -7t-27 -21.5t-12.5 -26.5t-6.5 -31l-41 -324q-2 -16 -2 -28zM555 1200l104 189q33 61 93 61h225q32 0 38 -17.5t-16 -43.5l-165 -207q-36 -41 -86 -41h-168q-59 0 -25 59z" />
<glyph unicode="&#xe2;" d="M113 244q0 15 4 55l53 426q20 154 98 234.5t234 80.5q178 0 303 -106l8 29q10 34 23 47.5t43 13.5h206q60 0 52 -61l-111 -902q-5 -32 -20.5 -46.5t-47.5 -14.5h-196q-27 0 -39 14t-12 47v35q-35 -25 -56 -38t-63 -33.5t-92 -30.5t-109 -10q-133 0 -205.5 69t-72.5 191z M380.5 1158q-7.5 17 14.5 42l168 189q54 61 105 61h118q30 0 49 -15t39 -46l123 -189q15 -25 3 -42t-44 -17h-157q-57 0 -76 59l-18 57l-31 -57q-33 -59 -92 -59h-162q-32 0 -39.5 17zM449 322q0 -27 14.5 -42.5t56.5 -15.5q86 0 213 84l41 328q-106 84 -192 84 q-26 0 -44 -7t-27 -21.5t-12.5 -26.5t-6.5 -31l-41 -324q-2 -16 -2 -28z" />
<glyph unicode="&#xe3;" d="M113 244q0 15 4 55l53 426q20 154 98 234.5t234 80.5q178 0 303 -106l8 29q10 34 23 47.5t43 13.5h206q60 0 52 -61l-111 -902q-5 -32 -20.5 -46.5t-47.5 -14.5h-196q-27 0 -39 14t-12 47v35q-35 -25 -56 -38t-63 -33.5t-92 -30.5t-109 -10q-133 0 -205.5 69t-72.5 191z M326 1190l24 100q19 71 76 113.5t131 42.5q65 0 121 -23l82 -32q11 -4 27 -11t25 -10.5t15 -3.5q27 0 41 27l4 8q14 31 28 42t44 11h111q59 0 43 -70l-21 -92q-17 -76 -66 -115.5t-118 -39.5q-80 0 -145 20l-89 31q-62 20 -73 20q-29 0 -39 -26l-4 -11q-12 -31 -27 -41 t-45 -10h-104q-58 0 -41 70zM449 322q0 -27 14.5 -42.5t56.5 -15.5q86 0 213 84l41 328q-106 84 -192 84q-26 0 -44 -7t-27 -21.5t-12.5 -26.5t-6.5 -31l-41 -324q-2 -16 -2 -28z" />
<glyph unicode="&#xe4;" d="M113 244q0 15 4 55l53 426q20 154 98 234.5t234 80.5q178 0 303 -106l8 29q10 34 23 47.5t43 13.5h206q60 0 52 -61l-111 -902q-5 -32 -20.5 -46.5t-47.5 -14.5h-196q-27 0 -39 14t-12 47v35q-35 -25 -56 -38t-63 -33.5t-92 -30.5t-109 -10q-133 0 -205.5 69t-72.5 191z M426 1200l23 189q5 33 20 47t47 14h123q32 0 43 -14t6 -47l-22 -189q-5 -32 -19.5 -45.5t-46.5 -13.5h-123q-32 0 -43.5 13.5t-7.5 45.5zM449 322q0 -27 14.5 -42.5t56.5 -15.5q86 0 213 84l41 328q-106 84 -192 84q-26 0 -44 -7t-27 -21.5t-12.5 -26.5t-6.5 -31l-41 -324 q-2 -16 -2 -28zM743 1200l23 189q5 32 20.5 46.5t47.5 14.5h122q32 0 43.5 -14t6.5 -47l-23 -189q-5 -33 -19 -46t-46 -13h-123q-32 0 -44 13.5t-8 45.5z" />
<glyph unicode="&#xe5;" d="M113 244q0 15 4 55l53 426q20 154 98 234.5t234 80.5q178 0 303 -106l8 29q10 34 23 47.5t43 13.5h206q60 0 52 -61l-111 -902q-5 -32 -20.5 -46.5t-47.5 -14.5h-196q-27 0 -39 14t-12 47v35q-35 -25 -56 -38t-63 -33.5t-92 -30.5t-109 -10q-133 0 -205.5 69t-72.5 191z M449 322q0 -27 14.5 -42.5t56.5 -15.5q86 0 213 84l41 328q-106 84 -192 84q-26 0 -44 -7t-27 -21.5t-12.5 -26.5t-6.5 -31l-41 -324q-2 -16 -2 -28zM461 1253q0 19 2 31l8 55q23 164 262 164q118 0 178 -42t60 -105q0 -19 -2 -31l-8 -55q-5 -35 -18.5 -62t-41 -51 t-77.5 -37.5t-119 -13.5q-117 0 -180.5 42.5t-63.5 104.5zM635 1278q0 -47 74 -47t82 57l4 33v10q0 45 -74 45t-82 -55l-4 -33v-10z" />
<glyph unicode="&#xe6;" horiz-adv-x="1603" d="M102 209q0 21 2 37l11 88q13 119 103 191.5t257 72.5h248l12 96q4 28 4 35q0 76 -108 76q-66 0 -95.5 -17t-33.5 -63l-2 -18q-3 -32 -19 -46t-49 -14h-186q-30 0 -42 12.5t-9 47.5l2 24q12 151 121 230t331 79q181 0 266 -82q110 82 297 82q197 0 299.5 -73t102.5 -203 q0 -29 -2 -43l-27 -227q-6 -56 -63 -56h-498l-14 -119q-2 -14 -2 -20q0 -74 116 -74q63 0 94 19.5t37 60.5l2 12q5 32 20.5 46t47.5 14h176q28 0 41 -13t10 -47l-2 -20q-7 -74 -32.5 -129t-76 -97.5t-134.5 -64.5t-201 -22q-264 0 -367 122q-147 -122 -329 -122 q-147 0 -227.5 63t-80.5 162zM430 283q0 -45 62 -45q83 0 196 73l8 70h-186q-74 0 -78 -64l-2 -26v-8zM1051 647h247l9 60v16q0 76 -115 76q-121 0 -133 -92z" />
<glyph unicode="&#xe7;" horiz-adv-x="1019" d="M115 262q0 16 2 41l51 418q20 154 132.5 236.5t342.5 82.5q206 0 309 -75.5t103 -204.5q0 -16 -2 -43l-2 -27q-3 -32 -19 -45.5t-49 -13.5h-192q-28 0 -40 13t-12 42v29q0 39 -26 54t-86 15q-66 0 -96.5 -19t-36.5 -69l-41 -331q-2 -12 -3.5 -25t-2.5 -19t-1 -10 q0 -39 27.5 -55t87.5 -16q66 0 96.5 20t36.5 70l2 24q3 32 18.5 46t47.5 14h194q32 0 43 -15.5t9 -44.5l-4 -51q-26 -295 -404 -317l-25 -66h56q76 0 119 -40.5t43 -108.5q0 -99 -55.5 -151t-149.5 -52h-256q-66 0 -56 59l7 43q4 32 19.5 45t47.5 13h199q20 0 20 22 q0 19 -20 19h-160q-95 0 -61 81l59 146q-135 23 -203.5 91.5t-68.5 174.5z" />
<glyph unicode="&#xe8;" horiz-adv-x="1030" d="M115 262q0 18 2 41l51 418q20 154 132 236.5t339 82.5q197 0 300 -73t103 -203q0 -29 -2 -43l-26 -227q-6 -56 -64 -56h-497l-11 -88q-4 -29 -4 -51q0 -38 27.5 -56t85.5 -18q120 0 133 80l2 12q5 31 20.5 45.5t47.5 14.5h176q60 0 51 -60l-2 -14q-12 -78 -37.5 -133 t-75.5 -99t-133.5 -65.5t-202.5 -21.5q-205 0 -310 73.5t-105 204.5zM371 1432.5q11 17.5 43 17.5h215q56 0 76 -61l59 -189q16 -59 -41 -59h-158q-50 0 -73 41l-117 207q-15 26 -4 43.5zM479 647h248l6 43q2 10 2 33q0 76 -114 76q-122 0 -134 -92z" />
<glyph unicode="&#xe9;" horiz-adv-x="1030" d="M115 262q0 18 2 41l51 418q20 154 132 236.5t339 82.5q197 0 300 -73t103 -203q0 -29 -2 -43l-26 -227q-6 -56 -64 -56h-497l-11 -88q-4 -29 -4 -51q0 -38 27.5 -56t85.5 -18q120 0 133 80l2 12q5 31 20.5 45.5t47.5 14.5h176q60 0 51 -60l-2 -14q-12 -78 -37.5 -133 t-75.5 -99t-133.5 -65.5t-202.5 -21.5q-205 0 -310 73.5t-105 204.5zM479 647h248l6 43q2 10 2 33q0 76 -114 76q-122 0 -134 -92zM514 1200l104 189q33 61 93 61h225q32 0 38 -17.5t-16 -43.5l-165 -207q-36 -41 -86 -41h-168q-59 0 -25 59z" />
<glyph unicode="&#xea;" horiz-adv-x="1030" d="M115 262q0 18 2 41l51 418q20 154 132 236.5t339 82.5q197 0 300 -73t103 -203q0 -29 -2 -43l-26 -227q-6 -56 -64 -56h-497l-11 -88q-4 -29 -4 -51q0 -38 27.5 -56t85.5 -18q120 0 133 80l2 12q5 31 20.5 45.5t47.5 14.5h176q60 0 51 -60l-2 -14q-12 -78 -37.5 -133 t-75.5 -99t-133.5 -65.5t-202.5 -21.5q-205 0 -310 73.5t-105 204.5zM337.5 1158q-7.5 17 14.5 42l168 189q54 61 105 61h118q30 0 49 -15t39 -46l123 -189q15 -25 3 -42t-44 -17h-157q-57 0 -76 59l-18 57l-31 -57q-33 -59 -92 -59h-162q-32 0 -39.5 17zM479 647h248l6 43 q2 10 2 33q0 76 -114 76q-122 0 -134 -92z" />
<glyph unicode="&#xeb;" horiz-adv-x="1030" d="M115 262q0 18 2 41l51 418q20 154 132 236.5t339 82.5q197 0 300 -73t103 -203q0 -29 -2 -43l-26 -227q-6 -56 -64 -56h-497l-11 -88q-4 -29 -4 -51q0 -38 27.5 -56t85.5 -18q120 0 133 80l2 12q5 31 20.5 45.5t47.5 14.5h176q60 0 51 -60l-2 -14q-12 -78 -37.5 -133 t-75.5 -99t-133.5 -65.5t-202.5 -21.5q-205 0 -310 73.5t-105 204.5zM365 1200l22 189q5 32 20.5 46.5t47.5 14.5h123q32 0 43 -14t6 -47l-23 -189q-5 -33 -19 -46t-46 -13h-123q-32 0 -43.5 13.5t-7.5 45.5zM479 647h248l6 43q2 10 2 33q0 76 -114 76q-122 0 -134 -92z M682 1200l23 189q5 33 20 47t47 14h123q32 0 43 -14t6 -47l-22 -189q-5 -32 -19.5 -45.5t-46.5 -13.5h-123q-32 0 -43.5 13.5t-7.5 45.5z" />
<glyph unicode="&#xec;" horiz-adv-x="532" d="M109 61l110 902q5 32 20.5 46.5t47.5 14.5h211q32 0 43 -14t6 -47l-111 -902q-5 -33 -19 -47t-46 -14h-211q-32 0 -44 14.5t-7 46.5zM125 1432.5q11 17.5 43 17.5h215q56 0 76 -61l59 -189q16 -59 -41 -59h-158q-50 0 -73 41l-117 207q-15 26 -4 43.5z" />
<glyph unicode="&#xed;" horiz-adv-x="532" d="M109 61l110 902q5 32 20.5 46.5t47.5 14.5h211q32 0 43 -14t6 -47l-111 -902q-5 -33 -19 -47t-46 -14h-211q-32 0 -44 14.5t-7 46.5zM285 1200l104 189q33 61 92 61h226q32 0 38 -17.5t-16 -43.5l-166 -207q-36 -41 -86 -41h-168q-58 0 -24 59z" />
<glyph unicode="&#xee;" horiz-adv-x="532" d="M98 1158q-7 17 15 42l168 189q54 61 104 61h119q30 0 49 -15t39 -46l123 -189q15 -25 3 -42t-44 -17h-158q-57 0 -76 59l-18 57l-31 -57q-33 -59 -92 -59h-162q-32 0 -39 17zM109 61l110 902q5 32 20.5 46.5t47.5 14.5h211q32 0 43 -14t6 -47l-111 -902q-5 -33 -19 -47 t-46 -14h-211q-32 0 -44 14.5t-7 46.5z" />
<glyph unicode="&#xef;" horiz-adv-x="532" d="M109 61l110 902q5 32 20.5 46.5t47.5 14.5h211q32 0 43 -14t6 -47l-111 -902q-5 -33 -19 -47t-46 -14h-211q-32 0 -44 14.5t-7 46.5zM139 1200l23 189q5 33 20 47t47 14h123q32 0 43 -14t6 -47l-22 -189q-5 -32 -19.5 -45.5t-46.5 -13.5h-123q-32 0 -43.5 13.5t-7.5 45.5 zM457 1200l22 189q5 32 20.5 46.5t47.5 14.5h123q32 0 43 -14t6 -47l-23 -189q-5 -33 -19 -46t-46 -13h-123q-32 0 -43.5 13.5t-7.5 45.5z" />
<glyph unicode="&#xf0;" horiz-adv-x="1175" d="M115 268q0 23 2 35l51 422q20 154 98.5 234.5t233.5 80.5q180 0 305 -106l16 125v4l-43 -23q-56 -27 -78 21l-18 37q-23 48 35 80l65 36q-28 11 -80 11h-206q-61 0 -54 61l13 105q5 59 69 59h207q219 0 328 -88l88 49q21 13 44 8t36 -30l18 -35q24 -47 -35 -80l-75 -43 q4 -16 4 -53q0 -32 -2 -48l-103 -827q-38 -319 -477 -319q-209 0 -325.5 76t-116.5 208zM446 317q0 -77 132 -77q142 0 153 92l43 344q-111 84 -192 84q-28 0 -46.5 -7t-27.5 -21.5t-12.5 -26t-6.5 -31.5l-40 -342q0 -2 -1.5 -7.5t-1.5 -7.5z" />
<glyph unicode="&#xf1;" horiz-adv-x="1132" d="M109 61l110 904q3 32 18.5 45.5t47.5 13.5h196q32 0 43 -13t11 -46v-35q143 110 319 110q122 0 200.5 -69.5t78.5 -179.5q0 -5 -5 -54l-81 -676q-5 -32 -20.5 -46.5t-47.5 -14.5h-207q-29 0 -43 13.5t-10 47.5l72 594q4 37 4 47q0 31 -15.5 44.5t-54.5 13.5 q-53 0 -112 -25.5t-101 -56.5l-76 -617q-5 -33 -19 -47t-46 -14h-211q-29 0 -42 13.5t-9 47.5zM340 1190l25 100q19 71 75.5 113.5t130.5 42.5q65 0 121 -23l82 -32q10 -4 26.5 -11.5t26 -10.5t15.5 -3q28 0 41 27l4 8q14 31 28 42t43 11h111q59 0 43 -70l-20 -92 q-17 -76 -66 -115.5t-119 -39.5q-80 0 -145 20l-88 31q-62 20 -74 20q-29 0 -39 -26l-4 -11q-12 -31 -27 -41t-45 -10h-104q-58 0 -41 70z" />
<glyph unicode="&#xf2;" horiz-adv-x="1101" d="M115 268q0 17 2 35l51 418q19 151 143.5 235t356.5 84q208 0 324 -75t116 -205q0 -19 -2 -39l-51 -418q-41 -319 -498 -319q-209 0 -325.5 76t-116.5 208zM416 1432.5q11 17.5 43 17.5h215q56 0 76 -61l59 -189q16 -59 -41 -59h-158q-50 0 -73 41l-117 207 q-15 26 -4 43.5zM449 315q0 -43 33 -59t98 -16q140 0 151 92l45 362v13q0 77 -131 77q-140 0 -151 -90l-45 -362v-17z" />
<glyph unicode="&#xf3;" horiz-adv-x="1101" d="M115 268q0 17 2 35l51 418q19 151 143.5 235t356.5 84q208 0 324 -75t116 -205q0 -19 -2 -39l-51 -418q-41 -319 -498 -319q-209 0 -325.5 76t-116.5 208zM449 315q0 -43 33 -59t98 -16q140 0 151 92l45 362v13q0 77 -131 77q-140 0 -151 -90l-45 -362v-17zM547 1200 l104 189q33 61 92 61h226q32 0 38 -17.5t-16 -43.5l-166 -207q-36 -41 -86 -41h-168q-58 0 -24 59z" />
<glyph unicode="&#xf4;" horiz-adv-x="1101" d="M115 268q0 17 2 35l51 418q19 151 143.5 235t356.5 84q208 0 324 -75t116 -205q0 -19 -2 -39l-51 -418q-41 -319 -498 -319q-209 0 -325.5 76t-116.5 208zM378.5 1158q-7.5 17 14.5 42l168 189q54 61 105 61h118q30 0 49 -15t39 -46l123 -189q15 -25 3 -42t-44 -17h-157 q-57 0 -76 59l-19 57l-30 -57q-33 -59 -92 -59h-162q-32 0 -39.5 17zM449 315q0 -43 33 -59t98 -16q140 0 151 92l45 362v13q0 77 -131 77q-140 0 -151 -90l-45 -362v-17z" />
<glyph unicode="&#xf5;" horiz-adv-x="1101" d="M115 268q0 17 2 35l51 418q19 151 143.5 235t356.5 84q208 0 324 -75t116 -205q0 -19 -2 -39l-51 -418q-41 -319 -498 -319q-209 0 -325.5 76t-116.5 208zM285 1190l24 100q19 71 76 113.5t131 42.5q65 0 121 -23l82 -32q11 -4 27 -11t25 -10.5t15 -3.5q28 0 41 27l4 8 q14 31 28 42t44 11h111q59 0 43 -70l-21 -92q-17 -76 -66 -115.5t-118 -39.5q-80 0 -145 20l-89 31q-62 20 -73 20q-29 0 -39 -26l-4 -11q-12 -31 -27 -41t-45 -10h-104q-58 0 -41 70zM449 315q0 -43 33 -59t98 -16q140 0 151 92l45 362v13q0 77 -131 77q-140 0 -151 -90 l-45 -362v-17z" />
<glyph unicode="&#xf6;" horiz-adv-x="1101" d="M115 268q0 17 2 35l51 418q19 151 143.5 235t356.5 84q208 0 324 -75t116 -205q0 -19 -2 -39l-51 -418q-41 -319 -498 -319q-209 0 -325.5 76t-116.5 208zM416 1200l22 189q5 32 20.5 46.5t47.5 14.5h123q32 0 43 -14t6 -47l-23 -189q-5 -33 -19 -46t-46 -13h-123 q-32 0 -43.5 13.5t-7.5 45.5zM449 315q0 -43 33 -59t98 -16q140 0 151 92l45 362v13q0 77 -131 77q-140 0 -151 -90l-45 -362v-17zM733 1200l23 189q5 33 20 47t47 14h123q32 0 43 -14t6 -47l-22 -189q-5 -32 -19.5 -45.5t-46.5 -13.5h-123q-32 0 -43.5 13.5t-7.5 45.5z" />
<glyph unicode="&#xf7;" horiz-adv-x="1181" d="M162 516v150q0 32 14 44.5t47 12.5h854q33 0 47.5 -12.5t14.5 -44.5v-150q0 -32 -14.5 -45.5t-47.5 -13.5h-854q-33 0 -47 13.5t-14 45.5zM483 129v170q0 32 14 46.5t46 14.5h217q32 0 44.5 -14t12.5 -47v-170q0 -33 -12.5 -46t-44.5 -13h-217q-32 0 -46 13.5t-14 45.5z M483 879v170q0 32 14 46.5t46 14.5h217q32 0 44.5 -14t12.5 -47v-170q0 -33 -12.5 -46.5t-44.5 -13.5h-217q-32 0 -46 14t-14 46z" />
<glyph unicode="&#xf8;" horiz-adv-x="1101" d="M115 268q0 23 2 35l51 418q19 151 143.5 235t356.5 84q108 0 194 -22l17 24q13 21 21 31t24 20.5t34 10.5h72q26 0 27.5 -18.5t-17.5 -43.5l-51 -77q119 -75 119 -205q0 -27 -2 -39l-51 -418q-19 -152 -142.5 -235.5t-355.5 -83.5q-107 0 -197 22l-12 -20 q-24 -36 -41 -49t-47 -13h-65q-16 0 -21 10.5t-1 24t13 27.5l47 71q-118 74 -118 211zM457 399l248 379q-27 6 -60 6q-140 0 -151 -90zM518 244q32 -4 62 -4q140 0 151 92l37 293z" />
<glyph unicode="&#xf9;" horiz-adv-x="1120" d="M121 231q0 19 2 37l86 695q5 33 20 47t47 14h207q61 0 54 -61l-74 -611q-2 -18 -2 -35q0 -30 14 -41.5t53 -11.5q92 0 203 80l76 619q5 33 19 47t46 14h211q33 0 44 -15t8 -46l-111 -904q-4 -32 -20 -45.5t-48 -13.5h-196q-30 0 -40.5 12.5t-10.5 46.5v33 q-39 -29 -72.5 -49t-99 -39.5t-138.5 -19.5q-124 0 -201 69t-77 178zM414 1432.5q11 17.5 43 17.5h215q56 0 76 -61l59 -189q16 -59 -41 -59h-158q-50 0 -73 41l-117 207q-15 26 -4 43.5z" />
<glyph unicode="&#xfa;" horiz-adv-x="1120" d="M121 231q0 19 2 37l86 695q5 33 20 47t47 14h207q61 0 54 -61l-74 -611q-2 -18 -2 -35q0 -30 14 -41.5t53 -11.5q92 0 203 80l76 619q5 33 19 47t46 14h211q33 0 44 -15t8 -46l-111 -904q-4 -32 -20 -45.5t-48 -13.5h-196q-30 0 -40.5 12.5t-10.5 46.5v33 q-39 -29 -72.5 -49t-99 -39.5t-138.5 -19.5q-124 0 -201 69t-77 178zM571 1200l105 189q33 61 92 61h225q32 0 38.5 -17.5t-15.5 -43.5l-166 -207q-36 -41 -86 -41h-168q-59 0 -25 59z" />
<glyph unicode="&#xfb;" horiz-adv-x="1120" d="M121 231q0 19 2 37l86 695q5 33 20 47t47 14h207q61 0 54 -61l-74 -611q-2 -18 -2 -35q0 -30 14 -41.5t53 -11.5q92 0 203 80l76 619q5 33 19 47t46 14h211q33 0 44 -15t8 -46l-111 -904q-4 -32 -20 -45.5t-48 -13.5h-196q-30 0 -40.5 12.5t-10.5 46.5v33 q-39 -29 -72.5 -49t-99 -39.5t-138.5 -19.5q-124 0 -201 69t-77 178zM378.5 1158q-7.5 17 14.5 42l168 189q54 61 105 61h118q30 0 49 -15t39 -46l123 -189q15 -25 3 -42t-44 -17h-157q-57 0 -76 59l-19 57l-30 -57q-33 -59 -92 -59h-162q-32 0 -39.5 17z" />
<glyph unicode="&#xfc;" horiz-adv-x="1120" d="M121 231q0 19 2 37l86 695q5 33 20 47t47 14h207q61 0 54 -61l-74 -611q-2 -18 -2 -35q0 -30 14 -41.5t53 -11.5q92 0 203 80l76 619q5 33 19 47t46 14h211q33 0 44 -15t8 -46l-111 -904q-4 -32 -20 -45.5t-48 -13.5h-196q-30 0 -40.5 12.5t-10.5 46.5v33 q-39 -29 -72.5 -49t-99 -39.5t-138.5 -19.5q-124 0 -201 69t-77 178zM418 1200l22 189q5 32 20.5 46.5t47.5 14.5h123q32 0 43 -14t6 -47l-23 -189q-5 -33 -19 -46t-46 -13h-123q-32 0 -43.5 13.5t-7.5 45.5zM735 1200l23 189q5 33 20 47t47 14h123q32 0 43 -14t6 -47 l-22 -189q-5 -32 -19.5 -45.5t-46.5 -13.5h-123q-32 0 -43.5 13.5t-7.5 45.5z" />
<glyph unicode="&#xfd;" horiz-adv-x="1011" d="M131 963q-7 29 13 45t55 16h207q30 0 41 -14t18 -47l72 -371q16 -83 16 -199q41 122 70 189l172 381q13 32 29 46.5t46 14.5h193q34 0 49 -16t2 -45l-604 -1309q-28 -62 -76 -62h-155q-34 0 -49 16t-3 46l127 311zM528 1200l105 189q33 61 92 61h225q32 0 38.5 -17.5 t-15.5 -43.5l-166 -207q-36 -41 -86 -41h-168q-59 0 -25 59z" />
<glyph unicode="&#xfe;" d="M59 -346l211 1716q5 33 20.5 47.5t47.5 14.5h209q32 0 43 -15.5t8 -46.5l-53 -436q41 30 75.5 49t99.5 38t136 19q132 0 205.5 -69t73.5 -191q0 -10 -5 -55l-53 -426q-20 -154 -98 -234.5t-234 -80.5q-177 0 -305 104l-53 -434q-3 -33 -17 -47.5t-46 -14.5h-211 q-62 0 -54 62zM473 348q100 -84 193 -84q22 0 38.5 5.5t25 12.5t14.5 20.5t8 22t4 25.5l41 324q0 4 1 13t1 13q0 28 -15.5 44t-56.5 16q-91 0 -213 -84z" />
<glyph unicode="&#xff;" horiz-adv-x="1011" d="M131 963q-7 29 13 45t55 16h207q30 0 41 -14t18 -47l72 -371q16 -83 16 -199q41 122 70 189l172 381q13 32 29 46.5t46 14.5h193q34 0 49 -16t2 -45l-604 -1309q-28 -62 -76 -62h-155q-34 0 -49 16t-3 46l127 311zM356 1200l23 189q5 33 20 47t47 14h123q32 0 43 -14 t6 -47l-22 -189q-5 -32 -19.5 -45.5t-46.5 -13.5h-122q-32 0 -44 13.5t-8 45.5zM674 1200l22 189q5 32 20.5 46.5t47.5 14.5h123q32 0 43 -14t6 -47l-23 -189q-5 -33 -19 -46t-46 -13h-123q-32 0 -43.5 13.5t-7.5 45.5z" />
<glyph unicode="&#x152;" horiz-adv-x="1724" d="M139 297q0 13 4 53l86 709q8 68 38.5 127.5t87.5 111.5t155.5 82.5t226.5 30.5q132 0 244 -47q15 29 57 29h701q33 0 46 -13t9 -45l-20 -159q-5 -32 -20.5 -46t-47.5 -14h-422l-33 -266h389q33 0 45.5 -12.5t8.5 -44.5l-19 -150q-5 -32 -20 -45.5t-47 -13.5h-389 l-39 -308h442q33 0 46 -13t9 -44l-20 -160q-4 -32 -20 -45.5t-48 -13.5h-721q-39 0 -49 18q-93 -34 -194 -34q-126 0 -222 25.5t-152.5 70t-84 99t-27.5 118.5zM483 373q0 -57 47.5 -85t128.5 -28q80 0 133 33t62 100l74 588q4 36 4 39q0 113 -172 113q-75 0 -133 -34 t-66 -100l-74 -587q-4 -32 -4 -39z" />
<glyph unicode="&#x153;" horiz-adv-x="1640" d="M115 268q0 23 2 35l51 418q41 319 479 319q202 0 303 -75q110 75 301 75q197 0 299.5 -73t102.5 -203q0 -29 -2 -43l-27 -227q-6 -56 -63 -56h-498l-14 -119q-2 -14 -2 -20q0 -74 116 -74q63 0 94 19.5t37 60.5l2 12q5 32 20.5 46t47.5 14h176q28 0 41 -13t10 -47l-2 -20 q-7 -74 -32.5 -129t-76 -97.5t-134.5 -64.5t-201 -22q-184 0 -293 61q-103 -61 -295 -61q-209 0 -325.5 76t-116.5 208zM449 315q0 -43 33 -59t98 -16q67 0 105 21t44 71l45 362v13q0 77 -129 77q-140 0 -151 -90l-45 -362v-17zM1090 647h247l9 60v16q0 76 -115 76 q-121 0 -133 -92z" />
<glyph unicode="&#x178;" horiz-adv-x="1142" d="M186 1331q-9 28 5.5 45t46.5 17h245q30 0 44.5 -15.5t21.5 -46.5l96 -407q4 -20 9 -49.5t8 -50.5t4 -23q0 1 6 15.5t13.5 32t17.5 39.5t18 36l221 407q16 31 33.5 46.5t46.5 15.5h221q33 0 43.5 -16.5t-6.5 -45.5l-475 -815l-57 -455q-5 -33 -18.5 -47t-45.5 -14h-221 q-32 0 -44.5 14.5t-8.5 46.5l51 414zM469 1548l23 189q5 33 20 47t47 14h123q32 0 43 -14t6 -47l-22 -189q-5 -32 -19.5 -45.5t-46.5 -13.5h-123q-32 0 -43.5 13.5t-7.5 45.5zM786 1548l23 189q5 32 20.5 46.5t47.5 14.5h122q32 0 43.5 -14t6.5 -47l-23 -189q-5 -33 -19 -46 t-46 -13h-123q-32 0 -44 13.5t-8 45.5z" />
<glyph unicode="&#x2c6;" horiz-adv-x="733" d="M196.5 1158q-7.5 17 14.5 42l168 189q54 61 104 61h119q30 0 49 -15t39 -46l123 -189q15 -25 3 -42t-44 -17h-158q-56 0 -75 59l-19 57l-31 -57q-33 -59 -92 -59h-161q-32 0 -39.5 17z" />
<glyph unicode="&#x2dc;" horiz-adv-x="823" d="M180 1190l25 100q19 71 76 113.5t131 42.5q64 0 120 -23l82 -32q10 -4 26.5 -11.5t26 -10.5t15.5 -3q28 0 41 27l4 8q14 31 28 42t44 11h110q59 0 43 -70l-20 -92q-17 -76 -66 -115.5t-118 -39.5q-81 0 -146 20l-88 31q-62 20 -74 20q-29 0 -39 -26l-4 -11 q-12 -31 -26.5 -41t-44.5 -10h-105q-58 0 -41 70z" />
<glyph unicode="&#x2000;" horiz-adv-x="927" />
<glyph unicode="&#x2001;" horiz-adv-x="1855" />
<glyph unicode="&#x2002;" horiz-adv-x="927" />
<glyph unicode="&#x2003;" horiz-adv-x="1855" />
<glyph unicode="&#x2004;" horiz-adv-x="618" />
<glyph unicode="&#x2005;" horiz-adv-x="463" />
<glyph unicode="&#x2006;" horiz-adv-x="309" />
<glyph unicode="&#x2007;" horiz-adv-x="309" />
<glyph unicode="&#x2008;" horiz-adv-x="231" />
<glyph unicode="&#x2009;" horiz-adv-x="371" />
<glyph unicode="&#x200a;" horiz-adv-x="103" />
<glyph unicode="&#x2010;" horiz-adv-x="874" d="M162 516v150q0 32 14 44.5t47 12.5h547q33 0 47 -12.5t14 -44.5v-150q0 -32 -14 -45.5t-47 -13.5h-547q-33 0 -47 13.5t-14 45.5z" />
<glyph unicode="&#x2011;" horiz-adv-x="874" d="M162 516v150q0 32 14 44.5t47 12.5h547q33 0 47 -12.5t14 -44.5v-150q0 -32 -14 -45.5t-47 -13.5h-547q-33 0 -47 13.5t-14 45.5z" />
<glyph unicode="&#x2012;" horiz-adv-x="874" d="M162 516v150q0 32 14 44.5t47 12.5h547q33 0 47 -12.5t14 -44.5v-150q0 -32 -14 -45.5t-47 -13.5h-547q-33 0 -47 13.5t-14 45.5z" />
<glyph unicode="&#x2013;" horiz-adv-x="1079" d="M162 516v150q0 32 14 44.5t47 12.5h752q33 0 47 -12.5t14 -44.5v-150q0 -32 -14 -45.5t-47 -13.5h-752q-33 0 -47 13.5t-14 45.5z" />
<glyph unicode="&#x2014;" horiz-adv-x="1716" d="M162 516v150q0 32 14 44.5t47 12.5h1389q33 0 47 -12.5t14 -44.5v-150q0 -32 -14 -45.5t-47 -13.5h-1389q-33 0 -47 13.5t-14 45.5z" />
<glyph unicode="&#x2018;" horiz-adv-x="600" d="M186 1073l21 162q17 136 110.5 214t266.5 114q33 6 48.5 -2t22.5 -39l33 -140q11 -58 -51 -75q-52 -14 -72.5 -34.5t-25.5 -55.5l-19 -144q-5 -33 -20 -47t-47 -14h-217q-32 0 -43.5 14t-6.5 47z" />
<glyph unicode="&#x2019;" horiz-adv-x="600" d="M186 1192q-11 58 52 76q52 14 72.5 34.5t25.5 55.5l18 143q5 33 20.5 47.5t47.5 14.5h217q32 0 43 -14.5t6 -47.5l-20 -162q-17 -135 -110.5 -213t-266.5 -114q-34 -6 -49.5 2t-22.5 39z" />
<glyph unicode="&#x201a;" horiz-adv-x="600" d="M27 -80q-11 59 51 76q52 14 72.5 34.5t25.5 55.5l19 143q5 33 20 47.5t47 14.5h217q32 0 43 -14.5t6 -47.5l-20 -161q-17 -136 -110.5 -214t-266.5 -114q-34 -6 -49.5 2t-22.5 39z" />
<glyph unicode="&#x201c;" horiz-adv-x="1103" d="M186 1073l21 162q17 136 110.5 214t266.5 114q33 6 48.5 -2t22.5 -39l33 -140q11 -58 -51 -75q-52 -14 -72.5 -34.5t-25.5 -55.5l-19 -144q-5 -33 -20 -47t-47 -14h-217q-32 0 -43.5 14t-6.5 47zM690 1073l21 162q17 136 110 214t266 114q34 6 49.5 -2t22.5 -39l33 -140 q11 -58 -51 -75q-52 -15 -73 -35t-26 -55l-18 -144q-5 -32 -20.5 -46.5t-47.5 -14.5h-217q-32 0 -43 14t-6 47z" />
<glyph unicode="&#x201d;" horiz-adv-x="1103" d="M186 1192q-11 58 52 76q52 14 72.5 34.5t25.5 55.5l18 143q5 33 20.5 47.5t47.5 14.5h217q32 0 43 -14.5t6 -47.5l-20 -162q-17 -135 -110.5 -213t-266.5 -114q-34 -6 -49.5 2t-22.5 39zM690 1192q-11 59 51 76q52 15 73 35t26 55l18 143q5 33 20.5 47.5t47.5 14.5h217 q32 0 43 -14.5t6 -47.5l-21 -162q-17 -136 -110 -213.5t-266 -113.5q-34 -6 -49.5 2t-22.5 39z" />
<glyph unicode="&#x201e;" horiz-adv-x="1103" d="M27 -80q-11 59 51 76q52 14 72.5 34.5t25.5 55.5l19 143q5 33 20 47.5t47 14.5h217q32 0 43 -14.5t6 -47.5l-20 -161q-17 -136 -110.5 -214t-266.5 -114q-34 -6 -49.5 2t-22.5 39zM530 -80q-11 58 52 76q52 14 72.5 34.5t25.5 55.5l18 143q5 33 20.5 47.5t47.5 14.5h217 q32 0 43 -14.5t6 -47.5l-20 -161q-17 -136 -110.5 -214t-266.5 -114q-34 -6 -49.5 2t-22.5 39z" />
<glyph unicode="&#x2022;" horiz-adv-x="579" d="M172 408l39 313q5 33 19 47t46 14h218q32 0 44 -14.5t7 -46.5l-39 -313q-5 -33 -19.5 -46.5t-46.5 -13.5h-217q-32 0 -44 14t-7 46z" />
<glyph unicode="&#x2026;" horiz-adv-x="1552" d="M109 59l20 170q6 62 68 62h217q32 0 43 -14.5t6 -47.5l-21 -170q-5 -33 -19 -46t-46 -13h-217q-32 0 -43.5 13.5t-7.5 45.5zM616 59l21 170q6 62 68 62h217q32 0 43 -14.5t6 -47.5l-21 -170q-5 -33 -19 -46t-46 -13h-217q-32 0 -44 13.5t-8 45.5zM1122 59l21 170 q3 32 19 47t48 15h217q32 0 43.5 -14.5t6.5 -47.5l-21 -170q-5 -33 -19 -46t-46 -13h-217q-32 0 -44 13.5t-8 45.5z" />
<glyph unicode="&#x202f;" horiz-adv-x="371" />
<glyph unicode="&#x2039;" horiz-adv-x="817" d="M166 401l24 203q5 46 66 82l420 268q25 15 43 2t14 -45l-24 -209q-3 -20 -15 -37t-24 -25.5t-33 -21.5l-201 -118l170 -121q28 -21 41 -38.5t10 -45.5l-24 -201q-5 -33 -25 -46.5t-43 3.5l-354 268q-50 36 -45 82z" />
<glyph unicode="&#x203a;" horiz-adv-x="817" d="M166 94l24 209q3 20 15 37t24 25.5t33 21.5l201 119l-170 121q-28 21 -41 38.5t-10 45.5l24 200q5 33 25 46.5t43 -3.5l354 -268q50 -36 45 -82l-24 -203q-5 -46 -66 -82l-420 -268q-25 -15 -43 -2t-14 45z" />
<glyph unicode="&#x205f;" horiz-adv-x="463" />
<glyph unicode="&#x20ac;" horiz-adv-x="1361" d="M223 502l10 88q4 32 20.5 44.5t49.5 12.5h43l12 90h-45q-32 0 -44.5 14t-8.5 46l10 88q3 32 19 44.5t49 12.5h45l14 117q6 56 25 104t59 94.5t98.5 79t149 52.5t205.5 20q125 0 219 -25t148 -69t80 -98t26 -117q0 -10 -4 -56l-10 -79q-5 -33 -19 -47.5t-45 -14.5h-211 q-63 0 -53 62l4 22q4 24 4 39q0 54 -42.5 80.5t-115.5 26.5q-79 0 -128 -33t-58 -101l-8 -57h151q33 0 46 -12.5t10 -44.5l-10 -88q-4 -32 -21 -46t-49 -14h-152l-12 -90h154q33 0 45 -12.5t8 -44.5l-10 -88q-4 -32 -21 -46t-49 -14h-152l-4 -30q-4 -32 -4 -39 q0 -57 43.5 -85t116.5 -28q167 0 184 133l9 66q5 33 20 47t47 14h211q33 0 42.5 -15.5t6.5 -45.5l-14 -125q-6 -56 -25 -104t-59 -94.5t-98.5 -79t-149 -52.5t-205.5 -20q-126 0 -220 25.5t-148 70t-79.5 98.5t-25.5 117q0 9 4 55l11 92h-46q-32 0 -44.5 14t-8.5 46z" />
<glyph unicode="&#x2122;" horiz-adv-x="1910" d="M238 1214l16 132q3 26 16 36.5t41 10.5h566q28 0 38 -10.5t7 -36.5l-17 -132q-3 -27 -16 -38t-41 -11h-143l-68 -557q-3 -28 -15 -39.5t-40 -11.5h-179q-27 0 -36.5 11.5t-6.5 39.5l68 557h-145q-28 0 -38 10.5t-7 38.5zM920 608l90 733q3 28 16 40t41 12h156 q30 0 39 -23l131 -311q20 -57 24 -76l39 70l203 317q13 23 49 23h168q27 0 36.5 -12t6.5 -40l-90 -733q-3 -28 -15 -39.5t-40 -11.5h-166q-27 0 -36.5 11.5t-6.5 39.5l34 287q-10 -25 -28 -61l-58 -101q-28 -49 -71 -49h-115q-47 0 -63 49l-39 105q-13 39 -13 71l-36 -301 q-3 -28 -15.5 -39.5t-38.5 -11.5h-157q-28 0 -38 11.5t-7 39.5z" />
<glyph unicode="&#x25fc;" horiz-adv-x="1024" d="M0 0v1024h1024v-1024h-1024z" />
</font>
</defs>
</svg>
