<?xml version="1.0" standalone="no"?>
<!DOCTYPE svg PUBLIC "-//W3C//DTD SVG 1.1//EN" "http://www.w3.org/Graphics/SVG/1.1/DTD/svg11.dtd" >
<svg xmlns="http://www.w3.org/2000/svg">
<metadata></metadata>
<defs>
<font id="geogrotesque_bdbold" horiz-adv-x="1169" >
<font-face units-per-em="2048" ascent="1536" descent="-512" />
<missing-glyph horiz-adv-x="368" />
<glyph unicode="&#xfb01;" horiz-adv-x="1263" d="M31 823v125q0 31 12.5 43t46.5 17l100 12h3v92q0 150 118.5 235t345.5 85h443q32 0 46.5 -14t14.5 -46v-145q0 -32 -14.5 -47t-46.5 -15h-443q-137 0 -137 -90v-55h580q33 0 47 -12.5t14 -44.5v-902q0 -33 -12.5 -47t-44.5 -14h-211q-32 0 -45.5 14t-13.5 47v703h-314 v-703q0 -33 -12.5 -47t-44.5 -14h-211q-32 0 -45.5 14t-13.5 47v703h-103q-32 0 -45.5 13.5t-13.5 45.5z" />
<glyph unicode="&#xfb02;" horiz-adv-x="1263" d="M31 823v125q0 31 12.5 43t46.5 17l100 12h3v92q0 150 118.5 235t345.5 85h443q32 0 46.5 -14t14.5 -46v-1311q0 -33 -12.5 -47t-44.5 -14h-211q-32 0 -45.5 14t-13.5 47v1104h-177q-137 0 -137 -90v-55h146q33 0 47 -12.5t14 -44.5v-140q0 -32 -14 -45.5t-47 -13.5h-146 v-703q0 -33 -12.5 -47t-44.5 -14h-211q-32 0 -45.5 14t-13.5 47v703h-103q-32 0 -45.5 13.5t-13.5 45.5z" />
<glyph unicode="&#xfb03;" horiz-adv-x="1904" d="M31 823v125q0 31 12.5 43t46.5 17l100 12h3v100q0 150 118.5 235t345.5 85h23q32 0 46.5 -14t14.5 -46v-145q0 -32 -14.5 -46.5t-46.5 -14.5h-23q-137 0 -137 -91v-63h314v92q0 150 118.5 235t345.5 85h443q32 0 46.5 -14t14.5 -46v-145q0 -32 -14.5 -47t-46.5 -15h-443 q-137 0 -137 -90v-55h580q33 0 47 -12.5t14 -44.5v-902q0 -33 -12.5 -47t-44.5 -14h-211q-32 0 -45.5 14t-13.5 47v703h-314v-703q0 -33 -12.5 -47t-44.5 -14h-211q-32 0 -45.5 14t-13.5 47v703h-314v-703q0 -33 -12.5 -47t-44.5 -14h-211q-32 0 -45.5 14t-13.5 47v703h-103 q-32 0 -45.5 13.5t-13.5 45.5z" />
<glyph unicode="&#xfb04;" horiz-adv-x="1904" d="M31 823v125q0 31 12.5 43t46.5 17l100 12h3v100q0 150 118.5 235t345.5 85h23q32 0 46.5 -14t14.5 -46v-145q0 -32 -14.5 -46.5t-46.5 -14.5h-23q-137 0 -137 -91v-63h314v92q0 150 118.5 235t345.5 85h443q32 0 46.5 -14t14.5 -46v-1311q0 -33 -12.5 -47t-44.5 -14h-211 q-32 0 -45.5 14t-13.5 47v1104h-177q-137 0 -137 -90v-55h146q33 0 47 -12.5t14 -44.5v-140q0 -32 -14 -45.5t-47 -13.5h-146v-703q0 -33 -12.5 -47t-44.5 -14h-211q-32 0 -45.5 14t-13.5 47v703h-314v-703q0 -33 -12.5 -47t-44.5 -14h-211q-32 0 -45.5 14t-13.5 47v703 h-103q-32 0 -45.5 13.5t-13.5 45.5z" />
<glyph horiz-adv-x="0" />
<glyph horiz-adv-x="682" />
<glyph unicode=" "  horiz-adv-x="368" />
<glyph unicode="&#x09;" horiz-adv-x="368" />
<glyph unicode="&#xa0;" horiz-adv-x="368" />
<glyph unicode="!" horiz-adv-x="589" d="M123 59v170q0 33 13.5 47.5t45.5 14.5h221q32 0 45 -14.5t13 -47.5v-170q0 -32 -13 -45.5t-45 -13.5h-221q-32 0 -45.5 13.5t-13.5 45.5zM125 799v532q0 33 13.5 47.5t45.5 14.5h224q32 0 44.5 -14.5t12.5 -47.5v-532l-33 -348q-3 -34 -14.5 -48t-42.5 -14h-158 q-31 0 -43.5 14t-15.5 48z" />
<glyph unicode="&#x22;" horiz-adv-x="931" d="M104 1331q-6 62 60 62h203q63 0 57 -62l-27 -327q0 -33 -12.5 -47.5t-44.5 -14.5h-150q-31 0 -43.5 14t-15.5 48zM508 1331q-6 62 59 62h203q63 0 57 -62l-26 -327q0 -33 -13 -47.5t-45 -14.5h-149q-31 0 -43.5 14t-15.5 48z" />
<glyph unicode="#" horiz-adv-x="1413" d="M123 393v109q0 32 14 44.5t47 12.5h129l35 121h-61q-33 0 -47.5 13.5t-14.5 45.5v109q0 32 14.5 44.5t47.5 12.5h127l41 144q16 61 73 61h150q60 0 43 -61l-41 -144h223l41 144q16 61 74 61h149q60 0 43 -61l-41 -144h60q33 0 47 -12.5t14 -44.5v-109q0 -32 -14 -45.5 t-47 -13.5h-125l-35 -121h57q33 0 47.5 -12.5t14.5 -44.5v-109q0 -32 -14.5 -45.5t-47.5 -13.5h-122l-41 -146q-9 -32 -26 -46.5t-48 -14.5h-150q-28 0 -40 15.5t-3 45.5l41 146h-223l-41 -146q-9 -32 -26 -46.5t-48 -14.5h-149q-28 0 -40 15.5t-3 45.5l41 146h-64 q-33 0 -47 13.5t-14 45.5zM580 559h223l35 121h-224z" />
<glyph unicode="$" horiz-adv-x="1105" d="M123 446v43q0 30 12.5 43t42.5 13h189q30 0 42.5 -13t12.5 -43v-28q0 -66 129 -66q131 0 131 66v18q0 20 -16 32.5t-64 31.5l-289 110q-61 23 -111 88t-50 136v57q0 92 60 168t191 106v123q0 33 14 47.5t46 14.5h211q32 0 44.5 -14.5t12.5 -47.5v-127q124 -31 182 -106 t58 -164v-29q0 -31 -13 -44t-45 -13h-186q-30 0 -42.5 13t-12.5 44v29q0 65 -113 65q-110 0 -110 -65v-10q0 -39 43 -56l286 -102q205 -73 205 -221v-99q0 -86 -62.5 -157t-189.5 -103v-125q0 -33 -12.5 -47t-44.5 -14h-211q-32 0 -46 14.5t-14 46.5v119 q-143 26 -211.5 99.5t-68.5 166.5z" />
<glyph unicode="%" horiz-adv-x="1867" d="M123 973v192q0 244 340 244q338 0 338 -244v-192q0 -244 -338 -244q-340 0 -340 244zM389 985q0 -47 72 -47q74 0 74 47v170q0 45 -74 45q-72 0 -72 -45v-170zM450 21q-7 21 5 40l671 1270q30 62 88 62h177q27 0 34.5 -18.5t-6.5 -43.5l-671 -1270q-18 -33 -37.5 -47 t-51.5 -14h-176q-26 0 -33 21zM1067 223v193q0 243 340 243q338 0 338 -243v-193q0 -243 -338 -243q-340 0 -340 243zM1333 236q0 -48 72 -48q74 0 74 48v170q0 45 -74 45q-72 0 -72 -45v-170z" />
<glyph unicode="&#x26;" horiz-adv-x="1449" d="M102 326v159q0 163 164 234q-75 29 -109 79t-34 126v143q0 56 13 103.5t47 92.5t87 76.5t138 50.5t196 19q112 0 198.5 -20t140 -52.5t88 -78.5t48 -94.5t13.5 -104.5v-74q0 -33 -13 -47t-45 -14h-211q-32 0 -45.5 14t-13.5 47v25q0 133 -156 133q-77 0 -115 -32 t-38 -101v-35q0 -68 45.5 -100.5t124.5 -32.5h702q33 0 47.5 -13t14.5 -45v-149q0 -32 -14.5 -46t-47.5 -14h-104v-241q0 -56 -15.5 -104.5t-55.5 -94.5t-102 -78.5t-162 -52.5t-229 -20q-557 0 -557 342zM434 383q0 -69 57.5 -101t172.5 -32q231 0 231 133v192h-291 q-170 0 -170 -131v-61z" />
<glyph unicode="'" horiz-adv-x="528" d="M104 1331q-6 62 60 62h203q63 0 57 -62l-27 -327q-3 -34 -14.5 -48t-42.5 -14h-150q-31 0 -43.5 14t-15.5 48z" />
<glyph unicode="(" horiz-adv-x="733" d="M102 -127v1257q0 150 119 235t346 85h23q33 0 47 -13.5t14 -45.5v-146q0 -32 -14.5 -46.5t-46.5 -14.5h-23q-65 0 -96 -20.5t-31 -69.5v-1184q0 -49 31 -69.5t96 -20.5h23q32 0 46.5 -15t14.5 -47v-145q0 -32 -14 -45.5t-47 -13.5h-23q-227 0 -346 85t-119 234z" />
<glyph unicode=")" horiz-adv-x="733" d="M82 -242q0 32 14.5 47t46.5 15h23q65 0 96 20.5t31 69.5v1184q0 49 -31 69.5t-96 20.5h-23q-32 0 -46.5 14.5t-14.5 46.5v146q0 32 14 45.5t47 13.5h23q227 0 346 -85t119 -235v-1257q0 -149 -119 -234t-346 -85h-23q-33 0 -47 13.5t-14 45.5v145z" />
<glyph unicode="*" horiz-adv-x="1136" d="M126.5 859.5q5.5 18.5 37.5 31.5l205 86l-205 88q-32 13 -37.5 31.5t10.5 48.5l49 96q29 58 82 23l215 -140l-22 265q-3 33 11.5 47t47.5 14h109q63 0 57 -61l-22 -256l204 131q54 37 82 -21l51 -98q15 -27 10 -47t-36 -33l-207 -88l207 -86q31 -13 36 -33t-10 -47 l-51 -98q-28 -58 -82 -21l-202 129l20 -231q3 -33 -11.5 -47.5t-47.5 -14.5h-109q-63 0 -57 62l20 239l-213 -137q-53 -35 -82 23l-49 96q-16 30 -10.5 48.5z" />
<glyph unicode="+" horiz-adv-x="1128" d="M102 618v150q0 32 14.5 44.5t47.5 12.5h266v269q0 33 12.5 47t44.5 14h150q32 0 45.5 -14t13.5 -47v-269h269q33 0 47 -12.5t14 -44.5v-150q0 -32 -14 -45.5t-47 -13.5h-269v-266q0 -33 -13.5 -47.5t-45.5 -14.5h-150q-32 0 -44.5 14.5t-12.5 47.5v266h-266 q-33 0 -47.5 13.5t-14.5 45.5z" />
<glyph unicode="," horiz-adv-x="600" d="M35 -80q-20 58 41 76q51 15 69.5 35t18.5 55v143q0 33 13.5 47.5t45.5 14.5h217q32 0 45 -14.5t13 -47.5v-161q0 -251 -338 -328q-32 -8 -49 1t-27 40z" />
<glyph unicode="-" horiz-adv-x="874" d="M102 516v150q0 32 14.5 44.5t47.5 12.5h547q33 0 47 -12.5t14 -44.5v-150q0 -32 -14 -45.5t-47 -13.5h-547q-33 0 -47.5 13.5t-14.5 45.5z" />
<glyph unicode="." horiz-adv-x="538" d="M102 59v170q0 33 14 47.5t46 14.5h217q32 0 44.5 -14.5t12.5 -47.5v-170q0 -33 -12.5 -46t-44.5 -13h-217q-32 0 -46 13.5t-14 45.5z" />
<glyph unicode="/" horiz-adv-x="747" d="M4 -242l391 1612q8 32 23.5 47t46.5 15h231q63 0 47 -62l-391 -1612q-8 -33 -23 -47t-46 -14h-232q-29 0 -41.5 15.5t-5.5 45.5z" />
<glyph unicode="0" d="M82 334v725q0 69 27.5 129.5t84.5 111t157 80t233 29.5t233.5 -29.5t157.5 -80t84.5 -111t27.5 -129.5v-725q0 -69 -27.5 -129.5t-84.5 -111t-157.5 -80t-233.5 -29.5t-233 29.5t-157 80t-84.5 111t-27.5 129.5zM420 393q0 -68 44 -100.5t120 -32.5t121 33t45 100v606 q0 68 -45 101t-121 33t-120 -33t-44 -101v-606z" />
<glyph unicode="1" d="M125 59v160q0 32 14 44.5t47 12.5h254v809l-254 -36q-61 -9 -61 51v160q0 31 15 45.5t46 19.5l535 84q25 4 41 -7.5t16 -49.5v-1076h244q33 0 47 -12.5t14 -44.5v-160q0 -32 -14 -45.5t-47 -13.5h-836q-33 0 -47 13.5t-14 45.5z" />
<glyph unicode="2" d="M84 932v127q0 70 25.5 129.5t80.5 110.5t153.5 80.5t231.5 29.5t232.5 -29.5t156 -80t83.5 -111t28 -129.5v-131q0 -252 -198 -340l-347 -158q-48 -22 -62.5 -40.5t-14.5 -61.5v-52h571q33 0 47 -12.5t14 -44.5v-160q0 -32 -14 -45.5t-47 -13.5h-848q-33 0 -47 13.5 t-14 45.5v369q0 40 8.5 69.5t27 49.5t38 33t51.5 28l436 199q32 14 48.5 37.5t16.5 70.5v91q0 67 -45 100t-121 33t-119.5 -32.5t-43.5 -100.5v-74q0 -33 -13 -47.5t-45 -14.5h-211q-32 0 -45.5 14.5t-13.5 47.5z" />
<glyph unicode="3" d="M82 334v74q0 33 12.5 47t44.5 14h211q32 0 46 -14.5t14 -46.5v-25q0 -68 45.5 -100.5t124.5 -32.5t123.5 32.5t44.5 100.5v61q0 131 -170 131h-146q-32 0 -46.5 14t-14.5 46v149q0 32 14 45t47 13h125q79 0 124.5 32.5t45.5 100.5v35q0 133 -154 133q-155 0 -155 -133 v-25q0 -32 -14 -46.5t-46 -14.5h-211q-32 0 -44.5 14t-12.5 47v74q0 56 13.5 104.5t48 94.5t88 78.5t140 52.5t198.5 20q111 0 196 -19t138 -50.5t87 -76.5t47 -92.5t13 -103.5v-143q0 -76 -34.5 -126t-109.5 -79q164 -71 164 -234v-159q0 -70 -24.5 -128.5t-79 -108 t-154.5 -77.5t-237 -28q-112 0 -200 19.5t-143.5 52.5t-92 79t-51.5 95t-15 104z" />
<glyph unicode="4" d="M53 410v157q0 13 6 37l209 727q16 62 74 62h221q60 0 43 -62l-205 -704h318v704q0 33 13.5 47.5t45.5 14.5h221q32 0 45 -14.5t13 -47.5v-1270q0 -33 -13 -47t-45 -14h-221q-32 0 -45.5 14t-13.5 47v289h-604q-33 0 -47.5 14t-14.5 46z" />
<glyph unicode="5" d="M80 332v74q0 33 12.5 47t44.5 14h211q32 0 46 -14.5t14 -46.5v-25q0 -68 46.5 -100.5t125.5 -32.5t124.5 32.5t45.5 100.5v137q0 131 -170 131h-379q-32 0 -45 14.5t-13 47.5v620q0 33 13 47.5t45 14.5h780q33 0 47 -13t14 -45v-159q0 -32 -14.5 -46t-46.5 -14h-500v-201 h101q139 0 240.5 -29t157.5 -79.5t81.5 -110t25.5 -129.5v-235q0 -55 -15 -104t-51.5 -95t-92.5 -79t-144 -52.5t-200 -19.5q-139 0 -240.5 29.5t-157 80.5t-81 110.5t-25.5 129.5z" />
<glyph unicode="6" d="M96 334v725q0 55 14.5 104t50.5 95t90 79t139 52.5t192 19.5t191 -20t137 -52.5t87 -78.5t48 -94.5t14 -104.5v-62q0 -32 -14 -46.5t-46 -14.5h-211q-32 0 -44.5 14t-12.5 47v13q0 133 -149 133q-152 0 -152 -133v-195q95 45 201 45q113 0 200.5 -29.5t138.5 -80 t77 -111.5t26 -129v-176q0 -55 -15 -104t-51 -95t-91 -79t-140 -52.5t-192 -19.5t-192 19.5t-139.5 52.5t-90.5 79t-51 95t-15 104zM430 383q0 -133 154 -133q155 0 155 133v78q0 133 -155 133q-72 0 -113 -30t-41 -91v-90z" />
<glyph unicode="7" d="M76 1176v159q0 32 14 45t47 13h914q33 0 47 -13t14 -45v-155q0 -20 -10 -45l-486 -1074q-13 -29 -29.5 -45t-45.5 -16h-250q-69 0 -41 61l481 1055h-594q-32 0 -46.5 14t-14.5 46z" />
<glyph unicode="8" d="M98 334v170q0 140 162 211q-137 70 -137 209v135q0 56 12 104t44 94.5t82.5 79t133 52.5t189.5 20t189.5 -20t133.5 -52.5t83 -79t44.5 -94.5t12.5 -104v-135q0 -139 -140 -209q164 -72 164 -211v-170q0 -70 -25 -129.5t-79 -110.5t-152 -80.5t-231 -29.5 q-107 0 -192 19.5t-139 52.5t-90 79t-50.5 95t-14.5 104zM430 383q0 -133 154 -133q155 0 155 133v68q0 129 -155 129q-154 0 -154 -129v-68zM451 977q0 -70 32.5 -101.5t100.5 -31.5q69 0 102 32t33 101v33q0 70 -33 101.5t-102 31.5q-68 0 -100.5 -31.5t-32.5 -101.5v-33z " />
<glyph unicode="9" d="M96 883v176q0 70 25.5 129.5t80 110.5t153 80.5t231.5 29.5t231 -29.5t152 -80.5t79 -110.5t25 -129.5v-725q0 -55 -14.5 -104t-50 -95t-90 -79t-139 -52.5t-191.5 -19.5t-191 20t-137 52.5t-87 78.5t-48 94.5t-14 104.5v61q0 33 13.5 47.5t45.5 14.5h211 q32 0 44.5 -14.5t12.5 -47.5v-12q0 -133 150 -133q151 0 151 133v192q-91 -43 -200 -43q-113 0 -200.5 29.5t-139 80t-77.5 112t-26 129.5zM430 932q0 -133 156 -133q153 0 153 133v80q-3 131 -153 131q-156 0 -156 -133v-78z" />
<glyph unicode=":" horiz-adv-x="538" d="M102 59v170q0 33 14 47.5t46 14.5h217q32 0 44.5 -14.5t12.5 -47.5v-170q0 -33 -12.5 -46t-44.5 -13h-217q-32 0 -46 13.5t-14 45.5zM102 793v170q0 32 14 46.5t46 14.5h217q32 0 44.5 -14t12.5 -47v-170q0 -33 -12.5 -46.5t-44.5 -13.5h-217q-32 0 -46 14t-14 46z" />
<glyph unicode=";" horiz-adv-x="612" d="M47 -80q-20 58 41 76q51 15 69.5 35t18.5 55v143q0 33 14 47.5t46 14.5h217q32 0 44.5 -14.5t12.5 -47.5v-161q0 -251 -338 -328q-32 -8 -49 1t-27 40zM176 793v170q0 32 14 46.5t46 14.5h217q32 0 44.5 -14t12.5 -47v-170q0 -33 -12.5 -46.5t-44.5 -13.5h-217 q-32 0 -46 14t-14 46z" />
<glyph unicode="&#x3c;" horiz-adv-x="1054" d="M102 575v236q0 29 13.5 42t42.5 24l733 309q29 11 45 -7t16 -53v-200q0 -30 -14.5 -44t-46.5 -24l-471 -166l471 -164q32 -10 46.5 -23.5t14.5 -43.5v-201q0 -35 -16 -52.5t-45 -6.5l-733 309q-20 8 -29.5 13t-18 18.5t-8.5 33.5z" />
<glyph unicode="=" horiz-adv-x="1181" d="M102 354v150q0 32 14.5 44.5t47.5 12.5h854q33 0 47 -12.5t14 -44.5v-150q0 -32 -14 -45.5t-47 -13.5h-854q-33 0 -47.5 13.5t-14.5 45.5zM102 797v149q0 32 14.5 45t47.5 13h854q33 0 47 -13t14 -45v-149q0 -32 -14.5 -46t-46.5 -14h-854q-33 0 -47.5 14t-14.5 46z" />
<glyph unicode="&#x3e;" horiz-adv-x="1054" d="M102 260v201q0 30 15 43.5t47 23.5l471 164l-471 166q-32 10 -47 24t-15 44v200q0 35 16.5 53t45.5 7l733 -309q19 -7 29 -13t18 -19.5t8 -33.5v-236q0 -16 -3.5 -26.5t-12.5 -18t-16.5 -11t-22.5 -9.5l-733 -309q-29 -11 -45.5 7t-16.5 52z" />
<glyph unicode="?" horiz-adv-x="1155" d="M82 932v127q0 70 25.5 129.5t80.5 110.5t153.5 80.5t231.5 29.5t232.5 -29.5t156 -80t83.5 -111t28 -129.5v-70q0 -251 -199 -340l-120 -53q-49 -22 -63.5 -40.5t-14.5 -61.5v-45q0 -33 -13 -46.5t-45 -13.5h-221q-32 0 -45.5 14t-13.5 46v133q0 40 9 69.5t28.5 50 t38 32.5t49.5 28l211 106q30 15 47.5 39t17.5 70v29q0 67 -45 100t-121 33t-119.5 -32.5t-43.5 -100.5v-74q0 -33 -13 -47.5t-45 -14.5h-211q-32 0 -45.5 14.5t-13.5 47.5zM338 59v170q0 33 13.5 47.5t45.5 14.5h221q32 0 45 -14.5t13 -47.5v-170q0 -32 -13 -45.5t-45 -13.5 h-221q-32 0 -45.5 13.5t-13.5 45.5z" />
<glyph unicode="@" horiz-adv-x="2052" d="M123 174v680q0 57 8 105t32.5 101.5t65.5 95.5t110 81.5t162 65.5t226.5 41.5t298.5 15.5t298.5 -15.5t226.5 -41.5t162 -65.5t110 -81.5t65.5 -95.5t32.5 -101.5t8 -105v-432q0 -79 -23.5 -141.5t-73.5 -111t-135.5 -75t-201.5 -26.5q-243 0 -338 125 q-142 -125 -319 -125q-137 0 -200 66.5t-63 195.5q0 26 3 53l20 240q12 153 87.5 234t207.5 81q130 0 268 -94l4 16q8 34 21.5 48t44.5 14h186q59 0 53 -62l-38 -373q-4 -50 -4.5 -91.5t21 -68t67.5 -26.5q26 0 44 9.5t28 23.5t15.5 37t7 44t1.5 52v373q0 53 -14 91 t-51.5 71.5t-102.5 54t-169 32t-249 11.5q-180 0 -297.5 -17t-179.5 -52.5t-85.5 -80.5t-23.5 -112v-648q0 -67 23.5 -112t85.5 -80.5t179.5 -52.5t297.5 -17h350q32 0 47 -14.5t15 -46.5v-139q0 -32 -14.5 -46t-47.5 -14h-350q-165 0 -298.5 15.5t-226.5 41.5t-162 65.5 t-110 81.5t-65.5 95.5t-32.5 101.5t-8 105zM899 440q-3 -35 14.5 -56.5t65.5 -21.5q59 0 127 31v2l20 207q-67 51 -127 51q-81 0 -90 -96z" />
<glyph unicode="A" horiz-adv-x="1159" d="M23 61l370 1270q18 62 76 62h221q58 0 76 -62l371 -1270q4 -14 4 -25q0 -36 -49 -36h-228q-31 0 -47 15t-24 46l-54 197h-340l-53 -197q-8 -31 -24.5 -46t-47.5 -15h-206q-49 0 -49 36q0 11 4 25zM473 524h193l-29 111q-28 108 -64 428q0 -1 -5 -42.5t-11.5 -87.5 t-15 -102.5t-18.5 -109.5t-19 -86z" />
<glyph unicode="B" horiz-adv-x="1226" d="M123 61v1270q0 33 13.5 47.5t45.5 14.5h385q140 0 243 -25t162 -69.5t87 -100.5t28 -125v-112q0 -148 -139 -228q97 -39 152 -102.5t55 -143.5v-151q0 -55 -17 -103t-56 -91.5t-97.5 -74.5t-148 -49t-201.5 -18h-453q-32 0 -45.5 14t-13.5 47zM461 266h174q82 0 134 32.5 t52 98.5v66q0 56 -53.5 87.5t-132.5 31.5h-174v-316zM461 831h106q81 0 134 34t53 102v53q0 34 -14.5 56t-42.5 32.5t-57.5 14t-72.5 3.5h-106v-295z" />
<glyph unicode="C" horiz-adv-x="1181" d="M102 334v725q0 70 25.5 129.5t81 110.5t157 80.5t240.5 29.5t240.5 -29.5t157 -80.5t81 -110.5t25.5 -129.5v-94q0 -33 -12.5 -47.5t-44.5 -14.5h-211q-32 0 -46 14.5t-14 47.5v34q0 68 -46.5 101t-125.5 33t-124.5 -33t-45.5 -101v-606q0 -68 45.5 -100.5t124.5 -32.5 t125.5 32.5t46.5 100.5v66q0 32 14 46.5t46 14.5h211q32 0 44.5 -14t12.5 -47v-125q0 -70 -25.5 -129.5t-81 -110.5t-157 -80.5t-240.5 -29.5t-240.5 29.5t-157 80.5t-81 110.5t-25.5 129.5z" />
<glyph unicode="D" horiz-adv-x="1271" d="M123 61v1270q0 33 13.5 47.5t45.5 14.5h463q139 0 243.5 -29.5t164 -80.5t88 -111.5t28.5 -129.5v-692q0 -69 -28.5 -129.5t-88 -111t-164 -80t-243.5 -29.5h-471q-51 0 -51 61zM461 276h184q81 0 133.5 33.5t52.5 100.5v573q0 67 -52.5 100t-133.5 33h-184v-840z" />
<glyph unicode="E" horiz-adv-x="1036" d="M123 61v1270q0 33 13.5 47.5t45.5 14.5h701q33 0 47 -13t14 -45v-159q0 -32 -14.5 -46t-46.5 -14h-422v-266h389q33 0 47 -12.5t14 -44.5v-150q0 -32 -14 -45.5t-47 -13.5h-389v-308h442q33 0 47.5 -12.5t14.5 -44.5v-160q0 -32 -14.5 -45.5t-47.5 -13.5h-721 q-32 0 -45.5 14t-13.5 47z" />
<glyph unicode="F" horiz-adv-x="1052" d="M123 61v1270q0 33 13.5 47.5t45.5 14.5h748q33 0 47 -13t14 -45v-159q0 -32 -14.5 -46t-46.5 -14h-469v-266h436q33 0 47 -12.5t14 -44.5v-160q0 -32 -14.5 -46t-46.5 -14h-436v-512q0 -33 -13 -47t-45 -14h-221q-32 0 -45.5 14t-13.5 47z" />
<glyph unicode="G" horiz-adv-x="1202" d="M102 334v725q0 70 25.5 129.5t81 110.5t157 80.5t240.5 29.5t240.5 -29.5t157 -80.5t81 -110.5t25.5 -129.5v-74q0 -33 -12.5 -47t-44.5 -14h-211q-32 0 -46 14.5t-14 46.5v14q0 68 -46.5 101t-125.5 33t-124.5 -33t-45.5 -101v-606q0 -68 45.5 -100.5t124.5 -32.5 t125.5 32.5t46.5 100.5v88h-168q-32 0 -46.5 14t-14.5 46v159q0 32 14 45t47 13h435q33 0 47 -13t14 -45v-366q0 -70 -25.5 -129.5t-81 -110.5t-157 -80.5t-240.5 -29.5t-240.5 29.5t-157 80.5t-81 110.5t-25.5 129.5z" />
<glyph unicode="H" horiz-adv-x="1292" d="M123 61v1270q0 33 13.5 47.5t45.5 14.5h221q32 0 45 -14.5t13 -47.5v-487h370v487q0 33 14 47.5t46 14.5h221q32 0 44.5 -14.5t12.5 -47.5v-1270q0 -33 -12.5 -47t-44.5 -14h-221q-32 0 -46 14.5t-14 46.5v506h-370v-506q0 -33 -13 -47t-45 -14h-221q-32 0 -45.5 14 t-13.5 47z" />
<glyph unicode="I" horiz-adv-x="583" d="M123 61v1270q0 33 13.5 47.5t45.5 14.5h221q32 0 45 -14.5t13 -47.5v-1270q0 -33 -13 -47t-45 -14h-221q-32 0 -45.5 14t-13.5 47z" />
<glyph unicode="J" horiz-adv-x="1071" d="M20 334v135q0 32 14 46.5t46 14.5h215q32 0 44.5 -14t12.5 -47v-76q0 -68 38 -100.5t106 -32.5q65 0 95 31.5t30 101.5v938q0 33 13.5 47.5t45.5 14.5h221q32 0 44.5 -14.5t12.5 -47.5v-997q0 -56 -13 -104.5t-46 -94.5t-84.5 -78.5t-133 -52.5t-185.5 -20 q-130 0 -225.5 29.5t-148.5 80.5t-77.5 110.5t-24.5 129.5z" />
<glyph unicode="K" horiz-adv-x="1228" d="M123 61v1270q0 33 13.5 47.5t45.5 14.5h221q32 0 45 -14.5t13 -47.5v-522h20l314 522q38 62 96 62h235q31 0 38 -18.5t-9 -43.5l-389 -622l440 -648q11 -16 11 -29q-1 -6 -3 -13q-8 -19 -38 -19h-283q-47 0 -86 61l-324 502h-22v-502q0 -33 -13 -47t-45 -14h-221 q-32 0 -45.5 14t-13.5 47z" />
<glyph unicode="L" horiz-adv-x="964" d="M123 61v1270q0 33 13.5 47.5t45.5 14.5h221q32 0 45 -14.5t13 -47.5v-1055h401q33 0 47.5 -12.5t14.5 -44.5v-160q0 -32 -14.5 -45.5t-47.5 -13.5h-688q-51 0 -51 61z" />
<glyph unicode="M" horiz-adv-x="1548" d="M123 61v1270q0 33 13.5 47.5t45.5 14.5h201q37 0 53 -33l279 -627q13 -31 27 -69.5t22.5 -64l9.5 -28.5q0 2 6.5 21.5t21 57.5t32.5 79l268 635q12 29 55 29h211q32 0 44.5 -14.5t12.5 -47.5v-1270q0 -33 -12.5 -47t-44.5 -14h-211q-32 0 -45.5 14t-13.5 47v650 q0 -1 -7.5 -27t-17 -58t-21 -69.5t-20.5 -60.5l-90 -224q-24 -61 -80 -61h-178q-52 0 -78 61l-112 260q-25 58 -54 173v-644q0 -33 -12.5 -47t-44.5 -14h-201q-32 0 -45.5 14t-13.5 47z" />
<glyph unicode="N" horiz-adv-x="1292" d="M123 61v1270q0 33 13.5 47.5t45.5 14.5h201q39 0 51 -25l346 -580q32 -55 72 -153v696q0 33 13.5 47.5t45.5 14.5h201q32 0 44.5 -14.5t12.5 -47.5v-1270q0 -33 -12.5 -47t-44.5 -14h-201q-38 0 -55 29l-328 544q-36 57 -88 185v-697q0 -33 -12.5 -47t-44.5 -14h-201 q-32 0 -45.5 14t-13.5 47z" />
<glyph unicode="O" horiz-adv-x="1251" d="M102 334v725q0 69 28.5 129.5t87.5 111t163.5 80t243.5 29.5t243.5 -29.5t164 -80t88 -111t28.5 -129.5v-725q0 -69 -28.5 -129.5t-88 -111t-164 -80t-243.5 -29.5t-243.5 29.5t-163.5 80t-87.5 111t-28.5 129.5zM440 393q0 -67 52 -100t133 -33t133.5 33t52.5 100v606 q0 67 -52.5 100.5t-133.5 33.5t-133 -33.5t-52 -100.5v-606z" />
<glyph unicode="P" horiz-adv-x="1200" d="M123 61v1270q0 33 13.5 47.5t45.5 14.5h443q139 0 243 -29.5t162.5 -80.5t86.5 -111.5t28 -129.5v-219q0 -69 -28 -129.5t-86.5 -111t-162.5 -80t-243 -29.5h-164v-412q0 -33 -13 -47t-45 -14h-221q-32 0 -45.5 14t-13.5 47zM461 750h164q81 0 133.5 33t52.5 100v100 q0 67 -52.5 100t-133.5 33h-164v-366z" />
<glyph unicode="Q" horiz-adv-x="1251" d="M102 334v725q0 69 28.5 129.5t87.5 111t163.5 80t243.5 29.5t243.5 -29.5t164 -80t88 -111t28.5 -129.5v-725q0 -70 -27 -130t-91 -111.5t-161 -78.5l195 -172q27 -23 27 -46q0 -19 -19 -38l-110 -118q-21 -23 -44 -23q-19 0 -40 18l-387 357q-200 25 -295 119t-95 223z M440 385q0 -67 52 -100t133 -33t133.5 33t52.5 100v623q0 67 -52.5 100t-133.5 33t-133 -33t-52 -100v-623z" />
<glyph unicode="R" horiz-adv-x="1236" d="M123 61v1270q0 33 13.5 47.5t45.5 14.5h443q139 0 243 -29.5t162.5 -80.5t86.5 -111.5t28 -129.5v-178q0 -94 -51.5 -173t-161.5 -126l201 -504q10 -27 -6.5 -44t-51.5 -17h-221q-8 0 -14.5 1.5t-12 6t-9 7t-7.5 10.5l-5.5 11t-5.5 13t-5 12l-181 453h-153v-453 q0 -33 -13 -47t-45 -14h-221q-32 0 -45.5 14t-13.5 47zM461 791h164q81 0 133.5 33t52.5 100v59q0 67 -52.5 100t-133.5 33h-164v-325z" />
<glyph unicode="S" horiz-adv-x="1177" d="M82 334v137q0 33 13.5 47t45.5 14h213q32 0 45 -14t13 -47v-92q0 -67 49.5 -98t130.5 -31t131.5 31t50.5 98v41q0 18 -6.5 33.5t-23 29t-28.5 22.5t-39 20.5t-37.5 16t-41.5 15.5l-295 111q-80 30 -135 107t-55 165v119q0 56 13.5 104.5t48.5 94.5t88.5 78.5t139 52.5 t195.5 20t196.5 -19.5t141.5 -52.5t91 -79t50.5 -95t14.5 -104v-76q0 -32 -14 -46.5t-46 -14.5h-213q-32 0 -44.5 14t-12.5 47v31q0 129 -160 129q-162 0 -162 -129v-21q0 -36 21 -58t45 -30l344 -117q118 -40 187 -119t69 -190v-145q0 -55 -15.5 -104t-53.5 -95t-95 -79 t-145.5 -52.5t-200.5 -19.5q-139 0 -242 29.5t-160.5 80.5t-84.5 110.5t-27 129.5z" />
<glyph unicode="T" horiz-adv-x="1017" d="M16 1176v159q0 32 14.5 45t47.5 13h862q33 0 47 -13t14 -45v-159q0 -32 -14.5 -46t-46.5 -14h-262v-1055q0 -33 -12.5 -47t-44.5 -14h-222q-32 0 -45.5 14t-13.5 47v1055h-262q-33 0 -47.5 14t-14.5 46z" />
<glyph unicode="U" horiz-adv-x="1271" d="M113 334v997q0 33 13.5 47.5t45.5 14.5h221q32 0 45 -14.5t13 -47.5v-938q0 -67 51.5 -100t132.5 -33t133.5 33t52.5 100v938q0 33 14 47.5t46 14.5h221q32 0 44.5 -14.5t12.5 -47.5v-997q0 -69 -28.5 -129.5t-88 -111t-164 -80t-243.5 -29.5t-243 29.5t-163 80 t-87.5 111t-28.5 129.5z" />
<glyph unicode="V" horiz-adv-x="1159" d="M23 1331q-4 14 -4 25q0 37 49 37h241q56 0 72 -62l154 -573q14 -51 26.5 -134.5t18.5 -141.5l6 -58q26 219 57 334l156 573q8 31 24 46.5t47 15.5h222q49 0 49 -37q0 -11 -4 -25l-371 -1270q-9 -32 -26.5 -46.5t-49.5 -14.5h-221q-32 0 -49.5 14.5t-26.5 46.5z" />
<glyph unicode="W" horiz-adv-x="1751" d="M20 1331q-3 13 -3 23q0 39 49 39h225q31 0 47 -15.5t24 -46.5l140 -573q6 -28 13.5 -68.5t13 -74.5t6.5 -40q12 85 36 183l146 573q8 31 24 46.5t47 15.5h207q56 0 72 -62l139 -571q25 -101 35 -221q19 148 37 219l143 573q16 62 72 62h193q48 0 48 -39q0 -10 -3 -23 l-320 -1270q-14 -61 -76 -61h-215q-51 0 -67 61l-148 590q-17 73 -28 207q-12 -124 -31 -209l-148 -588q-14 -61 -75 -61h-215q-52 0 -68 61z" />
<glyph unicode="X" horiz-adv-x="1196" d="M34 24l-2 12q0 17 11 36l360 651l-344 602q-17 26 -11.5 47t36.5 21h254q54 0 88 -62l186 -327l174 327q32 62 88 62h234q31 0 38 -18t-9 -44l-361 -612l377 -658q10 -17 10 -30q-1 -7 -3 -13q-8 -18 -38 -18h-254q-53 0 -86 61l-209 363l-182 -363q-30 -61 -86 -61h-237 q-28 0 -34 24z" />
<glyph unicode="Y" horiz-adv-x="1142" d="M24 1376q12 17 44 17h249q54 0 74 -62l146 -407q12 -36 34 -123q17 69 41 123l172 407q12 31 27.5 46.5t44.5 15.5h217q33 0 45 -17q7 -8 7 -19t-7 -26l-377 -815v-455q0 -33 -12.5 -47t-44.5 -14h-221q-32 0 -46 14.5t-14 46.5v414l-378 856q-6 14 -6 26q0 11 5 19z" />
<glyph unicode="Z" horiz-adv-x="1011" d="M51 59v160q0 24 10 41l478 856h-392q-32 0 -46.5 14t-14.5 46v159q0 32 14 45t47 13h736q33 0 47 -13t14 -45v-159q0 -22 -12 -46l-475 -854h463q33 0 47 -12.5t14 -44.5v-160q0 -32 -14 -45.5t-47 -13.5h-807q-33 0 -47.5 13.5t-14.5 45.5z" />
<glyph unicode="[" horiz-adv-x="833" d="M102 -371v1741q0 33 14 47.5t46 14.5h508q33 0 47 -13t14 -45v-160q0 -32 -14 -45.5t-47 -13.5h-230v-1311h230q33 0 47 -13.5t14 -45.5v-160q0 -32 -14 -44.5t-47 -12.5h-508q-32 0 -46 14.5t-14 46.5z" />
<glyph unicode="\" horiz-adv-x="747" d="M4 1370q-16 62 47 62h232q31 0 46 -14.5t23 -47.5l391 -1612q7 -30 -5.5 -45.5t-41.5 -15.5h-231q-32 0 -47 14t-23 47z" />
<glyph unicode="]" horiz-adv-x="833" d="M102 -215q0 32 14.5 45.5t47.5 13.5h229v1311h-229q-33 0 -47.5 13.5t-14.5 45.5v160q0 32 14.5 45t47.5 13h508q32 0 45.5 -14.5t13.5 -47.5v-1741q0 -33 -13.5 -47t-45.5 -14h-508q-33 0 -47.5 12.5t-14.5 44.5v160z" />
<glyph unicode="^" horiz-adv-x="1200" d="M106 604l310 733q8 20 13 29.5t18.5 18t33.5 8.5h236q20 0 33.5 -8.5t18.5 -18t13 -29.5l310 -733q11 -29 -7 -45t-53 -16h-201q-30 0 -43.5 14.5t-23.5 46.5l-166 471l-164 -471q-10 -32 -23.5 -46.5t-43.5 -14.5h-201q-35 0 -53 16t-7 45z" />
<glyph unicode="_" horiz-adv-x="956" d="M41 -199q0 32 14 45t47 13h752q33 0 47 -13t14 -45v-149q0 -32 -14.5 -46t-46.5 -14h-752q-32 0 -46.5 14t-14.5 46v149z" />
<glyph unicode="`" horiz-adv-x="626" d="M80 1432.5q9 17.5 41 17.5h219q58 0 84 -61l82 -189q25 -59 -33 -59h-162q-53 0 -80 41l-141 207q-19 26 -10 43.5z" />
<glyph unicode="a" horiz-adv-x="1069" d="M78 246v88q0 110 87.5 187t240.5 77h249v113q0 49 -26.5 71.5t-89.5 22.5q-66 0 -94.5 -19t-28.5 -65v-14q0 -32 -14 -46t-46 -14h-186q-32 0 -45.5 14t-13.5 46v24q0 309 434 309q225 0 328.5 -79t103.5 -230v-670q0 -33 -13.5 -47t-45.5 -14h-189q-32 0 -43 13t-16 48 l-4 31q-130 -108 -287 -108q-147 0 -224 76t-77 186zM397 291q0 -53 70 -53q81 0 188 75v68h-188q-70 0 -70 -64v-26z" />
<glyph unicode="b" horiz-adv-x="1122" d="M102 61v1309q0 33 14 47.5t46 14.5h211q32 0 44.5 -14.5t12.5 -47.5v-436q134 106 307 106q152 0 227.5 -82.5t75.5 -232.5v-426q0 -150 -75.5 -232.5t-227.5 -82.5q-173 0 -315 112l-4 -35q-3 -33 -16 -47t-44 -14h-196q-32 0 -46 14.5t-14 46.5zM430 348 q111 -84 203 -84q28 0 45.5 7t24 21.5t8.5 26t2 31.5v324q0 20 -2 31.5t-8.5 26t-24 21.5t-45.5 7q-92 0 -203 -84v-328z" />
<glyph unicode="c" horiz-adv-x="1019" d="M82 303v418q0 151 109.5 235t334.5 84t334 -83.5t109 -235.5v-31q0 -32 -14 -45.5t-46 -13.5h-194q-32 0 -46 13.5t-14 45.5v6q0 50 -28.5 69t-94.5 19t-94 -19t-28 -69v-366q0 -50 28 -70t94 -20t94.5 20t28.5 70v24q0 32 14 46t46 14h194q32 0 46 -14t14 -46v-51 q0 -151 -110 -235t-335 -84t-333.5 83.5t-108.5 235.5z" />
<glyph unicode="d" horiz-adv-x="1122" d="M82 299v426q0 150 75.5 232.5t227.5 82.5q168 0 307 -106v436q0 33 13 47.5t45 14.5h211q32 0 45.5 -14.5t13.5 -47.5v-1309q0 -33 -13.5 -47t-45.5 -14h-197q-31 0 -43.5 13.5t-15.5 47.5l-5 35q-142 -112 -315 -112q-152 0 -227.5 82.5t-75.5 232.5zM410 350 q0 -20 1.5 -31.5t8.5 -26t24 -21.5t45 -7q86 0 203 84v328q-117 84 -203 84q-28 0 -45 -7t-24 -21.5t-8.5 -26t-1.5 -31.5v-324z" />
<glyph unicode="e" horiz-adv-x="1030" d="M82 303v418q0 152 108.5 235.5t333.5 83.5q430 0 430 -319v-227q0 -29 -13 -42.5t-42 -13.5h-498v-123q0 -46 29.5 -68t93.5 -22q125 0 125 90v2q0 32 14 46t46 14h176q32 0 45.5 -14t13.5 -46v-14q0 -154 -99 -236.5t-321 -82.5q-225 0 -333.5 83.5t-108.5 235.5z M401 647h248v60q0 92 -125 92q-123 0 -123 -92v-60z" />
<glyph unicode="f" horiz-adv-x="741" d="M31 823v125q0 31 12.5 43t46.5 17l100 12h3v100q0 150 118.5 235t345.5 85h23q32 0 46.5 -14t14.5 -46v-145q0 -32 -14.5 -46.5t-46.5 -14.5h-23q-137 0 -137 -91v-63h146q33 0 47 -12.5t14 -44.5v-140q0 -32 -14 -45.5t-47 -13.5h-146v-703q0 -33 -12.5 -47t-44.5 -14 h-211q-32 0 -45.5 14t-13.5 47v703h-103q-32 0 -45.5 13.5t-13.5 45.5z" />
<glyph unicode="g" horiz-adv-x="1122" d="M82 299v426q0 150 75.5 232.5t227.5 82.5q173 0 317 -114l5 37q5 35 16 48t43 13h195q32 0 45.5 -14t13.5 -47v-1051q0 -150 -119 -235t-346 -85h-293q-32 0 -46.5 14t-14.5 46v145q0 32 14.5 47t46.5 15h293q137 0 137 90v139q-143 -104 -307 -104q-152 0 -227.5 82.5 t-75.5 232.5zM410 350q0 -20 1.5 -31.5t8.5 -26t24 -21.5t45 -7q86 0 203 84v328q-117 84 -203 84q-28 0 -45 -7t-24 -21.5t-8.5 -26t-1.5 -31.5v-324z" />
<glyph unicode="h" horiz-adv-x="1132" d="M102 61v1309q0 33 14 47.5t46 14.5h211q32 0 44.5 -14.5t12.5 -47.5v-432q129 102 309 102q138 0 219.5 -79t81.5 -205v-695q0 -33 -13.5 -47t-45.5 -14h-207q-32 0 -46.5 14.5t-14.5 46.5v611q0 50 -15 69t-63 19q-97 0 -205 -82v-617q0 -33 -12.5 -47t-44.5 -14h-211 q-32 0 -46 14.5t-14 46.5z" />
<glyph unicode="i" horiz-adv-x="532" d="M102 61v902q0 32 14 46.5t46 14.5h211q32 0 44.5 -14t12.5 -47v-902q0 -33 -12.5 -47t-44.5 -14h-211q-32 0 -46 14.5t-14 46.5zM102 1200v170q0 33 14 47.5t46 14.5h211q32 0 44.5 -14.5t12.5 -47.5v-170q0 -33 -12.5 -46t-44.5 -13h-211q-32 0 -46 13.5t-14 45.5z" />
<glyph unicode="j" horiz-adv-x="532" d="M-119 -203q0 62 62 62h22q137 0 137 90v1014q0 33 13 47t45 14h211q32 0 45.5 -14t13.5 -47v-1051q0 -150 -119 -235t-346 -85h-22q-33 0 -47.5 14t-14.5 46v145zM102 1200v170q0 33 14 47.5t46 14.5h211q32 0 44.5 -14.5t12.5 -47.5v-170q0 -33 -12.5 -46t-44.5 -13 h-211q-32 0 -46 13.5t-14 45.5z" />
<glyph unicode="k" horiz-adv-x="1046" d="M102 61v1309q0 33 14 47.5t46 14.5h211q32 0 44.5 -14.5t12.5 -47.5v-676h33l211 269q49 61 96 61h227q31 0 39 -19.5t-10 -41.5l-303 -381l321 -521q11 -16 11 -29q-1 -6 -3 -13q-8 -19 -38 -19h-228q-47 0 -86 61l-237 388h-33v-388q0 -33 -12.5 -47t-44.5 -14h-211 q-32 0 -46 14.5t-14 46.5z" />
<glyph unicode="l" horiz-adv-x="532" d="M102 61v1309q0 33 14 47.5t46 14.5h211q32 0 44.5 -14.5t12.5 -47.5v-1309q0 -33 -12.5 -47t-44.5 -14h-211q-32 0 -46 14.5t-14 46.5z" />
<glyph unicode="m" horiz-adv-x="1718" d="M102 61v904q0 32 14 45.5t46 13.5h196q32 0 44.5 -13t15.5 -46l2 -35q129 110 307 110q90 0 158 -36t104 -99q30 26 50.5 41.5t64.5 41.5t100 39t121 13q138 0 219.5 -79t81.5 -205v-695q0 -33 -13.5 -47t-45.5 -14h-207q-32 0 -47 14.5t-15 46.5v611q0 50 -15 69t-62 19 q-54 0 -106 -25.5t-87 -56.5v-617q0 -33 -13.5 -47t-45.5 -14h-207q-32 0 -47 14.5t-15 46.5v611q0 50 -15 69t-62 19q-54 0 -106 -25.5t-87 -56.5v-617q0 -33 -12.5 -47t-44.5 -14h-211q-32 0 -46 14.5t-14 46.5z" />
<glyph unicode="n" horiz-adv-x="1132" d="M102 61v904q0 32 14 45.5t46 13.5h196q32 0 44.5 -13t15.5 -46l4 -35q133 110 317 110q138 0 219.5 -79t81.5 -205v-695q0 -33 -13.5 -47t-45.5 -14h-207q-32 0 -46.5 14.5t-14.5 46.5v611q0 50 -15 69t-63 19q-97 0 -205 -82v-617q0 -33 -12.5 -47t-44.5 -14h-211 q-32 0 -46 14.5t-14 46.5z" />
<glyph unicode="o" horiz-adv-x="1101" d="M82 303v418q0 149 120.5 234t348.5 85t348.5 -85t120.5 -234v-418q0 -149 -120.5 -234t-348.5 -85t-348.5 85t-120.5 234zM410 332q0 -92 141 -92t141 92v362q0 90 -141 90t-141 -90v-362z" />
<glyph unicode="p" horiz-adv-x="1122" d="M102 -346v1309q0 32 14 46.5t46 14.5h196q31 0 44 -14t16 -47l4 -35q40 30 72.5 50t100.5 41t142 21q152 0 227.5 -82.5t75.5 -232.5v-426q0 -150 -75.5 -232.5t-227.5 -82.5q-169 0 -307 104v-434q0 -33 -12.5 -47.5t-44.5 -14.5h-211q-32 0 -46 14.5t-14 47.5zM430 348 q111 -84 203 -84q28 0 45.5 7t24 21.5t8.5 26t2 31.5v324q0 20 -2 31.5t-8.5 26t-24 21.5t-45.5 7q-92 0 -203 -84v-328z" />
<glyph unicode="q" horiz-adv-x="1122" d="M82 299v426q0 150 75.5 232.5t227.5 82.5q74 0 141.5 -21t100.5 -41t73 -50l5 35q3 34 15.5 47.5t43.5 13.5h197q32 0 45.5 -14t13.5 -47v-1309q0 -33 -13.5 -47.5t-45.5 -14.5h-211q-32 0 -45 14.5t-13 47.5v434q-143 -104 -307 -104q-152 0 -227.5 82.5t-75.5 232.5z M410 350q0 -20 1.5 -31.5t8.5 -26t24 -21.5t45 -7q86 0 203 84v328q-117 84 -203 84q-28 0 -45 -7t-24 -21.5t-8.5 -26t-1.5 -31.5v-324z" />
<glyph unicode="r" horiz-adv-x="784" d="M102 61v904q0 32 14 45.5t46 13.5h196q32 0 44.5 -13t15.5 -46l6 -58q114 133 283 133q33 0 47 -13.5t14 -45.5v-160q0 -31 -14 -44.5t-47 -16.5q-171 -16 -277 -113v-586q0 -33 -12.5 -47t-44.5 -14h-211q-32 0 -46 14.5t-14 46.5z" />
<glyph unicode="s" horiz-adv-x="972" d="M61 262v43q0 29 12.5 42t43.5 13h188q30 0 42.5 -12.5t12.5 -42.5v-29q0 -65 129 -65q132 0 132 65v19q0 20 -15.5 32t-64.5 31l-289 111q-61 23 -111.5 87.5t-50.5 135.5v58q0 54 21 103t66.5 92t128.5 69t194 26q90 0 161.5 -17.5t117 -45.5t75.5 -66.5t42.5 -78 t12.5 -82.5v-29q0 -31 -12.5 -44t-44.5 -13h-186q-31 0 -43.5 13t-12.5 44v29q0 65 -112 65q-111 0 -111 -65v-11q0 -38 43 -55l287 -102q205 -73 205 -222v-98q0 -53 -24.5 -101t-74 -88.5t-135.5 -64.5t-199 -24t-198.5 24t-134 65t-72 88.5t-23.5 100.5z" />
<glyph unicode="t" horiz-adv-x="759" d="M20 823v125q0 31 13 43t47 17l88 12h2v186q0 33 13.5 47.5t45.5 14.5h211q32 0 45 -14.5t13 -47.5v-186h166q33 0 47 -12.5t14 -44.5v-140q0 -32 -14 -45.5t-47 -13.5h-166v-408q0 -49 32.5 -69.5t98.5 -20.5h49q32 0 46.5 -14.5t14.5 -46.5v-146q0 -32 -14 -45.5 t-47 -13.5h-103q-225 0 -315 76t-90 243v445h-90q-32 0 -46 13.5t-14 45.5z" />
<glyph unicode="u" horiz-adv-x="1120" d="M92 268v695q0 32 14 46.5t46 14.5h206q32 0 47 -14.5t15 -46.5v-611q0 -50 15 -69t63 -19q91 0 192 80v619q0 33 13 47t45 14h210q32 0 46 -14.5t14 -46.5v-904q0 -32 -14 -45.5t-46 -13.5h-196q-31 0 -43 12.5t-17 46.5l-4 33q-127 -108 -305 -108q-138 0 -219.5 79 t-81.5 205z" />
<glyph unicode="v" horiz-adv-x="1011" d="M14 963q-4 11 -4 20q0 16 12 26q18 15 52 15h217q30 0 44.5 -15t22.5 -46l111 -365q21 -70 37 -215q17 133 45 213l127 367q10 32 23.5 46.5t43.5 14.5h193q35 0 52 -15q11 -9 11 -25q0 -9 -4 -21l-319 -908q-8 -24 -13 -33.5t-16.5 -15.5t-32.5 -6h-241q-30 0 -40 10.5 t-22 44.5z" />
<glyph unicode="w" horiz-adv-x="1523" d="M14 963q-3 11 -3 19q-1 17 11 27q18 15 52 15h200q30 0 45 -15t23 -46l119 -455q4 -20 8 -45t5.5 -41.5t2.5 -18.5q0 12 25 105l127 455q8 31 22.5 46t44.5 15h199q55 0 68 -61l98 -455l18 -105q14 71 23 105l115 455q8 31 22.5 46t44.5 15h166q34 0 51 -15 q11 -10 11 -26q0 -9 -3 -20l-260 -908q-10 -34 -20.5 -44.5t-40.5 -10.5h-252q-30 0 -43 12.5t-19 42.5l-83 391q-19 82 -19 113q-1 -2 -5 -20.5t-10.5 -46t-11.5 -46.5l-116 -391q-8 -31 -20 -43t-42 -12h-245q-30 0 -42 11.5t-20 43.5z" />
<glyph unicode="x" horiz-adv-x="983" d="M-6 19q-3 6 -3 13q0 14 11 29l307 463l-289 439q-18 25 -10.5 43t39.5 18h227q30 0 49.5 -15.5t39.5 -45.5l145 -220l131 220q35 61 88 61h201q30 0 38 -18q2 -5 3 -11q0 -14 -13 -32l-296 -451l299 -451q11 -15 11 -29q0 -7 -3 -13q-8 -19 -39 -19h-228q-47 0 -86 61 l-153 232l-144 -232q-39 -61 -86 -61h-200q-31 0 -39 19z" />
<glyph unicode="y" horiz-adv-x="1011" d="M14 963q-4 10 -4 19q0 16 12 26q18 16 52 16h209q30 0 43.5 -14.5t23.5 -46.5l117 -371q8 -27 14.5 -56.5t10.5 -52.5t6.5 -42.5t4 -31.5t1.5 -14q2 13 19.5 82t29.5 105l127 381q10 32 24 46.5t44 14.5h190q34 0 52 -16q11 -10 11 -26q0 -8 -4 -19l-444 -1309 q-9 -29 -24 -45.5t-44 -16.5h-151q-34 0 -51.5 16t-8.5 46l88 311z" />
<glyph unicode="z" horiz-adv-x="907" d="M51 59v150q0 23 12 43l369 506h-282q-33 0 -47.5 13.5t-14.5 45.5v150q0 32 14.5 44.5t47.5 12.5h624q33 0 47.5 -12.5t14.5 -44.5v-148q0 -25 -13 -45l-372 -508h364q33 0 47.5 -12.5t14.5 -44.5v-150q0 -32 -14.5 -45.5t-47.5 -13.5h-702q-33 0 -47.5 13.5t-14.5 45.5z " />
<glyph unicode="{" horiz-adv-x="923" d="M102 438v144q0 32 15 46.5t47 14.5h2q65 0 96 20.5t31 69.5v397q0 150 119 235t346 85h22q33 0 47.5 -13.5t14.5 -45.5v-146q0 -32 -15 -46.5t-47 -14.5h-22q-65 0 -96 -20.5t-31 -69.5v-396q0 -134 -107 -188q107 -57 107 -188v-412q0 -49 31 -69.5t96 -20.5h22 q62 0 62 -62v-145q0 -32 -14.5 -45.5t-47.5 -13.5h-22q-227 0 -346 85t-119 234v414q0 49 -31 69.5t-96 20.5h-2q-32 0 -47 14.5t-15 46.5z" />
<glyph unicode="|" horiz-adv-x="583" d="M123 -371v1741q0 33 13.5 47.5t45.5 14.5h221q32 0 45 -14.5t13 -47.5v-1741q0 -33 -13 -47t-45 -14h-221q-32 0 -45.5 14t-13.5 47z" />
<glyph unicode="}" horiz-adv-x="923" d="M82 -242q0 32 14.5 47t46.5 15h23q65 0 96 20.5t31 69.5v412q0 132 106 188q-106 53 -106 188v396q0 49 -31 69.5t-96 20.5h-23q-32 0 -46.5 14.5t-14.5 46.5v146q0 32 14 45.5t47 13.5h23q227 0 346 -85t119 -235v-397q0 -49 31 -69.5t96 -20.5h2q32 0 46.5 -14.5 t14.5 -46.5v-144q0 -32 -14.5 -46.5t-46.5 -14.5h-2q-65 0 -96 -20.5t-31 -69.5v-414q0 -149 -119 -234t-346 -85h-23q-33 0 -47 13.5t-14 45.5v145z" />
<glyph unicode="~" horiz-adv-x="1048" d="M104 471l11 115q6 63 35.5 105.5t66.5 59.5t78 17q73 0 123 -23l182 -81q58 -23 80 -23q13 0 23.5 14.5t15.5 34.5l2 8q8 31 21.5 42.5t43.5 11.5h107q61 0 51 -70l-12 -94q-13 -99 -62.5 -150t-117.5 -51q-69 0 -134 29l-182 84q-40 18 -63 18q-34 0 -45 -55l-2 -8 q-7 -32 -21.5 -43t-44.5 -11h-106q-56 0 -50 70z" />
<glyph unicode="&#xa1;" horiz-adv-x="589" d="M123 225l33 348q3 34 14.5 48t42.5 14h158q31 0 43.5 -14t15.5 -48l33 -348v-532q0 -33 -14 -47.5t-46 -14.5h-223q-32 0 -44.5 14.5t-12.5 47.5v532zM127 795v170q0 33 12.5 46t44.5 13h222q32 0 45.5 -13.5t13.5 -45.5v-170q0 -33 -13.5 -47.5t-45.5 -14.5h-222 q-32 0 -44.5 14.5t-12.5 47.5z" />
<glyph unicode="&#xa2;" horiz-adv-x="1132" d="M123 487v418q0 124 72.5 202.5t222.5 104.5v119q0 33 13.5 47.5t45.5 14.5h211q32 0 44.5 -14.5t12.5 -47.5v-125q265 -60 265 -301v-31q0 -32 -14 -45.5t-46 -13.5h-194q-32 0 -46 13.5t-14 45.5v7q0 50 -28.5 69t-94.5 19t-94 -19t-28 -69v-367q0 -50 28 -70t94 -20 t94.5 20t28.5 70v25q0 32 14 45.5t46 13.5h194q32 0 46 -13.5t14 -45.5v-52q0 -241 -265 -301v-125q0 -33 -12.5 -47t-44.5 -14h-211q-32 0 -45.5 14t-13.5 47v117q-150 26 -222.5 105.5t-72.5 203.5z" />
<glyph unicode="&#xa3;" horiz-adv-x="1431" d="M123 59v150q0 32 14 44.5t47 12.5h111v281h-111q-33 0 -47 13.5t-14 45.5v150q0 32 14 44.5t47 12.5h111v246q0 69 25.5 129.5t79.5 111t150.5 80t225.5 29.5t226 -29.5t151.5 -80t80.5 -111t26 -129.5v-74q0 -33 -13 -47t-45 -14h-205q-32 0 -45.5 14t-13.5 47v14 q0 67 -44 100.5t-114 33.5q-69 0 -108 -33t-39 -101v-186h180q33 0 47 -12.5t14 -44.5v-150q0 -32 -14 -45.5t-47 -13.5h-180v-281h266q90 0 90 137v23q0 32 15 46.5t47 14.5h198q32 0 46 -14.5t14 -46.5v-23q0 -113 -22 -192.5t-65.5 -125t-100 -65.5t-132.5 -20h-805 q-33 0 -47 13.5t-14 45.5z" />
<glyph unicode="&#xa4;" horiz-adv-x="1361" d="M123 502v88q0 32 14 44.5t47 12.5h47v90h-47q-32 0 -46.5 14t-14.5 46v88q0 32 14 44.5t47 12.5h47v117q0 70 25.5 129.5t81 110.5t157 80.5t240.5 29.5t240.5 -29.5t157 -80.5t81 -110.5t25.5 -129.5v-94q0 -33 -12.5 -47.5t-44.5 -14.5h-211q-32 0 -46 14.5t-14 47.5 v34q0 68 -46.5 101t-125.5 33t-124.5 -33t-45.5 -101v-57h150q33 0 47 -12.5t14 -44.5v-88q0 -32 -14.5 -46t-46.5 -14h-150v-90h150q33 0 47 -12.5t14 -44.5v-88q0 -32 -14.5 -46t-46.5 -14h-150v-49q0 -68 45.5 -100.5t124.5 -32.5t125.5 32.5t46.5 100.5v66q0 32 14 46.5 t46 14.5h211q32 0 44.5 -14t12.5 -47v-125q0 -70 -25.5 -129.5t-81 -110.5t-157 -80.5t-240.5 -29.5t-240.5 29.5t-157 80.5t-81 110.5t-25.5 129.5v108h-47q-32 0 -46.5 14t-14.5 46z" />
<glyph unicode="&#xa5;" horiz-adv-x="1355" d="M130.5 1376q11.5 17 43.5 17h250q54 0 74 -62l145 -407q16 -47 35 -123q17 69 41 123l172 407q12 31 27.5 46.5t44.5 15.5h217q33 0 45.5 -16.5t-0.5 -45.5l-181 -389h66q33 0 47 -12.5t14 -44.5v-88q0 -32 -14.5 -46t-46.5 -14h-160l-43 -90h203q33 0 47 -12.5t14 -44.5 v-88q0 -32 -14.5 -46t-46.5 -14h-262v-381q0 -33 -12.5 -47t-44.5 -14h-222q-32 0 -45.5 14t-13.5 47v381h-262q-33 0 -47.5 14t-14.5 46v88q0 32 14.5 44.5t47.5 12.5h186l-41 90h-145q-33 0 -47.5 14t-14.5 46v88q0 32 14.5 44.5t47.5 12.5h55l-172 389q-12 28 -0.5 45z " />
<glyph unicode="&#xa6;" horiz-adv-x="532" d="M102 256q0 32 14 46.5t46 14.5h211q32 0 44.5 -14t12.5 -47v-627q0 -33 -12.5 -47t-44.5 -14h-211q-32 0 -46 14.5t-14 46.5v627zM102 705v626q0 33 14 47.5t46 14.5h211q32 0 44.5 -14.5t12.5 -47.5v-626q0 -33 -12.5 -47.5t-44.5 -14.5h-211q-32 0 -46 14.5t-14 47.5z " />
<glyph unicode="&#xa7;" horiz-adv-x="1132" d="M123 -84q0 32 13.5 45.5t45.5 13.5h185q32 0 45.5 -13.5t13.5 -45.5v-31q0 -49 30.5 -66.5t98.5 -17.5t99.5 18.5t31.5 67.5v117q0 41 -80 66l-250 80q-89 29 -143.5 101t-54.5 169v137q0 32 13.5 45.5t45.5 13.5h184q32 0 46 -13.5t14 -45.5v-104q0 -54 59 -72l287 -90 q203 -63 203 -268v-107q0 -146 -111.5 -235t-333.5 -89q-442 0 -442 310v14zM123 979v106q0 146 111 235t333 89q443 0 443 -309v-15q0 -32 -14 -45.5t-46 -13.5h-184q-32 0 -45.5 13.5t-13.5 45.5v31q0 49 -30.5 66.5t-98.5 17.5t-100 -18.5t-32 -67.5v-117q0 -40 80 -65 l250 -80q89 -29 144 -101t55 -169v-138q0 -32 -14 -45.5t-46 -13.5h-184q-32 0 -45.5 13.5t-13.5 45.5v105q0 54 -60 72l-286 90q-203 63 -203 268z" />
<glyph unicode="&#xa8;" horiz-adv-x="833" d="M137 1200v189q0 32 14 46.5t46 14.5h122q32 0 45 -14t13 -47v-189q0 -32 -13 -45.5t-45 -13.5h-122q-32 0 -46 13.5t-14 45.5zM455 1200v189q0 33 13.5 47t45.5 14h123q32 0 44.5 -14t12.5 -47v-189q0 -33 -12.5 -46t-44.5 -13h-123q-32 0 -45.5 13.5t-13.5 45.5z" />
<glyph unicode="&#xa9;" horiz-adv-x="1642" d="M123 510v375q0 58 5.5 106t23.5 104t48.5 99t83.5 85t125 69.5t177 44t235 16.5t235 -16.5t177 -44t125.5 -69.5t83.5 -85t48.5 -99t24 -104t5.5 -106v-375q0 -58 -5.5 -106.5t-24 -104.5t-48.5 -99t-83.5 -85t-125.5 -69.5t-177 -44.5t-235 -17t-235 17t-177 44.5 t-125 69.5t-83.5 85t-48.5 99.5t-23.5 104.5t-5.5 106zM358 465q0 -131 113.5 -207t349.5 -76t349.5 75t113.5 206v469q0 131 -113.5 205.5t-349.5 74.5t-349.5 -75.5t-113.5 -206.5v-465zM453 573v244q0 151 86.5 225t285.5 74q200 0 285.5 -74t85.5 -225v-12 q0 -32 -13.5 -46t-45.5 -14h-170q-32 0 -46 14t-14 46v6q0 88 -82 88t-82 -88v-227q0 -90 82 -90t82 90v18q0 32 14 46t46 14h170q32 0 45.5 -14t13.5 -46v-29q0 -151 -86.5 -225t-286.5 -74q-198 0 -284 74t-86 225z" />
<glyph unicode="&#xaa;" horiz-adv-x="741" d="M82 932v49q0 68 58 115t157 47h121v69q0 29 -41 29t-41 -24v-9q0 -23 -10.5 -32t-32.5 -9h-143q-25 0 -35.5 9t-10.5 32v13q0 91 70 139.5t209 48.5q276 0 276 -199v-387q0 -43 -45 -43h-141q-6 0 -10.5 0.5t-8 1.5t-6 2t-5 4t-4 4t-3.5 6t-2.5 7t-2.5 8.5t-3 9.5l-2 8 q-74 -61 -158 -61q-93 0 -139.5 47t-46.5 115zM324 963q0 -23 28 -23q26 0 66 33v31h-70q-24 0 -24 -23v-18z" />
<glyph unicode="&#xab;" horiz-adv-x="1273" d="M123 401v203q0 45 55 82l387 268q25 17 43.5 3.5t18.5 -46.5v-204q0 -20 -10.5 -36.5t-19.5 -24t-32 -23.5l-184 -121l184 -119q20 -13 31 -21.5t21 -25.5t10 -37v-205q0 -32 -20 -45t-42 2l-387 268q-55 35 -55 82zM647 401v203q0 45 55 82l388 268q25 17 43 3.5 t18 -46.5v-204q0 -20 -10 -36.5t-19 -24t-32 -23.5l-185 -121l185 -119q20 -13 30.5 -21.5t20.5 -25.5t10 -37v-205q0 -32 -19.5 -45t-41.5 2l-388 268q-55 35 -55 82z" />
<glyph unicode="&#xac;" horiz-adv-x="839" d="M150 662q0 113 78 191.5t190 78.5t191 -79t79 -191t-78.5 -190.5t-191.5 -78.5q-112 0 -190 78t-78 191z" />
<glyph unicode="&#xad;" horiz-adv-x="874" d="M102 516v150q0 32 14.5 44.5t47.5 12.5h547q33 0 47 -12.5t14 -44.5v-150q0 -32 -14 -45.5t-47 -13.5h-547q-33 0 -47.5 13.5t-14.5 45.5z" />
<glyph unicode="&#xae;" horiz-adv-x="1345" d="M123 662v385q0 37 4.5 68.5t18.5 69.5t38 68.5t66 60.5t98.5 50t139.5 32.5t186 12.5t186 -12.5t139 -32.5t98 -50t65.5 -60.5t37.5 -68.5t18.5 -69.5t4.5 -68.5v-385q0 -37 -4.5 -68.5t-18.5 -69.5t-37.5 -69t-65.5 -61t-98 -50t-139 -32.5t-186 -12.5t-186 12.5 t-139.5 32.5t-98.5 50t-66 61t-38 69t-18.5 69.5t-4.5 68.5zM336 643q0 -78 75.5 -119t262.5 -41q128 0 204 20.5t104 53.5t28 84v426q0 51 -28 84t-104 53.5t-204 20.5q-187 0 -262.5 -41t-75.5 -119v-422zM422 616v480q0 22 9.5 31.5t31.5 9.5h248q72 0 120.5 -15.5 t72 -43.5t32 -56t8.5 -64v-30q0 -99 -65 -144l63 -168q6 -19 -5 -31t-36 -12h-133q-12 0 -19.5 5.5t-10.5 12.5t-9 25l-51 132h-39v-132q0 -43 -41 -43h-135q-41 0 -41 43zM639 903h47q4 0 10.5 1.5t17.5 9.5t11 20v16q0 33 -39 33h-47v-80z" />
<glyph unicode="&#xaf;" horiz-adv-x="821" d="M123 1206v129q0 32 14 45t47 13h453q33 0 47 -13t14 -45v-129q0 -32 -14 -45.5t-47 -13.5h-453q-33 0 -47 13.5t-14 45.5z" />
<glyph unicode="&#xb0;" horiz-adv-x="919" d="M102 973v192q0 120 82 182t277 62q193 0 274.5 -62t81.5 -182v-192q0 -120 -81.5 -182t-274.5 -62q-195 0 -277 62t-82 182zM377 985q0 -47 82 -47q84 0 84 47v170q0 45 -84 45q-82 0 -82 -45v-170z" />
<glyph unicode="&#xb1;" horiz-adv-x="1128" d="M102 106v150q0 32 14.5 44.5t47.5 12.5h801q33 0 47 -12.5t14 -44.5v-150q0 -32 -14 -45.5t-47 -13.5h-801q-33 0 -47.5 13.5t-14.5 45.5zM102 709v149q0 32 14.5 44.5t47.5 12.5h266v166q0 33 12.5 47.5t44.5 14.5h150q32 0 45.5 -14.5t13.5 -47.5v-166h269 q33 0 47 -12.5t14 -44.5v-149q0 -32 -14.5 -46t-46.5 -14h-269v-164q0 -33 -13.5 -47t-45.5 -14h-150q-32 0 -44.5 14t-12.5 47v164h-266q-33 0 -47.5 14t-14.5 46z" />
<glyph unicode="&#xb2;" horiz-adv-x="808" d="M82 1110v78q0 42 17.5 79.5t53 70t98.5 52t146 19.5q159 0 239.5 -65.5t82.5 -155.5v-58q0 -95 -33 -144.5t-90 -80.5l-225 -114q-13 -4 -13 -15v-14h324q24 0 34.5 -8.5t10.5 -32.5v-115q0 -43 -45 -43h-532q-25 0 -35.5 10t-10.5 33v213q0 47 12.5 67.5t51.5 41.5 l274 133q17 9 22 19.5t5 37.5v31q0 33 -23.5 49t-48.5 16t-47 -16t-22 -49v-39q0 -25 -9 -35t-32 -10h-162q-23 0 -33 10t-10 35z" />
<glyph unicode="&#xb3;" horiz-adv-x="804" d="M82 776v45q0 24 9.5 33.5t33.5 9.5h160q25 0 35 -10t10 -33v-8q0 -33 21.5 -49t49.5 -16t51 16t23 49v10q0 34 -24.5 50t-53.5 16h-75q-46 0 -46 41v108q0 24 11 33.5t35 9.5h61q28 0 52 16.5t24 49.5v6q0 34 -18 50t-44 16t-44.5 -16t-18.5 -50v-8q0 -43 -43 -43h-162 q-24 0 -33.5 10t-9.5 33v45q0 43 15 80t49 70t98 52t153 19q87 0 150 -18t96.5 -50t48.5 -68.5t15 -80.5v-84q0 -82 -78 -117q90 -52 90 -141v-82q0 -42 -16 -78.5t-50.5 -68.5t-98.5 -50t-152 -18t-153.5 19t-101.5 52t-52.5 70.5t-16.5 79.5z" />
<glyph unicode="&#xb4;" horiz-adv-x="626" d="M119 1200l82 189q26 61 84 61h219q32 0 41 -17.5t-10 -43.5l-142 -207q-27 -41 -80 -41h-161q-58 0 -33 59z" />
<glyph unicode="&#xb5;" horiz-adv-x="1120" d="M92 -346v1309q0 32 14 46.5t46 14.5h206q32 0 47 -14.5t15 -46.5v-611q0 -50 15 -69t63 -19q91 0 192 80v619q0 33 13 47t45 14h210q32 0 46 -14.5t14 -46.5v-904q0 -32 -14 -45.5t-46 -13.5h-196q-32 0 -44.5 13t-15.5 46l-4 33q-127 -108 -292 -108h-3l17 -330 q2 -32 -12 -47t-46 -15h-210q-32 0 -46 14.5t-14 47.5z" />
<glyph unicode="&#xb6;" horiz-adv-x="1466" d="M123 846v278q0 62 18.5 108.5t62 84t122.5 57t192 19.5h309q32 0 45 -14.5t13 -47.5v-1677q0 -33 -13 -47.5t-45 -14.5h-221q-32 0 -45.5 14.5t-13.5 47.5v924h-29q-113 0 -192 19.5t-122.5 56.5t-62 83.5t-18.5 108.5zM1006 -346v1677q0 33 13.5 47.5t45.5 14.5h221 q32 0 44.5 -14.5t12.5 -47.5v-1677q0 -33 -12.5 -47.5t-44.5 -14.5h-221q-32 0 -45.5 14.5t-13.5 47.5z" />
<glyph unicode="&#xb7;" horiz-adv-x="538" d="M102 492v170q0 32 14 46.5t46 14.5h217q32 0 44.5 -14t12.5 -47v-170q0 -33 -12.5 -46.5t-44.5 -13.5h-217q-32 0 -46 14t-14 46z" />
<glyph unicode="&#xb8;" horiz-adv-x="608" d="M53 -330q0 32 14.5 45t47.5 13h198q19 0 19 20q0 21 -19 21h-166q-95 0 -71 81l55 187q15 54 72 51l92 -6q27 -2 40.5 -20.5t4.5 -49.5l-25 -92h56q182 0 182 -172q0 -180 -182 -180h-256q-33 0 -47.5 13.5t-14.5 45.5v43z" />
<glyph unicode="&#xb9;" horiz-adv-x="765" d="M82 602v115q0 24 10 32.5t37 8.5h131v422l-133 -15q-24 -3 -34.5 5t-10.5 32v115q0 21 10.5 30.5t34.5 12.5l346 47q12 1 19.5 0t14.5 -11t7 -30v-608h127q24 0 33.5 -8.5t9.5 -32.5v-115q0 -23 -10 -33t-33 -10h-512q-26 0 -36.5 10t-10.5 33z" />
<glyph unicode="&#xba;" horiz-adv-x="774" d="M82 975v227q0 96 80 151.5t225 55.5q144 0 224.5 -55.5t80.5 -151.5v-227q0 -96 -80.5 -150.5t-224.5 -54.5q-145 0 -225 54.5t-80 150.5zM330 995q0 -41 57 -41q55 0 55 41v191q0 37 -55 37q-57 0 -57 -37v-191z" />
<glyph unicode="&#xbb;" horiz-adv-x="1273" d="M123 109v204q0 20 10 36.5t19 24t32 23.5l185 121l-185 119q-20 13 -30.5 21.5t-20.5 25.5t-10 37v205q0 32 19.5 45t41.5 -2l387 -269q56 -36 56 -82v-202q0 -45 -56 -82l-387 -268q-25 -17 -43 -3.5t-18 46.5zM647 109v204q0 20 10.5 36.5t19.5 24t32 23.5l184 121 l-184 119q-20 13 -31 21.5t-21 25.5t-10 37v205q0 32 20 45t42 -2l387 -269q55 -35 55 -82v-202q0 -45 -55 -82l-387 -268q-25 -17 -43.5 -3.5t-18.5 46.5z" />
<glyph unicode="&#xbc;" horiz-adv-x="1890" d="M82 602v115q0 24 10 32.5t37 8.5h131v422l-133 -15q-24 -3 -34.5 5t-10.5 32v115q0 21 10.5 30.5t34.5 12.5l346 47q12 1 19.5 0t14.5 -11t7 -30v-608h127q24 0 33.5 -8.5t9.5 -32.5v-115q0 -23 -10 -33t-33 -10h-512q-26 0 -36.5 10t-10.5 33zM655 -57l353 1507 q5 23 15.5 33t35.5 10h174q45 0 35 -43l-353 -1507q-5 -23 -15 -33t-34 -10h-176q-44 0 -35 43zM1161 233v95q0 10 13 69l98 396q10 43 53 43h168q43 0 33 -43l-101 -404h129v404q0 43 43 43h168q24 0 33.5 -10t9.5 -33v-750q0 -23 -9.5 -33t-33.5 -10h-168q-43 0 -43 43 v147h-346q-47 0 -47 43z" />
<glyph unicode="&#xbd;" horiz-adv-x="1886" d="M82 602v115q0 24 10 32.5t37 8.5h131v422l-133 -15q-24 -3 -34.5 5t-10.5 32v115q0 21 10.5 30.5t34.5 12.5l346 47q12 1 19.5 0t14.5 -11t7 -30v-608h127q24 0 33.5 -8.5t9.5 -32.5v-115q0 -23 -10 -33t-33 -10h-512q-26 0 -36.5 10t-10.5 33zM635 -57l352 1507 q5 23 15.5 33t35.5 10h174q45 0 35 -43l-352 -1507q-5 -23 -15 -33t-34 -10h-176q-44 0 -35 43zM1159 547v78q0 90 78 155.5t238 65.5q159 0 239 -65.5t82 -155.5v-58q0 -95 -33 -144.5t-90 -80.5l-225 -115q-12 -4 -12 -14v-14h323q24 0 34.5 -8.5t10.5 -32.5v-115 q0 -43 -45 -43h-532q-25 0 -35 10t-10 33v213q0 47 12 68t51 41l275 133q17 9 21.5 19.5t4.5 37.5v31q0 33 -23.5 49t-47.5 16q-25 0 -47.5 -16t-22.5 -49v-39q0 -25 -9 -35t-32 -10h-162q-23 0 -33 10t-10 35z" />
<glyph unicode="&#xbe;" horiz-adv-x="1921" d="M82 774v45q0 24 9.5 33.5t33.5 9.5h160q25 0 35 -10t10 -33v-8q0 -34 21.5 -50t49.5 -16t51 16.5t23 49.5v10q0 34 -24.5 50t-53.5 16h-75q-46 0 -46 41v108q0 24 11 33.5t35 9.5h61q28 0 52 16.5t24 49.5v6q0 34 -18 50t-44 16t-44.5 -16t-18.5 -50v-8q0 -43 -43 -43 h-162q-24 0 -33.5 10t-9.5 33v45q0 43 15 80t49 70t98 52t153 19q87 0 150 -18t96.5 -50t48.5 -68.5t15 -80.5v-84q0 -82 -78 -117q90 -52 90 -141v-82q0 -42 -16 -78.5t-50.5 -68.5t-98.5 -50t-152 -18t-153.5 19t-101.5 52t-52.5 70.5t-16.5 79.5zM686 -57l352 1507 q5 23 16 33t36 10h174q47 0 34 -43l-352 -1507q-5 -23 -15 -33t-34 -10h-176q-44 0 -35 43zM1192 233v95q0 15 12 69l99 396q10 43 53 43h168q42 0 32 -43l-100 -404h129v404q0 43 43 43h168q24 0 33.5 -10t9.5 -33v-750q0 -23 -9.5 -33t-33.5 -10h-168q-43 0 -43 43v147 h-346q-47 0 -47 43z" />
<glyph unicode="&#xbf;" horiz-adv-x="1155" d="M82 -35v70q0 251 199 340l120 53q49 22 63.5 40.5t14.5 61.5v45q0 33 13 46.5t45 13.5h221q32 0 45.5 -14t13.5 -46v-133q0 -40 -9 -69.5t-28.5 -50t-38 -32.5t-49.5 -28l-211 -106q-30 -15 -47.5 -39t-17.5 -70v-29q0 -67 45 -100t121 -33t119.5 32.5t43.5 100.5v74 q0 33 13 47.5t45 14.5h211q32 0 45.5 -14.5t13.5 -47.5v-127q0 -70 -25.5 -129.5t-80.5 -110.5t-153.5 -80.5t-231.5 -29.5t-232.5 29.5t-156 80t-83.5 111t-28 129.5zM479 795v170q0 32 13 45.5t45 13.5h221q32 0 45.5 -13.5t13.5 -45.5v-170q0 -33 -13.5 -47.5 t-45.5 -14.5h-221q-32 0 -45 14.5t-13 47.5z" />
<glyph unicode="&#xc0;" horiz-adv-x="1159" d="M23 61l370 1270q18 62 76 62h221q58 0 76 -62l371 -1270q19 -61 -45 -61h-228q-31 0 -47 15t-24 46l-54 197h-340l-53 -197q-8 -31 -24.5 -46t-47.5 -15h-206q-64 0 -45 61zM246 1780.5q9 17.5 41 17.5h219q58 0 84 -61l82 -189q25 -59 -33 -59h-162q-53 0 -80 41 l-141 207q-19 26 -10 43.5zM473 524h193l-29 111q-28 108 -64 428q0 -1 -5 -42.5t-11.5 -87.5t-15 -102.5t-18.5 -109.5t-19 -86z" />
<glyph unicode="&#xc1;" horiz-adv-x="1159" d="M23 61l370 1270q18 62 76 62h221q58 0 76 -62l371 -1270q19 -61 -45 -61h-228q-31 0 -47 15t-24 46l-54 197h-340l-53 -197q-8 -31 -24.5 -46t-47.5 -15h-206q-64 0 -45 61zM467 1548l82 189q26 61 84 61h219q32 0 41 -17.5t-10 -43.5l-142 -207q-27 -41 -79 -41h-162 q-58 0 -33 59zM473 524h193l-29 111q-28 108 -64 428q0 -1 -5 -42.5t-11.5 -87.5t-15 -102.5t-18.5 -109.5t-19 -86z" />
<glyph unicode="&#xc2;" horiz-adv-x="1159" d="M23 61l370 1270q18 62 76 62h221q58 0 76 -62l371 -1270q19 -61 -45 -61h-228q-31 0 -47 15t-24 46l-54 197h-340l-53 -197q-8 -31 -24.5 -46t-47.5 -15h-206q-64 0 -45 61zM269.5 1506q-9.5 17 9.5 42l145 189q23 30 44.5 45.5t51.5 15.5h119q30 0 51.5 -15.5 t44.5 -45.5l146 -189q19 -25 9 -42t-42 -17h-160q-57 0 -84 59l-24 58l-25 -58q-10 -24 -32 -41.5t-52 -17.5h-160q-32 0 -41.5 17zM473 524h193l-29 111q-28 108 -64 428q0 -1 -5 -42.5t-11.5 -87.5t-15 -102.5t-18.5 -109.5t-19 -86z" />
<glyph unicode="&#xc3;" horiz-adv-x="1159" d="M23 61l370 1270q18 62 76 62h221q58 0 76 -62l371 -1270q19 -61 -45 -61h-228q-31 0 -47 15t-24 46l-54 197h-340l-53 -197q-8 -31 -24.5 -46t-47.5 -15h-206q-64 0 -45 61zM205 1559l12 100q9 71 63.5 113.5t129.5 42.5q59 0 118 -23l86 -33q62 -24 74 -24q32 0 39 26 l2 8q8 31 21.5 42.5t44.5 11.5h106q58 0 51 -70l-8 -92q-7 -75 -55 -115.5t-117 -40.5q-73 0 -141 21l-88 28q-10 4 -28.5 11t-28 9.5t-17.5 2.5q-32 0 -39 -27l-2 -8q-7 -31 -21.5 -42t-44.5 -11h-108q-56 0 -49 70zM473 524h193l-29 111q-28 108 -64 428q0 -1 -5 -42.5 t-11.5 -87.5t-15 -102.5t-18.5 -109.5t-19 -86z" />
<glyph unicode="&#xc4;" horiz-adv-x="1159" d="M23 61l370 1270q18 62 76 62h221q58 0 76 -62l371 -1270q19 -61 -45 -61h-228q-31 0 -47 15t-24 46l-54 197h-340l-53 -197q-8 -31 -24.5 -46t-47.5 -15h-206q-64 0 -45 61zM301 1548v189q0 33 13.5 47t45.5 14h123q32 0 45 -14t13 -47v-189q0 -32 -13 -45.5t-45 -13.5 h-123q-32 0 -45.5 13.5t-13.5 45.5zM473 524h193l-29 111q-28 108 -64 428q0 -1 -5 -42.5t-11.5 -87.5t-15 -102.5t-18.5 -109.5t-19 -86zM618 1548v189q0 32 14 46.5t46 14.5h123q32 0 44.5 -14t12.5 -47v-189q0 -33 -12.5 -46t-44.5 -13h-123q-32 0 -46 13.5t-14 45.5z " />
<glyph unicode="&#xc5;" horiz-adv-x="1159" d="M23 61l370 1270q18 62 76 62h221q58 0 76 -62l371 -1270q19 -61 -45 -61h-228q-31 0 -47 15t-24 46l-54 197h-340l-53 -197q-8 -31 -24.5 -46t-47.5 -15h-206q-64 0 -45 61zM330 1622v70q0 69 63 116t187 47t186.5 -47t62.5 -116v-70q0 -69 -62.5 -116.5t-186.5 -47.5 t-187 47.5t-63 116.5zM473 524h193l-29 111q-28 108 -64 428q0 -1 -5 -42.5t-11.5 -87.5t-15 -102.5t-18.5 -109.5t-19 -86zM502 1640q0 -57 78 -57q77 0 77 57v33q0 56 -77 56q-78 0 -78 -56v-33z" />
<glyph unicode="&#xc6;" horiz-adv-x="1705" d="M24.5 16.5q-13.5 16.5 2.5 44.5l764 1272q36 60 86 60h675q33 0 47.5 -13t14.5 -45v-155q0 -32 -14.5 -46t-47.5 -14h-422v-272h390q33 0 47 -12.5t14 -44.5v-146q0 -32 -14 -45.5t-47 -13.5h-390v-314h443q33 0 47 -12.5t14 -44.5v-156q0 -32 -14 -45.5t-47 -13.5h-703 q-32 0 -45.5 14t-13.5 47v197h-346l-115 -197q-11 -19 -18 -29.5t-21.5 -21t-31.5 -10.5h-207q-34 0 -47.5 16.5zM623 524h188v336q-25 -50 -72 -137z" />
<glyph unicode="&#xc7;" horiz-adv-x="1181" d="M102 334v725q0 70 25.5 129.5t81 110.5t157 80.5t240.5 29.5t240.5 -29.5t157 -80.5t81 -110.5t25.5 -129.5v-94q0 -33 -12.5 -47.5t-44.5 -14.5h-211q-32 0 -46 14.5t-14 47.5v34q0 68 -46.5 101t-125.5 33t-124.5 -33t-45.5 -101v-606q0 -68 45.5 -100.5t124.5 -32.5 t125.5 32.5t46.5 100.5v66q0 32 14 46.5t46 14.5h211q32 0 44.5 -14t12.5 -47v-125q0 -67 -23.5 -125t-75 -108.5t-144.5 -81.5t-220 -35l-16 -64h55q182 0 182 -172q0 -180 -182 -180h-256q-33 0 -47 13.5t-14 45.5v43q0 32 14 45t47 13h199q18 0 18 20q0 21 -18 21h-166 q-96 0 -72 81l43 148q-90 16 -156.5 49.5t-103.5 80t-54.5 97.5t-17.5 109z" />
<glyph unicode="&#xc8;" horiz-adv-x="1036" d="M123 61v1270q0 33 13.5 47.5t45.5 14.5h701q33 0 47 -13t14 -45v-159q0 -32 -14.5 -46t-46.5 -14h-422v-266h389q33 0 47 -12.5t14 -44.5v-150q0 -32 -14 -45.5t-47 -13.5h-389v-308h442q33 0 47.5 -12.5t14.5 -44.5v-160q0 -32 -14.5 -45.5t-47.5 -13.5h-721 q-32 0 -45.5 14t-13.5 47zM219 1780.5q9 17.5 41 17.5h219q58 0 84 -61l82 -189q25 -59 -33 -59h-161q-53 0 -80 41l-142 207q-19 26 -10 43.5z" />
<glyph unicode="&#xc9;" horiz-adv-x="1036" d="M123 61v1270q0 33 13.5 47.5t45.5 14.5h701q33 0 47 -13t14 -45v-159q0 -32 -14.5 -46t-46.5 -14h-422v-266h389q33 0 47 -12.5t14 -44.5v-150q0 -32 -14 -45.5t-47 -13.5h-389v-308h442q33 0 47.5 -12.5t14.5 -44.5v-160q0 -32 -14.5 -45.5t-47.5 -13.5h-721 q-32 0 -45.5 14t-13.5 47zM387 1548l82 189q26 61 84 61h219q32 0 41 -17.5t-10 -43.5l-141 -207q-27 -41 -80 -41h-162q-58 0 -33 59z" />
<glyph unicode="&#xca;" horiz-adv-x="1036" d="M123 61v1270q0 33 13.5 47.5t45.5 14.5h701q33 0 47 -13t14 -45v-159q0 -32 -14.5 -46t-46.5 -14h-422v-266h389q33 0 47 -12.5t14 -44.5v-150q0 -32 -14 -45.5t-47 -13.5h-389v-308h442q33 0 47.5 -12.5t14.5 -44.5v-160q0 -32 -14.5 -45.5t-47.5 -13.5h-721 q-32 0 -45.5 14t-13.5 47zM208 1506q-10 17 9 42l145 189q47 61 97 61h119q30 0 51.5 -15.5t44.5 -45.5l145 -189q19 -25 9 -42t-42 -17h-159q-57 0 -84 59l-25 58l-24 -58q-10 -24 -32 -41.5t-52 -17.5h-160q-32 0 -42 17z" />
<glyph unicode="&#xcb;" horiz-adv-x="1036" d="M123 61v1270q0 33 13.5 47.5t45.5 14.5h701q33 0 47 -13t14 -45v-159q0 -32 -14.5 -46t-46.5 -14h-422v-266h389q33 0 47 -12.5t14 -44.5v-150q0 -32 -14 -45.5t-47 -13.5h-389v-308h442q33 0 47.5 -12.5t14.5 -44.5v-160q0 -32 -14.5 -45.5t-47.5 -13.5h-721 q-32 0 -45.5 14t-13.5 47zM248 1548v189q0 33 13.5 47t45.5 14h123q32 0 44.5 -14t12.5 -47v-189q0 -33 -12.5 -46t-44.5 -13h-123q-32 0 -45.5 13.5t-13.5 45.5zM565 1548v189q0 32 14 46.5t46 14.5h123q32 0 44.5 -14t12.5 -47v-189q0 -33 -12.5 -46t-44.5 -13h-123 q-32 0 -46 13.5t-14 45.5z" />
<glyph unicode="&#xcc;" horiz-adv-x="583" d="M-22.5 1780.5q8.5 17.5 40.5 17.5h220q58 0 84 -61l81 -189q25 -59 -32 -59h-162q-53 0 -80 41l-141 207q-19 26 -10.5 43.5zM123 61v1270q0 33 13.5 47.5t45.5 14.5h221q32 0 45 -14.5t13 -47.5v-1270q0 -33 -13 -47t-45 -14h-221q-32 0 -45.5 14t-13.5 47z" />
<glyph unicode="&#xcd;" horiz-adv-x="583" d="M123 61v1270q0 33 13.5 47.5t45.5 14.5h221q32 0 45 -14.5t13 -47.5v-1270q0 -33 -13 -47t-45 -14h-221q-32 0 -45.5 14t-13.5 47zM164 1548l82 189q26 61 84 61h219q32 0 41 -17.5t-10 -43.5l-142 -207q-27 -41 -80 -41h-161q-58 0 -33 59z" />
<glyph unicode="&#xce;" horiz-adv-x="583" d="M-19 1506q-10 17 9 42l145 189q23 30 44.5 45.5t51.5 15.5h119q30 0 51.5 -15.5t44.5 -45.5l146 -189q19 -25 9 -42t-42 -17h-160q-57 0 -84 59l-24 58l-25 -58q-10 -24 -32 -41.5t-52 -17.5h-159q-32 0 -42 17zM123 61v1270q0 33 13.5 47.5t45.5 14.5h221q32 0 45 -14.5 t13 -47.5v-1270q0 -33 -13 -47t-45 -14h-221q-32 0 -45.5 14t-13.5 47z" />
<glyph unicode="&#xcf;" horiz-adv-x="583" d="M12 1548v189q0 32 14 46.5t46 14.5h123q32 0 44.5 -14t12.5 -47v-189q0 -33 -12.5 -46t-44.5 -13h-123q-32 0 -46 13.5t-14 45.5zM123 61v1270q0 33 13.5 47.5t45.5 14.5h221q32 0 45 -14.5t13 -47.5v-1270q0 -33 -13 -47t-45 -14h-221q-32 0 -45.5 14t-13.5 47z M330 1548v189q0 33 13.5 47t45.5 14h123q32 0 44.5 -14t12.5 -47v-189q0 -33 -12.5 -46t-44.5 -13h-123q-32 0 -45.5 13.5t-13.5 45.5z" />
<glyph unicode="&#xd0;" horiz-adv-x="1271" d="M-2 635v129q0 32 14 44.5t47 12.5h64v510q0 33 13.5 47.5t45.5 14.5h463q139 0 243.5 -29.5t164 -80.5t88 -111.5t28.5 -129.5v-692q0 -69 -28.5 -129.5t-88 -111t-164 -80t-243.5 -29.5h-471q-51 0 -51 61v514h-64q-32 0 -46.5 14t-14.5 46zM461 276h184 q81 0 133.5 33.5t52.5 100.5v573q0 67 -52.5 100t-133.5 33h-184v-295h145q33 0 47.5 -12.5t14.5 -44.5v-129q0 -32 -14.5 -46t-47.5 -14h-145v-299z" />
<glyph unicode="&#xd1;" horiz-adv-x="1292" d="M123 61v1270q0 33 13.5 47.5t45.5 14.5h201q39 0 51 -25l346 -580q32 -55 72 -153v696q0 33 13.5 47.5t45.5 14.5h201q32 0 44.5 -14.5t12.5 -47.5v-1270q0 -33 -12.5 -47t-44.5 -14h-201q-38 0 -55 29l-328 544q-36 57 -88 185v-697q0 -33 -12.5 -47t-44.5 -14h-201 q-32 0 -45.5 14t-13.5 47zM272 1559l13 100q9 71 63 113.5t129 42.5q60 0 119 -23l86 -33q62 -24 74 -24q32 0 39 26l2 8q8 31 21.5 42.5t43.5 11.5h107q58 0 51 -70l-8 -92q-7 -75 -55 -115.5t-117 -40.5q-74 0 -142 21l-88 28q-11 4 -28.5 11t-27 9.5t-17.5 2.5 q-32 0 -39 -27l-2 -8q-7 -31 -21.5 -42t-44.5 -11h-108q-57 0 -50 70z" />
<glyph unicode="&#xd2;" horiz-adv-x="1251" d="M102 334v725q0 69 28.5 129.5t87.5 111t163.5 80t243.5 29.5t243.5 -29.5t164 -80t88 -111t28.5 -129.5v-725q0 -69 -28.5 -129.5t-88 -111t-164 -80t-243.5 -29.5t-243.5 29.5t-163.5 80t-87.5 111t-28.5 129.5zM311.5 1780.5q8.5 17.5 40.5 17.5h219q58 0 84 -61 l82 -189q25 -59 -32 -59h-162q-53 0 -80 41l-141 207q-19 26 -10.5 43.5zM440 393q0 -67 52 -100t133 -33t133.5 33t52.5 100v606q0 67 -52.5 100.5t-133.5 33.5t-133 -33.5t-52 -100.5v-606z" />
<glyph unicode="&#xd3;" horiz-adv-x="1251" d="M102 334v725q0 69 28.5 129.5t87.5 111t163.5 80t243.5 29.5t243.5 -29.5t164 -80t88 -111t28.5 -129.5v-725q0 -69 -28.5 -129.5t-88 -111t-164 -80t-243.5 -29.5t-243.5 29.5t-163.5 80t-87.5 111t-28.5 129.5zM440 393q0 -67 52 -100t133 -33t133.5 33t52.5 100v606 q0 67 -52.5 100.5t-133.5 33.5t-133 -33.5t-52 -100.5v-606zM479 1548l82 189q26 61 84 61h219q32 0 41 -17.5t-10 -43.5l-141 -207q-27 -41 -80 -41h-162q-58 0 -33 59z" />
<glyph unicode="&#xd4;" horiz-adv-x="1251" d="M102 334v725q0 69 28.5 129.5t87.5 111t163.5 80t243.5 29.5t243.5 -29.5t164 -80t88 -111t28.5 -129.5v-725q0 -69 -28.5 -129.5t-88 -111t-164 -80t-243.5 -29.5t-243.5 29.5t-163.5 80t-87.5 111t-28.5 129.5zM314.5 1506q-9.5 17 9.5 42l145 189q23 30 44.5 45.5 t51.5 15.5h119q30 0 51.5 -15.5t44.5 -45.5l146 -189q19 -25 9 -42t-42 -17h-160q-57 0 -84 59l-24 58l-25 -58q-10 -24 -32 -41.5t-52 -17.5h-160q-32 0 -41.5 17zM440 393q0 -67 52 -100t133 -33t133.5 33t52.5 100v606q0 67 -52.5 100.5t-133.5 33.5t-133 -33.5 t-52 -100.5v-606z" />
<glyph unicode="&#xd5;" horiz-adv-x="1251" d="M102 334v725q0 69 28.5 129.5t87.5 111t163.5 80t243.5 29.5t243.5 -29.5t164 -80t88 -111t28.5 -129.5v-725q0 -69 -28.5 -129.5t-88 -111t-164 -80t-243.5 -29.5t-243.5 29.5t-163.5 80t-87.5 111t-28.5 129.5zM252 1559l12 100q9 71 63.5 113.5t129.5 42.5 q59 0 118 -23l87 -33q62 -24 73 -24q33 0 39 26l2 8q8 31 21.5 42.5t44.5 11.5h106q58 0 51 -70l-8 -92q-7 -75 -55 -115.5t-117 -40.5q-73 0 -141 21l-88 28q-10 4 -28.5 11t-28 9.5t-17.5 2.5q-32 0 -39 -27l-2 -8q-7 -32 -21 -42.5t-44 -10.5h-109q-56 0 -49 70zM440 393 q0 -67 52 -100t133 -33t133.5 33t52.5 100v606q0 67 -52.5 100.5t-133.5 33.5t-133 -33.5t-52 -100.5v-606z" />
<glyph unicode="&#xd6;" horiz-adv-x="1251" d="M102 334v725q0 69 28.5 129.5t87.5 111t163.5 80t243.5 29.5t243.5 -29.5t164 -80t88 -111t28.5 -129.5v-725q0 -69 -28.5 -129.5t-88 -111t-164 -80t-243.5 -29.5t-243.5 29.5t-163.5 80t-87.5 111t-28.5 129.5zM346 1548v189q0 32 14 46.5t46 14.5h122q32 0 45 -14 t13 -47v-189q0 -32 -13 -45.5t-45 -13.5h-122q-32 0 -46 13.5t-14 45.5zM440 393q0 -67 52 -100t133 -33t133.5 33t52.5 100v606q0 67 -52.5 100.5t-133.5 33.5t-133 -33.5t-52 -100.5v-606zM664 1548v189q0 33 13.5 47t45.5 14h123q32 0 44.5 -14t12.5 -47v-189 q0 -33 -12.5 -46t-44.5 -13h-123q-32 0 -45.5 13.5t-13.5 45.5z" />
<glyph unicode="&#xd7;" horiz-adv-x="1105" d="M107 573.5q5 17.5 34 34.5l230 133l-133 232q-17 29 -13.5 48t31.5 34l129 75q29 17 48 11.5t36 -35.5l133 -232l232 134q29 17 47.5 13t33.5 -32l76 -129q17 -29 11.5 -48t-35.5 -36l-232 -133l133 -231q16 -27 11.5 -46t-33.5 -36l-129 -74q-28 -15 -45.5 -9.5 t-34.5 34.5l-133 229l-232 -133q-27 -16 -46 -11.5t-36 33.5l-73 129q-15 28 -10 45.5z" />
<glyph unicode="&#xd8;" horiz-adv-x="1251" d="M102 330v725q0 69 28.5 129.5t87.5 111t163.5 80t243.5 29.5q149 0 256 -35l18 35q15 30 30.5 45.5t43.5 15.5h74q17 0 24 -9.5t5.5 -22.5t-9.5 -29l-51 -100q133 -93 133 -250v-725q0 -69 -28.5 -129.5t-88 -111t-164 -80t-243.5 -29.5q-146 0 -258 32l-17 -30 q-19 -36 -33.5 -49t-44.5 -13h-69q-23 0 -28.5 18.5t7.5 43.5l49 96q-129 95 -129 252zM440 494l305 608q-48 26 -120 26q-81 0 -133 -33t-52 -100v-501zM502 283q50 -27 123 -27q81 0 133.5 33t52.5 100v508z" />
<glyph unicode="&#xd9;" horiz-adv-x="1271" d="M113 334v997q0 33 13.5 47.5t45.5 14.5h221q32 0 45 -14.5t13 -47.5v-938q0 -67 51.5 -100t132.5 -33t133.5 33t52.5 100v938q0 33 14 47.5t46 14.5h221q32 0 44.5 -14.5t12.5 -47.5v-997q0 -69 -28.5 -129.5t-88 -111t-164 -80t-243.5 -29.5t-243 29.5t-163 80 t-87.5 111t-28.5 129.5zM338 1780.5q9 17.5 41 17.5h219q58 0 84 -61l82 -189q25 -59 -33 -59h-162q-53 0 -80 41l-141 207q-19 26 -10 43.5z" />
<glyph unicode="&#xda;" horiz-adv-x="1271" d="M113 334v997q0 33 13.5 47.5t45.5 14.5h221q32 0 45 -14.5t13 -47.5v-938q0 -67 51.5 -100t132.5 -33t133.5 33t52.5 100v938q0 33 14 47.5t46 14.5h221q32 0 44.5 -14.5t12.5 -47.5v-997q0 -69 -28.5 -129.5t-88 -111t-164 -80t-243.5 -29.5t-243 29.5t-163 80 t-87.5 111t-28.5 129.5zM514 1548l82 189q26 61 84 61h219q32 0 41 -17.5t-10 -43.5l-142 -207q-27 -41 -79 -41h-162q-58 0 -33 59z" />
<glyph unicode="&#xdb;" horiz-adv-x="1271" d="M113 334v997q0 33 13.5 47.5t45.5 14.5h221q32 0 45 -14.5t13 -47.5v-938q0 -67 51.5 -100t132.5 -33t133.5 33t52.5 100v938q0 33 14 47.5t46 14.5h221q32 0 44.5 -14.5t12.5 -47.5v-997q0 -69 -28.5 -129.5t-88 -111t-164 -80t-243.5 -29.5t-243 29.5t-163 80 t-87.5 111t-28.5 129.5zM325 1506q-10 17 9 42l145 189q23 30 44.5 45.5t51.5 15.5h119q50 0 97 -61l145 -189q19 -25 9 -42t-42 -17h-160q-57 0 -84 59l-24 58l-25 -58q-10 -24 -32 -41.5t-52 -17.5h-159q-32 0 -42 17z" />
<glyph unicode="&#xdc;" horiz-adv-x="1271" d="M113 334v997q0 33 13.5 47.5t45.5 14.5h221q32 0 45 -14.5t13 -47.5v-938q0 -67 51.5 -100t132.5 -33t133.5 33t52.5 100v938q0 33 14 47.5t46 14.5h221q32 0 44.5 -14.5t12.5 -47.5v-997q0 -69 -28.5 -129.5t-88 -111t-164 -80t-243.5 -29.5t-243 29.5t-163 80 t-87.5 111t-28.5 129.5zM356 1548v189q0 32 14 46.5t46 14.5h123q32 0 44.5 -14t12.5 -47v-189q0 -33 -12.5 -46t-44.5 -13h-123q-32 0 -46 13.5t-14 45.5zM674 1548v189q0 33 13.5 47t45.5 14h123q32 0 44.5 -14t12.5 -47v-189q0 -33 -12.5 -46t-44.5 -13h-123 q-32 0 -45.5 13.5t-13.5 45.5z" />
<glyph unicode="&#xdd;" horiz-adv-x="1142" d="M24.5 1376q11.5 17 43.5 17h249q54 0 74 -62l146 -407q12 -36 34 -123q17 69 41 123l172 407q12 31 27.5 46.5t44.5 15.5h217q33 0 45.5 -16.5t-0.5 -45.5l-377 -815v-455q0 -33 -12.5 -47t-44.5 -14h-221q-32 0 -46 14.5t-14 46.5v414l-378 856q-12 28 -0.5 45z M467 1548l82 189q26 61 84 61h219q32 0 41 -17.5t-10 -43.5l-142 -207q-27 -41 -79 -41h-162q-58 0 -33 59z" />
<glyph unicode="&#xde;" horiz-adv-x="1200" d="M123 61v1270q0 33 13.5 47.5t45.5 14.5h221q32 0 45 -14.5t13 -47.5v-307h164q139 0 243 -29.5t162.5 -80t86.5 -111t28 -129.5v-158q0 -69 -28 -129.5t-86.5 -111t-162.5 -80t-243 -29.5h-164v-105q0 -33 -13 -47t-45 -14h-221q-32 0 -45.5 14t-13.5 47zM461 442h164 q81 0 133.5 33t52.5 100v39q0 67 -52.5 100.5t-133.5 33.5h-164v-306z" />
<glyph unicode="&#xdf;" horiz-adv-x="1349" d="M31 823v125q0 31 13.5 44t45.5 16l100 12h3v110q0 149 128 234.5t371 85.5q240 0 357.5 -84.5t117.5 -235.5v-71q0 -62 -35.5 -112.5t-97.5 -80.5l-141 -67q-31 -13 -31 -35v-2q0 -26 43 -45l236 -115q73 -35 125.5 -96t52.5 -137v-74q0 -311 -375 -311q-198 0 -277 73.5 t-79 223.5v6q0 32 13.5 45.5t45.5 13.5h144q32 0 45.5 -13.5t13.5 -45.5v-21q0 -80 86 -80q88 0 88 82v47q0 40 -55 64l-213 96q-83 37 -122.5 94.5t-39.5 153.5v41q0 125 121 184l86 41q38 19 50.5 40t12.5 50v35q0 111 -172 111t-172 -111v-1053q0 -33 -12.5 -47 t-44.5 -14h-211q-32 0 -45.5 14t-13.5 47v703h-103q-32 0 -45.5 13.5t-13.5 45.5z" />
<glyph unicode="&#xe0;" horiz-adv-x="1069" d="M78 246v88q0 110 87.5 187t240.5 77h249v113q0 49 -26.5 71.5t-89.5 22.5q-66 0 -94.5 -19t-28.5 -65v-14q0 -32 -14 -46t-46 -14h-186q-32 0 -45.5 14t-13.5 46v24q0 309 434 309q225 0 328.5 -79t103.5 -230v-670q0 -33 -13.5 -47t-45.5 -14h-189q-32 0 -43 13t-16 48 l-4 31q-130 -108 -287 -108q-147 0 -224 76t-77 186zM264 1432.5q9 17.5 41 17.5h219q58 0 84 -61l82 -189q25 -59 -33 -59h-161q-53 0 -80 41l-142 207q-19 26 -10 43.5zM397 291q0 -53 70 -53q81 0 188 75v68h-188q-70 0 -70 -64v-26z" />
<glyph unicode="&#xe1;" horiz-adv-x="1069" d="M78 246v88q0 110 87.5 187t240.5 77h249v113q0 49 -26.5 71.5t-89.5 22.5q-66 0 -94.5 -19t-28.5 -65v-14q0 -32 -14 -46t-46 -14h-186q-32 0 -45.5 14t-13.5 46v24q0 309 434 309q225 0 328.5 -79t103.5 -230v-670q0 -33 -13.5 -47t-45.5 -14h-189q-32 0 -43 13t-16 48 l-4 31q-130 -108 -287 -108q-147 0 -224 76t-77 186zM389 1200l82 189q26 61 84 61h219q32 0 41 -17.5t-10 -43.5l-141 -207q-27 -41 -80 -41h-162q-58 0 -33 59zM397 291q0 -53 70 -53q81 0 188 75v68h-188q-70 0 -70 -64v-26z" />
<glyph unicode="&#xe2;" horiz-adv-x="1069" d="M78 246v88q0 110 87.5 187t240.5 77h249v113q0 49 -26.5 71.5t-89.5 22.5q-66 0 -94.5 -19t-28.5 -65v-14q0 -32 -14 -46t-46 -14h-186q-32 0 -45.5 14t-13.5 46v24q0 309 434 309q225 0 328.5 -79t103.5 -230v-670q0 -33 -13.5 -47t-45.5 -14h-189q-32 0 -43 13t-16 48 l-4 31q-130 -108 -287 -108q-147 0 -224 76t-77 186zM232.5 1158q-9.5 17 9.5 42l145 189q23 30 44.5 45.5t51.5 15.5h119q30 0 51.5 -15.5t44.5 -45.5l146 -189q19 -25 9 -42t-42 -17h-160q-57 0 -84 59l-24 57l-25 -57q-10 -24 -32 -41.5t-52 -17.5h-160q-32 0 -41.5 17z M397 291q0 -53 70 -53q81 0 188 75v68h-188q-70 0 -70 -64v-26z" />
<glyph unicode="&#xe3;" horiz-adv-x="1069" d="M78 246v88q0 110 87.5 187t240.5 77h249v113q0 49 -26.5 71.5t-89.5 22.5q-66 0 -94.5 -19t-28.5 -65v-14q0 -32 -14 -46t-46 -14h-186q-32 0 -45.5 14t-13.5 46v24q0 309 434 309q225 0 328.5 -79t103.5 -230v-670q0 -33 -13.5 -47t-45.5 -14h-189q-32 0 -43 13t-16 48 l-4 31q-130 -108 -287 -108q-147 0 -224 76t-77 186zM176 1190l12 100q9 71 63.5 113.5t129.5 42.5q60 0 119 -23l86 -32q8 -3 21.5 -8.5t20.5 -8.5t16 -5.5t15 -2.5q32 0 39 27l2 8q7 31 21 42t45 11h106q59 0 52 -70l-9 -92q-7 -75 -55 -115t-117 -40q-76 0 -141 20 l-88 29q-64 22 -74 22q-32 0 -39 -26l-2 -8q-7 -32 -21 -43t-44 -11h-109q-56 0 -49 70zM397 291q0 -53 70 -53q81 0 188 75v68h-188q-70 0 -70 -64v-26z" />
<glyph unicode="&#xe4;" horiz-adv-x="1069" d="M78 246v88q0 110 87.5 187t240.5 77h249v113q0 49 -26.5 71.5t-89.5 22.5q-66 0 -94.5 -19t-28.5 -65v-14q0 -32 -14 -46t-46 -14h-186q-32 0 -45.5 14t-13.5 46v24q0 309 434 309q225 0 328.5 -79t103.5 -230v-670q0 -33 -13.5 -47t-45.5 -14h-189q-32 0 -43 13t-16 48 l-4 31q-130 -108 -287 -108q-147 0 -224 76t-77 186zM264 1200v189q0 32 14 46.5t46 14.5h122q32 0 45 -14t13 -47v-189q0 -32 -13 -45.5t-45 -13.5h-122q-32 0 -46 13.5t-14 45.5zM397 291q0 -53 70 -53q81 0 188 75v68h-188q-70 0 -70 -64v-26zM582 1200v189q0 33 13.5 47 t45.5 14h123q32 0 44.5 -14t12.5 -47v-189q0 -33 -12.5 -46t-44.5 -13h-123q-32 0 -45.5 13.5t-13.5 45.5z" />
<glyph unicode="&#xe5;" horiz-adv-x="1069" d="M78 246v88q0 110 87.5 187t240.5 77h249v113q0 49 -26.5 71.5t-89.5 22.5q-66 0 -94.5 -19t-28.5 -65v-14q0 -32 -14 -46t-46 -14h-186q-32 0 -45.5 14t-13.5 46v24q0 309 434 309q225 0 328.5 -79t103.5 -230v-670q0 -33 -13.5 -47t-45.5 -14h-189q-32 0 -43 13t-16 48 l-4 31q-130 -108 -287 -108q-147 0 -224 76t-77 186zM299 1270v69q0 69 63 116.5t187 47.5t187 -47.5t63 -116.5v-69q0 -69 -63 -116.5t-187 -47.5t-187 47.5t-63 116.5zM397 291q0 -53 70 -53q81 0 188 75v68h-188q-70 0 -70 -64v-26zM471 1288q0 -57 78 -57t78 57v33 q0 55 -78 55t-78 -55v-33z" />
<glyph unicode="&#xe6;" horiz-adv-x="1603" d="M78 246v88q0 110 87.5 187t240.5 77h249v121q0 86 -116 86q-66 0 -94.5 -19t-28.5 -65v-14q0 -32 -14 -46t-46 -14h-186q-32 0 -45.5 14t-13.5 46v24q0 309 434 309q177 0 266 -82q110 82 287 82q430 0 430 -319v-227q0 -29 -13 -42.5t-42 -13.5h-498v-123 q0 -46 29.5 -68t93.5 -22q125 0 125 90v2q0 32 13.5 46t45.5 14h176q32 0 46 -14t14 -46v-14q0 -154 -99 -236.5t-321 -82.5q-267 0 -373 118q-159 -118 -346 -118q-147 0 -224 76t-77 186zM397 291q0 -53 70 -53q81 0 188 75v68h-188q-70 0 -70 -64v-26zM975 653h248v54 q0 92 -125 92q-123 0 -123 -92v-54z" />
<glyph unicode="&#xe7;" horiz-adv-x="1019" d="M82 303v418q0 151 109.5 235t334.5 84t334 -83.5t109 -235.5v-31q0 -32 -14 -45.5t-46 -13.5h-194q-32 0 -46 13.5t-14 45.5v6q0 50 -28.5 69t-94.5 19t-94 -19t-28 -69v-366q0 -50 28 -70t94 -20t94.5 20t28.5 70v24q0 32 14 46t46 14h194q32 0 46 -14t14 -46v-51 q0 -144 -101 -227t-307 -90l-16 -66h55q182 0 182 -172q0 -180 -182 -180h-256q-33 0 -47 13.5t-14 45.5v43q0 32 14 45t47 13h199q18 0 18 20q0 21 -18 21h-166q-96 0 -72 81l43 150q-135 29 -200.5 106.5t-65.5 196.5z" />
<glyph unicode="&#xe8;" horiz-adv-x="1030" d="M82 303v418q0 152 108.5 235.5t333.5 83.5q430 0 430 -319v-227q0 -29 -13 -42.5t-42 -13.5h-498v-123q0 -46 29.5 -68t93.5 -22q125 0 125 90v2q0 32 14 46t46 14h176q32 0 45.5 -14t13.5 -46v-14q0 -154 -99 -236.5t-321 -82.5q-225 0 -333.5 83.5t-108.5 235.5z M219 1432.5q9 17.5 41 17.5h219q58 0 84 -61l82 -189q25 -59 -33 -59h-161q-53 0 -80 41l-142 207q-19 26 -10 43.5zM401 647h248v60q0 92 -125 92q-123 0 -123 -92v-60z" />
<glyph unicode="&#xe9;" horiz-adv-x="1030" d="M82 303v418q0 152 108.5 235.5t333.5 83.5q430 0 430 -319v-227q0 -29 -13 -42.5t-42 -13.5h-498v-123q0 -46 29.5 -68t93.5 -22q125 0 125 90v2q0 32 14 46t46 14h176q32 0 45.5 -14t13.5 -46v-14q0 -154 -99 -236.5t-321 -82.5q-225 0 -333.5 83.5t-108.5 235.5z M379 1200l82 189q26 61 84 61h219q32 0 41 -17.5t-10 -43.5l-142 -207q-27 -41 -80 -41h-161q-58 0 -33 59zM401 647h248v60q0 92 -125 92q-123 0 -123 -92v-60z" />
<glyph unicode="&#xea;" horiz-adv-x="1030" d="M82 303v418q0 152 108.5 235.5t333.5 83.5q430 0 430 -319v-227q0 -29 -13 -42.5t-42 -13.5h-498v-123q0 -46 29.5 -68t93.5 -22q125 0 125 90v2q0 32 14 46t46 14h176q32 0 45.5 -14t13.5 -46v-14q0 -154 -99 -236.5t-321 -82.5q-225 0 -333.5 83.5t-108.5 235.5z M214 1158q-10 17 9 42l146 189q23 30 44.5 45.5t51.5 15.5h119q30 0 51.5 -15.5t44.5 -45.5l145 -189q19 -25 9.5 -42t-41.5 -17h-160q-57 0 -84 59l-25 57l-24 -57q-10 -24 -32 -41.5t-52 -17.5h-160q-32 0 -42 17zM401 647h248v60q0 92 -125 92q-123 0 -123 -92v-60z" />
<glyph unicode="&#xeb;" horiz-adv-x="1030" d="M82 303v418q0 152 108.5 235.5t333.5 83.5q430 0 430 -319v-227q0 -29 -13 -42.5t-42 -13.5h-498v-123q0 -46 29.5 -68t93.5 -22q125 0 125 90v2q0 32 14 46t46 14h176q32 0 45.5 -14t13.5 -46v-14q0 -154 -99 -236.5t-321 -82.5q-225 0 -333.5 83.5t-108.5 235.5z M242 1200v189q0 33 13.5 47t45.5 14h123q32 0 44.5 -14t12.5 -47v-189q0 -33 -12.5 -46t-44.5 -13h-123q-32 0 -45.5 13.5t-13.5 45.5zM401 647h248v60q0 92 -125 92q-123 0 -123 -92v-60zM559 1200v189q0 33 13.5 47t45.5 14h123q32 0 45 -14t13 -47v-189q0 -32 -13 -45.5 t-45 -13.5h-123q-32 0 -45.5 13.5t-13.5 45.5z" />
<glyph unicode="&#xec;" horiz-adv-x="532" d="M-41 1432.5q9 17.5 41 17.5h219q58 0 84 -61l82 -189q25 -59 -33 -59h-162q-52 0 -79 41l-142 207q-19 26 -10 43.5zM102 61v902q0 32 14 46.5t46 14.5h211q32 0 44.5 -14t12.5 -47v-902q0 -33 -12.5 -47t-44.5 -14h-211q-32 0 -46 14.5t-14 46.5z" />
<glyph unicode="&#xed;" horiz-adv-x="532" d="M102 61v902q0 32 14 46.5t46 14.5h211q32 0 44.5 -14t12.5 -47v-902q0 -33 -12.5 -47t-44.5 -14h-211q-32 0 -46 14.5t-14 46.5zM141 1200l82 189q26 61 84 61h219q32 0 41 -17.5t-10 -43.5l-141 -207q-27 -41 -80 -41h-162q-58 0 -33 59z" />
<glyph unicode="&#xee;" horiz-adv-x="532" d="M-36 1158q-10 17 9 42l146 189q23 30 44.5 45.5t51.5 15.5h119q30 0 51.5 -15.5t44.5 -45.5l145 -189q19 -25 9.5 -42t-41.5 -17h-160q-57 0 -84 59l-25 57l-24 -57q-10 -24 -32 -41.5t-52 -17.5h-160q-32 0 -42 17zM102 61v902q0 32 14 46.5t46 14.5h211q32 0 44.5 -14 t12.5 -47v-902q0 -33 -12.5 -47t-44.5 -14h-211q-32 0 -46 14.5t-14 46.5z" />
<glyph unicode="&#xef;" horiz-adv-x="532" d="M-10 1200v189q0 33 13.5 47t45.5 14h123q32 0 44.5 -14t12.5 -47v-189q0 -33 -12.5 -46t-44.5 -13h-123q-32 0 -45.5 13.5t-13.5 45.5zM102 61v902q0 32 14 46.5t46 14.5h211q32 0 44.5 -14t12.5 -47v-902q0 -33 -12.5 -47t-44.5 -14h-211q-32 0 -46 14.5t-14 46.5z M307 1200v189q0 32 14 46.5t46 14.5h122q32 0 45 -14t13 -47v-189q0 -32 -13 -45.5t-45 -13.5h-122q-32 0 -46 13.5t-14 45.5z" />
<glyph unicode="&#xf0;" horiz-adv-x="1175" d="M82 303v422q0 150 75.5 232.5t227.5 82.5q168 0 307 -106v129l-39 -23q-28 -15 -46.5 -10t-35.5 31l-22 37q-30 51 24 80l62 36q-27 11 -80 11h-207q-32 0 -46.5 14.5t-14.5 46.5v105q0 32 14 45.5t47 13.5h207q220 0 338 -88l82 49q55 32 84 -22l22 -35q30 -46 -24 -80 l-72 -43q14 -43 14 -101v-827q0 -151 -111.5 -235t-336.5 -84q-228 0 -348.5 85t-120.5 234zM410 332q0 -92 141 -92t141 92v344q-117 84 -203 84q-28 0 -45 -7t-24 -21.5t-8.5 -26t-1.5 -31.5v-342z" />
<glyph unicode="&#xf1;" horiz-adv-x="1132" d="M102 61v904q0 32 14 45.5t46 13.5h196q32 0 44.5 -13t15.5 -46l4 -35q133 110 317 110q138 0 219.5 -79t81.5 -205v-695q0 -33 -13.5 -47t-45.5 -14h-207q-32 0 -46.5 14.5t-14.5 46.5v611q0 50 -15 69t-63 19q-97 0 -205 -82v-617q0 -33 -12.5 -47t-44.5 -14h-211 q-32 0 -46 14.5t-14 46.5zM188 1210l13 101q9 71 63 113t129 42q62 0 119 -22l86 -33q8 -3 21.5 -8.5t21 -8.5t16.5 -5.5t15 -2.5q32 0 39 27l2 8q8 31 21.5 42.5t43.5 11.5h107q58 0 51 -70l-8 -92q-7 -75 -55 -115.5t-117 -40.5q-74 0 -142 21l-88 28q-11 4 -28.5 11 t-27 9.5t-17.5 2.5q-32 0 -39 -27l-2 -8q-7 -31 -21.5 -42t-44.5 -11h-108q-57 0 -50 69z" />
<glyph unicode="&#xf2;" horiz-adv-x="1101" d="M82 303v418q0 149 120.5 234t348.5 85t348.5 -85t120.5 -234v-418q0 -149 -120.5 -234t-348.5 -85t-348.5 85t-120.5 234zM254 1432.5q9 17.5 41 17.5h219q58 0 84 -61l82 -189q25 -59 -33 -59h-162q-52 0 -79 41l-142 207q-19 26 -10 43.5zM410 332q0 -92 141 -92 t141 92v362q0 90 -141 90t-141 -90v-362z" />
<glyph unicode="&#xf3;" horiz-adv-x="1101" d="M82 303v418q0 149 120.5 234t348.5 85t348.5 -85t120.5 -234v-418q0 -149 -120.5 -234t-348.5 -85t-348.5 85t-120.5 234zM410 332q0 -92 141 -92t141 92v362q0 90 -141 90t-141 -90v-362zM420 1200l82 189q26 61 84 61h219q32 0 41 -17.5t-10 -43.5l-142 -207 q-27 -41 -80 -41h-161q-58 0 -33 59z" />
<glyph unicode="&#xf4;" horiz-adv-x="1101" d="M82 303v418q0 149 120.5 234t348.5 85t348.5 -85t120.5 -234v-418q0 -149 -120.5 -234t-348.5 -85t-348.5 85t-120.5 234zM245 1158q-10 17 9 42l145 189q47 61 97 61h118q50 0 97 -61l145 -189q19 -25 9 -42t-42 -17h-159q-57 0 -84 59l-25 57l-25 -57 q-10 -24 -32 -41.5t-52 -17.5h-159q-32 0 -42 17zM410 332q0 -92 141 -92t141 92v362q0 90 -141 90t-141 -90v-362z" />
<glyph unicode="&#xf5;" horiz-adv-x="1101" d="M82 303v418q0 149 120.5 234t348.5 85t348.5 -85t120.5 -234v-418q0 -149 -120.5 -234t-348.5 -85t-348.5 85t-120.5 234zM182 1190l13 100q9 71 63 113.5t129 42.5q60 0 119 -23l86 -32q8 -3 21.5 -8.5t21 -8.5t16.5 -5.5t15 -2.5q32 0 39 27l2 8q8 31 21 42t44 11h107 q58 0 51 -70l-8 -92q-7 -75 -55 -115t-117 -40q-77 0 -142 20l-88 29q-64 22 -74 22q-32 0 -38 -26l-2 -8q-7 -32 -21.5 -43t-44.5 -11h-109q-56 0 -49 70zM410 332q0 -92 141 -92t141 92v362q0 90 -141 90t-141 -90v-362z" />
<glyph unicode="&#xf6;" horiz-adv-x="1101" d="M82 303v418q0 149 120.5 234t348.5 85t348.5 -85t120.5 -234v-418q0 -149 -120.5 -234t-348.5 -85t-348.5 85t-120.5 234zM276 1200v189q0 32 14 46.5t46 14.5h123q32 0 44.5 -14t12.5 -47v-189q0 -33 -12.5 -46t-44.5 -13h-123q-32 0 -46 13.5t-14 45.5zM410 332 q0 -92 141 -92t141 92v362q0 90 -141 90t-141 -90v-362zM594 1200v189q0 33 13.5 47t45.5 14h123q32 0 45 -14t13 -47v-189q0 -32 -13 -45.5t-45 -13.5h-123q-32 0 -45.5 13.5t-13.5 45.5z" />
<glyph unicode="&#xf7;" horiz-adv-x="1181" d="M102 516v150q0 32 14.5 44.5t47.5 12.5h854q33 0 47 -12.5t14 -44.5v-150q0 -32 -14 -45.5t-47 -13.5h-854q-33 0 -47.5 13.5t-14.5 45.5zM424 129v170q0 33 13.5 47t45.5 14h217q32 0 45 -14t13 -47v-170q0 -32 -13 -45.5t-45 -13.5h-217q-32 0 -45.5 13.5t-13.5 45.5z M424 879v170q0 33 13.5 47t45.5 14h217q32 0 45 -14t13 -47v-170q0 -33 -13 -46.5t-45 -13.5h-217q-32 0 -45.5 14t-13.5 46z" />
<glyph unicode="&#xf8;" horiz-adv-x="1101" d="M82 303v418q0 149 120.5 234t348.5 85q96 0 188 -20l13 22q10 19 17.5 30.5t22.5 21.5t33 10h72q50 0 16 -62l-39 -71q146 -84 146 -250v-418q0 -149 -120.5 -234t-348.5 -85q-92 0 -191 18l-8 -16q-19 -35 -35 -48.5t-47 -13.5h-65q-24 0 -26 21.5t11 40.5l35 67 q-143 84 -143 250zM410 397l202 381q-27 6 -61 6q-141 0 -141 -90v-297zM489 244q18 -4 62 -4q141 0 141 92v295z" />
<glyph unicode="&#xf9;" horiz-adv-x="1120" d="M92 268v695q0 32 14 46.5t46 14.5h206q32 0 47 -14.5t15 -46.5v-611q0 -50 15 -69t63 -19q91 0 192 80v619q0 33 13 47t45 14h210q32 0 46 -14.5t14 -46.5v-904q0 -32 -14 -45.5t-46 -13.5h-196q-31 0 -43 12.5t-17 46.5l-4 33q-127 -108 -305 -108q-138 0 -219.5 79 t-81.5 205zM248 1432.5q9 17.5 41 17.5h219q58 0 84 -61l82 -189q25 -59 -33 -59h-162q-53 0 -80 41l-141 207q-19 26 -10 43.5z" />
<glyph unicode="&#xfa;" horiz-adv-x="1120" d="M92 268v695q0 32 14 46.5t46 14.5h206q32 0 47 -14.5t15 -46.5v-611q0 -50 15 -69t63 -19q91 0 192 80v619q0 33 13 47t45 14h210q32 0 46 -14.5t14 -46.5v-904q0 -32 -14 -45.5t-46 -13.5h-196q-31 0 -43 12.5t-17 46.5l-4 33q-127 -108 -305 -108q-138 0 -219.5 79 t-81.5 205zM426 1200l82 189q26 61 84 61h219q32 0 41 -17.5t-10 -43.5l-142 -207q-27 -41 -79 -41h-162q-58 0 -33 59z" />
<glyph unicode="&#xfb;" horiz-adv-x="1120" d="M92 268v695q0 32 14 46.5t46 14.5h206q32 0 47 -14.5t15 -46.5v-611q0 -50 15 -69t63 -19q91 0 192 80v619q0 33 13 47t45 14h210q32 0 46 -14.5t14 -46.5v-904q0 -32 -14 -45.5t-46 -13.5h-196q-31 0 -43 12.5t-17 46.5l-4 33q-127 -108 -305 -108q-138 0 -219.5 79 t-81.5 205zM216 1158q-10 17 9 42l146 189q23 30 44.5 45.5t51.5 15.5h119q30 0 51.5 -15.5t44.5 -45.5l145 -189q19 -25 9.5 -42t-41.5 -17h-160q-57 0 -84 59l-25 57l-24 -57q-10 -24 -32 -41.5t-52 -17.5h-160q-32 0 -42 17z" />
<glyph unicode="&#xfc;" horiz-adv-x="1120" d="M92 268v695q0 32 14 46.5t46 14.5h206q32 0 47 -14.5t15 -46.5v-611q0 -50 15 -69t63 -19q91 0 192 80v619q0 33 13 47t45 14h210q32 0 46 -14.5t14 -46.5v-904q0 -32 -14 -45.5t-46 -13.5h-196q-31 0 -43 12.5t-17 46.5l-4 33q-127 -108 -305 -108q-138 0 -219.5 79 t-81.5 205zM270 1200v189q0 32 14 46.5t46 14.5h123q32 0 44.5 -14t12.5 -47v-189q0 -33 -12.5 -46t-44.5 -13h-123q-32 0 -46 13.5t-14 45.5zM588 1200v189q0 33 13.5 47t45.5 14h123q32 0 44.5 -14t12.5 -47v-189q0 -33 -12.5 -46t-44.5 -13h-123q-32 0 -45.5 13.5 t-13.5 45.5z" />
<glyph unicode="&#xfd;" horiz-adv-x="1011" d="M14 963q-10 29 8 45t52 16h209q30 0 43.5 -14.5t23.5 -46.5l117 -371q8 -27 14.5 -56.5t10.5 -52.5t6.5 -42.5t4 -31.5t1.5 -14q2 13 19.5 82t29.5 105l127 381q10 32 24 46.5t44 14.5h190q34 0 51.5 -16t7.5 -45l-444 -1309q-9 -29 -24 -45.5t-44 -16.5h-151 q-34 0 -51.5 16t-8.5 46l88 311zM391 1200l82 189q26 61 84 61h219q32 0 41 -17.5t-10 -43.5l-141 -207q-27 -41 -80 -41h-162q-58 0 -33 59z" />
<glyph unicode="&#xfe;" horiz-adv-x="1122" d="M102 -346v1716q0 33 14 47.5t46 14.5h209q32 0 45.5 -14.5t13.5 -47.5v-436q134 106 307 106q152 0 227.5 -82.5t75.5 -232.5v-426q0 -150 -75.5 -232.5t-227.5 -82.5q-169 0 -307 104v-434q0 -33 -12.5 -47.5t-44.5 -14.5h-211q-32 0 -46 14.5t-14 47.5zM430 348 q111 -84 203 -84q28 0 45.5 7t24 21.5t8.5 26t2 31.5v324q0 20 -2 31.5t-8.5 26t-24 21.5t-45.5 7q-92 0 -203 -84v-328z" />
<glyph unicode="&#xff;" horiz-adv-x="1011" d="M14 963q-10 29 8 45t52 16h209q30 0 43.5 -14.5t23.5 -46.5l117 -371q8 -27 14.5 -56.5t10.5 -52.5t6.5 -42.5t4 -31.5t1.5 -14q2 13 19.5 82t29.5 105l127 381q10 32 24 46.5t44 14.5h190q34 0 51.5 -16t7.5 -45l-444 -1309q-9 -29 -24 -45.5t-44 -16.5h-151 q-34 0 -51.5 16t-8.5 46l88 311zM231 1200v189q0 32 14 46.5t46 14.5h123q32 0 44.5 -14t12.5 -47v-189q0 -33 -12.5 -46t-44.5 -13h-123q-32 0 -46 13.5t-14 45.5zM549 1200v189q0 33 13.5 47t45.5 14h123q32 0 44.5 -14t12.5 -47v-189q0 -33 -12.5 -46t-44.5 -13h-123 q-32 0 -45.5 13.5t-13.5 45.5z" />
<glyph unicode="&#x152;" horiz-adv-x="1724" d="M102 334v725q0 69 28.5 129.5t87.5 111t163.5 80t243.5 29.5q110 0 194 -35q16 19 51 19h701q33 0 47 -13t14 -45v-159q0 -32 -14.5 -46t-46.5 -14h-422v-266h389q33 0 47 -12.5t14 -44.5v-150q0 -32 -14 -45.5t-47 -13.5h-389v-308h442q33 0 47.5 -12.5t14.5 -44.5v-160 q0 -32 -14.5 -45.5t-47.5 -13.5h-721q-38 0 -51 18q-81 -34 -194 -34q-139 0 -243.5 29.5t-163.5 80t-87.5 111t-28.5 129.5zM440 393q0 -67 52 -100t133 -33t133.5 33t52.5 100v606q0 67 -52.5 100.5t-133.5 33.5t-133 -33.5t-52 -100.5v-606z" />
<glyph unicode="&#x153;" horiz-adv-x="1640" d="M82 303v418q0 149 120.5 234t348.5 85q186 0 285 -61q113 61 299 61q430 0 430 -319v-227q0 -56 -56 -56h-497v-123q0 -46 29.5 -68t93.5 -22q125 0 125 90v2q0 32 13.5 46t45.5 14h176q32 0 45.5 -14t13.5 -46v-14q0 -154 -98.5 -236.5t-320.5 -82.5q-192 0 -299 61 q-94 -61 -285 -61q-228 0 -348.5 85t-120.5 234zM410 332q0 -92 141 -92q133 0 141 82v372q0 90 -141 90t-141 -90v-362zM1012 653h248v54q0 92 -125 92q-123 0 -123 -92v-54z" />
<glyph unicode="&#x178;" horiz-adv-x="1142" d="M24.5 1376q11.5 17 43.5 17h249q54 0 74 -62l146 -407q12 -36 34 -123q17 69 41 123l172 407q12 31 27.5 46.5t44.5 15.5h217q33 0 45.5 -16.5t-0.5 -45.5l-377 -815v-455q0 -33 -12.5 -47t-44.5 -14h-221q-32 0 -46 14.5t-14 46.5v414l-378 856q-12 28 -0.5 45z M293 1548v189q0 33 13.5 47t45.5 14h123q32 0 44.5 -14t12.5 -47v-189q0 -33 -12.5 -46t-44.5 -13h-123q-32 0 -45.5 13.5t-13.5 45.5zM610 1548v189q0 32 14 46.5t46 14.5h123q32 0 44.5 -14t12.5 -47v-189q0 -33 -12.5 -46t-44.5 -13h-123q-32 0 -46 13.5t-14 45.5z" />
<glyph unicode="&#x2c6;" horiz-adv-x="733" d="M56.5 1158q-9.5 17 9.5 42l145 189q23 30 44.5 45.5t51.5 15.5h119q30 0 51.5 -15.5t44.5 -45.5l146 -189q19 -25 9 -42t-42 -17h-160q-57 0 -84 59l-24 57l-25 -57q-10 -24 -32 -41.5t-52 -17.5h-160q-32 0 -41.5 17z" />
<glyph unicode="&#x2dc;" horiz-adv-x="823" d="M35 1190l12 100q9 71 63.5 113.5t129.5 42.5q59 0 118 -23l86 -32q8 -3 21.5 -8.5t21 -8.5t16.5 -5.5t15 -2.5q32 0 39 27l2 8q7 31 21 42t45 11h106q58 0 51 -70l-8 -92q-7 -75 -55 -115t-117 -40q-76 0 -141 20l-88 29q-64 22 -74 22q-14 0 -25 -7t-14 -19l-2 -8 q-7 -32 -21 -43t-44 -11h-109q-56 0 -49 70z" />
<glyph unicode="&#x2000;" horiz-adv-x="927" />
<glyph unicode="&#x2001;" horiz-adv-x="1855" />
<glyph unicode="&#x2002;" horiz-adv-x="927" />
<glyph unicode="&#x2003;" horiz-adv-x="1855" />
<glyph unicode="&#x2004;" horiz-adv-x="618" />
<glyph unicode="&#x2005;" horiz-adv-x="463" />
<glyph unicode="&#x2006;" horiz-adv-x="309" />
<glyph unicode="&#x2007;" horiz-adv-x="309" />
<glyph unicode="&#x2008;" horiz-adv-x="231" />
<glyph unicode="&#x2009;" horiz-adv-x="371" />
<glyph unicode="&#x200a;" horiz-adv-x="103" />
<glyph unicode="&#x2010;" horiz-adv-x="874" d="M102 516v150q0 32 14.5 44.5t47.5 12.5h547q33 0 47 -12.5t14 -44.5v-150q0 -32 -14 -45.5t-47 -13.5h-547q-33 0 -47.5 13.5t-14.5 45.5z" />
<glyph unicode="&#x2011;" horiz-adv-x="874" d="M102 516v150q0 32 14.5 44.5t47.5 12.5h547q33 0 47 -12.5t14 -44.5v-150q0 -32 -14 -45.5t-47 -13.5h-547q-33 0 -47.5 13.5t-14.5 45.5z" />
<glyph unicode="&#x2012;" horiz-adv-x="874" d="M102 516v150q0 32 14.5 44.5t47.5 12.5h547q33 0 47 -12.5t14 -44.5v-150q0 -32 -14 -45.5t-47 -13.5h-547q-33 0 -47.5 13.5t-14.5 45.5z" />
<glyph unicode="&#x2013;" horiz-adv-x="1079" d="M102 516v150q0 32 14.5 44.5t47.5 12.5h751q33 0 47.5 -12.5t14.5 -44.5v-150q0 -32 -14.5 -45.5t-47.5 -13.5h-751q-33 0 -47.5 13.5t-14.5 45.5z" />
<glyph unicode="&#x2014;" horiz-adv-x="1716" d="M102 516v150q0 32 14.5 44.5t47.5 12.5h1388q33 0 47.5 -12.5t14.5 -44.5v-150q0 -32 -14.5 -45.5t-47.5 -13.5h-1388q-33 0 -47.5 13.5t-14.5 45.5z" />
<glyph unicode="&#x2018;" horiz-adv-x="600" d="M102 1073v162q0 251 338 328q32 8 49 -1t27 -40l49 -140q20 -57 -41 -75q-51 -15 -69.5 -35t-18.5 -55v-144q0 -33 -13.5 -47t-45.5 -14h-217q-32 0 -45 14t-13 47z" />
<glyph unicode="&#x2019;" horiz-adv-x="600" d="M35 1192q-20 58 41 76q51 15 69.5 35t18.5 55v143q0 33 13.5 47.5t45.5 14.5h217q32 0 45 -14.5t13 -47.5v-162q0 -250 -338 -327q-32 -8 -49 1t-27 40z" />
<glyph unicode="&#x201a;" horiz-adv-x="600" d="M35 -80q-20 58 41 76q51 15 69.5 35t18.5 55v143q0 33 13.5 47.5t45.5 14.5h217q32 0 45 -14.5t13 -47.5v-161q0 -251 -338 -328q-32 -8 -49 1t-27 40z" />
<glyph unicode="&#x201c;" horiz-adv-x="1103" d="M102 1073v162q0 251 338 328q32 8 49 -1t27 -40l49 -140q20 -57 -41 -75q-51 -15 -69.5 -35t-18.5 -55v-144q0 -33 -13.5 -47t-45.5 -14h-217q-32 0 -45 14t-13 47zM606 1073v162q0 251 338 328q32 8 49 -1t27 -40l49 -140q20 -57 -41 -75q-51 -15 -69.5 -35t-18.5 -55 v-144q0 -33 -13.5 -47t-45.5 -14h-217q-32 0 -45 14t-13 47z" />
<glyph unicode="&#x201d;" horiz-adv-x="1103" d="M35 1192q-20 58 41 76q51 15 69.5 35t18.5 55v143q0 33 13.5 47.5t45.5 14.5h217q32 0 45 -14.5t13 -47.5v-162q0 -250 -338 -327q-32 -8 -49 1t-27 40zM539 1192q-20 58 41 76q51 15 69.5 35t18.5 55v143q0 33 13.5 47.5t45.5 14.5h217q32 0 44.5 -14.5t12.5 -47.5v-162 q0 -250 -337 -327q-32 -8 -49 1t-27 40z" />
<glyph unicode="&#x201e;" horiz-adv-x="1103" d="M35 -80q-20 58 41 76q51 15 69.5 35t18.5 55v143q0 33 13.5 47.5t45.5 14.5h217q32 0 45 -14.5t13 -47.5v-161q0 -251 -338 -328q-32 -8 -49 1t-27 40zM539 -80q-20 58 41 76q51 15 69.5 35t18.5 55v143q0 33 13.5 47.5t45.5 14.5h217q32 0 44.5 -14.5t12.5 -47.5v-161 q0 -251 -337 -328q-32 -8 -49 1t-27 40z" />
<glyph unicode="&#x2022;" horiz-adv-x="579" d="M123 408v313q0 33 13.5 47t45.5 14h217q32 0 45 -14t13 -47v-313q0 -33 -13 -46.5t-45 -13.5h-217q-32 0 -45.5 14t-13.5 46z" />
<glyph unicode="&#x2026;" horiz-adv-x="1552" d="M102 59v170q0 33 14 47.5t46 14.5h217q32 0 44.5 -14.5t12.5 -47.5v-170q0 -33 -12.5 -46t-44.5 -13h-217q-32 0 -46 13.5t-14 45.5zM610 59v170q0 33 14 47.5t46 14.5h217q32 0 44.5 -14.5t12.5 -47.5v-170q0 -33 -12.5 -46t-44.5 -13h-217q-32 0 -46 13.5t-14 45.5z M1116 59v170q0 33 14 47.5t46 14.5h217q32 0 44.5 -14.5t12.5 -47.5v-170q0 -33 -12.5 -46t-44.5 -13h-217q-32 0 -46 13.5t-14 45.5z" />
<glyph unicode="&#x202f;" horiz-adv-x="371" />
<glyph unicode="&#x2039;" horiz-adv-x="749" d="M123 401v203q0 45 55 82l387 268q25 17 43.5 3.5t18.5 -46.5v-204q0 -20 -10.5 -36.5t-19.5 -24t-32 -23.5l-184 -121l184 -119q20 -13 31 -21.5t21 -25.5t10 -37v-205q0 -32 -20 -45t-42 2l-387 268q-55 35 -55 82z" />
<glyph unicode="&#x203a;" horiz-adv-x="749" d="M123 94v205q0 29 15.5 47t45.5 37l185 119l-185 121q-23 16 -32 23.5t-19 24t-10 36.5v204q0 33 18 46.5t43 -3.5l387 -268q56 -37 56 -82v-203q0 -46 -56 -82l-387 -268q-22 -15 -41.5 -2t-19.5 45z" />
<glyph unicode="&#x205f;" horiz-adv-x="463" />
<glyph unicode="&#x20ac;" horiz-adv-x="1361" d="M123 502v88q0 32 14 44.5t47 12.5h47v90h-47q-32 0 -46.5 14t-14.5 46v88q0 32 14 44.5t47 12.5h47v117q0 70 25.5 129.5t81 110.5t157 80.5t240.5 29.5t240.5 -29.5t157 -80.5t81 -110.5t25.5 -129.5v-94q0 -33 -12.5 -47.5t-44.5 -14.5h-211q-32 0 -46 14.5t-14 47.5 v34q0 68 -46.5 101t-125.5 33t-124.5 -33t-45.5 -101v-57h150q33 0 47 -12.5t14 -44.5v-88q0 -32 -14.5 -46t-46.5 -14h-150v-90h150q33 0 47 -12.5t14 -44.5v-88q0 -32 -14.5 -46t-46.5 -14h-150v-49q0 -68 45.5 -100.5t124.5 -32.5t125.5 32.5t46.5 100.5v66q0 32 14 46.5 t46 14.5h211q32 0 44.5 -14t12.5 -47v-125q0 -70 -25.5 -129.5t-81 -110.5t-157 -80.5t-240.5 -29.5t-240.5 29.5t-157 80.5t-81 110.5t-25.5 129.5v108h-47q-32 0 -46.5 14t-14.5 46z" />
<glyph unicode="&#x2122;" horiz-adv-x="1910" d="M123 1214v132q0 26 11.5 36.5t39.5 10.5h565q28 0 40 -10.5t12 -36.5v-132q0 -27 -12 -38t-40 -11h-143v-557q0 -28 -11 -39.5t-38 -11.5h-178q-28 0 -39 11.5t-11 39.5v557h-145q-28 0 -39.5 11t-11.5 38zM879 608v733q0 28 11.5 40t39.5 12h157q31 0 43 -23l168 -311 q24 -45 35 -76q11 31 31 70l164 317q10 23 45 23h166q27 0 38 -12t11 -40v-733q0 -28 -11 -39.5t-38 -11.5h-166q-27 0 -38 11.5t-11 39.5v285q-1 -2 -4.5 -12t-8.5 -24t-8 -23l-45 -101q-22 -49 -65 -49h-115q-48 0 -70 49l-51 105q-11 24 -22 69v-299q0 -28 -11 -39.5 t-37 -11.5h-157q-28 0 -39.5 11.5t-11.5 39.5z" />
<glyph unicode="&#x25fc;" horiz-adv-x="1024" d="M0 0v1024h1024v-1024h-1024z" />
</font>
</defs>
</svg>
