<?xml version="1.0" standalone="no"?>
<!DOCTYPE svg PUBLIC "-//W3C//DTD SVG 1.1//EN" "http://www.w3.org/Graphics/SVG/1.1/DTD/svg11.dtd" >
<svg xmlns="http://www.w3.org/2000/svg">
<metadata></metadata>
<defs>
<font id="geogrotesque_smbd_itSBdIt" horiz-adv-x="1105" >
<font-face units-per-em="2048" ascent="1536" descent="-512" />
<missing-glyph horiz-adv-x="397" />
<glyph unicode="&#xfb01;" horiz-adv-x="1218" d="M143 854l11 102q3 26 15 36.5t42 13.5l102 10h9l14 112q38 304 459 304h411q28 0 38 -12t7 -40l-14 -118q-6 -52 -57 -52h-396q-89 0 -131.5 -26.5t-50.5 -83.5l-12 -84h577q28 0 38 -10.5t7 -38.5l-110 -914q-3 -28 -16 -40.5t-39 -12.5h-173q-26 0 -36 12.5t-7 40.5 l95 750h-361l-145 -1163q-3 -28 -14.5 -40t-38.5 -12h-170q-51 0 -45 52l145 1163h-111q-27 0 -36.5 11.5t-6.5 39.5z" />
<glyph unicode="&#xfb02;" horiz-adv-x="1218" d="M143 854l11 102q3 26 15 36.5t42 13.5l102 10h9l14 112q38 304 459 304h424q28 0 38 -12t7 -40l-162 -1327q-3 -28 -16 -40.5t-39 -12.5h-173q-26 0 -36 12.5t-7 40.5l144 1157h-191q-89 0 -131.5 -26.5t-50.5 -83.5l-12 -84h170q28 0 39 -10.5t8 -36.5l-14 -115 q-6 -51 -58 -51h-170l-145 -1163q-3 -28 -14.5 -40t-38.5 -12h-170q-51 0 -45 52l145 1163h-111q-27 0 -36.5 11.5t-6.5 39.5z" />
<glyph unicode="&#xfb03;" horiz-adv-x="1839" d="M147 856l13 100q3 26 15 36.5t40 13.5l104 10h7l16 123q41 301 467 301h29q27 0 37.5 -12t7.5 -39l-15 -117q-3 -27 -17 -39t-42 -12h-18q-169 0 -183 -113l-12 -92h358l15 114q38 302 458 302h412q28 0 38 -12t7 -40l-14 -116q-6 -52 -58 -52h-395q-88 0 -130.5 -26.5 t-51.5 -85.5l-12 -84h577q28 0 38 -10.5t7 -38.5l-110 -916q-6 -51 -56 -51h-172q-49 0 -43 51l95 754h-361l-145 -1165q-3 -28 -15 -40t-39 -12h-170q-51 0 -45 52l146 1165h-359l-145 -1165q-3 -28 -15 -40t-38 -12h-170q-28 0 -38 12t-7 40l145 1165h-110 q-28 0 -38.5 11.5t-7.5 39.5z" />
<glyph unicode="&#xfb04;" horiz-adv-x="1851" d="M145 856l13 100q3 26 15 36.5t40 13.5l104 10h9l14 123q16 142 130.5 221.5t336.5 79.5h29q28 0 38 -11.5t7 -39.5l-15 -117q-3 -27 -16.5 -39t-40.5 -12h-21q-86 0 -130.5 -27.5t-51.5 -85.5l-12 -92h360l15 114q38 302 458 302h424q28 0 38 -12t7 -40l-161 -1329 q-6 -51 -56 -51h-172q-49 0 -43 51l144 1161h-191q-88 0 -130.5 -26.5t-51.5 -85.5l-12 -84h170q28 0 39 -10.5t8 -36.5l-15 -113q-3 -27 -16.5 -39t-40.5 -12h-170l-145 -1165q-3 -28 -15 -40t-39 -12h-170q-51 0 -45 52l146 1165h-361l-143 -1165q-3 -28 -15.5 -40 t-39.5 -12h-170q-51 0 -45 52l145 1165h-111q-28 0 -38 11.5t-7 39.5z" />
<glyph horiz-adv-x="0" />
<glyph horiz-adv-x="682" />
<glyph unicode=" "  horiz-adv-x="397" />
<glyph unicode="&#x09;" horiz-adv-x="397" />
<glyph unicode="&#xa0;" horiz-adv-x="397" />
<glyph unicode="!" horiz-adv-x="567" d="M147 51l21 166q3 27 16.5 39t40.5 12h178q27 0 36.5 -11.5t6.5 -39.5l-20 -166q-3 -28 -15 -39.5t-40 -11.5h-178q-28 0 -38.5 11.5t-7.5 39.5zM223 424l19 375l65 540q5 28 18 41t40 13h180q27 0 36.5 -13t4.5 -41l-64 -540l-73 -375q-6 -28 -18 -39.5t-38 -11.5h-127 q-27 0 -36 11t-7 40z" />
<glyph unicode="&#x22;" horiz-adv-x="874" d="M268 1006l17 333q3 54 57 54h166q50 0 41 -54l-62 -333q-5 -28 -17.5 -40t-39.5 -12h-119q-27 0 -36 11.5t-7 40.5zM633 1006l18 333q3 54 58 54h163q52 0 43 -54l-63 -333q-5 -29 -16.5 -40.5t-38.5 -11.5h-121q-26 0 -35.5 12t-7.5 40z" />
<glyph unicode="#" horiz-adv-x="1388" d="M188 420l11 90q3 26 15.5 36.5t39.5 10.5h141l64 154h-86q-28 0 -39 11.5t-8 37.5l10 90q3 26 17 36.5t42 10.5h142l65 160q19 53 70 53h123q51 0 30 -53l-65 -160h250l65 160q22 53 70 53h125q49 0 28 -53l-65 -160h80q28 0 39 -10.5t8 -36.5l-10 -90 q-3 -26 -16.5 -37.5t-41.5 -11.5h-135l-63 -154h82q27 0 37.5 -10.5t7.5 -36.5l-11 -90q-3 -27 -16.5 -39t-40.5 -12h-135l-66 -160q-11 -27 -25.5 -39t-41.5 -12h-125q-51 0 -31 51l66 160h-252l-66 -160q-11 -27 -25.5 -39t-41.5 -12h-125q-51 0 -31 51l65 160h-88 q-26 0 -36 11.5t-7 39.5zM618 557h252l64 154h-250z" />
<glyph unicode="$" horiz-adv-x="1097" d="M201 401q0 15 2 33l6 47q3 25 15 36t38 11h152q25 0 33.5 -10.5t5.5 -36.5l-2 -22q-2 -16 -2 -27q0 -36 42.5 -54t110.5 -18q168 0 178 82l2 15q2 16 2 35q0 39 -82 69l-278 107q-65 25 -102 76t-37 118q0 14 2 37l6 64q8 94 77.5 161.5t215.5 89.5l16 125q6 54 57 54 h170q26 0 35 -13t6 -41l-16 -133q111 -26 167 -88t56 -139q0 -13 -2 -33l-4 -35q-3 -26 -15 -36.5t-38 -10.5h-152q-44 0 -41 47l2 25q2 20 2 29q0 69 -137 69q-72 0 -110 -16.5t-45 -61.5l-2 -12q-3 -18 -3 -24q0 -47 52 -66l284 -102q170 -61 170 -191q0 -18 -4 -49 l-10 -92q-10 -89 -82.5 -154.5t-214.5 -87.5l-14 -125q-3 -28 -15.5 -40.5t-38.5 -12.5h-170q-51 0 -45 53l15 127q-129 22 -193.5 82.5t-64.5 138.5z" />
<glyph unicode="%" horiz-adv-x="1779" d="M254 946q0 23 2 35l25 199q13 111 92 170t248 59q148 0 224.5 -51.5t76.5 -140.5q0 -17 -4 -41l-25 -197q-26 -229 -338 -229q-151 0 -226 51.5t-75 144.5zM432.5 18q-4.5 18 7.5 35l811 1286q34 54 82 54h156q23 0 27.5 -16t-9.5 -38l-815 -1286q-18 -29 -35 -41 t-43 -12h-155q-22 0 -26.5 18zM475 977q0 -53 94 -53q99 0 107 63l22 182v11q0 53 -96 53t-104 -62l-23 -182v-12zM1024 176q0 23 2 35l25 199q14 111 93 170t247 59q148 0 224.5 -52t76.5 -141q0 -26 -2 -38l-25 -199q-26 -229 -338 -229q-152 0 -227.5 51.5t-75.5 144.5z M1247 209q0 -53 94 -53q99 0 107 63l20 180v13q0 53 -94 53q-98 0 -104 -62l-23 -184v-10z" />
<glyph unicode="&#x26;" horiz-adv-x="1425" d="M160 272q0 32 2 50l22 170q11 88 57 143t144 90q-131 46 -131 172q0 9 4 41l18 145q6 55 22 99.5t51 88t87.5 73t136 47.5t191.5 18q217 0 323.5 -78.5t106.5 -208.5q0 -32 -2 -57l-6 -55q-6 -52 -56 -52h-172q-50 0 -43 52l3 18q2 27 2 43q0 117 -177 117 q-93 0 -142.5 -35t-59.5 -117l-6 -51q-1 -8 -2 -17t-2 -14.5t-1 -7.5q0 -119 187 -119h688q28 0 38 -11.5t7 -37.5l-14 -121q-6 -51 -58 -51h-118l-37 -289q-7 -55 -26.5 -101t-61 -90t-102.5 -74.5t-157 -49t-219 -18.5q-110 0 -196 15t-142 41t-92.5 63.5t-51.5 78.5 t-15 90zM436 328q0 -64 69.5 -93.5t176.5 -29.5q258 0 276 151l31 250h-317q-109 0 -160.5 -35.5t-60.5 -113.5l-13 -99q-2 -16 -2 -30z" />
<glyph unicode="'" horiz-adv-x="507" d="M268 1006l17 333q3 54 57 54h166q50 0 41 -54l-62 -333q-5 -28 -17.5 -40t-39.5 -12h-119q-27 0 -36 11.5t-7 40.5z" />
<glyph unicode="(" horiz-adv-x="731" d="M104 -166q0 6 5 41l155 1272q14 110 60.5 175t139 96.5t243.5 31.5h53q50 0 45 -51l-14 -119q-3 -27 -17.5 -39t-42.5 -12h-18q-85 0 -125.5 -26.5t-48.5 -84.5l-152 -1227q-2 -18 -2 -24q0 -47 36 -69.5t114 -22.5h20q52 0 45 -51l-16 -119q-3 -27 -16 -39t-40 -12h-16 q-194 0 -301 75t-107 205z" />
<glyph unicode=")" horiz-adv-x="731" d="M45 -395l14 119q6 51 58 51h18q87 0 127.5 26t48.5 84l150 1215q4 32 4 37q0 47 -36.5 69.5t-115.5 22.5h-18q-52 0 -45 51l16 119q3 28 15.5 39.5t40.5 11.5h16q194 0 300.5 -75t106.5 -206q0 -13 -4 -41l-155 -1271q-14 -110 -60.5 -175t-139 -96.5t-243.5 -31.5h-53 q-50 0 -45 51z" />
<glyph unicode="*" horiz-adv-x="1107" d="M252.5 883q6.5 16 34.5 28l223 99l-199 100q-24 12 -27 28t13 40l47 75q30 49 74 19l200 -142l17 269q1 28 14.5 39.5t40.5 11.5h92q27 0 37 -12t4 -39l-51 -260l223 135q26 15 41.5 11t26.5 -28l37 -79q21 -46 -31 -68l-229 -102l202 -99q25 -11 27.5 -27.5t-12.5 -39.5 l-49 -80q-29 -47 -72 -17l-193 134l-14 -240q-1 -29 -13.5 -41t-39.5 -12h-92q-54 0 -43 53l49 248l-238 -144q-47 -27 -65 19l-31 82q-10 23 -3.5 39z" />
<glyph unicode="+" horiz-adv-x="1146" d="M197 633v121q0 27 11.5 38t39.5 11h289v291q0 28 11 40.5t38 12.5h121q26 0 37.5 -12.5t11.5 -40.5v-291h293q27 0 39 -11t12 -38v-121q0 -27 -12 -39t-39 -12h-293v-289q0 -51 -49 -51h-121q-27 0 -38 12t-11 39v289h-289q-28 0 -39.5 11.5t-11.5 39.5z" />
<glyph unicode="," horiz-adv-x="567" d="M35 -90q-6 26 4 40t39 23q55 18 77 42.5t27 64.5l19 137q3 28 16 39.5t41 11.5h174q27 0 36.5 -11.5t6.5 -39.5l-20 -151q-15 -123 -97 -196t-235 -108q-28 -6 -41 0.5t-19 32.5z" />
<glyph unicode="-" horiz-adv-x="892" d="M182 530v121q0 27 12 38t39 11h549q27 0 39.5 -11t12.5 -38v-121q0 -49 -52 -49h-549q-51 0 -51 49z" />
<glyph unicode="." horiz-adv-x="512" d="M125 51l18 166q3 28 16.5 39.5t41.5 11.5h176q26 0 35 -11.5t6 -39.5l-21 -166q-3 -28 -15 -39.5t-40 -11.5h-174q-27 0 -36.5 11.5t-6.5 39.5z" />
<glyph unicode="/" horiz-adv-x="749" d="M-2 -250l606 1628q9 28 24 41t40 13h192q54 0 35 -54l-608 -1628q-11 -28 -25.5 -40.5t-40.5 -12.5h-190q-51 0 -33 53z" />
<glyph unicode="0" horiz-adv-x="1150" d="M133 279q0 21 4 53l90 743q6 55 24.5 101.5t57 90.5t93.5 74.5t139.5 49t191.5 18.5q227 0 339 -83.5t112 -211.5q0 -13 -4 -53l-90 -744q-6 -54 -25 -100.5t-57.5 -90.5t-94 -74.5t-140 -49t-191.5 -18.5q-117 0 -205.5 23.5t-140.5 65t-77.5 93.5t-25.5 113zM414 340 q0 -127 188 -127q197 0 215 154l82 647q2 16 2 39q0 127 -184 127q-199 0 -217 -154l-80 -635q-6 -48 -6 -51z" />
<glyph unicode="1" horiz-adv-x="1150" d="M139 51l15 129q3 27 16.5 38t40.5 11h276l113 904l-283 -48q-26 -5 -38 5.5t-9 37.5l17 132q5 46 59 55l514 92q22 4 34.5 -6.5t8.5 -42.5l-139 -1129h270q27 0 37.5 -11t7.5 -38l-14 -129q-3 -27 -17 -39t-42 -12h-824q-26 0 -36 11.5t-7 39.5z" />
<glyph unicode="2" horiz-adv-x="1150" d="M137 51l47 383q5 42 19 72.5t38.5 51t46.5 32.5t58 26l438 164q39 15 64.5 40.5t32.5 76.5l16 123q2 16 2 43q0 121 -184 121q-197 0 -215 -154l-11 -80q-3 -28 -15 -39.5t-38 -11.5h-172q-50 0 -43 51l15 125q6 55 24 101.5t55.5 90.5t91.5 74.5t137.5 49t188.5 18.5 q116 0 204 -23.5t140 -65t77.5 -93.5t25.5 -113q0 -17 -4 -53l-21 -160q-10 -73 -32.5 -128.5t-55.5 -91t-67 -57t-76 -36.5l-365 -131q-56 -21 -79 -42.5t-29 -70.5l-15 -115h594q29 0 38.5 -12t6.5 -37l-16 -129q-6 -51 -58 -51h-819q-28 0 -38 12.5t-7 38.5z" />
<glyph unicode="3" horiz-adv-x="1150" d="M131 276q0 18 2 41l6 66q6 51 56 51h170q29 0 37 -12.5t6 -38.5l-2 -27q-3 -21 -3 -32q0 -58 49 -88.5t142 -30.5q199 0 217 151l12 101q2 23 2 32q0 117 -184 117h-158q-51 0 -45 51l15 121q3 27 16 38t41 11h139q102 0 155 37.5t64 114.5l9 57q2 16 2 31 q0 121 -177 121q-192 0 -204 -152l-2 -26q-3 -52 -58 -52h-170q-26 0 -34.5 13t-6.5 39l6 65q31 334 496 334q117 0 202.5 -22.5t133.5 -63.5t70 -90.5t22 -110.5q0 -17 -4 -57l-16 -133q-9 -81 -51 -129.5t-130 -77.5q146 -56 146 -199q0 -19 -4 -55l-21 -166 q-6 -55 -23.5 -100t-54.5 -87t-91.5 -71t-139 -46t-193.5 -17q-120 0 -208 23t-138.5 64t-74 92t-23.5 113z" />
<glyph unicode="4" horiz-adv-x="1150" d="M119 428l14 119q4 26 17 57l319 735q22 54 70 54h178q54 0 31 -54l-316 -731h383l90 731q6 54 58 54h178q27 0 35.5 -12.5t5.5 -41.5l-158 -1286q-3 -29 -14.5 -41t-38.5 -12h-178q-27 0 -37.5 12.5t-7.5 40.5l40 326h-622q-28 0 -39 11t-8 38z" />
<glyph unicode="5" horiz-adv-x="1150" d="M135 274q0 23 2 41l8 66q3 27 15.5 39t38.5 12h172q27 0 36.5 -11t6.5 -40l-2 -23q-2 -27 -2 -32q0 -123 186 -123q102 0 154 38t61 115l18 144q5 39 5 51q0 123 -185 123h-364q-27 0 -35.5 12.5t-5.5 40.5l73 612q3 28 15.5 41t38.5 13h749q52 0 47 -50l-16 -129 q-3 -28 -16 -39.5t-41 -11.5h-521l-32 -268h137q220 0 329 -81t109 -210q0 -21 -4 -53l-29 -236q-39 -333 -505 -333q-120 0 -208 23t-138 64.5t-73.5 92.5t-23.5 112z" />
<glyph unicode="6" horiz-adv-x="1150" d="M145 276q0 11 5 41l92 760q40 332 489 332q114 0 199.5 -24t134 -65t71.5 -89.5t23 -104.5q0 -31 -2 -49l-8 -53q-5 -28 -16 -39.5t-37 -11.5h-172q-49 0 -43 51l2 14q2 16 2 35q0 115 -172 115q-97 0 -145.5 -38t-57.5 -112l-33 -250q102 64 238 64q192 0 290.5 -84.5 t98.5 -208.5q0 -28 -4 -57l-21 -185q-35 -333 -495 -333q-225 0 -332 82t-107 210zM424 328q0 -123 178 -123q100 0 149 37.5t58 115.5l14 119q1 7 2 15l1.5 12t0.5 8q0 117 -180 117q-190 0 -205 -140l-14 -118q-4 -36 -4 -43z" />
<glyph unicode="7" horiz-adv-x="1150" d="M233 1214l17 129q5 50 57 50h889q28 0 39 -11.5t8 -38.5l-16 -126q-2 -18 -19 -52l-630 -1112q-14 -26 -29.5 -39.5t-40.5 -13.5h-207q-58 0 -29 53l631 1110h-622q-54 0 -48 51z" />
<glyph unicode="8" horiz-adv-x="1150" d="M145 279q0 18 2 38l23 187q10 82 59 134t142 85q-64 27 -95.5 75t-31.5 109q0 9 4 45l14 123q7 57 21 101.5t47 90t82.5 75t130 48.5t186.5 19q115 0 198.5 -23t130 -64.5t68 -91t21.5 -110.5q0 -31 -2 -45l-17 -135q-10 -83 -53 -134t-129 -83q75 -29 114.5 -79.5 t39.5 -113.5q0 -13 -4 -41l-21 -172q-39 -333 -493 -333q-116 0 -202.5 23.5t-136.5 65t-74 93t-24 113.5zM424 326q0 -121 176 -121q101 0 148.5 37t58.5 116l12 91q2 16 2 40q0 62 -43 91.5t-133 29.5q-100 0 -149 -36t-58 -113l-12 -103q-2 -16 -2 -32zM516 950 q0 -63 36.5 -92t119.5 -29q97 0 138 36.5t54 117.5l8 51q2 18 2 35q0 61 -38 90t-123 29q-96 0 -135 -36t-52 -118l-8 -51q-2 -16 -2 -33z" />
<glyph unicode="9" horiz-adv-x="1150" d="M158 270q0 25 2 45l6 54q3 28 16 39.5t41 11.5h170q49 0 43 -51l-2 -15q-2 -16 -2 -30q0 -119 172 -119q97 0 145.5 37.5t57.5 111.5l31 250q-97 -63 -236 -63q-192 0 -291.5 84.5t-99.5 208.5q0 21 4 57l23 184q39 334 491 334q116 0 203 -23.5t137.5 -65t75 -92.5 t24.5 -112q0 -29 -2 -41l-92 -760q-6 -54 -22.5 -98.5t-51.5 -89t-87 -75t-135 -49.5t-189 -19q-114 0 -200.5 23.5t-135.5 64.5t-72.5 90.5t-23.5 107.5zM492 887q0 -123 178 -123q189 0 204 139l13 119q4 36 4 43q0 123 -176 123q-194 0 -209 -154l-12 -119q-2 -16 -2 -28 z" />
<glyph unicode=":" horiz-adv-x="512" d="M125 51l18 166q3 28 16.5 39.5t41.5 11.5h176q26 0 35 -11.5t6 -39.5l-21 -166q-3 -28 -15 -39.5t-40 -11.5h-174q-27 0 -36.5 11.5t-6.5 39.5zM215 801l21 168q3 27 16.5 39t40.5 12h176q27 0 35.5 -11.5t5.5 -39.5l-21 -168q-3 -27 -15.5 -39t-39.5 -12h-176 q-49 0 -43 51z" />
<glyph unicode=";" horiz-adv-x="593" d="M61 -90q-6 26 4 40t39 23q55 18 77.5 42.5t27.5 64.5l18 137q3 27 16 39t40 12h176q27 0 35.5 -11.5t5.5 -39.5l-19 -151q-15 -123 -97 -196t-234 -108q-28 -6 -41 0.5t-19 32.5zM299 801l18 168q3 27 17.5 39t42.5 12h174q27 0 35.5 -11.5t5.5 -39.5l-19 -168 q-3 -27 -16.5 -39t-40.5 -12h-174q-27 0 -36.5 12t-6.5 39z" />
<glyph unicode="&#x3c;" horiz-adv-x="1071" d="M193 600v188q0 13 3 22t11.5 15.5t13 9t19.5 9.5l729 315q24 10 37.5 -5t13.5 -44v-162q0 -25 -11.5 -35.5t-39.5 -21.5l-516 -197l516 -196q19 -7 28 -12.5t16 -16.5t7 -29v-161q0 -29 -13.5 -44.5t-37.5 -5.5l-729 316q-33 15 -40 25q-7 11 -7 30z" />
<glyph unicode="=" horiz-adv-x="1189" d="M166 389v123q0 26 12 36.5t39 10.5h844q28 0 39.5 -10.5t11.5 -36.5v-123q0 -28 -11.5 -39.5t-39.5 -11.5h-844q-27 0 -39 12t-12 39zM166 807v123q0 49 51 49h844q28 0 39.5 -11.5t11.5 -37.5v-123q0 -27 -11.5 -38t-39.5 -11h-844q-27 0 -39 11t-12 38z" />
<glyph unicode="&#x3e;" horiz-adv-x="1071" d="M152 276v166q0 18 7 29t16 16.5t28 12.5l516 192l-516 197q-18 7 -27.5 12.5t-16.5 16.5t-7 28v164q0 30 13 45.5t38 5.5l731 -315q23 -9 34 -20t11 -35v-193q0 -25 -10.5 -35.5t-34.5 -19.5l-731 -316q-25 -10 -38 5t-13 44z" />
<glyph unicode="?" horiz-adv-x="1157" d="M219 950l17 125q45 334 503 334q116 0 205 -25.5t140 -68.5t76.5 -95.5t25.5 -111.5q0 -25 -2 -45l-13 -96q-8 -70 -31.5 -124.5t-59 -89t-67 -55t-71.5 -36.5l-123 -54q-50 -22 -72 -45t-28 -69l-8 -72q-3 -27 -15 -38t-39 -11h-180q-51 0 -45 49l19 141q5 41 19 72.5 t37 52.5t43.5 33.5t51.5 26.5l201 96q81 42 94 125l8 61q2 20 2 37q0 57 -47.5 87t-138.5 30q-203 0 -221 -154l-11 -80q-5 -28 -16.5 -39.5t-38.5 -11.5h-170q-50 0 -45 51zM389 51l19 166q3 27 16.5 39t40.5 12h180q28 0 36 -12t5 -39l-20 -166q-3 -27 -16 -39t-40 -12 h-178q-25 0 -35.5 10.5t-7.5 40.5z" />
<glyph unicode="@" horiz-adv-x="1953" d="M156 90q0 38 4 74l88 710q7 54 19.5 97.5t40.5 92.5t69.5 87t108.5 73.5t155 59t212.5 37.5t276.5 14q187 0 329 -22t228 -58t139.5 -88.5t73 -107t19.5 -121.5q0 -22 -4 -68l-57 -475q-9 -74 -34.5 -131t-73 -102.5t-125.5 -69.5t-183 -24q-117 0 -191 35t-102 92 q-161 -127 -330 -127q-116 0 -175.5 54.5t-59.5 153.5q0 46 10 91l57 272q32 147 107.5 223t210.5 76q74 0 148 -30.5t126 -69.5l10 32q8 28 21.5 40t40.5 12h147q25 0 34.5 -14.5t4.5 -37.5l-96 -421q-14 -61 -14 -99q0 -88 86 -88q43 0 70 25t37.5 58.5t17.5 86.5l51 428 q2 14 2 41q0 53 -24.5 91t-84 67.5t-167.5 44t-267 14.5q-139 0 -242.5 -12t-169.5 -32.5t-108 -53.5t-61 -70.5t-25 -87.5l-84 -688q-4 -28 -4 -45q0 -54 25 -92.5t85.5 -68t168.5 -44t268 -14.5h358q29 0 37.5 -12.5t5.5 -38.5l-12 -115q-6 -51 -60 -51h-350 q-187 0 -329 22t-227.5 58t-139 89t-73 107.5t-19.5 120.5zM858 377q0 -68 96 -68q83 0 174 53q0 13 2 17l58 256q-77 67 -154 67q-108 0 -133 -116l-35 -162q-1 -4 -3 -14t-3.5 -19t-1.5 -14z" />
<glyph unicode="A" horiz-adv-x="1132" d="M35 51l540 1290q21 52 70 52h180q26 0 38.5 -12.5t17.5 -39.5l225 -1290q1 -8 1 -14q0 -37 -44 -37h-180q-27 0 -39 12.5t-17 38.5l-41 250h-380l-103 -250q-10 -26 -24.5 -38.5t-40.5 -12.5h-170q-39 0 -39 26q0 10 6 25zM494 520h260l-39 228q-8 47 -12.5 140.5 t-4.5 163.5v70q-75 -301 -106 -372z" />
<glyph unicode="B" horiz-adv-x="1216" d="M147 53l160 1286q6 54 55 54h367q237 0 352 -78t115 -205q0 -13 -4 -49l-12 -105q-9 -83 -53 -136t-130 -89q91 -32 142 -94.5t51 -136.5q0 -25 -2 -41l-19 -146q-42 -313 -528 -313h-448q-47 0 -47 41q0 6 1 12zM446 221h213q228 0 242 141l8 80q2 20 2 33 q0 61 -49.5 96t-150.5 35h-217zM518 815h156q99 0 161 36t72 110l8 59q3 24 3 35q0 116 -201 116h-154z" />
<glyph unicode="C" horiz-adv-x="1165" d="M156 279q0 13 4 53l90 743q39 334 514 334q233 0 341.5 -82t108.5 -211q0 -13 -4 -53l-10 -86q-3 -28 -15 -39.5t-38 -11.5h-172q-27 0 -36.5 12.5t-6.5 38.5l6 39q2 16 2 39q0 125 -192 125q-208 0 -226 -154l-80 -645q-4 -32 -4 -39q0 -129 193 -129q103 0 161.5 39 t65.5 115l8 77q3 28 16.5 40t41.5 12h170q27 0 35.5 -13t5.5 -39l-15 -127q-6 -55 -24 -101t-56 -90t-94 -74.5t-143 -49t-197 -18.5q-121 0 -210.5 23.5t-140.5 65.5t-75 93.5t-24 112.5z" />
<glyph unicode="D" horiz-adv-x="1259" d="M147 53l160 1286q6 54 55 54h435q124 0 217.5 -24.5t148 -67t81 -95t26.5 -114.5q0 -32 -4 -60l-86 -698q-6 -55 -25 -101.5t-58.5 -90.5t-96.5 -74.5t-145.5 -49t-199.5 -18.5h-469q-40 0 -40 41q0 6 1 12zM446 229h224q104 0 166 39.5t71 114.5l76 604q4 28 4 47 q0 129 -205 129h-219z" />
<glyph unicode="E" horiz-adv-x="1048" d="M147 53l160 1286q6 54 55 54h701q28 1 39 -11q9 -9 9 -28q0 -5 -1 -11l-16 -129q-6 -51 -58 -51h-473l-41 -332h441q27 0 36.5 -11t6.5 -38l-15 -123q-3 -26 -16 -37.5t-41 -11.5h-438l-50 -381h496q29 0 40 -11t7 -38l-18 -129q-5 -28 -17 -39.5t-39 -11.5h-722 q-47 0 -47 43q0 5 1 10z" />
<glyph unicode="F" horiz-adv-x="1060" d="M147 53l160 1286q6 54 55 54h750q28 1 39 -11q9 -9 9 -28q0 -5 -1 -11l-16 -129q-6 -51 -58 -51h-522l-41 -332h488q27 0 37.5 -11t7.5 -38l-17 -131q-3 -27 -16.5 -39t-40.5 -12h-487l-68 -547q-3 -28 -15.5 -40.5t-39.5 -12.5h-178q-47 0 -47 43q0 5 1 10z" />
<glyph unicode="G" horiz-adv-x="1189" d="M156 279q0 17 4 53l90 743q39 334 514 334q121 0 210.5 -23.5t140.5 -66t75 -94t24 -113.5q0 -13 -4 -53l-6 -66q-3 -27 -16.5 -39t-40.5 -12h-170q-44 0 -44 39q0 6 1 12l4 33q2 14 2 35q0 119 -188 119q-102 0 -161.5 -39t-68.5 -115l-80 -647q-4 -28 -4 -41 q0 -125 191 -125q209 0 227 152l16 137h-200q-28 0 -38 11.5t-7 37.5l16 131q3 27 16 38t41 11h418q48 0 48 -38q0 -5 -1 -11l-45 -365q-39 -333 -514 -333q-121 0 -210.5 23.5t-140.5 65.5t-75 93.5t-24 112.5z" />
<glyph unicode="H" horiz-adv-x="1280" d="M147 53l160 1286q6 54 55 54h179q27 0 36.5 -12.5t6.5 -41.5l-62 -510h441l63 510q3 28 16.5 41t40.5 13h179q26 0 35 -13q7 -10 7 -28q0 -6 -1 -13l-160 -1286q-3 -29 -14 -41t-37 -12h-179q-46 0 -46 42q0 5 1 11l68 547h-442l-68 -547q-3 -27 -15.5 -40t-39.5 -13 h-178q-47 0 -47 43q0 5 1 10z" />
<glyph unicode="I" horiz-adv-x="561" d="M147 53l160 1286q6 54 55 54h179q27 -1 37 -13q7 -10 6 -28v-13l-158 -1286q-3 -28 -15.5 -40.5t-39.5 -12.5h-178q-47 0 -47 43q0 5 1 10z" />
<glyph unicode="J" horiz-adv-x="1054" d="M68 276q0 30 4 58l12 106q3 28 16 40t41 12h174q26 0 35 -13t6 -39l-8 -65q-4 -32 -4 -43q0 -119 162 -119q89 0 130 37t50 117l121 972q3 28 15.5 41t39.5 13h178q28 0 37 -13q7 -10 7 -28q0 -6 -1 -13l-125 -1022q-8 -71 -32.5 -126t-75 -104t-141 -76t-217.5 -27 q-112 0 -196 23.5t-132.5 64.5t-72 92t-23.5 112z" />
<glyph unicode="K" horiz-adv-x="1196" d="M147 51l158 1290q6 52 57 52h179q27 0 35.5 -12.5t5.5 -39.5l-66 -550h29l430 550q41 52 88 52h197q28 0 32 -16q1 -3 0 -7q0 -13 -14 -29l-506 -632l399 -658q12 -19 4 -35t-34 -16h-226q-25 0 -39.5 13t-29.5 38l-318 537h-39l-65 -537q-3 -27 -14.5 -39t-38.5 -12 h-178q-47 0 -47 41q0 5 1 10z" />
<glyph unicode="L" horiz-adv-x="976" d="M147 53l160 1286q6 54 55 54h179q27 0 36.5 -12.5t6.5 -41.5l-138 -1110h457q27 0 39 -11q9 -8 9 -25q0 -6 -1 -13l-18 -129q-5 -28 -16.5 -39.5t-38.5 -11.5h-691q-40 0 -40 41q0 6 1 12z" />
<glyph unicode="M" horiz-adv-x="1527" d="M147 51l158 1290q6 52 57 52h160q31 0 41 -29l225 -715q19 -61 35 -143q27 66 68 141l393 721q14 25 49 25h174q27 -1 35 -13q6 -9 7 -26q0 -6 -1 -13l-157 -1290q-3 -27 -15 -39t-39 -12h-170q-27 0 -37.5 12t-7.5 39l97 780q-50 -131 -82 -188l-201 -381 q-28 -51 -76 -51h-137q-50 0 -66 51l-125 412q-15 54 -28 153l-96 -776q-3 -27 -15 -39t-39 -12h-161q-47 0 -47 41q0 5 1 10z" />
<glyph unicode="N" horiz-adv-x="1280" d="M147 51l158 1290q6 52 57 52h154q34 0 43 -21l326 -706q39 -89 51 -144l100 819q6 52 56 52h161q27 -1 37 -13q7 -10 7 -27q0 -6 -1 -12l-159 -1290q-3 -27 -15 -39t-39 -12h-153q-34 0 -47 25l-314 677q-40 88 -61 168l-100 -819q-3 -27 -15 -39t-39 -12h-161 q-47 0 -47 41q0 5 1 10z" />
<glyph unicode="O" horiz-adv-x="1239" d="M156 281q0 11 4 51l90 743q6 54 26 101t60.5 90.5t98.5 74.5t146.5 49.5t198.5 18.5q235 0 351 -84.5t116 -212.5q0 -33 -2 -51l-90 -744q-6 -54 -26 -101t-61 -90.5t-99.5 -74t-147 -49t-198.5 -18.5q-236 0 -351.5 84t-115.5 213zM438 342q0 -129 207 -129 q105 0 166 39t70 115l82 645q4 32 4 39q0 129 -207 129q-100 0 -164.5 -40t-73.5 -114l-80 -645q-4 -32 -4 -39z" />
<glyph unicode="P" horiz-adv-x="1187" d="M147 53l160 1286q6 54 55 54h422q122 0 213.5 -25t144.5 -69t79 -98.5t26 -119.5q0 -30 -4 -59l-22 -205q-8 -75 -38.5 -131.5t-90 -101t-160.5 -67.5t-240 -23h-213l-53 -441q-3 -28 -15.5 -40.5t-39.5 -12.5h-178q-47 0 -47 43q0 5 1 10zM510 723h203q110 0 169.5 33 t69.5 108l17 121q2 18 2 39q0 70 -46 104.5t-153 34.5h-209z" />
<glyph unicode="Q" horiz-adv-x="1236" d="M156 281q0 11 4 51l90 743q6 54 26 101t60.5 90.5t98.5 74.5t146.5 49.5t198.5 18.5q235 0 351 -84.5t116 -212.5q0 -33 -2 -51l-90 -744q-13 -111 -91 -195t-233 -118l193 -192q17 -17 17 -35t-19 -37l-102 -96q-22 -21 -41 -21q-17 0 -31 17l-338 350 q-179 19 -266.5 99t-87.5 192zM438 342q0 -129 207 -129q105 0 166 39t70 115l82 645q4 32 4 39q0 129 -207 129q-100 0 -164.5 -40t-73.5 -114l-80 -645q-4 -32 -4 -39z" />
<glyph unicode="R" horiz-adv-x="1228" d="M147 53l160 1286q6 54 55 54h416q237 0 353 -88.5t116 -225.5q0 -31 -2 -47l-20 -178q-25 -218 -258 -289l153 -512q7 -24 -9 -38.5t-44 -14.5h-176q-16 0 -25.5 8.5t-13 17t-8.5 27.5l-144 477h-4h-213l-57 -477q-3 -28 -15.5 -40.5t-39.5 -12.5h-178q-47 0 -47 41 q0 6 1 12zM512 760h205q219 0 239 143l13 84q2 16 2 37q0 139 -199 139h-209z" />
<glyph unicode="S" horiz-adv-x="1171" d="M135 283q0 22 4 49l15 114q6 54 55 54h172q27 0 36.5 -13.5t6.5 -40.5l-10 -77q-2 -16 -2 -39q0 -125 202 -125q212 0 232 149l8 58q2 14 2 28q0 24 -12.5 44t-39 36.5t-47.5 26.5t-57 24l-284 113q-79 32 -127.5 95.5t-48.5 144.5q0 9 4 49l12 102q39 334 498 334 q119 0 207.5 -24t138 -66t73 -92.5t23.5 -110.5q0 -18 -2 -41l-8 -84q-6 -51 -58 -51h-172q-26 0 -36 11.5t-7 39.5l7 47q2 16 2 21q0 129 -187 129q-200 0 -215 -150l-2 -20q-2 -18 -2 -33q0 -61 70 -86l338 -127q102 -39 156.5 -106.5t54.5 -159.5q0 -4 -5 -49l-14 -140 q-6 -54 -25 -101t-58.5 -90.5t-96.5 -74t-144 -49t-196 -18.5q-235 0 -348 84.5t-113 214.5z" />
<glyph unicode="T" horiz-adv-x="1009" d="M170 1214l16 129q3 27 16.5 38.5t41.5 11.5h858q28 1 39 -11q9 -9 8 -28v-11l-16 -129q-3 -27 -16 -39t-40 -12h-293l-137 -1110q-3 -29 -14.5 -41t-38.5 -12h-178q-27 0 -37.5 12.5t-7.5 40.5l137 1110h-291q-28 -1 -39 11q-9 9 -9 29q0 5 1 11z" />
<glyph unicode="U" horiz-adv-x="1259" d="M166 285q0 9 6 57l123 997q3 28 15 41t38 13h180q43 0 43 -44v-10l-116 -933q-6 -44 -6 -62q0 -65 53.5 -98t150.5 -33q105 0 167 39t71 115l123 972q3 28 15 41t38 13h178q45 0 45 -45v-9l-127 -1022q-6 -55 -25 -101t-58.5 -90t-97 -74.5t-146 -49t-199.5 -18.5 q-234 0 -352.5 85.5t-118.5 215.5z" />
<glyph unicode="V" horiz-adv-x="1132" d="M195 1341q-1 7 -1 14q0 38 46 38h190q26 0 37 -12.5t16 -39.5l113 -696q14 -91 14 -297q2 10 15.5 60t35.5 123t39 112l285 698q11 27 26.5 39.5t41.5 12.5h182q37 0 37 -26q0 -11 -6 -26l-541 -1290q-20 -51 -70 -51h-178q-27 0 -40.5 12t-18.5 39z" />
<glyph unicode="W" horiz-adv-x="1716" d="M193 1341q-1 5 -1 10q0 42 46 42h180q47 0 53 -52l88 -698q5 -46 10 -172q18 67 58 172l262 698q19 52 67 52h166q48 0 54 -52l88 -696q10 -92 10 -205q19 94 59 203l260 698q19 52 68 52h158q35 0 35 -27q0 -10 -5 -25l-483 -1290q-17 -51 -68 -51h-174q-47 0 -53 51 l-90 713q-7 54 -7 134q0 27 1 56q-27 -124 -51 -190l-269 -713q-17 -51 -69 -51h-174q-48 0 -54 51z" />
<glyph unicode="X" horiz-adv-x="1175" d="M52 20q-1 4 -1 7q0 16 12 32l453 662l-278 614q-12 23 -5.5 40.5t31.5 17.5h203q46 0 68 -52l178 -391l262 391q34 52 82 52h192q27 0 31 -15q1 -3 1 -6q0 -13 -13 -31l-449 -626l303 -664q11 -19 3.5 -35t-33.5 -16h-203q-45 0 -68 51l-194 422l-275 -422 q-34 -51 -78 -51h-196q-22 0 -26 20z" />
<glyph unicode="Y" horiz-adv-x="1116" d="M193 1341q-3 8 -3 16q0 12 8 21q12 15 38 15h198q26 0 37 -12.5t18 -39.5l140 -467q10 -34 20 -108q31 77 49 108l273 467q14 26 28.5 39t38.5 13h181q27 0 35 -13q3 -6 3 -12q0 -12 -8 -27l-487 -809l-60 -481q-3 -27 -14.5 -39t-38.5 -12h-178q-27 0 -37.5 12t-7.5 39 l55 449z" />
<glyph unicode="Z" horiz-adv-x="1017" d="M74 51l16 129q3 23 21 47l628 936h-442q-27 0 -37.5 12t-7.5 39l16 129q3 27 16.5 38.5t41.5 11.5h727q28 1 39 -11q9 -9 9 -28q0 -5 -1 -11l-17 -129q-1 -14 -22 -49l-629 -936h514q27 0 37.5 -11t7.5 -38l-16 -129q-3 -28 -16 -39.5t-39 -11.5h-799q-28 0 -39 12 q-9 9 -9 28q0 5 1 11z" />
<glyph unicode="[" horiz-adv-x="806" d="M78 -379l217 1757q6 54 55 54h469q27 0 37.5 -11.5t7.5 -38.5l-16 -129q-3 -28 -16 -39.5t-41 -11.5h-240l-174 -1405h239q28 0 39.5 -12t8.5 -39l-17 -129q-3 -27 -15.5 -38t-39.5 -11h-469q-51 0 -45 53z" />
<glyph unicode="\" horiz-adv-x="749" d="M197 1378q-7 54 45 54h182q27 0 39.5 -13t15.5 -41l205 -1628q6 -53 -47 -53h-180q-27 0 -39 12.5t-15 40.5z" />
<glyph unicode="]" horiz-adv-x="806" d="M63 -383l17 129q3 28 16 39.5t39 11.5h242l174 1405h-240q-28 0 -39 11.5t-8 39.5l17 129q3 28 16 39t41 11h467q51 0 45 -54l-217 -1757q-3 -28 -16 -40.5t-39 -12.5h-467q-28 0 -39.5 11t-8.5 38z" />
<glyph unicode="^" horiz-adv-x="1181" d="M199 616l313 730q8 18 12 25.5t15 14.5t28 7h191q17 0 28 -7t15 -14.5t12 -25.5l315 -730q10 -25 -5.5 -39t-43.5 -14h-164q-17 0 -27.5 7.5t-15.5 16.5t-12 29l-198 512l-195 -512q-10 -29 -21.5 -41t-35.5 -12h-164q-28 0 -42.5 14t-4.5 39z" />
<glyph unicode="_" horiz-adv-x="933" d="M2 -199q0 26 11.5 36.5t39.5 10.5h746q28 0 39.5 -10.5t11.5 -36.5v-123q0 -28 -11.5 -39.5t-39.5 -11.5h-746q-28 0 -39.5 11.5t-11.5 39.5v123z" />
<glyph unicode="`" horiz-adv-x="643" d="M290 1435.5q9 14.5 36 14.5h174q26 0 39.5 -12.5t23.5 -38.5l76 -201q10 -25 0 -38t-35 -13h-127q-43 0 -61 35l-123 217q-12 22 -3 36.5z" />
<glyph unicode="a" d="M129 231q0 16 4 52l57 454q18 144 95.5 221.5t230.5 77.5q183 0 315 -112l11 45q6 28 17.5 39.5t37.5 11.5h164q43 0 43 -42v-9l-113 -916q-6 -53 -57 -53h-158q-23 0 -33 12t-10 41l2 45q-36 -24 -59 -38t-67.5 -35t-96.5 -31t-111 -10q-131 0 -201.5 65t-70.5 182z M403 295q0 -78 103 -78t248 92l49 400q-111 94 -223 94q-111 0 -127 -107l-47 -372q-3 -15 -3 -29z" />
<glyph unicode="b" d="M127 53l162 1325q3 28 16.5 41t40.5 13h170q28 0 36 -13.5t5 -40.5l-55 -452q154 110 327 110q130 0 200.5 -66t70.5 -184q0 -33 -2 -49l-58 -454q-38 -299 -329 -299q-187 0 -316 114l-10 -45q-6 -29 -18 -41t-39 -12h-158q-22 0 -34 14q-9 11 -10 29q0 5 1 10zM428 309 q110 -92 223 -92q66 0 93 29t32 78l47 372q2 14 2 27q0 80 -100 80q-114 0 -248 -94z" />
<glyph unicode="c" horiz-adv-x="1007" d="M131 246q0 27 2 41l53 448q18 145 125 223t328 78q198 0 294.5 -70.5t96.5 -191.5q0 -27 -2 -43l-4 -31q-3 -27 -16 -38t-41 -11h-156q-44 0 -44 37q0 5 1 10l2 17q2 12 2 24q0 43 -34 63.5t-111 20.5q-88 0 -126 -25t-46 -83l-47 -379q-7 -47 -7 -49q0 -46 35 -68 t113 -22q86 0 124 26t46 84l4 31q3 28 16 39.5t39 11.5h158q44 0 44 -39q0 -5 -1 -12l-6 -51q-9 -71 -36.5 -124.5t-79 -94.5t-136 -62.5t-199.5 -21.5q-196 0 -293.5 69t-97.5 193z" />
<glyph unicode="d" d="M129 229q0 18 4 54l57 454q18 144 95.5 221.5t230.5 77.5q99 0 181 -33.5t132 -76.5l54 452q3 28 16.5 41t40.5 13h170q26 0 36 -14q7 -10 8 -28q0 -6 -1 -12l-162 -1325q-6 -53 -57 -53h-158q-26 0 -34.5 11.5t-8.5 41.5v45q-46 -33 -78 -52t-103.5 -40.5t-150.5 -21.5 q-132 0 -202 64.5t-70 180.5zM403 295q0 -78 103 -78t248 92l49 400q-111 94 -223 94q-64 0 -92 -29t-35 -78l-45 -360q-5 -40 -5 -41z" />
<glyph unicode="e" horiz-adv-x="1021" d="M131 246q0 27 2 41l53 448q18 144 125 222.5t326 78.5q191 0 288 -69t97 -191q0 -29 -2 -41l-29 -237q-6 -47 -53 -47h-524l-15 -127q-4 -40 -4 -48q0 -92 148 -92q162 0 172 105l2 20q6 51 57 51h144q26 0 35.5 -12.5t7.5 -38.5l-3 -22q-13 -144 -113 -223.5t-321 -79.5 q-197 0 -295 69t-98 193zM438 631h320l10 78q2 10 2 32q0 95 -149 95q-159 0 -172 -113z" />
<glyph unicode="f" horiz-adv-x="714" d="M143 854l13 102q3 26 15 36.5t40 13.5l104 10h9l14 121q38 303 469 303h27q27 0 38 -12q8 -9 8 -28q0 -5 -1 -11l-15 -119q-3 -27 -16.5 -39t-40.5 -12h-21q-86 0 -130 -27t-52 -84l-12 -92h170q28 0 39 -10.5t8 -36.5l-14 -115q-6 -51 -58 -51h-170l-145 -1163 q-3 -28 -14.5 -40t-38.5 -12h-170q-28 0 -38 12t-7 40l145 1163h-111q-28 0 -38 11q-8 9 -8 28q0 6 1 12z" />
<glyph unicode="g" d="M129 231q0 20 4 52l57 454q18 145 94.5 222t229.5 77q191 0 324 -118l10 51q6 30 16.5 40.5t36.5 10.5h158q46 0 46 -40q0 -5 -1 -11l-133 -1080q-38 -301 -475 -301h-289q-48 0 -48 40q0 5 1 10l14 118q6 54 59 54h289q90 0 133.5 26.5t49.5 83.5l20 172 q-34 -23 -56.5 -36t-65 -33t-93 -29.5t-109.5 -9.5q-130 0 -201 66t-71 181zM403 297q0 -80 103 -80t248 92l49 400q-117 94 -223 94q-66 0 -94 -29t-33 -78l-45 -354z" />
<glyph unicode="h" horiz-adv-x="1116" d="M127 53l162 1325q3 28 16.5 41t40.5 13h170q27 0 35.5 -13t5.5 -41l-55 -448q148 106 327 106q121 0 196 -66.5t75 -172.5q0 -19 -2 -35l-84 -709q-6 -53 -60 -53h-166q-23 0 -35.5 13t-9.5 40l78 641q2 16 2 31q0 39 -22.5 58.5t-75.5 19.5q-117 0 -248 -92l-82 -658 q-3 -28 -15.5 -40.5t-39.5 -12.5h-170q-44 0 -44 42q0 5 1 11z" />
<glyph unicode="i" horiz-adv-x="512" d="M127 53l113 916q3 27 15.5 39t39.5 12h170q27 0 36.5 -11.5t6.5 -39.5l-113 -916q-3 -28 -15.5 -40.5t-39.5 -12.5h-170q-26 0 -36 12q-7 10 -8 28q0 6 1 13zM268 1202l21 176q3 28 16.5 41t40.5 13h170q28 0 36 -12q6 -9 6 -28q0 -6 -1 -14l-20 -176q-3 -26 -15.5 -37.5 t-40.5 -11.5h-170q-27 0 -37 11q-7 8 -7 26q0 6 1 12z" />
<glyph unicode="j" horiz-adv-x="509" d="M-162 -362l15 118q6 54 59 54h18q85 0 129.5 26t51.5 84l129 1049q6 51 55 51h170q27 0 36.5 -12t6.5 -39l-131 -1080q-19 -150 -130.5 -225.5t-334.5 -75.5h-29q-27 0 -37 12q-9 8 -9 27q0 5 1 11zM268 1202l23 176q6 54 55 54h170q27 0 36 -12q8 -10 8 -29q0 -6 -1 -13 l-22 -176q-3 -27 -15 -38t-39 -11h-170q-28 0 -38 11q-8 9 -8 27q0 5 1 11z" />
<glyph unicode="k" horiz-adv-x="1013" d="M127 51l162 1329q6 52 57 52h170q27 0 35.5 -12.5t5.5 -39.5l-86 -708h39l291 297q18 18 26 25.5t25.5 16.5t34.5 9h190q27 0 33 -16q1 -4 1 -7q0 -13 -15 -28l-379 -389l293 -529q11 -19 2.5 -35t-33.5 -16h-184q-42 0 -68 51l-238 418h-43l-51 -418q-6 -51 -55 -51 h-170q-26 0 -36 12q-7 9 -8 27q0 6 1 12z" />
<glyph unicode="l" horiz-adv-x="512" d="M127 53l162 1325q3 28 16.5 41t40.5 13h170q28 0 36 -12q6 -9 6 -28q0 -6 -1 -14l-162 -1325q-3 -28 -15.5 -40.5t-39.5 -12.5h-170q-26 0 -36 12q-7 10 -8 28q0 6 1 13z" />
<glyph unicode="m" horiz-adv-x="1710" d="M127 53l113 918q3 27 15.5 38t39.5 11h158q27 0 35 -10.5t8 -38.5l-2 -49q40 32 73 52.5t102 41t148 20.5q90 0 158.5 -37t93.5 -100q1 1 30.5 24t42 31.5t47.5 28t64 28.5t74 17t94 8q121 0 197 -65t76 -168q0 -27 -2 -41l-86 -709q-6 -53 -58 -53h-168q-44 0 -44 42 q0 5 1 11l76 627q4 40 4 45q0 78 -100 78q-68 0 -132 -29t-106 -63v-15l-78 -643q-6 -53 -57 -53h-168q-23 0 -35.5 13t-9.5 40l78 639q4 28 4 33q0 78 -100 78q-68 0 -130.5 -28.5t-105.5 -63.5l-82 -658q-3 -28 -15.5 -40.5t-39.5 -12.5h-170q-44 0 -44 42q0 5 1 11z" />
<glyph unicode="n" horiz-adv-x="1116" d="M127 53l113 918q3 27 15.5 38t39.5 11h158q27 0 37 -11t8 -38l-2 -49q153 114 333 114q121 0 196 -66.5t75 -172.5q0 -33 -2 -49l-84 -695q-6 -53 -60 -53h-166q-46 0 -46 41q0 6 1 12l78 627q4 32 4 45q0 40 -23 59t-77 19q-68 0 -135 -29t-113 -63l-82 -658 q-3 -28 -15.5 -40.5t-39.5 -12.5h-170q-26 0 -36 12q-8 9 -8 29q0 6 1 12z" />
<glyph unicode="o" horiz-adv-x="1085" d="M131 252q0 19 2 35l53 448q18 143 133.5 222t339.5 79q200 0 308 -70.5t108 -193.5q0 -21 -2 -37l-55 -448q-38 -303 -471 -303q-201 0 -308.5 71.5t-107.5 196.5zM403 291q0 -51 40 -72.5t122 -21.5q173 0 187 112l49 385q2 20 2 35q0 94 -162 94q-172 0 -186 -110 l-49 -387q-3 -24 -3 -35z" />
<glyph unicode="p" d="M76 -360l166 1329q3 28 15 39.5t38 11.5h160q26 0 36.5 -11.5t8.5 -39.5l-4 -49q31 22 57 38t69.5 36t96 31t110.5 11q131 0 202 -66t71 -184q0 -17 -4 -49l-56 -454q-18 -144 -95 -221.5t-230 -77.5q-102 0 -183 33t-133 75l-55 -452q-3 -28 -15.5 -40t-39.5 -12h-170 q-45 0 -45 43v9zM428 309q116 -92 225 -92q64 0 92 29.5t33 77.5l43 360q4 36 4 43q0 76 -98 76q-120 0 -248 -94z" />
<glyph unicode="q" d="M129 231q0 20 4 52l57 454q18 145 94.5 222t229.5 77q185 0 322 -116l10 49q6 29 17 40t38 11h158q46 0 46 -40q0 -5 -1 -11l-164 -1329q-3 -28 -16 -40t-39 -12h-170q-44 0 -44 40q0 6 1 12l53 452q-33 -22 -56.5 -36t-65.5 -33t-93 -29t-109 -10q-130 0 -201 66 t-71 181zM403 297q0 -80 103 -80t248 92l49 400q-117 94 -223 94q-66 0 -94 -29t-33 -78l-45 -356q-5 -40 -5 -43z" />
<glyph unicode="r" horiz-adv-x="759" d="M127 53l113 918q3 27 15.5 38t39.5 11h158q27 0 37 -11t8 -38l-4 -72q28 27 54.5 46.5t66 42.5t89.5 35.5t105 12.5q28 0 39 -12q9 -9 9 -28q0 -5 -1 -11l-16 -131q-3 -27 -16 -37.5t-44 -13.5q-98 -9 -179 -45.5t-128 -75.5l-78 -629q-3 -28 -15.5 -40.5t-39.5 -12.5 h-170q-26 0 -36 12q-7 10 -8 28q0 6 1 13z" />
<glyph unicode="s" horiz-adv-x="966" d="M104 215q0 15 2 33l7 47q3 25 15 36t38 11h151q25 0 33.5 -10.5t5.5 -36.5l-2 -23q-2 -16 -2 -26q0 -36 43 -54t111 -18q168 0 178 82l2 14q2 16 2 35q0 40 -82 70l-278 106q-65 25 -102.5 76.5t-37.5 118.5q0 14 2 37l7 63q5 52 28 96t69 82.5t126 60t188 21.5 q185 0 279 -70.5t94 -172.5q0 -13 -2 -33l-4 -35q-3 -26 -15 -36.5t-38 -10.5h-152q-41 0 -41 41v6l2 25q2 20 2 28q0 70 -137 70q-72 0 -110.5 -16.5t-45.5 -61.5l-2 -12q-2 -12 -2 -25q0 -47 51 -65l285 -103q170 -61 170 -190q0 -18 -4 -49l-10 -93q-12 -109 -116.5 -179 t-315.5 -70q-193 0 -292.5 67t-99.5 164z" />
<glyph unicode="t" horiz-adv-x="743" d="M135 854l10 102q3 25 16.5 36t41.5 14l100 10h2l25 196q3 28 16 40t39 12h170q44 0 44 -41q0 -5 -1 -11l-25 -196h187q46 0 45 -38v-9l-12 -115q-3 -27 -17.5 -39t-42.5 -12h-186l-55 -457q-3 -24 -3 -35q0 -46 34.5 -68t115.5 -22h45q48 0 48 -40q0 -5 -1 -11l-14 -119 q-3 -28 -16.5 -39.5t-41.5 -11.5h-88q-191 0 -274.5 60t-83.5 182q0 15 4 61l62 500h-101q-28 1 -37 13q-7 9 -7 26q0 6 1 12z" />
<glyph unicode="u" horiz-adv-x="1103" d="M137 221q0 21 2 37l88 711q3 28 16.5 39.5t41.5 11.5h166q45 0 45 -42v-9l-78 -643q-2 -16 -2 -33q0 -40 22 -58t76 -18q110 0 238 90l79 662q3 27 16 39t40 12h172q28 0 37 -12q7 -9 7 -27q0 -6 -1 -12l-115 -918q-3 -28 -16 -39.5t-39 -11.5h-158q-27 0 -36.5 11 t-8.5 40l2 45q-141 -112 -321 -112q-125 0 -199 66t-74 171z" />
<glyph unicode="v" horiz-adv-x="970" d="M139 969q-2 7 -2 13q0 16 12 25q16 13 46 13h170q24 0 34 -12t15 -39l92 -465q16 -91 16 -191q0 1 4 16t10.5 36.5t14 46t16.5 49t17 41.5l215 467q12 26 25.5 38.5t37.5 12.5h162q29 0 42 -14q7 -7 7 -16t-6 -21l-428 -922q-13 -29 -22.5 -38t-34.5 -9h-195 q-26 0 -33 8.5t-14 38.5z" />
<glyph unicode="w" horiz-adv-x="1466" d="M133 969q-1 5 -1 10q0 18 12 28q14 13 42 13h160q26 0 37 -12.5t14 -38.5l76 -537q4 -29 4 -100q0 4 35 100l217 537q10 26 23.5 38.5t38.5 12.5h163q26 0 37.5 -13t14.5 -38l59 -537q6 -58 6 -98q0 16 33 98l207 537q10 26 23.5 38.5t37.5 12.5h139q29 0 41 -13 q7 -7 7 -18q0 -9 -5 -20l-374 -922q-11 -28 -22 -37.5t-36 -9.5h-204q-25 0 -34 10.5t-12 36.5l-55 485q-6 56 -6 109q-17 -50 -39 -109l-203 -485q-10 -27 -20.5 -37t-36.5 -10h-199q-25 0 -33.5 10t-11.5 37z" />
<glyph unicode="x" horiz-adv-x="972" d="M18 16q-1 4 -1 7q0 13 12 28l372 473l-241 445q-12 20 -3.5 35.5t36.5 15.5h182q18 0 31 -7.5t19.5 -16.5t16.5 -27l146 -262l194 262q40 51 82 51h170q26 0 30 -16q1 -3 1 -6q0 -13 -14 -29l-361 -457l252 -459q12 -20 3 -36.5t-36 -16.5h-182q-17 0 -30.5 8.5t-19 17 t-15.5 25.5l-154 279l-213 -279q-37 -51 -82 -51h-166q-25 0 -29 16z" />
<glyph unicode="y" horiz-adv-x="970" d="M139 969q-2 6 -2 12q0 16 13 25q17 14 45 14h167q26 0 36.5 -12.5t15.5 -38.5l94 -469q16 -78 16 -174q34 102 64 166l217 477q11 27 24.5 39t38.5 12h156q29 0 42 -13q6 -7 6 -17q0 -9 -5 -21l-614 -1329q-23 -52 -64 -52h-127q-29 0 -41 13.5t-2 38.5l141 333z" />
<glyph unicode="z" horiz-adv-x="913" d="M74 49l14 121q3 25 18 43l490 588h-344q-28 0 -39 11.5t-8 37.5l14 121q3 27 17 38t43 11h620q28 0 38 -10q8 -8 8 -26q0 -5 -1 -11l-14 -121q-2 -19 -17 -39l-495 -594h420q27 0 37.5 -11t7.5 -38l-15 -121q-6 -49 -57 -49h-692q-28 0 -38 12q-8 9 -8 26q0 5 1 11z" />
<glyph unicode="{" horiz-adv-x="921" d="M162 451l12 116q6 54 59 54h3q81 0 121.5 26.5t48.5 83.5l51 416q38 303 458 303h35q54 0 47 -51l-14 -119q-3 -27 -17 -39t-42 -12h-19q-85 0 -125.5 -26.5t-48.5 -84.5l-53 -416q-10 -79 -45.5 -122.5t-102.5 -69.5q51 -23 78 -64.5t27 -93.5q0 -5 -4 -41l-49 -397 q-4 -27 -4 -53q0 -86 149 -86h21q29 0 37.5 -12.5t5.5 -38.5l-15 -119q-3 -28 -16 -39.5t-41 -11.5h-12q-196 0 -303 70.5t-107 203.5q0 27 4 59l51 396q2 16 2 32q0 84 -145 84h-2q-52 0 -45 52z" />
<glyph unicode="|" horiz-adv-x="561" d="M217 -379v1757q0 28 12 41t39 13h178q26 0 37 -13t11 -41v-1757q0 -28 -11 -40.5t-37 -12.5h-178q-27 0 -39 12.5t-12 40.5z" />
<glyph unicode="}" horiz-adv-x="921" d="M47 -395l12 119q6 51 60 51h20q85 0 125.5 26t48.5 84l54 430q10 79 45.5 123.5t103.5 71.5q-104 42 -104 160q0 13 6 61l47 383q2 16 2 33q0 82 -150 82h-20q-52 0 -45 51l16 119q3 28 15.5 39.5t40.5 11.5h18q194 0 298.5 -71.5t104.5 -202.5q0 -36 -2 -52l-47 -374 q-4 -32 -4 -43q0 -86 146 -86h2q50 0 43 -54l-13 -116q-6 -52 -57 -52h-2q-83 0 -122.5 -26.5t-47.5 -83.5l-53 -432q-18 -144 -130.5 -223.5t-328.5 -79.5h-37q-51 0 -45 51z" />
<glyph unicode="~" horiz-adv-x="1032" d="M178 471l8 98q8 91 58 136t114 45q52 0 111 -23l184 -84q8 -3 22 -9t22.5 -9t19 -6t18.5 -3q20 0 28 15t13 49l2 10q6 26 18.5 35.5t37.5 9.5h88q27 0 36.5 -14.5t6.5 -44.5l-11 -84q-11 -97 -58.5 -145t-109.5 -48q-64 0 -124 29l-187 86q-44 21 -65 21 q-17 0 -26.5 -9.5t-13 -21.5t-5.5 -33l-3 -12q-6 -27 -17.5 -36t-37.5 -9h-88q-47 0 -41 57z" />
<glyph unicode="&#xa1;" horiz-adv-x="567" d="M104 -319l64 540l74 375q6 28 17.5 39.5t37.5 11.5h127q27 0 36 -11t7 -40l-18 -375l-66 -540q-5 -29 -17.5 -41.5t-39.5 -12.5h-181q-27 0 -36.5 13t-4.5 41zM244 803l20 166q3 28 15 39.5t40 11.5h179q28 0 38 -11.5t7 -39.5l-21 -166q-3 -27 -16.5 -39t-40.5 -12h-178 q-27 0 -36.5 11.5t-6.5 39.5z" />
<glyph unicode="&#xa2;" horiz-adv-x="1116" d="M190 432q0 20 3 41l53 449q29 255 332 292l16 125q3 28 16.5 41t40.5 13h170q27 0 35.5 -12.5t5.5 -41.5l-16 -129q124 -24 184 -88.5t60 -160.5q0 -19 -3 -43l-4 -31q-3 -27 -16 -38t-41 -11h-156q-49 0 -43 47l2 16q2 12 2 25q0 43 -34 63.5t-111 20.5 q-88 0 -126 -25.5t-46 -83.5l-47 -379q-6 -41 -6 -49q0 -47 34.5 -68.5t112.5 -21.5q86 0 124 26t46 85l4 30q3 27 16 39t40 12h157q50 0 43 -51l-6 -51q-14 -122 -87 -196.5t-226 -98.5l-14 -125q-3 -28 -15 -40.5t-39 -12.5h-170q-27 0 -37.5 12.5t-7.5 40.5l15 125 q-131 21 -196 87t-65 167z" />
<glyph unicode="&#xa3;" horiz-adv-x="1406" d="M143 51l15 121q3 27 16 38t41 11h113l45 354h-115q-28 0 -38 12t-7 38l16 123q3 26 16.5 37.5t39.5 11.5h114l35 282q38 330 490 330q218 0 323 -80.5t105 -206.5q0 -29 -2 -43l-11 -69q-3 -29 -14.5 -41.5t-38.5 -12.5h-166q-53 0 -43 54l2 20q2 12 2 33 q0 60 -42.5 88.5t-133.5 28.5q-95 0 -143 -36.5t-57 -113.5l-29 -233h223q52 0 45 -49l-14 -123q-5 -50 -60 -50h-221l-45 -354h309q67 0 100 39.5t42 126.5l2 19q3 27 16.5 39t40.5 12h162q50 0 43 -51l-2 -19q-12 -112 -41 -188t-76 -119.5t-105 -61.5t-137 -18h-772 q-27 0 -36.5 12.5t-6.5 38.5z" />
<glyph unicode="&#xa4;" horiz-adv-x="1302" d="M205 518l8 72q5 47 57 47h74l12 113h-71q-28 0 -38 11.5t-7 37.5l8 71q3 28 16 39t41 11h72l20 155q39 334 514 334q233 0 342 -82t109 -211q0 -13 -4 -53l-10 -86q-3 -28 -15.5 -39.5t-38.5 -11.5h-172q-27 0 -36.5 12.5t-6.5 38.5l6 39q2 16 2 39q0 125 -192 125 q-207 0 -225 -154l-15 -106h191q28 0 39 -11.5t8 -38.5l-8 -71q-6 -49 -60 -49h-190l-14 -113h192q28 0 38 -10.5t7 -36.5l-8 -72q-3 -27 -17 -39t-42 -12h-191l-10 -86q-4 -32 -4 -39q0 -129 192 -129q104 0 162.5 39t65.5 115l8 77q3 28 16 40t41 12h170q27 0 35.5 -13 t5.5 -39l-14 -127q-6 -55 -24 -101t-56 -90t-94 -74.5t-143 -49t-197 -18.5q-121 0 -210.5 23.5t-141 65.5t-75.5 93.5t-24 112.5q0 13 4 53l17 135h-74q-28 0 -38 11.5t-7 39.5z" />
<glyph unicode="&#xa5;" horiz-adv-x="1144" d="M168 522l8 72q3 27 16.5 38t40.5 11h211l-38 111h-158q-28 0 -38 11.5t-7 39.5l8 72q3 26 16 36.5t41 10.5h80l-143 417q-7 23 5 37.5t38 14.5h198q26 0 37.5 -13t18.5 -39l139 -467q12 -41 21 -108q31 77 49 108l272 467q14 26 29 39t39 13h180q27 0 35.5 -13.5 t-4.5 -38.5l-252 -417h92q27 0 37.5 -10.5t7.5 -36.5l-8 -72q-6 -51 -58 -51h-174l-67 -111h227q28 0 38 -10.5t7 -38.5l-8 -72q-6 -49 -57 -49h-281l-51 -422q-3 -27 -14.5 -39t-38.5 -12h-179q-27 0 -37.5 12t-7.5 39l51 422h-276q-28 0 -38 11.5t-7 37.5z" />
<glyph unicode="&#xa6;" horiz-adv-x="512" d="M203 264q0 28 12 40.5t39 12.5h170q26 0 36.5 -12.5t10.5 -40.5v-643q0 -28 -10.5 -40.5t-36.5 -12.5h-170q-27 0 -39 12.5t-12 40.5v643zM203 696v643q0 28 12 41t39 13h170q26 0 36.5 -13t10.5 -41v-643q0 -28 -10.5 -40.5t-36.5 -12.5h-170q-27 0 -39 12.5t-12 40.5z " />
<glyph unicode="&#xa7;" horiz-adv-x="1130" d="M123 -164q0 6 1 17t1 14l2 31q1 27 14.5 38t42.5 11h150q25 0 34.5 -11t8.5 -40l-2 -27v-16q0 -51 34.5 -72t116.5 -21q87 0 127.5 25t48.5 82l13 98q1 7 2 15t1.5 12.5t0.5 7.5q0 57 -86 82l-250 80q-164 51 -164 211q0 13 4 49l19 156q3 27 15.5 38t39.5 11h149 q54 0 46 -49l-15 -107q-2 -20 -2 -43q0 -52 64 -72l258 -82q77 -25 133.5 -85t56.5 -150q0 -27 -2 -39l-16 -119q-20 -141 -125.5 -219t-323.5 -78q-397 0 -397 252zM260 956q0 11 4 39l15 117q34 297 450 297q395 0 395 -252q0 -10 -2 -33l-2 -26q-3 -51 -55 -51h-152 q-25 0 -34.5 11t-8.5 40l2 26v17q0 51 -34 71.5t-117 20.5q-87 0 -127.5 -25t-48.5 -82l-15 -102q-2 -12 -2 -29q0 -59 86 -84l250 -80q164 -54 164 -208q0 -34 -2 -52l-20 -155q-3 -26 -15.5 -37.5t-40.5 -11.5h-149q-50 0 -45 49l16 127q2 12 2 22q0 52 -65 72l-256 82 q-78 25 -135.5 86t-57.5 151z" />
<glyph unicode="&#xa8;" horiz-adv-x="780" d="M293 1204l22 191q3 28 16.5 39.5t41.5 11.5h100q26 0 35 -11.5t6 -39.5l-22 -191q-3 -27 -16 -39t-40 -12h-100q-27 0 -36.5 11.5t-6.5 39.5zM580 1204l22 191q3 28 16 39.5t41 11.5h99q27 0 36.5 -11.5t6.5 -39.5l-25 -191q-3 -28 -15 -39.5t-40 -11.5h-98 q-27 0 -36.5 11.5t-6.5 39.5z" />
<glyph unicode="&#xa9;" horiz-adv-x="1593" d="M190 461v473q0 54 5.5 98.5t23 94.5t46.5 89.5t79 76.5t117.5 61.5t164.5 39.5t218 15t218.5 -15t165 -39.5t117.5 -61.5t79 -76.5t46.5 -89.5t23 -94.5t5.5 -98.5v-473q0 -54 -5.5 -98.5t-23 -95t-46.5 -90t-79 -77t-117.5 -62t-165 -39.5t-218.5 -15t-218 15 t-164.5 39.5t-117.5 62t-79 77t-46.5 90t-23 95t-5.5 98.5zM385 424q0 -128 110 -201t349 -73q241 0 351 72t110 200v551q0 126 -110.5 199t-350.5 73q-239 0 -349 -73t-110 -201v-547zM500 557v277q0 143 79.5 213.5t268.5 70.5q190 0 268 -70t78 -214v-19 q0 -28 -10.5 -38.5t-38.5 -10.5h-137q-28 0 -40 11t-12 38v12q0 59 -25.5 85t-82.5 26q-58 0 -83.5 -26t-25.5 -85v-262q0 -58 25.5 -84t83.5 -26q57 0 82.5 26.5t25.5 83.5v27q0 28 12 39.5t40 11.5h137q27 0 38 -11.5t11 -39.5v-35q0 -143 -79 -214t-269 -71 q-188 0 -267 71t-79 214z" />
<glyph unicode="&#xaa;" horiz-adv-x="735" d="M207 924q0 20 2 32l35 273q9 84 64.5 132t150.5 48q106 0 184 -68l6 25q5 18 12.5 25.5t24.5 7.5h135q30 0 27 -31l-68 -553q-3 -33 -35 -33h-135q-26 0 -26 33v29q-92 -72 -195 -72q-81 0 -131.5 41t-50.5 111zM418 973q0 -49 57 -49t123 57l25 215q-7 10 -18.5 21.5 t-36.5 23.5t-52 12q-66 0 -74 -63l-24 -197v-20z" />
<glyph unicode="&#xab;" horiz-adv-x="1296" d="M174 420l21 166q5 38 55 69l416 273q20 13 36 3t13 -36l-23 -174q-4 -38 -59 -72l-238 -149l201 -152q47 -33 43 -72l-23 -165q-3 -26 -19.5 -36t-35.5 3l-348 274q-43 35 -39 68zM664 420l20 166q5 38 55 69l416 273q20 13 36 3t13 -36l-22 -174q-3 -24 -18 -39.5 t-42 -32.5l-237 -149l200 -152q47 -33 43 -72l-22 -165q-3 -26 -19.5 -36t-35.5 3l-349 274q-42 34 -38 68z" />
<glyph unicode="&#xac;" horiz-adv-x="819" d="M152 655q0 107 74.5 182.5t181.5 75.5t182.5 -75.5t75.5 -182.5q0 -106 -75.5 -181t-182.5 -75t-181.5 75t-74.5 181z" />
<glyph unicode="&#xad;" horiz-adv-x="892" d="M182 530v121q0 27 12 38t39 11h549q27 0 39.5 -11t12.5 -38v-121q0 -49 -52 -49h-549q-51 0 -51 49z" />
<glyph unicode="&#xae;" horiz-adv-x="1323" d="M223 692v379q0 34 4.5 63.5t18 65t36 64t62.5 56.5t92.5 47t130.5 30.5t174 11.5t174 -11.5t131.5 -30.5t93 -47t62 -56.5t36.5 -64t18 -65t4 -63.5v-379q0 -34 -4 -63.5t-18 -65t-36.5 -64t-62 -56.5t-93 -47t-131.5 -30.5t-174 -11.5q-132 0 -230 22.5t-152 55.5 t-86 81t-41 89t-9 90zM399 676q0 -50 27.5 -85t106 -59t208.5 -24q191 0 266.5 44t75.5 122v413q0 38 -15.5 66t-52.5 51.5t-105.5 36t-168.5 12.5q-130 0 -208.5 -23.5t-106 -58t-27.5 -84.5v-411zM506 639v485q0 35 35 35h233q223 0 223 -170v-35q0 -100 -75 -141l69 -174 q6 -17 -3.5 -27t-31.5 -10h-110q-13 0 -18.5 7t-12.5 24q-1 4 -2 6l-59 143h-68v-143q0 -19 -7.5 -28t-27.5 -9h-110q-35 0 -35 37zM686 913h68q22 0 42.5 12t20.5 33v25q0 24 -19 35.5t-44 11.5h-68v-117z" />
<glyph unicode="&#xaf;" horiz-adv-x="831" d="M276 1221l13 104q3 27 16.5 38t40.5 11h473q27 0 37.5 -11t7.5 -38l-12 -104q-6 -50 -57 -50h-473q-52 0 -46 50z" />
<glyph unicode="&#xb0;" horiz-adv-x="890" d="M227 952q0 25 2 37l23 191q7 56 26.5 95t59 71t106.5 47.5t164 15.5q159 0 237.5 -51t78.5 -146q0 -24 -2 -36l-23 -191q-7 -55 -26.5 -94.5t-58.5 -70.5t-106 -46.5t-163 -15.5q-318 0 -318 194zM457 989q0 -57 102 -57q107 0 115 63l20 172v11q0 55 -102 55 q-105 0 -113 -62l-20 -165z" />
<glyph unicode="&#xb1;" horiz-adv-x="1146" d="M137 143v121q0 27 11.5 38t39.5 11h801q27 0 39 -11t12 -38v-121q0 -27 -12 -39t-39 -12h-801q-28 0 -39.5 11.5t-11.5 39.5zM137 721v123q0 26 11.5 36.5t39.5 10.5h289v192q0 28 10.5 40t36.5 12h123q26 0 37.5 -12t11.5 -40v-192h293q27 0 39 -10.5t12 -36.5v-123 q0 -27 -12 -38t-39 -11h-293v-193q0 -28 -11.5 -39.5t-37.5 -11.5h-123q-26 0 -36.5 11.5t-10.5 39.5v193h-289q-28 0 -39.5 11t-11.5 38z" />
<glyph unicode="&#xb2;" horiz-adv-x="794" d="M186 600l29 219q6 47 26 70t62 39l277 116q38 16 45 66l8 53v17q0 67 -92 67t-101 -80l-4 -43q-1 -21 -10.5 -30t-30.5 -9h-131q-21 0 -27 8.5t-4 30.5l9 74q5 42 23 77.5t53.5 66.5t97 49t143.5 18q139 0 211 -57.5t72 -137.5q0 -7 -4 -47l-4 -51q-4 -47 -18 -82.5 t-38 -58t-44 -35t-48 -25.5l-235 -102q-29 -12 -31 -29l-8 -55h342q37 0 32 -35l-12 -94q-5 -37 -41 -37h-512q-16 0 -27 8.5t-8 28.5z" />
<glyph unicode="&#xb3;" horiz-adv-x="792" d="M184 735q0 13 2 29l4 41q3 35 41 35h131q20 0 26.5 -7.5t6.5 -27.5v-17q0 -73 90 -73q96 0 105 80l4 34v13q0 69 -90 69h-86q-38 0 -33 35l10 88q5 37 43 37h72q49 0 76.5 17.5t31.5 60.5l3 20v9q0 73 -84 73q-43 0 -68 -20t-25 -60v-10q0 -35 -41 -35h-133q-32 0 -30 35 l4 41q20 209 315 209q142 0 208.5 -52.5t66.5 -129.5q0 -6 -3 -33l-8 -82q-4 -48 -27.5 -73t-72.5 -44q80 -41 80 -118q0 -15 -2 -31l-13 -92q-6 -43 -22.5 -76t-51 -63t-95.5 -46t-146 -16q-147 0 -218 53t-71 127z" />
<glyph unicode="&#xb4;" horiz-adv-x="643" d="M293 1198l123 201q32 51 76 51h184q27 0 32 -14.5t-14 -36.5l-174 -217q-30 -35 -69 -35h-138q-52 0 -20 51z" />
<glyph unicode="&#xb5;" horiz-adv-x="1103" d="M66 -360l163 1329q6 51 58 51h166q50 0 45 -51l-76 -637q-4 -36 -4 -41q0 -40 22 -58t76 -18q115 0 238 90l80 664q3 28 16 39.5t41 11.5h170q28 0 37 -12.5t6 -38.5l-113 -918q-3 -27 -16.5 -39t-40.5 -12h-158q-26 0 -35.5 11t-7.5 40l2 45q-31 -23 -54 -37.5 t-63.5 -34.5t-89 -30t-102.5 -10q-20 0 -39.5 5.5t-24.5 10.5l-28 -360q-1 -28 -14 -40t-41 -12h-170q-26 0 -36 12t-7 40z" />
<glyph unicode="&#xb6;" horiz-adv-x="1419" d="M236 811q0 11 4 39l32 274q7 62 28 106.5t66.5 83.5t129 59t204.5 20h275q54 0 47 -52l-211 -1701q-3 -28 -15.5 -40t-39.5 -12h-178q-24 0 -35 12t-8 40l114 938h-49q-185 0 -274.5 62.5t-89.5 170.5zM948 -360l211 1699q3 28 15.5 41t39.5 13h179q50 0 43 -54 l-211 -1699q-3 -28 -15.5 -40t-40.5 -12h-178q-25 0 -35.5 11.5t-7.5 40.5z" />
<glyph unicode="&#xb7;" horiz-adv-x="512" d="M176 483l19 166q3 28 16 39.5t41 11.5h176q26 0 35 -11.5t6 -39.5l-20 -166q-3 -28 -15.5 -39.5t-40.5 -11.5h-174q-27 0 -36.5 11.5t-6.5 39.5z" />
<glyph unicode="&#xb8;" horiz-adv-x="534" d="M-12 -381l4 41q3 27 15.5 38t39.5 11h201q43 0 43 35q0 29 -37 29h-150q-37 0 -52.5 16.5t-2.5 50.5l76 187q19 48 65 45l76 -6q23 -3 30 -23t-1 -39l-39 -96h63q72 0 115 -39.5t43 -108.5q0 -95 -55.5 -143.5t-145.5 -48.5h-245q-50 0 -43 51z" />
<glyph unicode="&#xb9;" horiz-adv-x="765" d="M168 598l10 94q3 21 12.5 28t30.5 7h150l61 487l-151 -20q-21 -3 -29.5 3.5t-5.5 27.5l10 94q1 18 11 26t32 11l330 51q9 1 16.5 0.5t11.5 -9.5t2 -26l-79 -645h145q19 0 26.5 -7.5t6.5 -27.5l-13 -94q-2 -21 -10 -29t-28 -8h-504q-22 0 -30 8.5t-5 28.5z" />
<glyph unicode="&#xba;" horiz-adv-x="761" d="M211 944q0 15 4 39l29 231q26 195 301 195q124 0 198 -47t74 -125q0 -5 -4 -41l-29 -229q-26 -195 -301 -195q-125 0 -198.5 47t-73.5 125zM420 973q0 -45 78 -45q76 0 84 55l26 215v12q0 43 -76 43q-81 0 -86 -51l-26 -213v-16z" />
<glyph unicode="&#xbb;" horiz-adv-x="1306" d="M174 125l23 174q4 38 59 72l238 149l-201 152q-47 33 -43 71l22 166q3 26 20 36t36 -3l348 -274q43 -35 39 -68l-21 -166q-5 -38 -55 -69l-416 -273q-20 -13 -36 -3t-13 36zM674 125l22 174q3 24 18 39.5t42 32.5l237 149l-200 152q-47 33 -43 71l22 166q3 26 19.5 36 t35.5 -3l349 -274q42 -34 38 -68l-20 -166q-5 -38 -55 -69l-416 -273q-20 -13 -36 -3t-13 36z" />
<glyph unicode="&#xbc;" horiz-adv-x="1832" d="M229 598l11 94q3 21 12.5 28t30.5 7h149l62 487l-152 -20q-21 -3 -29.5 3.5t-5.5 27.5l10 94q1 18 11 26t32 11l330 51h17t12 -9t2 -26l-80 -645h145q19 0 26.5 -7.5t6.5 -27.5l-12 -94q-2 -20 -10.5 -28.5t-28.5 -8.5h-504q-22 0 -30 8.5t-5 28.5zM653 -63l557 1519 q6 20 16 28.5t31 8.5h146q37 0 24 -37l-555 -1519q-6 -20 -16 -28.5t-29 -8.5h-147q-39 0 -27 37zM1159 248l6 69q2 18 19 64l170 418q13 37 49 37h139q21 0 25.5 -10t-2.5 -27l-166 -424h176l51 424q3 37 43 37h135q21 0 28 -8.5t5 -28.5l-94 -762q-2 -19 -11 -28t-30 -9 h-137q-34 0 -31 37l20 174h-362q-36 0 -33 37z" />
<glyph unicode="&#xbd;" horiz-adv-x="1841" d="M229 598l11 94q3 21 12.5 28t30.5 7h149l62 487l-152 -20q-21 -3 -29.5 3.5t-5.5 27.5l10 94q1 18 11 26t32 11l330 51h17t12 -9t2 -26l-80 -645h145q19 0 26.5 -7.5t6.5 -27.5l-12 -94q-2 -20 -10.5 -28.5t-28.5 -8.5h-504q-22 0 -30 8.5t-5 28.5zM649 -63l557 1519 q6 20 16 28.5t31 8.5h146q37 0 24 -37l-557 -1519q-7 -20 -15.5 -28.5t-29.5 -8.5h-145q-39 0 -27 37zM1223 37l28 219q6 47 26 70t62 39l277 116q38 16 45 66l8 53v16q0 33 -24.5 50.5t-67.5 17.5q-91 0 -100 -80l-4 -43q-1 -21 -10.5 -30t-30.5 -9h-132q-21 0 -26.5 8.5 t-3.5 30.5l8 74q5 42 23 77.5t53.5 66.5t97 49t143.5 18q139 0 211 -57.5t72 -137.5q0 -7 -4 -47l-4 -51q-4 -47 -18 -82.5t-38 -58t-44 -35t-48 -25.5l-235 -102q-29 -12 -31 -29l-8 -55h342q38 0 33 -35l-13 -94q-5 -37 -41 -37h-512q-39 0 -34 37z" />
<glyph unicode="&#xbe;" horiz-adv-x="1855" d="M244 735q0 13 2 29l4 41q3 35 41 35h131q20 0 26.5 -7.5t6.5 -27.5v-17q0 -73 90 -73q95 0 104 80l4 34v13q0 69 -90 69h-86q-38 0 -33 35l11 88q5 37 43 37h71q49 0 77 17.5t32 60.5l2 20v9q0 73 -84 73q-43 0 -67.5 -20t-24.5 -60v-10q0 -35 -41 -35h-133q-33 0 -31 35 l4 41q20 209 315 209q142 0 208.5 -52.5t66.5 -129.5q0 -15 -2 -33l-8 -82q-4 -48 -28 -73t-73 -44q80 -41 80 -118q0 -15 -2 -31l-12 -92q-27 -201 -316 -201q-147 0 -217.5 53t-70.5 127zM676 -63l555 1519q6 20 16 28.5t31 8.5h145q38 0 25 -37l-555 -1519 q-6 -20 -16 -28.5t-29 -8.5h-148q-36 0 -24 37zM1178 248l8 69q2 22 18 64l170 418q13 37 49 37h140q35 0 22 -37l-166 -424h176l52 424q3 37 41 37h137q20 0 26 -8.5t4 -28.5l-92 -762q-2 -19 -11 -28t-30 -9h-137q-34 0 -31 37l21 174h-363q-21 0 -29 8.5t-5 28.5z" />
<glyph unicode="&#xbf;" horiz-adv-x="1157" d="M92 -88q0 25 2 45l12 96q8 70 32 124.5t59 89t67 55t72 36.5l123 54q50 22 72 45t28 69l8 72q3 27 15 38t39 11h180q51 0 45 -49l-19 -141q-5 -41 -19 -72.5t-37 -52.5t-43.5 -33.5t-51.5 -26.5l-201 -96q-81 -42 -94 -125l-8 -61q-2 -20 -2 -37q0 -57 47.5 -87 t138.5 -30q203 0 221 154l10 80q5 28 17 39.5t39 11.5h170q50 0 45 -51l-17 -125q-45 -334 -503 -334q-116 0 -205 25.5t-140 68.5t-76.5 95.5t-25.5 111.5zM592 803l20 166q3 27 16 39t40 12h178q25 0 35.5 -10.5t7.5 -40.5l-19 -166q-3 -27 -16.5 -39t-40.5 -12h-180 q-28 0 -36 12t-5 39z" />
<glyph unicode="&#xc0;" horiz-adv-x="1132" d="M35 51l540 1290q21 52 70 52h180q26 0 38.5 -12.5t17.5 -39.5l225 -1290q9 -51 -43 -51h-180q-27 0 -39 12.5t-17 38.5l-41 250h-380l-103 -250q-10 -26 -24.5 -38.5t-40.5 -12.5h-170q-55 0 -33 51zM478 1783.5q9 14.5 36 14.5h174q26 0 40 -12.5t24 -38.5l75 -201 q20 -49 -32 -49h-129q-46 0 -62 33l-123 217q-12 22 -3 36.5zM494 520h260l-39 228q-8 47 -12.5 140.5t-4.5 163.5v70q-75 -301 -106 -372z" />
<glyph unicode="&#xc1;" horiz-adv-x="1132" d="M35 51l540 1290q21 52 70 52h180q26 0 38.5 -12.5t17.5 -39.5l225 -1290q9 -51 -43 -51h-180q-27 0 -39 12.5t-17 38.5l-41 250h-380l-103 -250q-10 -26 -24.5 -38.5t-40.5 -12.5h-170q-55 0 -33 51zM494 520h260l-39 228q-8 47 -12.5 140.5t-4.5 163.5v70 q-75 -301 -106 -372zM645.5 1507.5q-6.5 12.5 9.5 38.5l125 201q32 51 76 51h182q27 0 33 -14.5t-12 -36.5l-174 -217q-26 -35 -72 -35h-137q-24 0 -30.5 12.5z" />
<glyph unicode="&#xc2;" horiz-adv-x="1132" d="M35 51l540 1290q21 52 70 52h180q26 0 38.5 -12.5t17.5 -39.5l225 -1290q9 -51 -43 -51h-180q-27 0 -39 12.5t-17 38.5l-41 250h-380l-103 -250q-10 -26 -24.5 -38.5t-40.5 -12.5h-170q-55 0 -33 51zM442.5 1510.5q-6.5 15.5 12.5 35.5l174 201q44 51 88 51h96 q25 0 41.5 -13t32.5 -38l127 -201q13 -22 3 -36.5t-38 -14.5h-127q-47 0 -66 51l-38 92l-64 -92q-35 -51 -76 -51h-133q-26 0 -32.5 15.5zM494 520h260l-39 228q-8 47 -12.5 140.5t-4.5 163.5v70q-75 -301 -106 -372z" />
<glyph unicode="&#xc3;" horiz-adv-x="1132" d="M35 51l540 1290q21 52 70 52h180q26 0 38.5 -12.5t17.5 -39.5l225 -1290q9 -51 -43 -51h-180q-27 0 -39 12.5t-17 38.5l-41 250h-380l-103 -250q-10 -26 -24.5 -38.5t-40.5 -12.5h-170q-55 0 -33 51zM354 1563l19 84q18 75 71 117t123 42q69 0 123 -28l82 -43 q8 -4 20.5 -10.5t19 -9.5t14.5 -6t14 -3q20 0 29.5 11t15.5 38l4 12q9 26 21 35.5t38 9.5h90q50 0 37 -59l-18 -78q-20 -81 -68 -121.5t-115 -40.5q-33 0 -59.5 4.5t-38.5 9t-37 15.5l-88 43q-52 25 -69 25q-32 0 -41 -41l-6 -21q-9 -27 -22 -36t-38 -9h-86q-49 0 -35 60z M494 520h260l-39 228q-8 47 -12.5 140.5t-4.5 163.5v70q-75 -301 -106 -372z" />
<glyph unicode="&#xc4;" horiz-adv-x="1132" d="M35 51l540 1290q21 52 70 52h180q26 0 38.5 -12.5t17.5 -39.5l225 -1290q9 -51 -43 -51h-180q-27 0 -39 12.5t-17 38.5l-41 250h-380l-103 -250q-10 -26 -24.5 -38.5t-40.5 -12.5h-170q-55 0 -33 51zM494 520h260l-39 228q-8 47 -12.5 140.5t-4.5 163.5v70 q-75 -301 -106 -372zM496 1550l24 191q3 28 16 40.5t39 12.5h101q27 0 35.5 -12t5.5 -41l-23 -191q-3 -28 -15 -39.5t-40 -11.5h-100q-26 0 -36 11.5t-7 39.5zM782 1550l23 191q6 53 57 53h101q27 0 35.5 -12t5.5 -41l-23 -191q-3 -28 -15 -39.5t-40 -11.5h-101 q-26 0 -36 11.5t-7 39.5z" />
<glyph unicode="&#xc5;" horiz-adv-x="1132" d="M35 51l540 1290q21 52 70 52h180q26 0 38.5 -12.5t17.5 -39.5l225 -1290q9 -51 -43 -51h-180q-27 0 -39 12.5t-17 38.5l-41 250h-380l-103 -250q-10 -26 -24.5 -38.5t-40.5 -12.5h-170q-55 0 -33 51zM494 520h260l-39 228q-8 47 -12.5 140.5t-4.5 163.5v70 q-75 -301 -106 -372zM520 1597q0 23 2 43l6 48q18 155 238 155q104 0 159.5 -38t55.5 -97q0 -9 -2 -29l-6 -61q-15 -156 -232 -156q-108 0 -164.5 38t-56.5 97zM666 1626q0 -51 77 -51q85 0 88 61l3 31v14q0 48 -78 48q-39 0 -63 -16t-25 -46l-2 -31v-10z" />
<glyph unicode="&#xc6;" horiz-adv-x="1710" d="M33.5 14q-10.5 14 5.5 37l926 1292q37 50 84 50h682q27 0 37.5 -11.5t7.5 -38.5l-17 -124q-3 -27 -15.5 -38.5t-39.5 -11.5h-473l-43 -340h438q28 0 39 -11t8 -38l-14 -116q-6 -52 -57 -52h-441l-47 -389h494q28 0 39 -10.5t8 -36.5l-17 -127q-3 -26 -16 -37.5t-41 -11.5 h-704q-28 0 -39.5 12t-8.5 41l31 248h-373l-176 -250q-12 -17 -19 -25t-20.5 -17t-27.5 -9h-172q-28 0 -38.5 14zM643 520h246l51 432q-51 -85 -86 -133z" />
<glyph unicode="&#xc7;" horiz-adv-x="1165" d="M156 279q0 13 4 53l90 743q39 334 514 334q233 0 341.5 -82t108.5 -211q0 -13 -4 -53l-10 -86q-3 -28 -15 -39.5t-38 -11.5h-172q-27 0 -36.5 12.5t-6.5 38.5l6 39q2 16 2 39q0 125 -192 125q-208 0 -226 -154l-80 -645q-4 -32 -4 -39q0 -129 193 -129q103 0 161.5 39 t65.5 115l8 77q3 28 16.5 40t41.5 12h170q27 0 35.5 -13t5.5 -39l-15 -127q-34 -318 -473 -333l-31 -76h64q72 0 115 -39.5t43 -108.5q0 -95 -55.5 -143.5t-145.5 -48.5h-246q-50 0 -43 51l4 41q3 27 16 38t40 11h200q43 0 43 35q0 29 -37 29h-149q-37 0 -52.5 16.5 t-2.5 50.5l61 154q-163 22 -239 99t-76 186z" />
<glyph unicode="&#xc8;" horiz-adv-x="1048" d="M147 53l160 1286q6 54 55 54h701q28 0 39 -11.5t8 -38.5l-16 -129q-6 -51 -58 -51h-473l-41 -332h441q27 0 36.5 -11t6.5 -38l-15 -123q-3 -26 -16 -37.5t-41 -11.5h-438l-50 -381h496q29 0 40 -11t7 -38l-18 -129q-5 -28 -17 -39.5t-39 -11.5h-722q-52 0 -46 53z M466 1783.5q9 14.5 36 14.5h174q26 0 39.5 -12.5t23.5 -38.5l76 -201q10 -25 0 -37t-33 -12h-129q-45 0 -61 33l-123 217q-12 22 -3 36.5z" />
<glyph unicode="&#xc9;" horiz-adv-x="1048" d="M147 53l160 1286q6 54 55 54h701q28 0 39 -11.5t8 -38.5l-16 -129q-6 -51 -58 -51h-473l-41 -332h441q27 0 36.5 -11t6.5 -38l-15 -123q-3 -26 -16 -37.5t-41 -11.5h-438l-50 -381h496q29 0 40 -11t7 -38l-18 -129q-5 -28 -17 -39.5t-39 -11.5h-722q-52 0 -46 53z M598.5 1507.5q-6.5 12.5 9.5 38.5l125 201q32 51 76 51h182q27 0 33 -14.5t-12 -36.5l-174 -217q-26 -35 -72 -35h-137q-24 0 -30.5 12.5z" />
<glyph unicode="&#xca;" horiz-adv-x="1048" d="M147 53l160 1286q6 54 55 54h701q28 0 39 -11.5t8 -38.5l-16 -129q-6 -51 -58 -51h-473l-41 -332h441q27 0 36.5 -11t6.5 -38l-15 -123q-3 -26 -16 -37.5t-41 -11.5h-438l-50 -381h496q29 0 40 -11t7 -38l-18 -129q-5 -28 -17 -39.5t-39 -11.5h-722q-52 0 -46 53z M428 1510.5q-7 15.5 12 35.5l174 201q44 51 88 51h97q25 0 41 -12.5t32 -38.5l127 -201q13 -22 3.5 -36.5t-37.5 -14.5h-127q-47 0 -66 51l-39 92l-63 -92q-35 -51 -76 -51h-133q-26 0 -33 15.5z" />
<glyph unicode="&#xcb;" horiz-adv-x="1048" d="M147 53l160 1286q6 54 55 54h701q28 0 39 -11.5t8 -38.5l-16 -129q-6 -51 -58 -51h-473l-41 -332h441q27 0 36.5 -11t6.5 -38l-15 -123q-3 -26 -16 -37.5t-41 -11.5h-438l-50 -381h496q29 0 40 -11t7 -38l-18 -129q-5 -28 -17 -39.5t-39 -11.5h-722q-52 0 -46 53z M485 1550l25 191q3 28 16 40.5t39 12.5h101q27 0 35.5 -12t5.5 -41l-23 -191q-3 -28 -15 -39.5t-40 -11.5h-101q-26 0 -36 11.5t-7 39.5zM772 1550l23 191q6 53 57 53h100q27 0 35.5 -12t5.5 -41l-22 -191q-3 -28 -15.5 -39.5t-40.5 -11.5h-100q-26 0 -36 11.5t-7 39.5z" />
<glyph unicode="&#xcc;" horiz-adv-x="561" d="M147 53l160 1286q6 54 55 54h179q27 0 36.5 -12.5t6.5 -41.5l-158 -1286q-3 -28 -15.5 -40.5t-39.5 -12.5h-178q-52 0 -46 53zM206 1783.5q9 14.5 36 14.5h174q26 0 39.5 -12.5t23.5 -38.5l76 -201q10 -25 0 -37t-33 -12h-129q-45 0 -61 33l-123 217q-12 22 -3 36.5z" />
<glyph unicode="&#xcd;" horiz-adv-x="561" d="M147 53l160 1286q6 54 55 54h179q27 0 36.5 -12.5t6.5 -41.5l-158 -1286q-3 -28 -15.5 -40.5t-39.5 -12.5h-178q-52 0 -46 53zM355 1507.5q-6 12.5 10 38.5l124 201q32 51 76 51h183q27 0 32.5 -14.5t-12.5 -36.5l-174 -217q-26 -35 -72 -35h-137q-24 0 -30 12.5z" />
<glyph unicode="&#xce;" horiz-adv-x="561" d="M147 53l160 1286q6 54 55 54h179q27 0 36.5 -12.5t6.5 -41.5l-158 -1286q-3 -28 -15.5 -40.5t-39.5 -12.5h-178q-52 0 -46 53zM174 1510.5q-7 15.5 12 35.5l174 201q44 51 89 51h96q25 0 41 -12.5t32 -38.5l127 -201q13 -22 3.5 -36.5t-37.5 -14.5h-127q-47 0 -66 51 l-39 92l-63 -92q-35 -51 -76 -51h-133q-26 0 -33 15.5z" />
<glyph unicode="&#xcf;" horiz-adv-x="561" d="M147 53l160 1286q6 54 55 54h179q27 0 36.5 -12.5t6.5 -41.5l-158 -1286q-3 -28 -15.5 -40.5t-39.5 -12.5h-178q-52 0 -46 53zM225 1550l25 191q3 28 16 40.5t39 12.5h101q27 0 35 -12t5 -41l-22 -191q-3 -28 -15 -39.5t-40 -11.5h-101q-26 0 -36 11.5t-7 39.5zM512 1550 l23 191q6 53 57 53h100q27 0 35.5 -12t5.5 -41l-22 -191q-3 -28 -15.5 -39.5t-40.5 -11.5h-100q-26 0 -36 11.5t-7 39.5z" />
<glyph unicode="&#xd0;" horiz-adv-x="1259" d="M66 649l12 105q3 26 17 36.5t42 10.5h103l67 538q6 54 55 54h435q124 0 217.5 -24.5t148 -67t81 -95t26.5 -114.5q0 -32 -4 -60l-86 -698q-6 -55 -25 -101.5t-58.5 -90.5t-96.5 -74.5t-145.5 -49t-199.5 -18.5h-469q-45 0 -39 53l68 545h-104q-27 0 -37.5 12t-7.5 39z M446 229h224q104 0 166 39.5t71 114.5l76 604q4 28 4 47q0 129 -205 129h-219l-45 -362h166q28 0 38 -10.5t7 -36.5l-12 -105q-6 -51 -58 -51h-167z" />
<glyph unicode="&#xd1;" horiz-adv-x="1280" d="M147 51l158 1290q6 52 57 52h154q34 0 43 -21l326 -706q39 -89 51 -144l100 819q6 52 56 52h161q27 0 36.5 -12.5t6.5 -39.5l-159 -1290q-3 -27 -15 -39t-39 -12h-153q-34 0 -47 25l-314 677q-40 88 -61 168l-100 -819q-3 -27 -15 -39t-39 -12h-161q-52 0 -46 51z M483 1563l19 84q18 75 71 117t123 42q69 0 123 -28l82 -43q8 -4 20.5 -10.5t19 -9.5t14.5 -6t14 -3q20 0 29.5 11t15.5 38l4 12q9 26 21 35.5t38 9.5h90q50 0 37 -59l-18 -78q-20 -81 -67.5 -121.5t-114.5 -40.5q-33 0 -59.5 4.5t-39.5 9t-37 15.5l-88 43q-52 25 -69 25 q-32 0 -41 -41l-6 -21q-9 -27 -22 -36t-38 -9h-86q-49 0 -35 60z" />
<glyph unicode="&#xd2;" horiz-adv-x="1239" d="M156 281q0 11 4 51l90 743q6 54 26 101t60.5 90.5t98.5 74.5t146.5 49.5t198.5 18.5q235 0 351 -84.5t116 -212.5q0 -33 -2 -51l-90 -744q-6 -54 -26 -101t-61 -90.5t-99.5 -74t-147 -49t-198.5 -18.5q-236 0 -351.5 84t-115.5 213zM438 342q0 -129 207 -129 q105 0 166 39t70 115l82 645q4 32 4 39q0 129 -207 129q-100 0 -164.5 -40t-73.5 -114l-80 -645q-4 -32 -4 -39zM531.5 1783.5q8.5 14.5 35.5 14.5h174q26 0 40 -12.5t24 -38.5l76 -201q10 -25 0 -37t-33 -12h-129q-45 0 -62 33l-122 217q-12 22 -3.5 36.5z" />
<glyph unicode="&#xd3;" horiz-adv-x="1239" d="M156 281q0 11 4 51l90 743q6 54 26 101t60.5 90.5t98.5 74.5t146.5 49.5t198.5 18.5q235 0 351 -84.5t116 -212.5q0 -33 -2 -51l-90 -744q-6 -54 -26 -101t-61 -90.5t-99.5 -74t-147 -49t-198.5 -18.5q-236 0 -351.5 84t-115.5 213zM438 342q0 -129 207 -129 q105 0 166 39t70 115l82 645q4 32 4 39q0 129 -207 129q-100 0 -164.5 -40t-73.5 -114l-80 -645q-4 -32 -4 -39zM676.5 1507.5q-6.5 12.5 9.5 38.5l125 201q32 51 76 51h182q27 0 33 -14.5t-12 -36.5l-175 -217q-26 -35 -71 -35h-137q-24 0 -30.5 12.5z" />
<glyph unicode="&#xd4;" horiz-adv-x="1239" d="M156 281q0 11 4 51l90 743q6 54 26 101t60.5 90.5t98.5 74.5t146.5 49.5t198.5 18.5q235 0 351 -84.5t116 -212.5q0 -33 -2 -51l-90 -744q-6 -54 -26 -101t-61 -90.5t-99.5 -74t-147 -49t-198.5 -18.5q-236 0 -351.5 84t-115.5 213zM438 342q0 -129 207 -129 q105 0 166 39t70 115l82 645q4 32 4 39q0 129 -207 129q-100 0 -164.5 -40t-73.5 -114l-80 -645q-4 -32 -4 -39zM512 1510.5q-7 15.5 12 35.5l174 201q44 51 88 51h97q25 0 41 -12.5t32 -38.5l127 -201q13 -22 3.5 -36.5t-37.5 -14.5h-127q-47 0 -66 51l-39 92l-63 -92 q-35 -51 -76 -51h-133q-26 0 -33 15.5z" />
<glyph unicode="&#xd5;" horiz-adv-x="1239" d="M156 281q0 11 4 51l90 743q6 54 26 101t60.5 90.5t98.5 74.5t146.5 49.5t198.5 18.5q235 0 351 -84.5t116 -212.5q0 -33 -2 -51l-90 -744q-6 -54 -26 -101t-61 -90.5t-99.5 -74t-147 -49t-198.5 -18.5q-236 0 -351.5 84t-115.5 213zM438 342q0 -129 207 -129 q105 0 166 39t70 115l82 645q4 32 4 39q0 129 -207 129q-100 0 -164.5 -40t-73.5 -114l-80 -645q-4 -32 -4 -39zM455 1563l18 84q18 75 71.5 117t123.5 42q69 0 123 -28l81 -43q8 -4 20.5 -10.5t19 -9.5t14.5 -6t14 -3q20 0 29.5 11t15.5 38l4 12q9 25 21.5 35t38.5 10h90 q50 0 37 -59l-19 -78q-20 -81 -67.5 -121.5t-114.5 -40.5q-33 0 -59.5 4.5t-38.5 9t-37 15.5l-88 43q-52 25 -70 25q-32 0 -41 -41l-6 -21q-9 -27 -22 -36t-38 -9h-86q-48 0 -34 60z" />
<glyph unicode="&#xd6;" horiz-adv-x="1239" d="M156 281q0 11 4 51l90 743q6 54 26 101t60.5 90.5t98.5 74.5t146.5 49.5t198.5 18.5q235 0 351 -84.5t116 -212.5q0 -33 -2 -51l-90 -744q-6 -54 -26 -101t-61 -90.5t-99.5 -74t-147 -49t-198.5 -18.5q-236 0 -351.5 84t-115.5 213zM438 342q0 -129 207 -129 q105 0 166 39t70 115l82 645q4 32 4 39q0 129 -207 129q-100 0 -164.5 -40t-73.5 -114l-80 -645q-4 -32 -4 -39zM565 1550l25 191q3 28 16 40.5t39 12.5h100q27 0 35.5 -12t5.5 -41l-22 -191q-3 -28 -15 -39.5t-40 -11.5h-101q-26 0 -36 11.5t-7 39.5zM852 1550l22 191 q6 53 58 53h100q27 0 35.5 -12t5.5 -41l-22 -191q-3 -28 -15.5 -39.5t-40.5 -11.5h-100q-26 0 -36 11.5t-7 39.5z" />
<glyph unicode="&#xd7;" horiz-adv-x="1107" d="M190 553q0 20 29 37l252 143l-145 252q-13 23 -13 35q0 20 27 35l104 61q17 10 31 10q23 0 41 -30l146 -252l251 145q20 10 33 10q21 0 35 -26l61 -105q11 -22 11 -32q0 -20 -31 -39l-252 -146l145 -250q11 -22 11 -30q0 -23 -29 -39l-104 -60q-15 -10 -31 -10 q-20 0 -37 29l-145 250l-252 -144q-15 -10 -33 -10q-23 0 -37 29l-57 104q-11 22 -11 33z" />
<glyph unicode="&#xd8;" horiz-adv-x="1239" d="M156 281q0 11 4 51l90 743q6 54 26 101t60.5 90.5t98.5 74.5t146.5 49.5t198.5 18.5q158 0 264 -41l27 43q29 53 70 53h61q43 0 12 -53l-63 -102q96 -75 96 -197q0 -33 -2 -51l-90 -744q-6 -54 -26 -101t-61 -90.5t-99.5 -74t-147 -49t-198.5 -18.5q-155 0 -267 41 l-24 -41q-19 -31 -33 -42.5t-39 -11.5h-61q-18 0 -21 16t10 38l62 98q-94 75 -94 199zM444 397l465 752q-54 31 -149 31q-100 0 -164.5 -40t-73.5 -114zM492 244q54 -31 153 -31q105 0 166 39t70 115l80 634z" />
<glyph unicode="&#xd9;" horiz-adv-x="1259" d="M166 285q0 9 6 57l123 997q3 28 15 41t38 13h180q48 0 43 -54l-116 -933q-6 -44 -6 -62q0 -65 53.5 -98t150.5 -33q105 0 167 39t71 115l123 972q3 28 15 41t38 13h178q50 0 45 -54l-127 -1022q-6 -55 -25 -101t-58.5 -90t-97 -74.5t-146 -49t-199.5 -18.5 q-234 0 -352.5 85.5t-118.5 215.5zM558 1783.5q9 14.5 36 14.5h174q26 0 39.5 -12.5t23.5 -38.5l76 -201q10 -25 0 -37t-33 -12h-129q-45 0 -61 33l-123 217q-12 22 -3 36.5z" />
<glyph unicode="&#xda;" horiz-adv-x="1259" d="M166 285q0 9 6 57l123 997q3 28 15 41t38 13h180q48 0 43 -54l-116 -933q-6 -44 -6 -62q0 -65 53.5 -98t150.5 -33q105 0 167 39t71 115l123 972q3 28 15 41t38 13h178q50 0 45 -54l-127 -1022q-6 -55 -25 -101t-58.5 -90t-97 -74.5t-146 -49t-199.5 -18.5 q-234 0 -352.5 85.5t-118.5 215.5zM695 1507.5q-6 12.5 10 38.5l124 201q32 51 76 51h182q27 0 33 -14.5t-12 -36.5l-174 -217q-26 -35 -72 -35h-137q-24 0 -30 12.5z" />
<glyph unicode="&#xdb;" horiz-adv-x="1259" d="M166 285q0 9 6 57l123 997q3 28 15 41t38 13h180q48 0 43 -54l-116 -933q-6 -44 -6 -62q0 -65 53.5 -98t150.5 -33q105 0 167 39t71 115l123 972q3 28 15 41t38 13h178q50 0 45 -54l-127 -1022q-6 -55 -25 -101t-58.5 -90t-97 -74.5t-146 -49t-199.5 -18.5 q-234 0 -352.5 85.5t-118.5 215.5zM512 1510.5q-7 15.5 12 35.5l174 201q44 51 88 51h97q25 0 41 -12.5t32 -38.5l127 -201q13 -22 3.5 -36.5t-37.5 -14.5h-127q-47 0 -66 51l-39 92l-63 -92q-35 -51 -76 -51h-133q-26 0 -33 15.5z" />
<glyph unicode="&#xdc;" horiz-adv-x="1259" d="M166 285q0 9 6 57l123 997q3 28 15 41t38 13h180q48 0 43 -54l-116 -933q-6 -44 -6 -62q0 -65 53.5 -98t150.5 -33q105 0 167 39t71 115l123 972q3 28 15 41t38 13h178q50 0 45 -54l-127 -1022q-6 -55 -25 -101t-58.5 -90t-97 -74.5t-146 -49t-199.5 -18.5 q-234 0 -352.5 85.5t-118.5 215.5zM567 1550l25 191q3 28 16 40.5t39 12.5h101q27 0 35 -12t5 -41l-22 -191q-3 -28 -15 -39.5t-40 -11.5h-101q-26 0 -36 11.5t-7 39.5zM854 1550l23 191q6 53 57 53h100q27 0 35.5 -12t5.5 -41l-22 -191q-3 -28 -15.5 -39.5t-40.5 -11.5 h-100q-26 0 -36 11.5t-7 39.5z" />
<glyph unicode="&#xdd;" horiz-adv-x="1116" d="M193 1341q-7 23 5 37.5t38 14.5h198q26 0 37 -12.5t18 -39.5l140 -467q10 -34 20 -108q31 77 49 108l273 467q14 26 28.5 39t38.5 13h181q27 0 35 -13.5t-5 -38.5l-487 -809l-60 -481q-3 -27 -14.5 -39t-38.5 -12h-178q-27 0 -37.5 12t-7.5 39l55 449zM643.5 1507.5 q-6.5 12.5 9.5 38.5l125 201q32 51 76 51h182q27 0 33 -14.5t-12 -36.5l-174 -217q-26 -35 -72 -35h-137q-24 0 -30.5 12.5z" />
<glyph unicode="&#xde;" horiz-adv-x="1187" d="M147 51l158 1290q6 52 57 52h179q26 0 35 -13t6 -39l-37 -321h194q122 0 214 -24.5t145.5 -67t79.5 -94t26 -111.5q0 -29 -2 -41l-20 -172q-8 -69 -39 -125.5t-90 -104.5t-161 -75t-239 -27h-213l-16 -127q-3 -27 -14.5 -39t-38.5 -12h-178q-51 0 -46 51zM469 406h203 q105 0 169.5 39t71.5 114l9 80v23q0 131 -203 131h-203z" />
<glyph unicode="&#xdf;" horiz-adv-x="1312" d="M143 854l13 102q3 25 15.5 36t39.5 14l111 10h2l16 131q18 144 140 223.5t358 79.5q209 0 316.5 -69t107.5 -191q0 -5 -1 -12t-2 -17t-2 -16l-10 -70q-9 -65 -54 -115t-108 -77l-143 -60q-18 -7 -28 -12t-21.5 -17t-11.5 -26v-12q0 -32 55 -58l223 -108q66 -32 111 -82 t45 -113q0 -15 -2 -33l-10 -88q-8 -69 -30 -119.5t-66 -90.5t-118 -60t-178 -20q-175 0 -250 58.5t-75 170.5q0 16 2 41l2 25q3 28 16 39.5t41 11.5h117q28 0 36.5 -12t6.5 -39l-2 -23q-2 -16 -2 -20q0 -82 117 -82q128 0 137 104l4 39q4 36 4 37q0 41 -68 74l-209 92 q-137 63 -137 196q0 25 2 41l4 37q16 123 156 182l96 39q87 36 95 97l4 38v23q0 109 -187 109q-200 0 -213 -127l-133 -1082q-3 -28 -16 -40.5t-39 -12.5h-172q-27 0 -36.5 12.5t-6.5 40.5l92 750h-111q-49 0 -43 51z" />
<glyph unicode="&#xe0;" d="M129 231q0 16 4 52l57 454q18 144 95.5 221.5t230.5 77.5q183 0 315 -112l11 45q6 28 17.5 39.5t37.5 11.5h164q48 0 43 -51l-113 -916q-6 -53 -57 -53h-158q-23 0 -33 12t-10 41l2 45q-36 -24 -59 -38t-67.5 -35t-96.5 -31t-111 -10q-131 0 -201.5 65t-70.5 182z M403 295q0 -78 103 -78t248 92l49 400q-111 94 -223 94q-111 0 -127 -107l-47 -372q-3 -15 -3 -29zM437 1435.5q9 14.5 36 14.5h174q26 0 40 -12.5t24 -38.5l75 -201q10 -25 0 -38t-34 -13h-127q-45 0 -62 35l-123 217q-12 22 -3 36.5z" />
<glyph unicode="&#xe1;" d="M129 231q0 16 4 52l57 454q18 144 95.5 221.5t230.5 77.5q183 0 315 -112l11 45q6 28 17.5 39.5t37.5 11.5h164q48 0 43 -51l-113 -916q-6 -53 -57 -53h-158q-23 0 -33 12t-10 41l2 45q-36 -24 -59 -38t-67.5 -35t-96.5 -31t-111 -10q-131 0 -201.5 65t-70.5 182z M403 295q0 -78 103 -78t248 92l49 400q-111 94 -223 94q-111 0 -127 -107l-47 -372q-3 -15 -3 -29zM565 1198l123 201q32 51 76 51h184q28 0 33 -14.5t-14 -36.5l-174 -217q-30 -35 -70 -35h-137q-53 0 -21 51z" />
<glyph unicode="&#xe2;" d="M129 231q0 16 4 52l57 454q18 144 95.5 221.5t230.5 77.5q183 0 315 -112l11 45q6 28 17.5 39.5t37.5 11.5h164q48 0 43 -51l-113 -916q-6 -53 -57 -53h-158q-23 0 -33 12t-10 41l2 45q-36 -24 -59 -38t-67.5 -35t-96.5 -31t-111 -10q-131 0 -201.5 65t-70.5 182z M390 1161.5q-6 14.5 13 36.5l172 201q41 51 89 51h98q42 0 74 -51l125 -201q13 -22 3 -36.5t-38 -14.5h-127q-40 0 -64 51l-41 92l-61 -92q-33 -51 -78 -51h-131q-28 0 -34 14.5zM403 295q0 -78 103 -78t248 92l49 400q-111 94 -223 94q-111 0 -127 -107l-47 -372 q-3 -15 -3 -29z" />
<glyph unicode="&#xe3;" d="M129 231q0 16 4 52l57 454q18 144 95.5 221.5t230.5 77.5q183 0 315 -112l11 45q6 28 17.5 39.5t37.5 11.5h164q48 0 43 -51l-113 -916q-6 -53 -57 -53h-158q-23 0 -33 12t-10 41l2 45q-36 -24 -59 -38t-67.5 -35t-96.5 -31t-111 -10q-131 0 -201.5 65t-70.5 182z M336 1196l18 86q18 75 71 116.5t124 41.5q67 0 123 -29l82 -43q56 -27 67 -27q20 0 29.5 10.5t15.5 37.5l4 12q9 25 21.5 35t38.5 10h90q50 0 37 -60l-19 -77q-20 -81 -67.5 -120.5t-114.5 -39.5q-33 0 -59.5 4.5t-38.5 9t-37 15.5l-88 43q-53 22 -70 22q-32 0 -41 -41 l-6 -20q-9 -27 -22 -36t-37 -9h-86q-48 0 -35 59zM403 295q0 -78 103 -78t248 92l49 400q-111 94 -223 94q-111 0 -127 -107l-47 -372q-3 -15 -3 -29z" />
<glyph unicode="&#xe4;" d="M129 231q0 16 4 52l57 454q18 144 95.5 221.5t230.5 77.5q183 0 315 -112l11 45q6 28 17.5 39.5t37.5 11.5h164q48 0 43 -51l-113 -916q-6 -53 -57 -53h-158q-23 0 -33 12t-10 41l2 45q-36 -24 -59 -38t-67.5 -35t-96.5 -31t-111 -10q-131 0 -201.5 65t-70.5 182z M403 295q0 -78 103 -78t248 92l49 400q-111 94 -223 94q-111 0 -127 -107l-47 -372q-3 -15 -3 -29zM446 1204l23 191q3 28 16 39.5t41 11.5h101q26 0 35 -11.5t6 -39.5l-23 -191q-3 -28 -16 -39.5t-39 -11.5h-101q-27 0 -36.5 11.5t-6.5 39.5zM733 1204l23 191q3 28 16 39.5 t41 11.5h98q27 0 36.5 -11.5t6.5 -39.5l-24 -191q-3 -28 -15.5 -39.5t-40.5 -11.5h-98q-27 0 -36.5 11.5t-6.5 39.5z" />
<glyph unicode="&#xe5;" d="M129 231q0 16 4 52l57 454q18 144 95.5 221.5t230.5 77.5q183 0 315 -112l11 45q6 28 17.5 39.5t37.5 11.5h164q48 0 43 -51l-113 -916q-6 -53 -57 -53h-158q-23 0 -33 12t-10 41l2 45q-36 -24 -59 -38t-67.5 -35t-96.5 -31t-111 -10q-131 0 -201.5 65t-70.5 182z M403 295q0 -78 103 -78t248 92l49 400q-111 94 -223 94q-111 0 -127 -107l-47 -372q-3 -15 -3 -29zM477 1249q0 23 2 43l6 47q19 156 238 156q104 0 159.5 -38t55.5 -97q0 -9 -2 -29l-6 -61q-15 -156 -232 -156q-108 0 -164.5 38t-56.5 97zM623 1278q0 -51 77 -51 q85 0 88 61l3 31v14q0 47 -78 47q-85 0 -88 -61l-2 -31v-10z" />
<glyph unicode="&#xe6;" horiz-adv-x="1607" d="M117 205q0 21 2 35l12 96q15 111 99.5 182.5t238.5 71.5h281l16 123q4 28 4 35q0 92 -141 92q-89 0 -123 -22.5t-45 -80.5l-4 -22q-5 -28 -17.5 -39.5t-40.5 -11.5h-149q-25 0 -35.5 11t-7.5 40l2 26q22 295 434 295q191 0 272 -88q109 88 306 88q191 0 288 -69t97 -191 q0 -29 -2 -41l-29 -237q-6 -47 -53 -47h-525l-18 -148q-1 -7 -2 -13l-1.5 -9t-0.5 -5q0 -92 151 -92q84 0 122 26t48 79l4 20q5 27 18 39t40 12h141q46 0 43 -51l-2 -28q-5 -69 -29.5 -122t-73.5 -93t-131.5 -61t-195.5 -21q-266 0 -356 129q-154 -129 -342 -129 q-131 0 -213 59.5t-82 161.5zM385 266q0 -41 25 -56t69 -15q100 0 234 92l16 114h-233q-96 0 -107 -88l-4 -37v-10zM1018 631h321l13 92v18q0 95 -148 95q-84 0 -124 -29t-48 -84z" />
<glyph unicode="&#xe7;" horiz-adv-x="1007" d="M131 246q0 27 2 41l53 448q18 145 125 223t328 78q198 0 294.5 -70.5t96.5 -191.5q0 -27 -2 -43l-4 -31q-3 -27 -16 -38t-41 -11h-156q-49 0 -43 47l2 17q2 12 2 24q0 43 -34 63.5t-111 20.5q-88 0 -126 -25t-46 -83l-47 -379q-7 -47 -7 -49q0 -46 35 -68t113 -22 q86 0 124 26t46 84l4 31q3 28 16 39.5t39 11.5h158q50 0 43 -51l-6 -51q-18 -138 -110.5 -215t-289.5 -86l-30 -78h63q72 0 115 -39.5t43 -108.5q0 -95 -55.5 -143.5t-145.5 -48.5h-246q-50 0 -43 51l5 41q3 27 15.5 38t39.5 11h201q43 0 43 35q0 29 -37 29h-150 q-37 0 -52.5 16.5t-2.5 50.5l61 154q-134 20 -200 85t-66 167z" />
<glyph unicode="&#xe8;" horiz-adv-x="1024" d="M131 246q0 27 2 41l53 448q18 144 125 222.5t326 78.5q191 0 288 -69t97 -191q0 -29 -2 -41l-29 -237q-6 -47 -53 -47h-524l-15 -127q-4 -40 -4 -48q0 -92 148 -92q162 0 172 105l2 20q6 51 57 51h144q26 0 35.5 -12.5t7.5 -38.5l-3 -22q-13 -144 -113 -223.5t-321 -79.5 q-197 0 -295 69t-98 193zM396 1435.5q9 14.5 36 14.5h174q26 0 40 -12.5t24 -38.5l75 -201q10 -25 0 -38t-34 -13h-127q-44 0 -62 35l-123 217q-12 22 -3 36.5zM438 631h320l10 78q2 10 2 32q0 95 -149 95q-159 0 -172 -113z" />
<glyph unicode="&#xe9;" horiz-adv-x="1024" d="M131 246q0 27 2 41l53 448q18 144 125 222.5t326 78.5q191 0 288 -69t97 -191q0 -29 -2 -41l-29 -237q-6 -47 -53 -47h-524l-15 -127q-4 -40 -4 -48q0 -92 148 -92q162 0 172 105l2 20q6 51 57 51h144q26 0 35.5 -12.5t7.5 -38.5l-3 -22q-13 -144 -113 -223.5t-321 -79.5 q-197 0 -295 69t-98 193zM438 631h320l10 78q2 10 2 32q0 95 -149 95q-159 0 -172 -113zM539 1198l123 201q32 51 75 51h185q27 0 32 -14.5t-14 -36.5l-174 -217q-30 -35 -70 -35h-137q-52 0 -20 51z" />
<glyph unicode="&#xea;" horiz-adv-x="1024" d="M131 246q0 27 2 41l53 448q18 144 125 222.5t326 78.5q191 0 288 -69t97 -191q0 -29 -2 -41l-29 -237q-6 -47 -53 -47h-524l-15 -127q-4 -40 -4 -48q0 -92 148 -92q162 0 172 105l2 20q6 51 57 51h144q26 0 35.5 -12.5t7.5 -38.5l-3 -22q-13 -144 -113 -223.5t-321 -79.5 q-197 0 -295 69t-98 193zM359.5 1161.5q-5.5 14.5 13.5 36.5l172 201q41 51 88 51h98q42 0 74 -51l125 -201q13 -22 3 -36.5t-38 -14.5h-127q-39 0 -63 51l-41 92l-62 -92q-33 -51 -78 -51h-131q-28 0 -33.5 14.5zM438 631h320l10 78q2 10 2 32q0 95 -149 95 q-159 0 -172 -113z" />
<glyph unicode="&#xeb;" horiz-adv-x="1024" d="M131 246q0 27 2 41l53 448q18 144 125 222.5t326 78.5q191 0 288 -69t97 -191q0 -29 -2 -41l-29 -237q-6 -47 -53 -47h-524l-15 -127q-4 -40 -4 -48q0 -92 148 -92q162 0 172 105l2 20q6 51 57 51h144q26 0 35.5 -12.5t7.5 -38.5l-3 -22q-13 -144 -113 -223.5t-321 -79.5 q-197 0 -295 69t-98 193zM401 1204l23 191q3 28 16 39.5t41 11.5h101q26 0 35 -11.5t6 -39.5l-23 -191q-3 -28 -16 -39.5t-39 -11.5h-101q-27 0 -36.5 11.5t-6.5 39.5zM438 631h320l10 78q2 10 2 32q0 95 -149 95q-159 0 -172 -113zM688 1204l23 191q3 28 16 39.5t41 11.5 h98q27 0 36.5 -11.5t6.5 -39.5l-24 -191q-3 -28 -15.5 -39.5t-40.5 -11.5h-98q-27 0 -36.5 11.5t-6.5 39.5z" />
<glyph unicode="&#xec;" horiz-adv-x="512" d="M127 51l113 918q6 51 55 51h172q26 0 35 -12t6 -39l-113 -918q-3 -27 -15.5 -39t-39.5 -12h-170q-27 0 -36.5 11.5t-6.5 39.5zM138 1435.5q9 14.5 36 14.5h174q26 0 40 -12.5t24 -38.5l75 -201q10 -25 0 -38t-34 -13h-127q-44 0 -62 35l-123 217q-12 22 -3 36.5z" />
<glyph unicode="&#xed;" horiz-adv-x="512" d="M127 51l113 918q6 51 55 51h172q26 0 35 -12t6 -39l-113 -918q-3 -27 -15.5 -39t-39.5 -12h-170q-27 0 -36.5 11.5t-6.5 39.5zM297 1198l123 201q32 51 76 51h184q27 0 32 -14.5t-14 -36.5l-174 -217q-30 -35 -69 -35h-138q-52 0 -20 51z" />
<glyph unicode="&#xee;" horiz-adv-x="512" d="M109.5 1161.5q-5.5 14.5 13.5 36.5l172 201q41 51 88 51h98q42 0 74 -51l125 -201q13 -22 3 -36.5t-38 -14.5h-127q-39 0 -63 51l-41 92l-62 -92q-33 -51 -78 -51h-131q-28 0 -33.5 14.5zM127 51l113 918q6 51 55 51h172q26 0 35 -12t6 -39l-113 -918q-3 -27 -15.5 -39 t-39.5 -12h-170q-27 0 -36.5 11.5t-6.5 39.5z" />
<glyph unicode="&#xef;" horiz-adv-x="512" d="M127 51l113 918q6 51 55 51h172q26 0 35 -12t6 -39l-113 -918q-3 -27 -15.5 -39t-39.5 -12h-170q-27 0 -36.5 11.5t-6.5 39.5zM166 1204l22 191q3 28 16.5 39.5t41.5 11.5h100q26 0 35 -11.5t6 -39.5l-22 -191q-3 -27 -16 -39t-40 -12h-100q-27 0 -36.5 11.5t-6.5 39.5z M453 1204l22 191q3 28 16 39.5t41 11.5h99q27 0 36.5 -11.5t6.5 -39.5l-25 -191q-3 -28 -15 -39.5t-40 -11.5h-98q-27 0 -36.5 11.5t-6.5 39.5z" />
<glyph unicode="&#xf0;" horiz-adv-x="1163" d="M131 250q0 23 2 35l53 452q33 299 328 299q183 0 313 -110l23 166v8q0 6 -4 14l-78 -35q-18 -10 -36.5 -7.5t-29.5 26.5l-14 30q-20 44 29 66l96 47q-36 23 -115 23h-198q-50 0 -45 51l10 86q6 49 57 49h201q219 0 317 -88l97 49q46 22 65 -18l17 -31q19 -40 -31 -66 l-84 -45q6 -16 6 -57q0 -31 -2 -45l-107 -864q-18 -145 -125.5 -223t-328.5 -78q-201 0 -308.5 71t-107.5 195zM401 291q0 -96 162 -96q175 0 189 112l51 404q-117 94 -225 94q-115 0 -127 -109l-48 -389q0 -2 -1 -8t-1 -8z" />
<glyph unicode="&#xf1;" horiz-adv-x="1118" d="M127 53l113 918q3 27 15.5 38t39.5 11h158q27 0 37 -11t8 -38l-2 -49q153 114 333 114q121 0 196 -66.5t75 -172.5q0 -33 -2 -49l-84 -695q-6 -53 -60 -53h-166q-52 0 -45 53l78 627q4 32 4 45q0 40 -23 59t-77 19q-68 0 -135 -29t-113 -63l-82 -658q-3 -28 -15.5 -40.5 t-39.5 -12.5h-170q-25 0 -35.5 12t-7.5 41zM356 1196l19 86q18 75 70.5 116.5t123.5 41.5q67 0 123 -29l82 -43q56 -27 68 -27q20 0 29.5 10.5t15.5 37.5l4 12q9 26 21 35.5t38 9.5h90q50 0 37 -60l-18 -77q-20 -81 -67.5 -120.5t-114.5 -39.5q-33 0 -59.5 4.5t-39.5 9 t-37 15.5l-88 43q-53 22 -69 22q-32 0 -41 -41l-6 -20q-9 -27 -22 -36t-38 -9h-86q-48 0 -35 59z" />
<glyph unicode="&#xf2;" horiz-adv-x="1085" d="M131 252q0 19 2 35l53 448q18 143 133.5 222t339.5 79q200 0 308 -70.5t108 -193.5q0 -21 -2 -37l-55 -448q-38 -303 -471 -303q-201 0 -308.5 71.5t-107.5 196.5zM403 291q0 -51 40 -72.5t122 -21.5q173 0 187 112l49 385q2 20 2 35q0 94 -162 94q-172 0 -186 -110 l-49 -387q-3 -24 -3 -35zM427 1435.5q9 14.5 36 14.5h174q26 0 39.5 -12.5t23.5 -38.5l76 -201q10 -25 0 -38t-35 -13h-127q-44 0 -61 35l-123 217q-12 22 -3 36.5z" />
<glyph unicode="&#xf3;" horiz-adv-x="1085" d="M131 252q0 19 2 35l53 448q18 143 133.5 222t339.5 79q200 0 308 -70.5t108 -193.5q0 -21 -2 -37l-55 -448q-38 -303 -471 -303q-201 0 -308.5 71.5t-107.5 196.5zM403 291q0 -51 40 -72.5t122 -21.5q173 0 187 112l49 385q2 20 2 35q0 94 -162 94q-172 0 -186 -110 l-49 -387q-3 -24 -3 -35zM563 1198l123 201q32 51 76 51h184q28 0 33 -14.5t-14 -36.5l-174 -217q-30 -35 -70 -35h-137q-53 0 -21 51z" />
<glyph unicode="&#xf4;" horiz-adv-x="1085" d="M131 252q0 19 2 35l53 448q18 143 133.5 222t339.5 79q200 0 308 -70.5t108 -193.5q0 -21 -2 -37l-55 -448q-38 -303 -471 -303q-201 0 -308.5 71.5t-107.5 196.5zM392.5 1161.5q-5.5 14.5 13.5 36.5l172 201q41 51 88 51h98q42 0 74 -51l125 -201q13 -22 3 -36.5 t-38 -14.5h-127q-40 0 -64 51l-41 92l-61 -92q-33 -51 -78 -51h-131q-28 0 -33.5 14.5zM403 291q0 -51 40 -72.5t122 -21.5q173 0 187 112l49 385q2 20 2 35q0 94 -162 94q-172 0 -186 -110l-49 -387q-3 -24 -3 -35z" />
<glyph unicode="&#xf5;" horiz-adv-x="1085" d="M131 252q0 19 2 35l53 448q18 143 133.5 222t339.5 79q200 0 308 -70.5t108 -193.5q0 -21 -2 -37l-55 -448q-38 -303 -471 -303q-201 0 -308.5 71.5t-107.5 196.5zM307 1196l19 86q18 75 70.5 116.5t123.5 41.5q67 0 123 -29l82 -43q56 -27 68 -27q20 0 29.5 10.5 t15.5 37.5l4 12q9 26 21 35.5t38 9.5h90q50 0 37 -60l-18 -77q-20 -80 -68 -120t-115 -40q-33 0 -59.5 4.5t-38.5 9t-37 15.5l-88 43q-53 22 -69 22q-32 0 -41 -41l-7 -20q-9 -27 -22 -36t-37 -9h-86q-48 0 -35 59zM403 291q0 -51 40 -72.5t122 -21.5q173 0 187 112l49 385 q2 20 2 35q0 94 -162 94q-172 0 -186 -110l-49 -387q-3 -24 -3 -35z" />
<glyph unicode="&#xf6;" horiz-adv-x="1085" d="M131 252q0 19 2 35l53 448q18 143 133.5 222t339.5 79q200 0 308 -70.5t108 -193.5q0 -21 -2 -37l-55 -448q-38 -303 -471 -303q-201 0 -308.5 71.5t-107.5 196.5zM403 291q0 -51 40 -72.5t122 -21.5q173 0 187 112l49 385q2 20 2 35q0 94 -162 94q-172 0 -186 -110 l-49 -387q-3 -24 -3 -35zM442 1204l23 191q3 28 16 39.5t41 11.5h101q26 0 35 -11.5t6 -39.5l-23 -191q-3 -28 -16 -39.5t-39 -11.5h-101q-27 0 -36.5 11.5t-6.5 39.5zM729 1204l23 191q3 28 16 39.5t41 11.5h98q27 0 36.5 -11.5t6.5 -39.5l-24 -191q-3 -28 -15.5 -39.5 t-40.5 -11.5h-98q-27 0 -36.5 11.5t-6.5 39.5z" />
<glyph unicode="&#xf7;" horiz-adv-x="1189" d="M186 549v123q0 27 11.5 38t38.5 11h843q27 0 39 -11t12 -38v-123q0 -26 -11.5 -37.5t-39.5 -11.5h-841q-28 0 -40 11.5t-12 37.5zM522 162v168q0 28 11 39.5t38 11.5h177q26 0 36.5 -11.5t10.5 -39.5v-168q0 -27 -10.5 -38t-36.5 -11h-177q-27 0 -38 11t-11 38zM522 893 v166q0 28 11 39.5t38 11.5h177q26 0 36.5 -11.5t10.5 -39.5v-166q0 -28 -10.5 -39.5t-36.5 -11.5h-177q-27 0 -38 11.5t-11 39.5z" />
<glyph unicode="&#xf8;" horiz-adv-x="1085" d="M131 252q0 23 2 35l53 448q18 143 133.5 222t339.5 79q112 0 205 -26l23 32q11 18 17.5 26.5t20.5 18t29 9.5h62q42 0 8 -54l-53 -79q104 -72 104 -191q0 -25 -2 -37l-55 -448q-38 -303 -471 -303q-116 0 -209 26l-19 -28q-19 -29 -33.5 -40.5t-39.5 -11.5h-56 q-21 3 -21 18.5t13 33.5l51 75q-102 71 -102 195zM403 315l330 496q-38 12 -92 12q-172 0 -186 -110zM469 207q31 -10 96 -10q173 0 187 112l49 398z" />
<glyph unicode="&#xf9;" d="M137 221q0 21 2 37l88 711q3 28 16.5 39.5t41.5 11.5h166q50 0 45 -51l-78 -643q-2 -16 -2 -33q0 -40 22 -58t76 -18q110 0 238 90l79 662q3 27 16 39t40 12h172q28 0 37 -12.5t6 -38.5l-115 -918q-3 -28 -16 -39.5t-39 -11.5h-158q-27 0 -36.5 11t-8.5 40l2 45 q-141 -112 -321 -112q-125 0 -199 66t-74 171zM429 1435.5q9 14.5 36 14.5h174q26 0 39.5 -12.5t23.5 -38.5l76 -201q10 -25 0 -38t-35 -13h-127q-44 0 -61 35l-123 217q-12 22 -3 36.5z" />
<glyph unicode="&#xfa;" d="M137 221q0 21 2 37l88 711q3 28 16.5 39.5t41.5 11.5h166q50 0 45 -51l-78 -643q-2 -16 -2 -33q0 -40 22 -58t76 -18q110 0 238 90l79 662q3 27 16 39t40 12h172q28 0 37 -12.5t6 -38.5l-115 -918q-3 -28 -16 -39.5t-39 -11.5h-158q-27 0 -36.5 11t-8.5 40l2 45 q-141 -112 -321 -112q-125 0 -199 66t-74 171zM582 1198l123 201q32 51 75 51h185q27 0 32 -14.5t-14 -36.5l-174 -217q-30 -35 -70 -35h-137q-52 0 -20 51z" />
<glyph unicode="&#xfb;" d="M137 221q0 21 2 37l88 711q3 28 16.5 39.5t41.5 11.5h166q50 0 45 -51l-78 -643q-2 -16 -2 -33q0 -40 22 -58t76 -18q110 0 238 90l79 662q3 27 16 39t40 12h172q28 0 37 -12.5t6 -38.5l-115 -918q-3 -28 -16 -39.5t-39 -11.5h-158q-27 0 -36.5 11t-8.5 40l2 45 q-141 -112 -321 -112q-125 0 -199 66t-74 171zM392.5 1161.5q-5.5 14.5 13.5 36.5l172 201q41 51 88 51h98q42 0 74 -51l125 -201q13 -22 3 -36.5t-38 -14.5h-127q-40 0 -64 51l-41 92l-61 -92q-33 -51 -78 -51h-131q-28 0 -33.5 14.5z" />
<glyph unicode="&#xfc;" d="M137 221q0 21 2 37l88 711q3 28 16.5 39.5t41.5 11.5h166q50 0 45 -51l-78 -643q-2 -16 -2 -33q0 -40 22 -58t76 -18q110 0 238 90l79 662q3 27 16 39t40 12h172q28 0 37 -12.5t6 -38.5l-115 -918q-3 -28 -16 -39.5t-39 -11.5h-158q-27 0 -36.5 11t-8.5 40l2 45 q-141 -112 -321 -112q-125 0 -199 66t-74 171zM446 1204l23 191q3 28 16 39.5t41 11.5h101q26 0 35 -11.5t6 -39.5l-23 -191q-3 -28 -16 -39.5t-39 -11.5h-101q-27 0 -36.5 11.5t-6.5 39.5zM733 1204l23 191q3 28 16 39.5t41 11.5h98q27 0 36.5 -11.5t6.5 -39.5l-24 -191 q-3 -28 -15.5 -39.5t-40.5 -11.5h-98q-27 0 -36.5 11.5t-6.5 39.5z" />
<glyph unicode="&#xfd;" horiz-adv-x="970" d="M139 969q-6 24 11 37.5t45 13.5h167q26 0 36.5 -12.5t15.5 -38.5l94 -469q16 -78 16 -174q34 102 64 166l217 477q11 27 24.5 39t38.5 12h156q29 0 41.5 -13t1.5 -38l-614 -1329q-23 -52 -64 -52h-127q-29 0 -41 13.5t-2 38.5l141 333zM524 1198l123 201q32 51 76 51h184 q28 0 33 -14.5t-14 -36.5l-174 -217q-30 -35 -70 -35h-137q-53 0 -21 51z" />
<glyph unicode="&#xfe;" d="M76 -360l215 1740q6 52 55 52h170q49 0 43 -52l-55 -454q154 110 325 110q130 0 201.5 -66t71.5 -182q0 -17 -4 -53l-58 -452q-18 -144 -95 -221.5t-230 -77.5q-181 0 -314 108l-57 -452q-3 -28 -14.5 -40t-38.5 -12h-170q-50 0 -45 52zM428 309q105 -94 223 -94 q65 0 92.5 29.5t34.5 79.5l45 370q4 28 4 31q0 80 -102 80q-114 0 -248 -94z" />
<glyph unicode="&#xff;" horiz-adv-x="970" d="M139 969q-6 24 11 37.5t45 13.5h167q26 0 36.5 -12.5t15.5 -38.5l94 -469q16 -78 16 -174q34 102 64 166l217 477q11 27 24.5 39t38.5 12h156q29 0 41.5 -13t1.5 -38l-614 -1329q-23 -52 -64 -52h-127q-29 0 -41 13.5t-2 38.5l141 333zM373 1204l22 191q3 28 16.5 39.5 t41.5 11.5h100q26 0 35 -11.5t6 -39.5l-23 -191q-3 -28 -16 -39.5t-39 -11.5h-100q-27 0 -36.5 11.5t-6.5 39.5zM659 1204l23 191q3 28 16 39.5t41 11.5h99q27 0 36.5 -11.5t6.5 -39.5l-25 -191q-3 -28 -15 -39.5t-40 -11.5h-99q-27 0 -36.5 11.5t-6.5 39.5z" />
<glyph unicode="&#x152;" horiz-adv-x="1744" d="M156 279q0 15 4 51l90 745q6 53 25 99.5t57 91t92 76t135.5 50.5t183.5 19q151 0 261 -55q12 37 55 37h700q27 0 38 -11.5t7 -38.5l-16 -129q-3 -26 -16 -37.5t-41 -11.5h-474l-40 -334h440q27 0 37.5 -11t7.5 -38l-16 -120q-3 -27 -16 -38.5t-40 -11.5h-440l-47 -385 h493q28 0 39 -11t8 -38l-16 -129q-5 -27 -17.5 -38t-39.5 -11h-721q-41 0 -47 29q-95 -45 -224 -45q-236 0 -349 83t-113 212zM438 342q0 -131 207 -131q215 0 236 154l80 649q4 32 4 37q0 131 -205 131q-99 0 -163.5 -39.5t-74.5 -114.5l-80 -649q-4 -28 -4 -37z" />
<glyph unicode="&#x153;" horiz-adv-x="1640" d="M131 250q0 23 2 35l55 450q38 301 457 301q209 0 303 -82q105 82 307 82q192 0 288.5 -68.5t96.5 -191.5q0 -27 -2 -41l-28 -233q-6 -47 -54 -47h-524l-18 -156q-2 -14 -2 -23q0 -94 149 -94q84 0 123 26.5t47 78.5l4 22q3 26 16.5 37.5t41.5 11.5h141q25 0 35.5 -10.5 t7.5 -38.5l-2 -28q-7 -70 -32 -122t-73.5 -92.5t-130 -61.5t-194.5 -21q-196 0 -297 69q-97 -69 -301 -69q-201 0 -308.5 71t-107.5 195zM403 289q0 -51 40 -72.5t122 -21.5q173 0 187 112l49 406v16q0 96 -160 96q-172 0 -186 -112l-52 -406v-18zM1055 629h319l12 94v20 q0 95 -147 95q-159 0 -172 -115z" />
<glyph unicode="&#x178;" horiz-adv-x="1116" d="M193 1341q-7 23 5 37.5t38 14.5h198q26 0 37 -12.5t18 -39.5l140 -467q10 -34 20 -108q31 77 49 108l273 467q14 26 28.5 39t38.5 13h181q27 0 35 -13.5t-5 -38.5l-487 -809l-60 -481q-3 -27 -14.5 -39t-38.5 -12h-178q-27 0 -37.5 12t-7.5 39l55 449zM489 1550l25 191 q3 28 16 40.5t39 12.5h101q27 0 35.5 -12t5.5 -41l-23 -191q-3 -28 -15 -39.5t-40 -11.5h-101q-26 0 -36 11.5t-7 39.5zM776 1550l23 191q6 53 57 53h100q27 0 35.5 -12t5.5 -41l-22 -191q-3 -28 -15 -39.5t-40 -11.5h-101q-26 0 -36 11.5t-7 39.5z" />
<glyph unicode="&#x2c6;" horiz-adv-x="724" d="M216 1161.5q-6 14.5 13 36.5l172 201q41 51 88 51h99q42 0 74 -51l124 -201q13 -22 3.5 -36.5t-37.5 -14.5h-127q-40 0 -64 51l-41 92l-61 -92q-33 -51 -78 -51h-131q-28 0 -34 14.5z" />
<glyph unicode="&#x2dc;" horiz-adv-x="835" d="M213 1196l18 86q18 75 71 116.5t124 41.5q67 0 123 -29l82 -43q56 -27 67 -27q20 0 29.5 10.5t15.5 37.5l5 12q9 26 21 35.5t38 9.5h90q50 0 37 -60l-19 -77q-20 -81 -67.5 -120.5t-114.5 -39.5q-33 0 -59.5 4.5t-38.5 9t-37 15.5l-88 43q-53 22 -70 22q-32 0 -41 -41 l-6 -20q-9 -27 -22 -36t-37 -9h-86q-48 0 -35 59z" />
<glyph unicode="&#x2000;" horiz-adv-x="921" />
<glyph unicode="&#x2001;" horiz-adv-x="1843" />
<glyph unicode="&#x2002;" horiz-adv-x="921" />
<glyph unicode="&#x2003;" horiz-adv-x="1843" />
<glyph unicode="&#x2004;" horiz-adv-x="614" />
<glyph unicode="&#x2005;" horiz-adv-x="460" />
<glyph unicode="&#x2006;" horiz-adv-x="307" />
<glyph unicode="&#x2007;" horiz-adv-x="307" />
<glyph unicode="&#x2008;" horiz-adv-x="230" />
<glyph unicode="&#x2009;" horiz-adv-x="368" />
<glyph unicode="&#x200a;" horiz-adv-x="102" />
<glyph unicode="&#x2010;" horiz-adv-x="892" d="M182 530v121q0 27 12 38t39 11h549q27 0 39.5 -11t12.5 -38v-121q0 -49 -52 -49h-549q-51 0 -51 49z" />
<glyph unicode="&#x2011;" horiz-adv-x="892" d="M182 530v121q0 27 12 38t39 11h549q27 0 39.5 -11t12.5 -38v-121q0 -49 -52 -49h-549q-51 0 -51 49z" />
<glyph unicode="&#x2012;" horiz-adv-x="892" d="M182 530v121q0 27 12 38t39 11h549q27 0 39.5 -11t12.5 -38v-121q0 -49 -52 -49h-549q-51 0 -51 49z" />
<glyph unicode="&#x2013;" horiz-adv-x="1091" d="M182 530v121q0 27 12 38t39 11h748q27 0 39 -11t12 -38v-121q0 -49 -51 -49h-748q-51 0 -51 49z" />
<glyph unicode="&#x2014;" horiz-adv-x="1726" d="M182 530v121q0 27 12 38t39 11h1383q28 0 39.5 -11t11.5 -38v-121q0 -26 -11.5 -37.5t-39.5 -11.5h-1383q-51 0 -51 49z" />
<glyph unicode="&#x2018;" horiz-adv-x="567" d="M227 1085l21 152q15 123 97 195.5t235 107.5q28 6 40.5 -0.5t18.5 -32.5l29 -114q11 -47 -43 -64q-55 -18 -77.5 -42t-27.5 -64l-18 -138q-3 -28 -16.5 -39.5t-41.5 -11.5h-174q-27 0 -36.5 11.5t-6.5 39.5z" />
<glyph unicode="&#x2019;" horiz-adv-x="567" d="M199 1182q-6 26 4 40t39 23q55 18 77 42.5t27 64.5l19 137q3 28 16 39.5t41 11.5h174q27 0 36.5 -11.5t6.5 -39.5l-21 -152q-15 -123 -96.5 -195.5t-234.5 -107.5q-28 -6 -41 0.5t-19 32.5z" />
<glyph unicode="&#x201a;" horiz-adv-x="567" d="M37 -90q-6 26 4 40t39 23q55 18 77 42.5t27 64.5l19 137q3 28 16 39.5t41 11.5h174q27 0 36.5 -11.5t6.5 -39.5l-20 -151q-15 -123 -97 -196t-235 -108q-28 -6 -40.5 0.5t-18.5 32.5z" />
<glyph unicode="&#x201c;" horiz-adv-x="1013" d="M227 1085l21 152q15 123 97 195.5t235 107.5q28 6 40.5 -0.5t18.5 -32.5l29 -114q11 -47 -43 -64q-55 -18 -77.5 -42t-27.5 -64l-18 -138q-3 -28 -16.5 -39.5t-41.5 -11.5h-174q-27 0 -36.5 11.5t-6.5 39.5zM674 1085l20 152q15 123 97 195.5t235 107.5q28 6 40.5 -0.5 t18.5 -32.5l29 -114q11 -47 -43 -64q-55 -18 -77 -42t-27 -64l-19 -138q-3 -28 -16 -39.5t-41 -11.5h-174q-27 0 -36.5 11.5t-6.5 39.5z" />
<glyph unicode="&#x201d;" horiz-adv-x="1013" d="M199 1182q-6 26 4 40t39 23q55 18 77 42.5t27 64.5l19 137q3 28 16 39.5t41 11.5h174q27 0 36.5 -11.5t6.5 -39.5l-21 -152q-15 -123 -96.5 -195.5t-234.5 -107.5q-28 -6 -41 0.5t-19 32.5zM645 1182q-6 26 4 40t39 23q55 18 77.5 42.5t27.5 64.5l18 137q3 28 16 39.5 t41 11.5h174q27 0 36.5 -11.5t6.5 -39.5l-20 -152q-15 -123 -97 -195.5t-235 -107.5q-28 -6 -40.5 0.5t-18.5 32.5z" />
<glyph unicode="&#x201e;" horiz-adv-x="1013" d="M37 -90q-6 26 4 40t39 23q55 18 77 42.5t27 64.5l19 137q3 28 16 39.5t41 11.5h174q27 0 36.5 -11.5t6.5 -39.5l-20 -151q-15 -123 -97 -196t-235 -108q-28 -6 -40.5 0.5t-18.5 32.5zM483 -90q-6 26 4 40t39 23q55 18 77.5 42.5t27.5 64.5l18 137q3 28 16.5 39.5 t41.5 11.5h174q27 0 36.5 -11.5t6.5 -39.5l-21 -151q-15 -123 -97 -196t-235 -108q-28 -6 -40.5 0.5t-18.5 32.5z" />
<glyph unicode="&#x2022;" horiz-adv-x="559" d="M193 408l36 297q3 28 16 40.5t40 12.5h176q26 0 36 -12.5t7 -40.5l-39 -297q-3 -28 -15.5 -40t-39.5 -12h-174q-27 0 -36.5 12t-6.5 40z" />
<glyph unicode="&#x2026;" horiz-adv-x="1525" d="M125 51l18 166q3 28 16.5 39.5t41.5 11.5h176q26 0 35 -11.5t6 -39.5l-21 -166q-3 -28 -15 -39.5t-40 -11.5h-174q-27 0 -36.5 11.5t-6.5 39.5zM633 51l18 166q3 28 16.5 39.5t41.5 11.5h176q26 0 35 -11.5t6 -39.5l-21 -166q-3 -28 -15 -39.5t-40 -11.5h-174 q-27 0 -36.5 11.5t-6.5 39.5zM1139 51l18 166q3 28 16 39.5t41 11.5h177q26 0 35 -11.5t6 -39.5l-21 -166q-3 -28 -15 -39.5t-40 -11.5h-174q-27 0 -36.5 11.5t-6.5 39.5z" />
<glyph unicode="&#x202f;" horiz-adv-x="368" />
<glyph unicode="&#x2039;" horiz-adv-x="806" d="M174 420l21 166q5 38 55 69l416 273q20 13 36 3t13 -36l-23 -174q-4 -38 -59 -72l-238 -149l201 -152q47 -33 43 -72l-23 -165q-3 -26 -19.5 -36t-35.5 3l-348 274q-43 35 -39 68z" />
<glyph unicode="&#x203a;" horiz-adv-x="806" d="M174 111l23 174q3 24 17.5 39t41.5 32l238 150l-201 151q-47 33 -43 72l22 166q3 26 20 36t36 -3l348 -275q43 -35 39 -67l-21 -166q-5 -39 -55 -70l-416 -272q-20 -13 -36 -3t-13 36z" />
<glyph unicode="&#x205f;" horiz-adv-x="460" />
<glyph unicode="&#x20ac;" horiz-adv-x="1302" d="M205 518l8 72q5 47 57 47h74l12 113h-71q-28 0 -38 11.5t-7 37.5l8 71q3 28 16 39t41 11h72l20 155q39 334 514 334q233 0 342 -82t109 -211q0 -13 -4 -53l-10 -86q-3 -28 -15.5 -39.5t-38.5 -11.5h-172q-27 0 -36.5 12.5t-6.5 38.5l6 39q2 16 2 39q0 125 -192 125 q-207 0 -225 -154l-15 -106h191q28 0 39 -11.5t8 -38.5l-8 -71q-6 -49 -60 -49h-190l-14 -113h192q28 0 38 -10.5t7 -36.5l-8 -72q-3 -27 -17 -39t-42 -12h-191l-10 -86q-4 -32 -4 -39q0 -129 192 -129q104 0 162.5 39t65.5 115l8 77q3 28 16 40t41 12h170q27 0 35.5 -13 t5.5 -39l-14 -127q-6 -55 -24 -101t-56 -90t-94 -74.5t-143 -49t-197 -18.5q-121 0 -210.5 23.5t-141 65.5t-75.5 93.5t-24 112.5q0 13 4 53l17 135h-74q-28 0 -38 11.5t-7 39.5z" />
<glyph unicode="&#x2122;" horiz-adv-x="1886" d="M256 1245l12 109q3 22 13.5 30.5t35.5 8.5h562q24 0 33 -9t6 -30l-15 -109q-3 -23 -13.5 -32t-33.5 -9h-168l-74 -604q-3 -24 -12.5 -33.5t-32.5 -9.5h-145q-23 0 -31.5 10t-5.5 33l74 604h-168q-23 0 -31.5 9t-5.5 32zM915 600l93 750q3 23 14.5 33t34.5 10h125 q26 0 35 -21l145 -373q14 -34 22 -69q11 24 35 65l234 377q14 21 43 21h137q23 0 30.5 -9.5t4.5 -33.5l-92 -750q-3 -24 -12.5 -33.5t-32.5 -9.5h-136q-23 0 -31 10t-5 33l47 379l-29 -59l-113 -195q-23 -41 -59 -41h-94q-41 0 -54 41l-71 199q-10 27 -10 67l-50 -391 q-3 -24 -12.5 -33.5t-32.5 -9.5h-127q-23 0 -32.5 10t-6.5 33z" />
<glyph unicode="&#x25fc;" horiz-adv-x="1024" d="M0 0v1024h1024v-1024h-1024z" />
</font>
</defs>
</svg>
