<?xml version="1.0" encoding="utf-8"?>
<!-- Generator: Adobe Illustrator 18.1.1, SVG Export Plug-In . SVG Version: 6.00 Build 0)  -->
<svg version="1.1" id="Capa_1" xmlns="http://www.w3.org/2000/svg" xmlns:xlink="http://www.w3.org/1999/xlink" x="0px" y="0px"
	 viewBox="0 0 612 792" enable-background="new 0 0 612 792" xml:space="preserve">
<path d="M353.7,520.3h-90.9c-11.8,0-21.4-9.6-21.4-21.4V408c0-11.8,9.6-21.4,21.4-21.4h90.9c11.8,0,21.4,9.6,21.4,21.4v90.9
	C375.1,510.7,365.5,520.3,353.7,520.3z M262.8,392.7c-8.4,0-15.3,6.9-15.3,15.3v90.9c0,8.4,6.9,15.3,15.3,15.3h90.9
	c8.4,0,15.3-6.9,15.3-15.3V408c0-8.4-6.9-15.3-15.3-15.3H262.8z"/>
<path d="M315.3,444.5c3.4,0,5,2.5,3.5,5.5l-8,17c-1.4,3-3.8,3-5.2,0l-8-17c-1.4-3,0.2-5.5,3.5-5.5H315.3z"/>
</svg>
