<?xml version="1.0" encoding="UTF-8" standalone="no"?>
<svg width="201px" height="265px" viewBox="0 0 201 265" version="1.1" xmlns="http://www.w3.org/2000/svg" xmlns:xlink="http://www.w3.org/1999/xlink" xmlns:sketch="http://www.bohemiancoding.com/sketch/ns">
    <!-- Generator: Sketch 3.0.4 (8053) - http://www.bohemiancoding.com/sketch -->
    <title>ballon</title>
    <desc>Created with Sketch.</desc>
    <defs></defs>
    <g id="Page-1" stroke="none" stroke-width="1" fill="none" fill-rule="evenodd" sketch:type="MSPage">
        <g id="ballon" sketch:type="MSLayerGroup">
            <g id="montgolfiere" sketch:type="MSShapeGroup">
                <g id="Page-1">
                    <g id="z">
                        <path d="M128.781,77.914 L200.687,77.914 L184.251,56.282 L200.687,37.326 L109.263,37.326" id="Shape" fill="#FBF9DB"></path>
                        <path d="M71.906,77.843 L0,77.843 L16.435,56.211 L0,37.255 L91.423,37.255" id="Shape" fill="#FBF9DB"></path>
                        <path d="M153.314,37.198 L170.74,42.599 L154.642,42.929 L153.314,37.198 L153.314,37.198 Z" id="Shape" fill="#DCC29E"></path>
                        <path d="M52.98,36.806 L35.553,42.599 L51.651,42.929 L52.98,36.806 L52.98,36.806 Z" id="Shape" fill="#DCC29E"></path>
                        <path d="M161.763,49.691 L135.517,9.397 L103.15,0 L70.781,9.397 L42.874,50.024 L38.033,62.007 L39.172,112.957 L103.146,148.267 L165.798,113.526 L168.741,62.007 L161.763,49.691 L161.763,49.691 Z" id="Shape" fill="#C85A42"></path>
                        <path d="M70.778,9.397 L135.515,9.397 L103.621,50.024 L70.778,9.397 L70.778,9.397 Z" id="Shape" fill="#DF7B52"></path>
                        <path d="M70.778,9.397 L38.031,62.007 L103.621,50.024 L70.778,9.397 L70.778,9.397 Z" id="Shape" fill="#AE5842"></path>
                        <path d="M38.031,62.007 L69.923,115.994 L103.621,50.024 L38.031,62.007 L38.031,62.007 Z" id="Shape" fill="#A4523E"></path>
                        <path d="M70.778,9.397 L103.146,0 L135.515,9.397 L70.778,9.397 L70.778,9.397 Z" id="Shape" fill="#E28B62"></path>
                        <path d="M135.515,9.397 L161.761,49.691 L168.738,62.007 L103.621,50.024 L135.515,9.397" id="Shape" fill="#ED8D5D"></path>
                        <path d="M38.031,62.007 L39.169,112.957 L69.923,115.994 L38.031,62.007 L38.031,62.007 Z" id="Shape" fill="#B25240"></path>
                        <path d="M38.031,62.007 L42.871,50.024 L70.778,9.397 L38.031,62.007 L38.031,62.007 Z" id="Shape" fill="#904D3C"></path>
                        <path d="M39.169,112.957 L103.146,148.267 L69.923,115.994 L39.169,112.957 L39.169,112.957 Z" id="Shape" fill="#AA4637"></path>
                        <path d="M69.923,115.994 L135.99,115.994 L103.146,148.267 L69.923,115.994 L69.923,115.994 Z" id="Shape" fill="#BD553E"></path>
                        <path d="M103.621,50.024 L135.99,115.994 L69.923,115.994 L103.621,50.024 L103.621,50.024 Z" id="Shape" fill="#EA8457"></path>
                        <path d="M168.738,62.007 L135.99,115.994 L103.621,50.024 L168.738,62.007 L168.738,62.007 Z" id="Shape" fill="#EA8457"></path>
                        <path d="M168.738,62.007 L165.794,113.526 L135.99,115.994 L168.738,62.007 L168.738,62.007 Z" id="Shape" fill="#EC8B5D"></path>
                        <path d="M103.146,148.267 L165.794,113.526 L135.99,115.994 L103.146,148.267 L103.146,148.267 Z" id="Shape" fill="#C85A42"></path>
                        <rect id="Rectangle-path" fill="#FBF9DB" x="36" y="43" width="135.187" height="40.588"></rect>
                        <path d="M103.146,116.506 L103.144,116.506 L69.921,116.327 L69.898,116.325 L38.075,113.073 C37.801,113.046 37.602,112.801 37.63,112.527 C37.658,112.254 37.903,112.055 38.176,112.082 L69.975,115.331 L103.15,115.51 C103.424,115.512 103.646,115.736 103.645,116.01 C103.644,116.284 103.42,116.506 103.146,116.506 L103.146,116.506 L103.146,116.506 Z" id="Shape" fill="#88422C"></path>
                        <path d="M91.923,158.733 C91.739,158.733 91.565,158.631 91.476,158.459 L70.19,116.056 C70.067,115.81 70.165,115.51 70.412,115.387 C70.658,115.264 70.957,115.363 71.082,115.609 L92.367,158.011 C92.491,158.258 92.392,158.558 92.145,158.679 C92.074,158.716 91.998,158.733 91.923,158.733 L91.923,158.733 L91.923,158.733 Z" id="Shape" fill="#88422C"></path>
                        <path d="M86.048,242.133 C85.8,242.133 85.585,241.949 85.554,241.697 L70.141,115.893 C70.108,115.62 70.302,115.372 70.576,115.337 C70.848,115.304 71.097,115.498 71.131,115.772 L86.545,241.575 C86.579,241.85 86.384,242.099 86.111,242.131 C86.09,242.133 86.068,242.133 86.048,242.133 L86.048,242.133 L86.048,242.133 Z" id="Shape" fill="#88422C"></path>
                        <path d="M83.326,158.597 C83.197,158.597 83.066,158.546 82.968,158.445 L39.001,113.05 C38.81,112.852 38.815,112.536 39.012,112.345 C39.21,112.154 39.526,112.159 39.717,112.356 L83.683,157.751 C83.874,157.949 83.87,158.265 83.671,158.457 C83.576,158.55 83.451,158.597 83.326,158.597 L83.326,158.597 L83.326,158.597 Z" id="Shape" fill="#88422C"></path>
                        <path d="M78.342,241.412 C78.128,241.412 77.93,241.27 77.864,241.056 L39.208,112.961 C39.129,112.698 39.277,112.419 39.541,112.34 C39.803,112.26 40.082,112.408 40.162,112.673 L78.82,240.769 C78.899,241.032 78.75,241.309 78.487,241.389 C78.438,241.404 78.39,241.412 78.342,241.412 L78.342,241.412 L78.342,241.412 Z" id="Shape" fill="#88422C"></path>
                        <path d="M103.146,116.506 C102.873,116.506 102.65,116.285 102.648,116.01 C102.647,115.735 102.869,115.511 103.144,115.51 L136.318,115.331 L168.118,112.082 C168.389,112.055 168.637,112.254 168.664,112.527 C168.692,112.8 168.493,113.046 168.219,113.073 L136.373,116.327 L136.349,116.327 L103.151,116.506 L103.146,116.506 L103.146,116.506 L103.146,116.506 Z" id="Shape" fill="#88422C"></path>
                        <path d="M114.371,158.733 C114.297,158.733 114.219,158.715 114.147,158.678 C113.902,158.557 113.802,158.257 113.925,158.01 L135.212,115.608 C135.335,115.361 135.635,115.263 135.88,115.386 C136.126,115.509 136.226,115.809 136.103,116.055 L114.816,158.458 C114.729,158.632 114.553,158.733 114.371,158.733 L114.371,158.733 L114.371,158.733 Z" id="Shape" fill="#88422C"></path>
                        <path d="M120.244,242.133 C120.224,242.133 120.204,242.133 120.183,242.13 C119.91,242.099 119.716,241.85 119.749,241.574 L135.162,115.771 C135.196,115.498 135.443,115.303 135.718,115.336 C135.99,115.37 136.185,115.619 136.152,115.892 L120.738,241.697 C120.708,241.949 120.493,242.133 120.244,242.133 L120.244,242.133 L120.244,242.133 Z" id="Shape" fill="#88422C"></path>
                        <path d="M122.967,158.597 C122.843,158.597 122.717,158.55 122.62,158.457 C122.423,158.265 122.417,157.949 122.608,157.751 L166.575,112.356 C166.766,112.159 167.083,112.153 167.28,112.345 C167.477,112.536 167.482,112.852 167.292,113.05 L123.325,158.444 C123.228,158.546 123.097,158.597 122.967,158.597 L122.967,158.597 L122.967,158.597 Z" id="Shape" fill="#88422C"></path>
                        <path d="M127.951,241.412 C127.904,241.412 127.855,241.404 127.806,241.389 C127.543,241.309 127.394,241.032 127.474,240.769 L166.13,112.673 C166.21,112.409 166.487,112.261 166.751,112.34 C167.016,112.419 167.163,112.697 167.085,112.961 L128.427,241.056 C128.363,241.271 128.166,241.412 127.951,241.412 L127.951,241.412 L127.951,241.412 Z" id="Shape" fill="#88422C"></path>
                        <rect id="Rectangle-path" fill="#F1D781" x="102" y="240" width="26.483" height="24.915"></rect>
                        <rect id="Rectangle-path" fill="#C05631" x="102" y="240" width="26.483" height="4.229"></rect>
                        <rect id="Rectangle-path" fill="#BAA054" x="77" y="240" width="25.676" height="24.915"></rect>
                        <rect id="Rectangle-path" fill="#A1412A" x="77" y="240" width="25.676" height="4.229"></rect>
                        <path d="M124.25,157.724 L103.146,157.724 L82.045,157.724 L79.731,160.056 L82.045,162.388 L103.146,162.388 L124.25,162.388 L126.562,160.056 L124.25,157.724 L124.25,157.724 Z" id="Shape" fill="#6D3527"></path>
                        <path d="M124.25,157.724 L103.146,157.724 L82.045,157.724 L79.731,160.056 L103.146,160.056 L126.562,160.056 L124.25,157.724 L124.25,157.724 Z" id="Shape" fill="#974A2E"></path>
                    </g>
                </g>
            </g>
            <g id="arrow" transform="translate(103.000000, 65.000000) rotate(180.000000) translate(-103.000000, -65.000000) translate(92.000000, 56.000000)" fill="#EA8457" sketch:type="MSShapeGroup">
                <path d="M0.199375,2.315625 L0.323125,2.5125 L9.673125,17.184375 C9.989375,17.68125 10.46375,17.990625 10.993125,17.990625 C11.5225,17.990625 11.996875,17.671875 12.313125,17.184375 L21.65625,2.540625 L21.814375,2.296875 C21.93125,2.0625 22,1.78125 22,1.48125 C22,0.665625001 21.49125,-5.32907052e-15 20.85875,-5.32907052e-15 L20.85875,-5.32907052e-15 L1.14125,-5.32907052e-15 C0.50875,-5.32907052e-15 0,0.665625001 0,1.48125 C0,1.790625 0.075625,2.08125 0.199375,2.315625 L0.199375,2.315625 L0.199375,2.315625 Z" id="Shape"></path>
            </g>
        </g>
    </g>
</svg>